<?xml version="1.0" encoding="utf-8" standalone="no"?>
<!DOCTYPE svg PUBLIC "-//W3C//DTD SVG 1.1//EN"
  "http://www.w3.org/Graphics/SVG/1.1/DTD/svg11.dtd">
<svg xmlns:xlink="http://www.w3.org/1999/xlink" width="720pt" height="576pt" viewBox="0 0 720 576" xmlns="http://www.w3.org/2000/svg" version="1.1">
 <metadata>
  <rdf:RDF xmlns:dc="http://purl.org/dc/elements/1.1/" xmlns:cc="http://creativecommons.org/ns#" xmlns:rdf="http://www.w3.org/1999/02/22-rdf-syntax-ns#">
   <cc:Work>
    <dc:type rdf:resource="http://purl.org/dc/dcmitype/StillImage"/>
    <dc:date>2024-09-25T12:05:47.041905</dc:date>
    <dc:format>image/svg+xml</dc:format>
    <dc:creator>
     <cc:Agent>
      <dc:title>Matplotlib v3.8.0, https://matplotlib.org/</dc:title>
     </cc:Agent>
    </dc:creator>
   </cc:Work>
  </rdf:RDF>
 </metadata>
 <defs>
  <style type="text/css">*{stroke-linejoin: round; stroke-linecap: butt}</style>
 </defs>
 <g id="figure_1">
  <g id="patch_1">
   <path d="M 0 576 
L 720 576 
L 720 0 
L 0 0 
z
" style="fill: #ffffff"/>
  </g>
  <g id="axes_1">
   <g id="patch_2">
    <path d="M 58.196 182.802667 
L 709.2 182.802667 
L 709.2 39.024 
L 58.196 39.024 
z
" style="fill: #ffffff"/>
   </g>
   <g id="matplotlib.axis_1">
    <g id="xtick_1">
     <g id="line2d_1">
      <path d="M 58.196 182.802667 
L 58.196 39.024 
" clip-path="url(#pdbd78366d9)" style="fill: none; stroke-dasharray: 0.8,1.32; stroke-dashoffset: 0; stroke: #b0b0b0; stroke-width: 0.8"/>
     </g>
     <g id="line2d_2">
      <defs>
       <path id="meed2999c8b" d="M 0 0 
L 0 3.5 
" style="stroke: #000000; stroke-width: 0.8"/>
      </defs>
      <g>
       <use xlink:href="#meed2999c8b" x="58.196" y="182.802667" style="stroke: #000000; stroke-width: 0.8"/>
      </g>
     </g>
     <g id="text_1">
      <!-- 0 -->
      <g transform="translate(55.01475 197.401104) scale(0.1 -0.1)">
       <defs>
        <path id="DejaVuSans-30" d="M 2034 4250 
Q 1547 4250 1301 3770 
Q 1056 3291 1056 2328 
Q 1056 1369 1301 889 
Q 1547 409 2034 409 
Q 2525 409 2770 889 
Q 3016 1369 3016 2328 
Q 3016 3291 2770 3770 
Q 2525 4250 2034 4250 
z
M 2034 4750 
Q 2819 4750 3233 4129 
Q 3647 3509 3647 2328 
Q 3647 1150 3233 529 
Q 2819 -91 2034 -91 
Q 1250 -91 836 529 
Q 422 1150 422 2328 
Q 422 3509 836 4129 
Q 1250 4750 2034 4750 
z
" transform="scale(0.015625)"/>
       </defs>
       <use xlink:href="#DejaVuSans-30"/>
      </g>
     </g>
    </g>
    <g id="xtick_2">
     <g id="line2d_3">
      <path d="M 131.219444 182.802667 
L 131.219444 39.024 
" clip-path="url(#pdbd78366d9)" style="fill: none; stroke-dasharray: 0.8,1.32; stroke-dashoffset: 0; stroke: #b0b0b0; stroke-width: 0.8"/>
     </g>
     <g id="line2d_4">
      <g>
       <use xlink:href="#meed2999c8b" x="131.219444" y="182.802667" style="stroke: #000000; stroke-width: 0.8"/>
      </g>
     </g>
     <g id="text_2">
      <!-- 10 -->
      <g transform="translate(124.856944 197.401104) scale(0.1 -0.1)">
       <defs>
        <path id="DejaVuSans-31" d="M 794 531 
L 1825 531 
L 1825 4091 
L 703 3866 
L 703 4441 
L 1819 4666 
L 2450 4666 
L 2450 531 
L 3481 531 
L 3481 0 
L 794 0 
L 794 531 
z
" transform="scale(0.015625)"/>
       </defs>
       <use xlink:href="#DejaVuSans-31"/>
       <use xlink:href="#DejaVuSans-30" x="63.623047"/>
      </g>
     </g>
    </g>
    <g id="xtick_3">
     <g id="line2d_5">
      <path d="M 204.242887 182.802667 
L 204.242887 39.024 
" clip-path="url(#pdbd78366d9)" style="fill: none; stroke-dasharray: 0.8,1.32; stroke-dashoffset: 0; stroke: #b0b0b0; stroke-width: 0.8"/>
     </g>
     <g id="line2d_6">
      <g>
       <use xlink:href="#meed2999c8b" x="204.242887" y="182.802667" style="stroke: #000000; stroke-width: 0.8"/>
      </g>
     </g>
     <g id="text_3">
      <!-- 20 -->
      <g transform="translate(197.880387 197.401104) scale(0.1 -0.1)">
       <defs>
        <path id="DejaVuSans-32" d="M 1228 531 
L 3431 531 
L 3431 0 
L 469 0 
L 469 531 
Q 828 903 1448 1529 
Q 2069 2156 2228 2338 
Q 2531 2678 2651 2914 
Q 2772 3150 2772 3378 
Q 2772 3750 2511 3984 
Q 2250 4219 1831 4219 
Q 1534 4219 1204 4116 
Q 875 4013 500 3803 
L 500 4441 
Q 881 4594 1212 4672 
Q 1544 4750 1819 4750 
Q 2544 4750 2975 4387 
Q 3406 4025 3406 3419 
Q 3406 3131 3298 2873 
Q 3191 2616 2906 2266 
Q 2828 2175 2409 1742 
Q 1991 1309 1228 531 
z
" transform="scale(0.015625)"/>
       </defs>
       <use xlink:href="#DejaVuSans-32"/>
       <use xlink:href="#DejaVuSans-30" x="63.623047"/>
      </g>
     </g>
    </g>
    <g id="xtick_4">
     <g id="line2d_7">
      <path d="M 277.266331 182.802667 
L 277.266331 39.024 
" clip-path="url(#pdbd78366d9)" style="fill: none; stroke-dasharray: 0.8,1.32; stroke-dashoffset: 0; stroke: #b0b0b0; stroke-width: 0.8"/>
     </g>
     <g id="line2d_8">
      <g>
       <use xlink:href="#meed2999c8b" x="277.266331" y="182.802667" style="stroke: #000000; stroke-width: 0.8"/>
      </g>
     </g>
     <g id="text_4">
      <!-- 30 -->
      <g transform="translate(270.903831 197.401104) scale(0.1 -0.1)">
       <defs>
        <path id="DejaVuSans-33" d="M 2597 2516 
Q 3050 2419 3304 2112 
Q 3559 1806 3559 1356 
Q 3559 666 3084 287 
Q 2609 -91 1734 -91 
Q 1441 -91 1130 -33 
Q 819 25 488 141 
L 488 750 
Q 750 597 1062 519 
Q 1375 441 1716 441 
Q 2309 441 2620 675 
Q 2931 909 2931 1356 
Q 2931 1769 2642 2001 
Q 2353 2234 1838 2234 
L 1294 2234 
L 1294 2753 
L 1863 2753 
Q 2328 2753 2575 2939 
Q 2822 3125 2822 3475 
Q 2822 3834 2567 4026 
Q 2313 4219 1838 4219 
Q 1578 4219 1281 4162 
Q 984 4106 628 3988 
L 628 4550 
Q 988 4650 1302 4700 
Q 1616 4750 1894 4750 
Q 2613 4750 3031 4423 
Q 3450 4097 3450 3541 
Q 3450 3153 3228 2886 
Q 3006 2619 2597 2516 
z
" transform="scale(0.015625)"/>
       </defs>
       <use xlink:href="#DejaVuSans-33"/>
       <use xlink:href="#DejaVuSans-30" x="63.623047"/>
      </g>
     </g>
    </g>
    <g id="xtick_5">
     <g id="line2d_9">
      <path d="M 350.289775 182.802667 
L 350.289775 39.024 
" clip-path="url(#pdbd78366d9)" style="fill: none; stroke-dasharray: 0.8,1.32; stroke-dashoffset: 0; stroke: #b0b0b0; stroke-width: 0.8"/>
     </g>
     <g id="line2d_10">
      <g>
       <use xlink:href="#meed2999c8b" x="350.289775" y="182.802667" style="stroke: #000000; stroke-width: 0.8"/>
      </g>
     </g>
     <g id="text_5">
      <!-- 40 -->
      <g transform="translate(343.927275 197.401104) scale(0.1 -0.1)">
       <defs>
        <path id="DejaVuSans-34" d="M 2419 4116 
L 825 1625 
L 2419 1625 
L 2419 4116 
z
M 2253 4666 
L 3047 4666 
L 3047 1625 
L 3713 1625 
L 3713 1100 
L 3047 1100 
L 3047 0 
L 2419 0 
L 2419 1100 
L 313 1100 
L 313 1709 
L 2253 4666 
z
" transform="scale(0.015625)"/>
       </defs>
       <use xlink:href="#DejaVuSans-34"/>
       <use xlink:href="#DejaVuSans-30" x="63.623047"/>
      </g>
     </g>
    </g>
    <g id="xtick_6">
     <g id="line2d_11">
      <path d="M 423.313218 182.802667 
L 423.313218 39.024 
" clip-path="url(#pdbd78366d9)" style="fill: none; stroke-dasharray: 0.8,1.32; stroke-dashoffset: 0; stroke: #b0b0b0; stroke-width: 0.8"/>
     </g>
     <g id="line2d_12">
      <g>
       <use xlink:href="#meed2999c8b" x="423.313218" y="182.802667" style="stroke: #000000; stroke-width: 0.8"/>
      </g>
     </g>
     <g id="text_6">
      <!-- 50 -->
      <g transform="translate(416.950718 197.401104) scale(0.1 -0.1)">
       <defs>
        <path id="DejaVuSans-35" d="M 691 4666 
L 3169 4666 
L 3169 4134 
L 1269 4134 
L 1269 2991 
Q 1406 3038 1543 3061 
Q 1681 3084 1819 3084 
Q 2600 3084 3056 2656 
Q 3513 2228 3513 1497 
Q 3513 744 3044 326 
Q 2575 -91 1722 -91 
Q 1428 -91 1123 -41 
Q 819 9 494 109 
L 494 744 
Q 775 591 1075 516 
Q 1375 441 1709 441 
Q 2250 441 2565 725 
Q 2881 1009 2881 1497 
Q 2881 1984 2565 2268 
Q 2250 2553 1709 2553 
Q 1456 2553 1204 2497 
Q 953 2441 691 2322 
L 691 4666 
z
" transform="scale(0.015625)"/>
       </defs>
       <use xlink:href="#DejaVuSans-35"/>
       <use xlink:href="#DejaVuSans-30" x="63.623047"/>
      </g>
     </g>
    </g>
    <g id="xtick_7">
     <g id="line2d_13">
      <path d="M 496.336662 182.802667 
L 496.336662 39.024 
" clip-path="url(#pdbd78366d9)" style="fill: none; stroke-dasharray: 0.8,1.32; stroke-dashoffset: 0; stroke: #b0b0b0; stroke-width: 0.8"/>
     </g>
     <g id="line2d_14">
      <g>
       <use xlink:href="#meed2999c8b" x="496.336662" y="182.802667" style="stroke: #000000; stroke-width: 0.8"/>
      </g>
     </g>
     <g id="text_7">
      <!-- 60 -->
      <g transform="translate(489.974162 197.401104) scale(0.1 -0.1)">
       <defs>
        <path id="DejaVuSans-36" d="M 2113 2584 
Q 1688 2584 1439 2293 
Q 1191 2003 1191 1497 
Q 1191 994 1439 701 
Q 1688 409 2113 409 
Q 2538 409 2786 701 
Q 3034 994 3034 1497 
Q 3034 2003 2786 2293 
Q 2538 2584 2113 2584 
z
M 3366 4563 
L 3366 3988 
Q 3128 4100 2886 4159 
Q 2644 4219 2406 4219 
Q 1781 4219 1451 3797 
Q 1122 3375 1075 2522 
Q 1259 2794 1537 2939 
Q 1816 3084 2150 3084 
Q 2853 3084 3261 2657 
Q 3669 2231 3669 1497 
Q 3669 778 3244 343 
Q 2819 -91 2113 -91 
Q 1303 -91 875 529 
Q 447 1150 447 2328 
Q 447 3434 972 4092 
Q 1497 4750 2381 4750 
Q 2619 4750 2861 4703 
Q 3103 4656 3366 4563 
z
" transform="scale(0.015625)"/>
       </defs>
       <use xlink:href="#DejaVuSans-36"/>
       <use xlink:href="#DejaVuSans-30" x="63.623047"/>
      </g>
     </g>
    </g>
    <g id="xtick_8">
     <g id="line2d_15">
      <path d="M 569.360105 182.802667 
L 569.360105 39.024 
" clip-path="url(#pdbd78366d9)" style="fill: none; stroke-dasharray: 0.8,1.32; stroke-dashoffset: 0; stroke: #b0b0b0; stroke-width: 0.8"/>
     </g>
     <g id="line2d_16">
      <g>
       <use xlink:href="#meed2999c8b" x="569.360105" y="182.802667" style="stroke: #000000; stroke-width: 0.8"/>
      </g>
     </g>
     <g id="text_8">
      <!-- 70 -->
      <g transform="translate(562.997605 197.401104) scale(0.1 -0.1)">
       <defs>
        <path id="DejaVuSans-37" d="M 525 4666 
L 3525 4666 
L 3525 4397 
L 1831 0 
L 1172 0 
L 2766 4134 
L 525 4134 
L 525 4666 
z
" transform="scale(0.015625)"/>
       </defs>
       <use xlink:href="#DejaVuSans-37"/>
       <use xlink:href="#DejaVuSans-30" x="63.623047"/>
      </g>
     </g>
    </g>
    <g id="xtick_9">
     <g id="line2d_17">
      <path d="M 642.383549 182.802667 
L 642.383549 39.024 
" clip-path="url(#pdbd78366d9)" style="fill: none; stroke-dasharray: 0.8,1.32; stroke-dashoffset: 0; stroke: #b0b0b0; stroke-width: 0.8"/>
     </g>
     <g id="line2d_18">
      <g>
       <use xlink:href="#meed2999c8b" x="642.383549" y="182.802667" style="stroke: #000000; stroke-width: 0.8"/>
      </g>
     </g>
     <g id="text_9">
      <!-- 80 -->
      <g transform="translate(636.021049 197.401104) scale(0.1 -0.1)">
       <defs>
        <path id="DejaVuSans-38" d="M 2034 2216 
Q 1584 2216 1326 1975 
Q 1069 1734 1069 1313 
Q 1069 891 1326 650 
Q 1584 409 2034 409 
Q 2484 409 2743 651 
Q 3003 894 3003 1313 
Q 3003 1734 2745 1975 
Q 2488 2216 2034 2216 
z
M 1403 2484 
Q 997 2584 770 2862 
Q 544 3141 544 3541 
Q 544 4100 942 4425 
Q 1341 4750 2034 4750 
Q 2731 4750 3128 4425 
Q 3525 4100 3525 3541 
Q 3525 3141 3298 2862 
Q 3072 2584 2669 2484 
Q 3125 2378 3379 2068 
Q 3634 1759 3634 1313 
Q 3634 634 3220 271 
Q 2806 -91 2034 -91 
Q 1263 -91 848 271 
Q 434 634 434 1313 
Q 434 1759 690 2068 
Q 947 2378 1403 2484 
z
M 1172 3481 
Q 1172 3119 1398 2916 
Q 1625 2713 2034 2713 
Q 2441 2713 2670 2916 
Q 2900 3119 2900 3481 
Q 2900 3844 2670 4047 
Q 2441 4250 2034 4250 
Q 1625 4250 1398 4047 
Q 1172 3844 1172 3481 
z
" transform="scale(0.015625)"/>
       </defs>
       <use xlink:href="#DejaVuSans-38"/>
       <use xlink:href="#DejaVuSans-30" x="63.623047"/>
      </g>
     </g>
    </g>
   </g>
   <g id="matplotlib.axis_2">
    <g id="ytick_1">
     <g id="line2d_19">
      <path d="M 58.196 182.802667 
L 709.2 182.802667 
" clip-path="url(#pdbd78366d9)" style="fill: none; stroke-dasharray: 0.8,1.32; stroke-dashoffset: 0; stroke: #b0b0b0; stroke-width: 0.8"/>
     </g>
     <g id="line2d_20">
      <defs>
       <path id="m820305a239" d="M 0 0 
L -3.5 0 
" style="stroke: #000000; stroke-width: 0.8"/>
      </defs>
      <g>
       <use xlink:href="#m820305a239" x="58.196" y="182.802667" style="stroke: #000000; stroke-width: 0.8"/>
      </g>
     </g>
     <g id="text_10">
      <!-- 0.0 -->
      <g transform="translate(35.292875 186.601885) scale(0.1 -0.1)">
       <defs>
        <path id="DejaVuSans-2e" d="M 684 794 
L 1344 794 
L 1344 0 
L 684 0 
L 684 794 
z
" transform="scale(0.015625)"/>
       </defs>
       <use xlink:href="#DejaVuSans-30"/>
       <use xlink:href="#DejaVuSans-2e" x="63.623047"/>
       <use xlink:href="#DejaVuSans-30" x="95.410156"/>
      </g>
     </g>
    </g>
    <g id="ytick_2">
     <g id="line2d_21">
      <path d="M 58.196 154.046933 
L 709.2 154.046933 
" clip-path="url(#pdbd78366d9)" style="fill: none; stroke-dasharray: 0.8,1.32; stroke-dashoffset: 0; stroke: #b0b0b0; stroke-width: 0.8"/>
     </g>
     <g id="line2d_22">
      <g>
       <use xlink:href="#m820305a239" x="58.196" y="154.046933" style="stroke: #000000; stroke-width: 0.8"/>
      </g>
     </g>
     <g id="text_11">
      <!-- 0.2 -->
      <g transform="translate(35.292875 157.846152) scale(0.1 -0.1)">
       <use xlink:href="#DejaVuSans-30"/>
       <use xlink:href="#DejaVuSans-2e" x="63.623047"/>
       <use xlink:href="#DejaVuSans-32" x="95.410156"/>
      </g>
     </g>
    </g>
    <g id="ytick_3">
     <g id="line2d_23">
      <path d="M 58.196 125.2912 
L 709.2 125.2912 
" clip-path="url(#pdbd78366d9)" style="fill: none; stroke-dasharray: 0.8,1.32; stroke-dashoffset: 0; stroke: #b0b0b0; stroke-width: 0.8"/>
     </g>
     <g id="line2d_24">
      <g>
       <use xlink:href="#m820305a239" x="58.196" y="125.2912" style="stroke: #000000; stroke-width: 0.8"/>
      </g>
     </g>
     <g id="text_12">
      <!-- 0.4 -->
      <g transform="translate(35.292875 129.090419) scale(0.1 -0.1)">
       <use xlink:href="#DejaVuSans-30"/>
       <use xlink:href="#DejaVuSans-2e" x="63.623047"/>
       <use xlink:href="#DejaVuSans-34" x="95.410156"/>
      </g>
     </g>
    </g>
    <g id="ytick_4">
     <g id="line2d_25">
      <path d="M 58.196 96.535467 
L 709.2 96.535467 
" clip-path="url(#pdbd78366d9)" style="fill: none; stroke-dasharray: 0.8,1.32; stroke-dashoffset: 0; stroke: #b0b0b0; stroke-width: 0.8"/>
     </g>
     <g id="line2d_26">
      <g>
       <use xlink:href="#m820305a239" x="58.196" y="96.535467" style="stroke: #000000; stroke-width: 0.8"/>
      </g>
     </g>
     <g id="text_13">
      <!-- 0.6 -->
      <g transform="translate(35.292875 100.334685) scale(0.1 -0.1)">
       <use xlink:href="#DejaVuSans-30"/>
       <use xlink:href="#DejaVuSans-2e" x="63.623047"/>
       <use xlink:href="#DejaVuSans-36" x="95.410156"/>
      </g>
     </g>
    </g>
    <g id="ytick_5">
     <g id="line2d_27">
      <path d="M 58.196 67.779733 
L 709.2 67.779733 
" clip-path="url(#pdbd78366d9)" style="fill: none; stroke-dasharray: 0.8,1.32; stroke-dashoffset: 0; stroke: #b0b0b0; stroke-width: 0.8"/>
     </g>
     <g id="line2d_28">
      <g>
       <use xlink:href="#m820305a239" x="58.196" y="67.779733" style="stroke: #000000; stroke-width: 0.8"/>
      </g>
     </g>
     <g id="text_14">
      <!-- 0.8 -->
      <g transform="translate(35.292875 71.578952) scale(0.1 -0.1)">
       <use xlink:href="#DejaVuSans-30"/>
       <use xlink:href="#DejaVuSans-2e" x="63.623047"/>
       <use xlink:href="#DejaVuSans-38" x="95.410156"/>
      </g>
     </g>
    </g>
    <g id="ytick_6">
     <g id="line2d_29">
      <path d="M 58.196 39.024 
L 709.2 39.024 
" clip-path="url(#pdbd78366d9)" style="fill: none; stroke-dasharray: 0.8,1.32; stroke-dashoffset: 0; stroke: #b0b0b0; stroke-width: 0.8"/>
     </g>
     <g id="line2d_30">
      <g>
       <use xlink:href="#m820305a239" x="58.196" y="39.024" style="stroke: #000000; stroke-width: 0.8"/>
      </g>
     </g>
     <g id="text_15">
      <!-- 1.0 -->
      <g transform="translate(35.292875 42.823219) scale(0.1 -0.1)">
       <use xlink:href="#DejaVuSans-31"/>
       <use xlink:href="#DejaVuSans-2e" x="63.623047"/>
       <use xlink:href="#DejaVuSans-30" x="95.410156"/>
      </g>
     </g>
    </g>
    <g id="text_16">
     <!-- Local thrust ($C_{LT}$) [-] -->
     <g transform="translate(29.213188 161.013333) rotate(-90) scale(0.1 -0.1)">
      <defs>
       <path id="DejaVuSans-4c" d="M 628 4666 
L 1259 4666 
L 1259 531 
L 3531 531 
L 3531 0 
L 628 0 
L 628 4666 
z
" transform="scale(0.015625)"/>
       <path id="DejaVuSans-6f" d="M 1959 3097 
Q 1497 3097 1228 2736 
Q 959 2375 959 1747 
Q 959 1119 1226 758 
Q 1494 397 1959 397 
Q 2419 397 2687 759 
Q 2956 1122 2956 1747 
Q 2956 2369 2687 2733 
Q 2419 3097 1959 3097 
z
M 1959 3584 
Q 2709 3584 3137 3096 
Q 3566 2609 3566 1747 
Q 3566 888 3137 398 
Q 2709 -91 1959 -91 
Q 1206 -91 779 398 
Q 353 888 353 1747 
Q 353 2609 779 3096 
Q 1206 3584 1959 3584 
z
" transform="scale(0.015625)"/>
       <path id="DejaVuSans-63" d="M 3122 3366 
L 3122 2828 
Q 2878 2963 2633 3030 
Q 2388 3097 2138 3097 
Q 1578 3097 1268 2742 
Q 959 2388 959 1747 
Q 959 1106 1268 751 
Q 1578 397 2138 397 
Q 2388 397 2633 464 
Q 2878 531 3122 666 
L 3122 134 
Q 2881 22 2623 -34 
Q 2366 -91 2075 -91 
Q 1284 -91 818 406 
Q 353 903 353 1747 
Q 353 2603 823 3093 
Q 1294 3584 2113 3584 
Q 2378 3584 2631 3529 
Q 2884 3475 3122 3366 
z
" transform="scale(0.015625)"/>
       <path id="DejaVuSans-61" d="M 2194 1759 
Q 1497 1759 1228 1600 
Q 959 1441 959 1056 
Q 959 750 1161 570 
Q 1363 391 1709 391 
Q 2188 391 2477 730 
Q 2766 1069 2766 1631 
L 2766 1759 
L 2194 1759 
z
M 3341 1997 
L 3341 0 
L 2766 0 
L 2766 531 
Q 2569 213 2275 61 
Q 1981 -91 1556 -91 
Q 1019 -91 701 211 
Q 384 513 384 1019 
Q 384 1609 779 1909 
Q 1175 2209 1959 2209 
L 2766 2209 
L 2766 2266 
Q 2766 2663 2505 2880 
Q 2244 3097 1772 3097 
Q 1472 3097 1187 3025 
Q 903 2953 641 2809 
L 641 3341 
Q 956 3463 1253 3523 
Q 1550 3584 1831 3584 
Q 2591 3584 2966 3190 
Q 3341 2797 3341 1997 
z
" transform="scale(0.015625)"/>
       <path id="DejaVuSans-6c" d="M 603 4863 
L 1178 4863 
L 1178 0 
L 603 0 
L 603 4863 
z
" transform="scale(0.015625)"/>
       <path id="DejaVuSans-20" transform="scale(0.015625)"/>
       <path id="DejaVuSans-74" d="M 1172 4494 
L 1172 3500 
L 2356 3500 
L 2356 3053 
L 1172 3053 
L 1172 1153 
Q 1172 725 1289 603 
Q 1406 481 1766 481 
L 2356 481 
L 2356 0 
L 1766 0 
Q 1100 0 847 248 
Q 594 497 594 1153 
L 594 3053 
L 172 3053 
L 172 3500 
L 594 3500 
L 594 4494 
L 1172 4494 
z
" transform="scale(0.015625)"/>
       <path id="DejaVuSans-68" d="M 3513 2113 
L 3513 0 
L 2938 0 
L 2938 2094 
Q 2938 2591 2744 2837 
Q 2550 3084 2163 3084 
Q 1697 3084 1428 2787 
Q 1159 2491 1159 1978 
L 1159 0 
L 581 0 
L 581 4863 
L 1159 4863 
L 1159 2956 
Q 1366 3272 1645 3428 
Q 1925 3584 2291 3584 
Q 2894 3584 3203 3211 
Q 3513 2838 3513 2113 
z
" transform="scale(0.015625)"/>
       <path id="DejaVuSans-72" d="M 2631 2963 
Q 2534 3019 2420 3045 
Q 2306 3072 2169 3072 
Q 1681 3072 1420 2755 
Q 1159 2438 1159 1844 
L 1159 0 
L 581 0 
L 581 3500 
L 1159 3500 
L 1159 2956 
Q 1341 3275 1631 3429 
Q 1922 3584 2338 3584 
Q 2397 3584 2469 3576 
Q 2541 3569 2628 3553 
L 2631 2963 
z
" transform="scale(0.015625)"/>
       <path id="DejaVuSans-75" d="M 544 1381 
L 544 3500 
L 1119 3500 
L 1119 1403 
Q 1119 906 1312 657 
Q 1506 409 1894 409 
Q 2359 409 2629 706 
Q 2900 1003 2900 1516 
L 2900 3500 
L 3475 3500 
L 3475 0 
L 2900 0 
L 2900 538 
Q 2691 219 2414 64 
Q 2138 -91 1772 -91 
Q 1169 -91 856 284 
Q 544 659 544 1381 
z
M 1991 3584 
L 1991 3584 
z
" transform="scale(0.015625)"/>
       <path id="DejaVuSans-73" d="M 2834 3397 
L 2834 2853 
Q 2591 2978 2328 3040 
Q 2066 3103 1784 3103 
Q 1356 3103 1142 2972 
Q 928 2841 928 2578 
Q 928 2378 1081 2264 
Q 1234 2150 1697 2047 
L 1894 2003 
Q 2506 1872 2764 1633 
Q 3022 1394 3022 966 
Q 3022 478 2636 193 
Q 2250 -91 1575 -91 
Q 1294 -91 989 -36 
Q 684 19 347 128 
L 347 722 
Q 666 556 975 473 
Q 1284 391 1588 391 
Q 1994 391 2212 530 
Q 2431 669 2431 922 
Q 2431 1156 2273 1281 
Q 2116 1406 1581 1522 
L 1381 1569 
Q 847 1681 609 1914 
Q 372 2147 372 2553 
Q 372 3047 722 3315 
Q 1072 3584 1716 3584 
Q 2034 3584 2315 3537 
Q 2597 3491 2834 3397 
z
" transform="scale(0.015625)"/>
       <path id="DejaVuSans-28" d="M 1984 4856 
Q 1566 4138 1362 3434 
Q 1159 2731 1159 2009 
Q 1159 1288 1364 580 
Q 1569 -128 1984 -844 
L 1484 -844 
Q 1016 -109 783 600 
Q 550 1309 550 2009 
Q 550 2706 781 3412 
Q 1013 4119 1484 4856 
L 1984 4856 
z
" transform="scale(0.015625)"/>
       <path id="DejaVuSans-Oblique-43" d="M 4447 4306 
L 4319 3641 
Q 4019 3944 3683 4091 
Q 3347 4238 2956 4238 
Q 2422 4238 2017 3981 
Q 1613 3725 1319 3200 
Q 1131 2863 1032 2486 
Q 934 2109 934 1728 
Q 934 1091 1264 756 
Q 1594 422 2222 422 
Q 2656 422 3056 561 
Q 3456 700 3834 978 
L 3688 231 
Q 3316 72 2936 -9 
Q 2556 -91 2175 -91 
Q 1278 -91 773 396 
Q 269 884 269 1753 
Q 269 2309 461 2846 
Q 653 3384 1013 3828 
Q 1394 4300 1883 4525 
Q 2372 4750 3022 4750 
Q 3422 4750 3780 4639 
Q 4138 4528 4447 4306 
z
" transform="scale(0.015625)"/>
       <path id="DejaVuSans-Oblique-4c" d="M 1075 4666 
L 1709 4666 
L 909 525 
L 3181 525 
L 3078 0 
L 172 0 
L 1075 4666 
z
" transform="scale(0.015625)"/>
       <path id="DejaVuSans-Oblique-54" d="M 378 4666 
L 4325 4666 
L 4225 4134 
L 2559 4134 
L 1759 0 
L 1125 0 
L 1925 4134 
L 275 4134 
L 378 4666 
z
" transform="scale(0.015625)"/>
       <path id="DejaVuSans-29" d="M 513 4856 
L 1013 4856 
Q 1481 4119 1714 3412 
Q 1947 2706 1947 2009 
Q 1947 1309 1714 600 
Q 1481 -109 1013 -844 
L 513 -844 
Q 928 -128 1133 580 
Q 1338 1288 1338 2009 
Q 1338 2731 1133 3434 
Q 928 4138 513 4856 
z
" transform="scale(0.015625)"/>
       <path id="DejaVuSans-5b" d="M 550 4863 
L 1875 4863 
L 1875 4416 
L 1125 4416 
L 1125 -397 
L 1875 -397 
L 1875 -844 
L 550 -844 
L 550 4863 
z
" transform="scale(0.015625)"/>
       <path id="DejaVuSans-2d" d="M 313 2009 
L 1997 2009 
L 1997 1497 
L 313 1497 
L 313 2009 
z
" transform="scale(0.015625)"/>
       <path id="DejaVuSans-5d" d="M 1947 4863 
L 1947 -844 
L 622 -844 
L 622 -397 
L 1369 -397 
L 1369 4416 
L 622 4416 
L 622 4863 
L 1947 4863 
z
" transform="scale(0.015625)"/>
      </defs>
      <use xlink:href="#DejaVuSans-4c" transform="translate(0 0.015625)"/>
      <use xlink:href="#DejaVuSans-6f" transform="translate(55.712891 0.015625)"/>
      <use xlink:href="#DejaVuSans-63" transform="translate(116.894531 0.015625)"/>
      <use xlink:href="#DejaVuSans-61" transform="translate(171.875 0.015625)"/>
      <use xlink:href="#DejaVuSans-6c" transform="translate(233.154297 0.015625)"/>
      <use xlink:href="#DejaVuSans-20" transform="translate(260.9375 0.015625)"/>
      <use xlink:href="#DejaVuSans-74" transform="translate(292.724609 0.015625)"/>
      <use xlink:href="#DejaVuSans-68" transform="translate(331.933594 0.015625)"/>
      <use xlink:href="#DejaVuSans-72" transform="translate(395.3125 0.015625)"/>
      <use xlink:href="#DejaVuSans-75" transform="translate(436.425781 0.015625)"/>
      <use xlink:href="#DejaVuSans-73" transform="translate(499.804688 0.015625)"/>
      <use xlink:href="#DejaVuSans-74" transform="translate(551.904297 0.015625)"/>
      <use xlink:href="#DejaVuSans-20" transform="translate(591.113281 0.015625)"/>
      <use xlink:href="#DejaVuSans-28" transform="translate(622.900391 0.015625)"/>
      <use xlink:href="#DejaVuSans-Oblique-43" transform="translate(661.914062 0.015625)"/>
      <use xlink:href="#DejaVuSans-Oblique-4c" transform="translate(731.738281 -16.390625) scale(0.7)"/>
      <use xlink:href="#DejaVuSans-Oblique-54" transform="translate(770.737305 -16.390625) scale(0.7)"/>
      <use xlink:href="#DejaVuSans-29" transform="translate(816.230469 0.015625)"/>
      <use xlink:href="#DejaVuSans-20" transform="translate(855.244141 0.015625)"/>
      <use xlink:href="#DejaVuSans-5b" transform="translate(887.03125 0.015625)"/>
      <use xlink:href="#DejaVuSans-2d" transform="translate(926.044922 0.015625)"/>
      <use xlink:href="#DejaVuSans-5d" transform="translate(962.128906 0.015625)"/>
     </g>
    </g>
   </g>
   <g id="line2d_31">
    <path d="M 78.642564 100.558798 
L 94.79198 132.979403 
L 110.941395 144.612718 
L 127.09081 150.025745 
L 143.240226 152.779472 
L 159.389641 153.48868 
L 175.539057 151.74957 
L 191.688472 146.624475 
L 207.837888 136.992949 
L 223.987303 122.32711 
L 240.136718 104.282039 
L 256.286134 86.508144 
L 272.435549 64.461279 
L 288.584965 54.392566 
L 304.73438 54.367759 
L 320.883796 54.424719 
L 337.033211 54.475124 
L 353.182626 54.52102 
L 369.332042 54.563699 
L 385.481457 54.603126 
L 401.630873 54.639573 
L 417.780288 54.673637 
L 433.929703 54.706417 
L 450.079119 54.739663 
L 466.228534 54.776283 
L 482.37795 54.820863 
L 498.527365 54.881213 
L 514.676781 54.969475 
L 530.826196 55.104858 
L 546.975611 55.318598 
L 563.125027 55.663013 
L 579.274442 56.225294 
L 595.423858 57.151003 
L 611.573273 58.681715 
L 627.722688 61.218227 
L 643.872104 65.43326 
L 660.021519 72.485092 
L 676.170935 84.500889 
L 692.32035 99.986623 
L 708.469766 120.968901 
" clip-path="url(#pdbd78366d9)" style="fill: none; stroke: #1f77b4; stroke-width: 1.5; stroke-linecap: square"/>
   </g>
   <g id="line2d_32">
    <path d="M 58.196 54.999407 
L 709.2 54.999407 
" clip-path="url(#pdbd78366d9)" style="fill: none; stroke-dasharray: 5.55,2.4; stroke-dashoffset: 0; stroke: #000000; stroke-width: 1.5"/>
   </g>
   <g id="line2d_33">
    <path d="M 78.642564 100.558798 
L 94.79198 132.991146 
L 110.941395 144.692918 
L 127.09081 150.256484 
L 143.240226 153.362546 
L 159.389641 154.745815 
L 175.539057 154.112516 
L 191.688472 150.583277 
L 207.837888 142.990327 
L 223.987303 130.55483 
L 240.136718 114.400124 
L 256.286134 96.725751 
L 272.435549 70.903302 
L 288.584965 55.902537 
L 304.73438 54.389442 
L 320.883796 54.444185 
L 337.033211 54.492695 
L 353.182626 54.536936 
L 369.332042 54.578162 
L 385.481457 54.616363 
L 401.630873 54.651823 
L 417.780288 54.685145 
L 433.929703 54.717437 
L 450.079119 54.750466 
L 466.228534 54.787192 
L 482.37795 54.832363 
L 498.527365 54.894112 
L 514.676781 54.983986 
L 530.826196 55.120342 
L 546.975611 55.334305 
L 563.125027 55.678223 
L 579.274442 56.239482 
L 595.423858 57.163818 
L 611.573273 58.693014 
L 627.722688 61.228366 
L 643.872104 65.442546 
L 660.021519 72.493334 
L 676.170935 84.508003 
L 692.32035 99.992103 
L 708.469766 120.969959 
" clip-path="url(#pdbd78366d9)" style="fill: none; stroke: #ff7f0e; stroke-width: 1.5; stroke-linecap: square"/>
   </g>
   <g id="line2d_34">
    <path d="M 58.196 54.999407 
L 709.2 54.999407 
" clip-path="url(#pdbd78366d9)" style="fill: none; stroke-dasharray: 5.55,2.4; stroke-dashoffset: 0; stroke: #000000; stroke-width: 1.5"/>
   </g>
   <g id="line2d_35">
    <path d="M 78.642564 100.558798 
L 94.79198 133.002501 
L 110.941395 144.762982 
L 127.09081 150.456054 
L 143.240226 153.872269 
L 159.389641 155.866224 
L 175.539057 156.266057 
L 191.688472 154.27871 
L 207.837888 148.734548 
L 223.987303 138.660887 
L 240.136718 124.691831 
L 256.286134 107.410213 
L 272.435549 78.290873 
L 288.584965 59.001691 
L 304.73438 54.405902 
L 320.883796 54.459353 
L 337.033211 54.506785 
L 353.182626 54.550132 
L 369.332042 54.590652 
L 385.481457 54.628362 
L 401.630873 54.663586 
L 417.780288 54.697002 
L 433.929703 54.72989 
L 450.079119 54.764549 
L 466.228534 54.803849 
L 482.37795 54.851131 
L 498.527365 54.913593 
L 514.676781 55.002727 
L 530.826196 55.136989 
L 546.975611 55.347984 
L 563.125027 55.68914 
L 579.274442 56.248775 
L 595.423858 57.172244 
L 611.573273 58.700851 
L 627.722688 61.235414 
L 643.872104 65.448694 
L 660.021519 72.498502 
L 676.170935 84.512428 
L 692.32035 99.995512 
L 708.469766 120.970616 
" clip-path="url(#pdbd78366d9)" style="fill: none; stroke: #2ca02c; stroke-width: 1.5; stroke-linecap: square"/>
   </g>
   <g id="line2d_36">
    <path d="M 58.196 54.999407 
L 709.2 54.999407 
" clip-path="url(#pdbd78366d9)" style="fill: none; stroke-dasharray: 5.55,2.4; stroke-dashoffset: 0; stroke: #000000; stroke-width: 1.5"/>
   </g>
   <g id="patch_3">
    <path d="M 58.196 182.802667 
L 58.196 39.024 
" style="fill: none; stroke: #000000; stroke-width: 0.8; stroke-linejoin: miter; stroke-linecap: square"/>
   </g>
   <g id="patch_4">
    <path d="M 709.2 182.802667 
L 709.2 39.024 
" style="fill: none; stroke: #000000; stroke-width: 0.8; stroke-linejoin: miter; stroke-linecap: square"/>
   </g>
   <g id="patch_5">
    <path d="M 58.196 182.802667 
L 709.2 182.802667 
" style="fill: none; stroke: #000000; stroke-width: 0.8; stroke-linejoin: miter; stroke-linecap: square"/>
   </g>
   <g id="patch_6">
    <path d="M 58.196 39.024 
L 709.2 39.024 
" style="fill: none; stroke: #000000; stroke-width: 0.8; stroke-linejoin: miter; stroke-linecap: square"/>
   </g>
   <g id="legend_1">
    <g id="patch_7">
     <path d="M 619.434375 177.802667 
L 702.2 177.802667 
Q 704.2 177.802667 704.2 175.802667 
L 704.2 132.768292 
Q 704.2 130.768292 702.2 130.768292 
L 619.434375 130.768292 
Q 617.434375 130.768292 617.434375 132.768292 
L 617.434375 175.802667 
Q 617.434375 177.802667 619.434375 177.802667 
z
" style="fill: #ffffff; opacity: 0.8; stroke: #cccccc; stroke-linejoin: miter"/>
    </g>
    <g id="line2d_37">
     <path d="M 621.434375 138.866729 
L 631.434375 138.866729 
L 641.434375 138.866729 
" style="fill: none; stroke: #1f77b4; stroke-width: 1.5; stroke-linecap: square"/>
    </g>
    <g id="text_17">
     <!-- Design f 1 -->
     <g transform="translate(649.434375 142.366729) scale(0.1 -0.1)">
      <defs>
       <path id="DejaVuSans-44" d="M 1259 4147 
L 1259 519 
L 2022 519 
Q 2988 519 3436 956 
Q 3884 1394 3884 2338 
Q 3884 3275 3436 3711 
Q 2988 4147 2022 4147 
L 1259 4147 
z
M 628 4666 
L 1925 4666 
Q 3281 4666 3915 4102 
Q 4550 3538 4550 2338 
Q 4550 1131 3912 565 
Q 3275 0 1925 0 
L 628 0 
L 628 4666 
z
" transform="scale(0.015625)"/>
       <path id="DejaVuSans-65" d="M 3597 1894 
L 3597 1613 
L 953 1613 
Q 991 1019 1311 708 
Q 1631 397 2203 397 
Q 2534 397 2845 478 
Q 3156 559 3463 722 
L 3463 178 
Q 3153 47 2828 -22 
Q 2503 -91 2169 -91 
Q 1331 -91 842 396 
Q 353 884 353 1716 
Q 353 2575 817 3079 
Q 1281 3584 2069 3584 
Q 2775 3584 3186 3129 
Q 3597 2675 3597 1894 
z
M 3022 2063 
Q 3016 2534 2758 2815 
Q 2500 3097 2075 3097 
Q 1594 3097 1305 2825 
Q 1016 2553 972 2059 
L 3022 2063 
z
" transform="scale(0.015625)"/>
       <path id="DejaVuSans-69" d="M 603 3500 
L 1178 3500 
L 1178 0 
L 603 0 
L 603 3500 
z
M 603 4863 
L 1178 4863 
L 1178 4134 
L 603 4134 
L 603 4863 
z
" transform="scale(0.015625)"/>
       <path id="DejaVuSans-67" d="M 2906 1791 
Q 2906 2416 2648 2759 
Q 2391 3103 1925 3103 
Q 1463 3103 1205 2759 
Q 947 2416 947 1791 
Q 947 1169 1205 825 
Q 1463 481 1925 481 
Q 2391 481 2648 825 
Q 2906 1169 2906 1791 
z
M 3481 434 
Q 3481 -459 3084 -895 
Q 2688 -1331 1869 -1331 
Q 1566 -1331 1297 -1286 
Q 1028 -1241 775 -1147 
L 775 -588 
Q 1028 -725 1275 -790 
Q 1522 -856 1778 -856 
Q 2344 -856 2625 -561 
Q 2906 -266 2906 331 
L 2906 616 
Q 2728 306 2450 153 
Q 2172 0 1784 0 
Q 1141 0 747 490 
Q 353 981 353 1791 
Q 353 2603 747 3093 
Q 1141 3584 1784 3584 
Q 2172 3584 2450 3431 
Q 2728 3278 2906 2969 
L 2906 3500 
L 3481 3500 
L 3481 434 
z
" transform="scale(0.015625)"/>
       <path id="DejaVuSans-6e" d="M 3513 2113 
L 3513 0 
L 2938 0 
L 2938 2094 
Q 2938 2591 2744 2837 
Q 2550 3084 2163 3084 
Q 1697 3084 1428 2787 
Q 1159 2491 1159 1978 
L 1159 0 
L 581 0 
L 581 3500 
L 1159 3500 
L 1159 2956 
Q 1366 3272 1645 3428 
Q 1925 3584 2291 3584 
Q 2894 3584 3203 3211 
Q 3513 2838 3513 2113 
z
" transform="scale(0.015625)"/>
       <path id="DejaVuSans-66" d="M 2375 4863 
L 2375 4384 
L 1825 4384 
Q 1516 4384 1395 4259 
Q 1275 4134 1275 3809 
L 1275 3500 
L 2222 3500 
L 2222 3053 
L 1275 3053 
L 1275 0 
L 697 0 
L 697 3053 
L 147 3053 
L 147 3500 
L 697 3500 
L 697 3744 
Q 697 4328 969 4595 
Q 1241 4863 1831 4863 
L 2375 4863 
z
" transform="scale(0.015625)"/>
      </defs>
      <use xlink:href="#DejaVuSans-44"/>
      <use xlink:href="#DejaVuSans-65" x="77.001953"/>
      <use xlink:href="#DejaVuSans-73" x="138.525391"/>
      <use xlink:href="#DejaVuSans-69" x="190.625"/>
      <use xlink:href="#DejaVuSans-67" x="218.408203"/>
      <use xlink:href="#DejaVuSans-6e" x="281.884766"/>
      <use xlink:href="#DejaVuSans-20" x="345.263672"/>
      <use xlink:href="#DejaVuSans-66" x="377.050781"/>
      <use xlink:href="#DejaVuSans-20" x="412.255859"/>
      <use xlink:href="#DejaVuSans-31" x="444.042969"/>
     </g>
    </g>
    <g id="line2d_38">
     <path d="M 621.434375 153.544854 
L 631.434375 153.544854 
L 641.434375 153.544854 
" style="fill: none; stroke: #ff7f0e; stroke-width: 1.5; stroke-linecap: square"/>
    </g>
    <g id="text_18">
     <!-- Design f 2 -->
     <g transform="translate(649.434375 157.044854) scale(0.1 -0.1)">
      <use xlink:href="#DejaVuSans-44"/>
      <use xlink:href="#DejaVuSans-65" x="77.001953"/>
      <use xlink:href="#DejaVuSans-73" x="138.525391"/>
      <use xlink:href="#DejaVuSans-69" x="190.625"/>
      <use xlink:href="#DejaVuSans-67" x="218.408203"/>
      <use xlink:href="#DejaVuSans-6e" x="281.884766"/>
      <use xlink:href="#DejaVuSans-20" x="345.263672"/>
      <use xlink:href="#DejaVuSans-66" x="377.050781"/>
      <use xlink:href="#DejaVuSans-20" x="412.255859"/>
      <use xlink:href="#DejaVuSans-32" x="444.042969"/>
     </g>
    </g>
    <g id="line2d_39">
     <path d="M 621.434375 168.222979 
L 631.434375 168.222979 
L 641.434375 168.222979 
" style="fill: none; stroke: #2ca02c; stroke-width: 1.5; stroke-linecap: square"/>
    </g>
    <g id="text_19">
     <!-- Design f 3 -->
     <g transform="translate(649.434375 171.722979) scale(0.1 -0.1)">
      <use xlink:href="#DejaVuSans-44"/>
      <use xlink:href="#DejaVuSans-65" x="77.001953"/>
      <use xlink:href="#DejaVuSans-73" x="138.525391"/>
      <use xlink:href="#DejaVuSans-69" x="190.625"/>
      <use xlink:href="#DejaVuSans-67" x="218.408203"/>
      <use xlink:href="#DejaVuSans-6e" x="281.884766"/>
      <use xlink:href="#DejaVuSans-20" x="345.263672"/>
      <use xlink:href="#DejaVuSans-66" x="377.050781"/>
      <use xlink:href="#DejaVuSans-20" x="412.255859"/>
      <use xlink:href="#DejaVuSans-33" x="444.042969"/>
     </g>
    </g>
   </g>
  </g>
  <g id="axes_2">
   <g id="patch_8">
    <path d="M 58.196 358.421333 
L 709.2 358.421333 
L 709.2 214.642667 
L 58.196 214.642667 
z
" style="fill: #ffffff"/>
   </g>
   <g id="matplotlib.axis_3">
    <g id="xtick_10">
     <g id="line2d_40">
      <path d="M 58.196 358.421333 
L 58.196 214.642667 
" clip-path="url(#p6e55d259a5)" style="fill: none; stroke-dasharray: 0.8,1.32; stroke-dashoffset: 0; stroke: #b0b0b0; stroke-width: 0.8"/>
     </g>
     <g id="line2d_41">
      <g>
       <use xlink:href="#meed2999c8b" x="58.196" y="358.421333" style="stroke: #000000; stroke-width: 0.8"/>
      </g>
     </g>
     <g id="text_20">
      <!-- 0 -->
      <g transform="translate(55.01475 373.019771) scale(0.1 -0.1)">
       <use xlink:href="#DejaVuSans-30"/>
      </g>
     </g>
    </g>
    <g id="xtick_11">
     <g id="line2d_42">
      <path d="M 131.219444 358.421333 
L 131.219444 214.642667 
" clip-path="url(#p6e55d259a5)" style="fill: none; stroke-dasharray: 0.8,1.32; stroke-dashoffset: 0; stroke: #b0b0b0; stroke-width: 0.8"/>
     </g>
     <g id="line2d_43">
      <g>
       <use xlink:href="#meed2999c8b" x="131.219444" y="358.421333" style="stroke: #000000; stroke-width: 0.8"/>
      </g>
     </g>
     <g id="text_21">
      <!-- 10 -->
      <g transform="translate(124.856944 373.019771) scale(0.1 -0.1)">
       <use xlink:href="#DejaVuSans-31"/>
       <use xlink:href="#DejaVuSans-30" x="63.623047"/>
      </g>
     </g>
    </g>
    <g id="xtick_12">
     <g id="line2d_44">
      <path d="M 204.242887 358.421333 
L 204.242887 214.642667 
" clip-path="url(#p6e55d259a5)" style="fill: none; stroke-dasharray: 0.8,1.32; stroke-dashoffset: 0; stroke: #b0b0b0; stroke-width: 0.8"/>
     </g>
     <g id="line2d_45">
      <g>
       <use xlink:href="#meed2999c8b" x="204.242887" y="358.421333" style="stroke: #000000; stroke-width: 0.8"/>
      </g>
     </g>
     <g id="text_22">
      <!-- 20 -->
      <g transform="translate(197.880387 373.019771) scale(0.1 -0.1)">
       <use xlink:href="#DejaVuSans-32"/>
       <use xlink:href="#DejaVuSans-30" x="63.623047"/>
      </g>
     </g>
    </g>
    <g id="xtick_13">
     <g id="line2d_46">
      <path d="M 277.266331 358.421333 
L 277.266331 214.642667 
" clip-path="url(#p6e55d259a5)" style="fill: none; stroke-dasharray: 0.8,1.32; stroke-dashoffset: 0; stroke: #b0b0b0; stroke-width: 0.8"/>
     </g>
     <g id="line2d_47">
      <g>
       <use xlink:href="#meed2999c8b" x="277.266331" y="358.421333" style="stroke: #000000; stroke-width: 0.8"/>
      </g>
     </g>
     <g id="text_23">
      <!-- 30 -->
      <g transform="translate(270.903831 373.019771) scale(0.1 -0.1)">
       <use xlink:href="#DejaVuSans-33"/>
       <use xlink:href="#DejaVuSans-30" x="63.623047"/>
      </g>
     </g>
    </g>
    <g id="xtick_14">
     <g id="line2d_48">
      <path d="M 350.289775 358.421333 
L 350.289775 214.642667 
" clip-path="url(#p6e55d259a5)" style="fill: none; stroke-dasharray: 0.8,1.32; stroke-dashoffset: 0; stroke: #b0b0b0; stroke-width: 0.8"/>
     </g>
     <g id="line2d_49">
      <g>
       <use xlink:href="#meed2999c8b" x="350.289775" y="358.421333" style="stroke: #000000; stroke-width: 0.8"/>
      </g>
     </g>
     <g id="text_24">
      <!-- 40 -->
      <g transform="translate(343.927275 373.019771) scale(0.1 -0.1)">
       <use xlink:href="#DejaVuSans-34"/>
       <use xlink:href="#DejaVuSans-30" x="63.623047"/>
      </g>
     </g>
    </g>
    <g id="xtick_15">
     <g id="line2d_50">
      <path d="M 423.313218 358.421333 
L 423.313218 214.642667 
" clip-path="url(#p6e55d259a5)" style="fill: none; stroke-dasharray: 0.8,1.32; stroke-dashoffset: 0; stroke: #b0b0b0; stroke-width: 0.8"/>
     </g>
     <g id="line2d_51">
      <g>
       <use xlink:href="#meed2999c8b" x="423.313218" y="358.421333" style="stroke: #000000; stroke-width: 0.8"/>
      </g>
     </g>
     <g id="text_25">
      <!-- 50 -->
      <g transform="translate(416.950718 373.019771) scale(0.1 -0.1)">
       <use xlink:href="#DejaVuSans-35"/>
       <use xlink:href="#DejaVuSans-30" x="63.623047"/>
      </g>
     </g>
    </g>
    <g id="xtick_16">
     <g id="line2d_52">
      <path d="M 496.336662 358.421333 
L 496.336662 214.642667 
" clip-path="url(#p6e55d259a5)" style="fill: none; stroke-dasharray: 0.8,1.32; stroke-dashoffset: 0; stroke: #b0b0b0; stroke-width: 0.8"/>
     </g>
     <g id="line2d_53">
      <g>
       <use xlink:href="#meed2999c8b" x="496.336662" y="358.421333" style="stroke: #000000; stroke-width: 0.8"/>
      </g>
     </g>
     <g id="text_26">
      <!-- 60 -->
      <g transform="translate(489.974162 373.019771) scale(0.1 -0.1)">
       <use xlink:href="#DejaVuSans-36"/>
       <use xlink:href="#DejaVuSans-30" x="63.623047"/>
      </g>
     </g>
    </g>
    <g id="xtick_17">
     <g id="line2d_54">
      <path d="M 569.360105 358.421333 
L 569.360105 214.642667 
" clip-path="url(#p6e55d259a5)" style="fill: none; stroke-dasharray: 0.8,1.32; stroke-dashoffset: 0; stroke: #b0b0b0; stroke-width: 0.8"/>
     </g>
     <g id="line2d_55">
      <g>
       <use xlink:href="#meed2999c8b" x="569.360105" y="358.421333" style="stroke: #000000; stroke-width: 0.8"/>
      </g>
     </g>
     <g id="text_27">
      <!-- 70 -->
      <g transform="translate(562.997605 373.019771) scale(0.1 -0.1)">
       <use xlink:href="#DejaVuSans-37"/>
       <use xlink:href="#DejaVuSans-30" x="63.623047"/>
      </g>
     </g>
    </g>
    <g id="xtick_18">
     <g id="line2d_56">
      <path d="M 642.383549 358.421333 
L 642.383549 214.642667 
" clip-path="url(#p6e55d259a5)" style="fill: none; stroke-dasharray: 0.8,1.32; stroke-dashoffset: 0; stroke: #b0b0b0; stroke-width: 0.8"/>
     </g>
     <g id="line2d_57">
      <g>
       <use xlink:href="#meed2999c8b" x="642.383549" y="358.421333" style="stroke: #000000; stroke-width: 0.8"/>
      </g>
     </g>
     <g id="text_28">
      <!-- 80 -->
      <g transform="translate(636.021049 373.019771) scale(0.1 -0.1)">
       <use xlink:href="#DejaVuSans-38"/>
       <use xlink:href="#DejaVuSans-30" x="63.623047"/>
      </g>
     </g>
    </g>
   </g>
   <g id="matplotlib.axis_4">
    <g id="ytick_7">
     <g id="line2d_58">
      <path d="M 58.196 358.421333 
L 709.2 358.421333 
" clip-path="url(#p6e55d259a5)" style="fill: none; stroke-dasharray: 0.8,1.32; stroke-dashoffset: 0; stroke: #b0b0b0; stroke-width: 0.8"/>
     </g>
     <g id="line2d_59">
      <g>
       <use xlink:href="#m820305a239" x="58.196" y="358.421333" style="stroke: #000000; stroke-width: 0.8"/>
      </g>
     </g>
     <g id="text_29">
      <!-- −0.4 -->
      <g transform="translate(26.913188 362.220552) scale(0.1 -0.1)">
       <defs>
        <path id="DejaVuSans-2212" d="M 678 2272 
L 4684 2272 
L 4684 1741 
L 678 1741 
L 678 2272 
z
" transform="scale(0.015625)"/>
       </defs>
       <use xlink:href="#DejaVuSans-2212"/>
       <use xlink:href="#DejaVuSans-30" x="83.789062"/>
       <use xlink:href="#DejaVuSans-2e" x="147.412109"/>
       <use xlink:href="#DejaVuSans-34" x="179.199219"/>
      </g>
     </g>
    </g>
    <g id="ytick_8">
     <g id="line2d_60">
      <path d="M 58.196 329.6656 
L 709.2 329.6656 
" clip-path="url(#p6e55d259a5)" style="fill: none; stroke-dasharray: 0.8,1.32; stroke-dashoffset: 0; stroke: #b0b0b0; stroke-width: 0.8"/>
     </g>
     <g id="line2d_61">
      <g>
       <use xlink:href="#m820305a239" x="58.196" y="329.6656" style="stroke: #000000; stroke-width: 0.8"/>
      </g>
     </g>
     <g id="text_30">
      <!-- −0.2 -->
      <g transform="translate(26.913188 333.464819) scale(0.1 -0.1)">
       <use xlink:href="#DejaVuSans-2212"/>
       <use xlink:href="#DejaVuSans-30" x="83.789062"/>
       <use xlink:href="#DejaVuSans-2e" x="147.412109"/>
       <use xlink:href="#DejaVuSans-32" x="179.199219"/>
      </g>
     </g>
    </g>
    <g id="ytick_9">
     <g id="line2d_62">
      <path d="M 58.196 300.909867 
L 709.2 300.909867 
" clip-path="url(#p6e55d259a5)" style="fill: none; stroke-dasharray: 0.8,1.32; stroke-dashoffset: 0; stroke: #b0b0b0; stroke-width: 0.8"/>
     </g>
     <g id="line2d_63">
      <g>
       <use xlink:href="#m820305a239" x="58.196" y="300.909867" style="stroke: #000000; stroke-width: 0.8"/>
      </g>
     </g>
     <g id="text_31">
      <!-- 0.0 -->
      <g transform="translate(35.292875 304.709085) scale(0.1 -0.1)">
       <use xlink:href="#DejaVuSans-30"/>
       <use xlink:href="#DejaVuSans-2e" x="63.623047"/>
       <use xlink:href="#DejaVuSans-30" x="95.410156"/>
      </g>
     </g>
    </g>
    <g id="ytick_10">
     <g id="line2d_64">
      <path d="M 58.196 272.154133 
L 709.2 272.154133 
" clip-path="url(#p6e55d259a5)" style="fill: none; stroke-dasharray: 0.8,1.32; stroke-dashoffset: 0; stroke: #b0b0b0; stroke-width: 0.8"/>
     </g>
     <g id="line2d_65">
      <g>
       <use xlink:href="#m820305a239" x="58.196" y="272.154133" style="stroke: #000000; stroke-width: 0.8"/>
      </g>
     </g>
     <g id="text_32">
      <!-- 0.2 -->
      <g transform="translate(35.292875 275.953352) scale(0.1 -0.1)">
       <use xlink:href="#DejaVuSans-30"/>
       <use xlink:href="#DejaVuSans-2e" x="63.623047"/>
       <use xlink:href="#DejaVuSans-32" x="95.410156"/>
      </g>
     </g>
    </g>
    <g id="ytick_11">
     <g id="line2d_66">
      <path d="M 58.196 243.3984 
L 709.2 243.3984 
" clip-path="url(#p6e55d259a5)" style="fill: none; stroke-dasharray: 0.8,1.32; stroke-dashoffset: 0; stroke: #b0b0b0; stroke-width: 0.8"/>
     </g>
     <g id="line2d_67">
      <g>
       <use xlink:href="#m820305a239" x="58.196" y="243.3984" style="stroke: #000000; stroke-width: 0.8"/>
      </g>
     </g>
     <g id="text_33">
      <!-- 0.4 -->
      <g transform="translate(35.292875 247.197619) scale(0.1 -0.1)">
       <use xlink:href="#DejaVuSans-30"/>
       <use xlink:href="#DejaVuSans-2e" x="63.623047"/>
       <use xlink:href="#DejaVuSans-34" x="95.410156"/>
      </g>
     </g>
    </g>
    <g id="ytick_12">
     <g id="line2d_68">
      <path d="M 58.196 214.642667 
L 709.2 214.642667 
" clip-path="url(#p6e55d259a5)" style="fill: none; stroke-dasharray: 0.8,1.32; stroke-dashoffset: 0; stroke: #b0b0b0; stroke-width: 0.8"/>
     </g>
     <g id="line2d_69">
      <g>
       <use xlink:href="#m820305a239" x="58.196" y="214.642667" style="stroke: #000000; stroke-width: 0.8"/>
      </g>
     </g>
     <g id="text_34">
      <!-- 0.6 -->
      <g transform="translate(35.292875 218.441885) scale(0.1 -0.1)">
       <use xlink:href="#DejaVuSans-30"/>
       <use xlink:href="#DejaVuSans-2e" x="63.623047"/>
       <use xlink:href="#DejaVuSans-36" x="95.410156"/>
      </g>
     </g>
    </g>
    <g id="text_35">
     <!-- Local Power ($C_{LP}$) [-] -->
     <g transform="translate(20.8335 336.982) rotate(-90) scale(0.1 -0.1)">
      <defs>
       <path id="DejaVuSans-50" d="M 1259 4147 
L 1259 2394 
L 2053 2394 
Q 2494 2394 2734 2622 
Q 2975 2850 2975 3272 
Q 2975 3691 2734 3919 
Q 2494 4147 2053 4147 
L 1259 4147 
z
M 628 4666 
L 2053 4666 
Q 2838 4666 3239 4311 
Q 3641 3956 3641 3272 
Q 3641 2581 3239 2228 
Q 2838 1875 2053 1875 
L 1259 1875 
L 1259 0 
L 628 0 
L 628 4666 
z
" transform="scale(0.015625)"/>
       <path id="DejaVuSans-77" d="M 269 3500 
L 844 3500 
L 1563 769 
L 2278 3500 
L 2956 3500 
L 3675 769 
L 4391 3500 
L 4966 3500 
L 4050 0 
L 3372 0 
L 2619 2869 
L 1863 0 
L 1184 0 
L 269 3500 
z
" transform="scale(0.015625)"/>
       <path id="DejaVuSans-Oblique-50" d="M 1081 4666 
L 2541 4666 
Q 3178 4666 3512 4369 
Q 3847 4072 3847 3500 
Q 3847 2731 3353 2303 
Q 2859 1875 1966 1875 
L 1172 1875 
L 806 0 
L 172 0 
L 1081 4666 
z
M 1613 4147 
L 1275 2394 
L 2069 2394 
Q 2606 2394 2893 2669 
Q 3181 2944 3181 3456 
Q 3181 3784 2986 3965 
Q 2791 4147 2438 4147 
L 1613 4147 
z
" transform="scale(0.015625)"/>
      </defs>
      <use xlink:href="#DejaVuSans-4c" transform="translate(0 0.015625)"/>
      <use xlink:href="#DejaVuSans-6f" transform="translate(55.712891 0.015625)"/>
      <use xlink:href="#DejaVuSans-63" transform="translate(116.894531 0.015625)"/>
      <use xlink:href="#DejaVuSans-61" transform="translate(171.875 0.015625)"/>
      <use xlink:href="#DejaVuSans-6c" transform="translate(233.154297 0.015625)"/>
      <use xlink:href="#DejaVuSans-20" transform="translate(260.9375 0.015625)"/>
      <use xlink:href="#DejaVuSans-50" transform="translate(292.724609 0.015625)"/>
      <use xlink:href="#DejaVuSans-6f" transform="translate(353.027344 0.015625)"/>
      <use xlink:href="#DejaVuSans-77" transform="translate(414.208984 0.015625)"/>
      <use xlink:href="#DejaVuSans-65" transform="translate(495.996094 0.015625)"/>
      <use xlink:href="#DejaVuSans-72" transform="translate(557.519531 0.015625)"/>
      <use xlink:href="#DejaVuSans-20" transform="translate(598.632812 0.015625)"/>
      <use xlink:href="#DejaVuSans-28" transform="translate(630.419922 0.015625)"/>
      <use xlink:href="#DejaVuSans-Oblique-43" transform="translate(669.433594 0.015625)"/>
      <use xlink:href="#DejaVuSans-Oblique-4c" transform="translate(739.257812 -16.390625) scale(0.7)"/>
      <use xlink:href="#DejaVuSans-Oblique-50" transform="translate(778.256836 -16.390625) scale(0.7)"/>
      <use xlink:href="#DejaVuSans-29" transform="translate(823.203125 0.015625)"/>
      <use xlink:href="#DejaVuSans-20" transform="translate(862.216797 0.015625)"/>
      <use xlink:href="#DejaVuSans-5b" transform="translate(894.003906 0.015625)"/>
      <use xlink:href="#DejaVuSans-2d" transform="translate(933.017578 0.015625)"/>
      <use xlink:href="#DejaVuSans-5d" transform="translate(969.101562 0.015625)"/>
     </g>
    </g>
   </g>
   <g id="line2d_70">
    <path d="M 78.642564 307.481327 
L 94.79198 313.658015 
L 110.941395 320.661711 
L 127.09081 328.37299 
L 143.240226 334.914447 
L 159.389641 337.809739 
L 175.539057 334.186237 
L 191.688472 321.737604 
L 207.837888 300.20225 
L 223.987303 273.589842 
L 240.136718 250.596593 
L 256.286134 237.778382 
L 272.435549 229.424108 
L 288.584965 228.322734 
L 304.73438 228.494526 
L 320.883796 228.660731 
L 337.033211 228.816263 
L 353.182626 228.932737 
L 369.332042 228.989576 
L 385.481457 229.001017 
L 401.630873 228.982199 
L 417.780288 228.94882 
L 433.929703 228.914094 
L 450.079119 228.890227 
L 466.228534 228.882059 
L 482.37795 228.891542 
L 498.527365 228.8921 
L 514.676781 228.862542 
L 530.826196 228.811306 
L 546.975611 228.794085 
L 563.125027 228.877334 
L 579.274442 229.142816 
L 595.423858 229.646444 
L 611.573273 230.468004 
L 627.722688 231.852029 
L 643.872104 234.246098 
L 660.021519 238.277855 
L 676.170935 245.309668 
L 692.32035 257.679424 
L 708.469766 297.109773 
" clip-path="url(#p6e55d259a5)" style="fill: none; stroke: #1f77b4; stroke-width: 1.5; stroke-linecap: square"/>
   </g>
   <g id="line2d_71">
    <path d="M 58.196 215.707694 
L 709.2 215.707694 
" clip-path="url(#p6e55d259a5)" style="fill: none; stroke-dasharray: 5.55,2.4; stroke-dashoffset: 0; stroke: #000000; stroke-width: 1.5"/>
   </g>
   <g id="line2d_72">
    <path d="M 78.642564 307.481327 
L 94.79198 313.656277 
L 110.941395 320.734669 
L 127.09081 328.634972 
L 143.240226 335.617103 
L 159.389641 339.286862 
L 175.539057 336.769734 
L 191.688472 325.629356 
L 207.837888 305.340681 
L 223.987303 279.559136 
L 240.136718 256.706067 
L 256.286134 242.777349 
L 272.435549 230.792982 
L 288.584965 227.972547 
L 304.73438 228.10959 
L 320.883796 228.269261 
L 337.033211 228.418819 
L 353.182626 228.530448 
L 369.332042 228.583406 
L 385.481457 228.590148 
L 401.630873 228.563934 
L 417.780288 228.518404 
L 433.929703 228.464405 
L 450.079119 228.411014 
L 466.228534 228.357781 
L 482.37795 228.29455 
L 498.527365 228.170838 
L 514.676781 227.990857 
L 530.826196 227.814603 
L 546.975611 227.713113 
L 563.125027 227.760583 
L 579.274442 228.033699 
L 595.423858 228.581876 
L 611.573273 229.472314 
L 627.722688 230.905841 
L 643.872104 233.32986 
L 660.021519 237.41927 
L 676.170935 244.528425 
L 692.32035 257.004001 
L 708.469766 296.592317 
" clip-path="url(#p6e55d259a5)" style="fill: none; stroke: #ff7f0e; stroke-width: 1.5; stroke-linecap: square"/>
   </g>
   <g id="line2d_73">
    <path d="M 58.196 215.707694 
L 709.2 215.707694 
" clip-path="url(#p6e55d259a5)" style="fill: none; stroke-dasharray: 5.55,2.4; stroke-dashoffset: 0; stroke: #000000; stroke-width: 1.5"/>
   </g>
   <g id="line2d_74">
    <path d="M 78.642564 307.481327 
L 94.79198 313.654414 
L 110.941395 320.800321 
L 127.09081 328.873647 
L 143.240226 336.269412 
L 159.389641 340.687255 
L 175.539057 339.278362 
L 191.688472 329.51873 
L 207.837888 310.668331 
L 223.987303 286.060646 
L 240.136718 263.818442 
L 256.286134 249.032571 
L 272.435549 233.221228 
L 288.584965 227.938049 
L 304.73438 227.817386 
L 320.883796 227.964218 
L 337.033211 228.100121 
L 353.182626 228.196909 
L 369.332042 228.232672 
L 385.481457 228.21773 
L 401.630873 228.162282 
L 417.780288 228.074953 
L 433.929703 227.956299 
L 450.079119 227.786311 
L 466.228534 227.557222 
L 482.37795 227.320193 
L 498.527365 227.08151 
L 514.676781 226.865104 
L 530.826196 226.743005 
L 546.975611 226.771648 
L 563.125027 226.958985 
L 579.274442 227.307178 
L 595.423858 227.881922 
L 611.573273 228.781705 
L 627.722688 230.248076 
L 643.872104 232.723208 
L 660.021519 236.880949 
L 676.170935 244.042465 
L 692.32035 256.583864 
L 708.469766 296.270442 
" clip-path="url(#p6e55d259a5)" style="fill: none; stroke: #2ca02c; stroke-width: 1.5; stroke-linecap: square"/>
   </g>
   <g id="line2d_75">
    <path d="M 58.196 215.707694 
L 709.2 215.707694 
" clip-path="url(#p6e55d259a5)" style="fill: none; stroke-dasharray: 5.55,2.4; stroke-dashoffset: 0; stroke: #000000; stroke-width: 1.5"/>
   </g>
   <g id="patch_9">
    <path d="M 58.196 358.421333 
L 58.196 214.642667 
" style="fill: none; stroke: #000000; stroke-width: 0.8; stroke-linejoin: miter; stroke-linecap: square"/>
   </g>
   <g id="patch_10">
    <path d="M 709.2 358.421333 
L 709.2 214.642667 
" style="fill: none; stroke: #000000; stroke-width: 0.8; stroke-linejoin: miter; stroke-linecap: square"/>
   </g>
   <g id="patch_11">
    <path d="M 58.196 358.421333 
L 709.2 358.421333 
" style="fill: none; stroke: #000000; stroke-width: 0.8; stroke-linejoin: miter; stroke-linecap: square"/>
   </g>
   <g id="patch_12">
    <path d="M 58.196 214.642667 
L 709.2 214.642667 
" style="fill: none; stroke: #000000; stroke-width: 0.8; stroke-linejoin: miter; stroke-linecap: square"/>
   </g>
  </g>
  <g id="axes_3">
   <g id="patch_13">
    <path d="M 58.196 534.04 
L 709.2 534.04 
L 709.2 390.261333 
L 58.196 390.261333 
z
" style="fill: #ffffff"/>
   </g>
   <g id="matplotlib.axis_5">
    <g id="xtick_19">
     <g id="line2d_76">
      <path d="M 58.196 534.04 
L 58.196 390.261333 
" clip-path="url(#p0878b19270)" style="fill: none; stroke-dasharray: 0.8,1.32; stroke-dashoffset: 0; stroke: #b0b0b0; stroke-width: 0.8"/>
     </g>
     <g id="line2d_77">
      <g>
       <use xlink:href="#meed2999c8b" x="58.196" y="534.04" style="stroke: #000000; stroke-width: 0.8"/>
      </g>
     </g>
     <g id="text_36">
      <!-- 0 -->
      <g transform="translate(55.01475 548.638438) scale(0.1 -0.1)">
       <use xlink:href="#DejaVuSans-30"/>
      </g>
     </g>
    </g>
    <g id="xtick_20">
     <g id="line2d_78">
      <path d="M 131.219444 534.04 
L 131.219444 390.261333 
" clip-path="url(#p0878b19270)" style="fill: none; stroke-dasharray: 0.8,1.32; stroke-dashoffset: 0; stroke: #b0b0b0; stroke-width: 0.8"/>
     </g>
     <g id="line2d_79">
      <g>
       <use xlink:href="#meed2999c8b" x="131.219444" y="534.04" style="stroke: #000000; stroke-width: 0.8"/>
      </g>
     </g>
     <g id="text_37">
      <!-- 10 -->
      <g transform="translate(124.856944 548.638438) scale(0.1 -0.1)">
       <use xlink:href="#DejaVuSans-31"/>
       <use xlink:href="#DejaVuSans-30" x="63.623047"/>
      </g>
     </g>
    </g>
    <g id="xtick_21">
     <g id="line2d_80">
      <path d="M 204.242887 534.04 
L 204.242887 390.261333 
" clip-path="url(#p0878b19270)" style="fill: none; stroke-dasharray: 0.8,1.32; stroke-dashoffset: 0; stroke: #b0b0b0; stroke-width: 0.8"/>
     </g>
     <g id="line2d_81">
      <g>
       <use xlink:href="#meed2999c8b" x="204.242887" y="534.04" style="stroke: #000000; stroke-width: 0.8"/>
      </g>
     </g>
     <g id="text_38">
      <!-- 20 -->
      <g transform="translate(197.880387 548.638438) scale(0.1 -0.1)">
       <use xlink:href="#DejaVuSans-32"/>
       <use xlink:href="#DejaVuSans-30" x="63.623047"/>
      </g>
     </g>
    </g>
    <g id="xtick_22">
     <g id="line2d_82">
      <path d="M 277.266331 534.04 
L 277.266331 390.261333 
" clip-path="url(#p0878b19270)" style="fill: none; stroke-dasharray: 0.8,1.32; stroke-dashoffset: 0; stroke: #b0b0b0; stroke-width: 0.8"/>
     </g>
     <g id="line2d_83">
      <g>
       <use xlink:href="#meed2999c8b" x="277.266331" y="534.04" style="stroke: #000000; stroke-width: 0.8"/>
      </g>
     </g>
     <g id="text_39">
      <!-- 30 -->
      <g transform="translate(270.903831 548.638438) scale(0.1 -0.1)">
       <use xlink:href="#DejaVuSans-33"/>
       <use xlink:href="#DejaVuSans-30" x="63.623047"/>
      </g>
     </g>
    </g>
    <g id="xtick_23">
     <g id="line2d_84">
      <path d="M 350.289775 534.04 
L 350.289775 390.261333 
" clip-path="url(#p0878b19270)" style="fill: none; stroke-dasharray: 0.8,1.32; stroke-dashoffset: 0; stroke: #b0b0b0; stroke-width: 0.8"/>
     </g>
     <g id="line2d_85">
      <g>
       <use xlink:href="#meed2999c8b" x="350.289775" y="534.04" style="stroke: #000000; stroke-width: 0.8"/>
      </g>
     </g>
     <g id="text_40">
      <!-- 40 -->
      <g transform="translate(343.927275 548.638438) scale(0.1 -0.1)">
       <use xlink:href="#DejaVuSans-34"/>
       <use xlink:href="#DejaVuSans-30" x="63.623047"/>
      </g>
     </g>
    </g>
    <g id="xtick_24">
     <g id="line2d_86">
      <path d="M 423.313218 534.04 
L 423.313218 390.261333 
" clip-path="url(#p0878b19270)" style="fill: none; stroke-dasharray: 0.8,1.32; stroke-dashoffset: 0; stroke: #b0b0b0; stroke-width: 0.8"/>
     </g>
     <g id="line2d_87">
      <g>
       <use xlink:href="#meed2999c8b" x="423.313218" y="534.04" style="stroke: #000000; stroke-width: 0.8"/>
      </g>
     </g>
     <g id="text_41">
      <!-- 50 -->
      <g transform="translate(416.950718 548.638438) scale(0.1 -0.1)">
       <use xlink:href="#DejaVuSans-35"/>
       <use xlink:href="#DejaVuSans-30" x="63.623047"/>
      </g>
     </g>
    </g>
    <g id="xtick_25">
     <g id="line2d_88">
      <path d="M 496.336662 534.04 
L 496.336662 390.261333 
" clip-path="url(#p0878b19270)" style="fill: none; stroke-dasharray: 0.8,1.32; stroke-dashoffset: 0; stroke: #b0b0b0; stroke-width: 0.8"/>
     </g>
     <g id="line2d_89">
      <g>
       <use xlink:href="#meed2999c8b" x="496.336662" y="534.04" style="stroke: #000000; stroke-width: 0.8"/>
      </g>
     </g>
     <g id="text_42">
      <!-- 60 -->
      <g transform="translate(489.974162 548.638438) scale(0.1 -0.1)">
       <use xlink:href="#DejaVuSans-36"/>
       <use xlink:href="#DejaVuSans-30" x="63.623047"/>
      </g>
     </g>
    </g>
    <g id="xtick_26">
     <g id="line2d_90">
      <path d="M 569.360105 534.04 
L 569.360105 390.261333 
" clip-path="url(#p0878b19270)" style="fill: none; stroke-dasharray: 0.8,1.32; stroke-dashoffset: 0; stroke: #b0b0b0; stroke-width: 0.8"/>
     </g>
     <g id="line2d_91">
      <g>
       <use xlink:href="#meed2999c8b" x="569.360105" y="534.04" style="stroke: #000000; stroke-width: 0.8"/>
      </g>
     </g>
     <g id="text_43">
      <!-- 70 -->
      <g transform="translate(562.997605 548.638438) scale(0.1 -0.1)">
       <use xlink:href="#DejaVuSans-37"/>
       <use xlink:href="#DejaVuSans-30" x="63.623047"/>
      </g>
     </g>
    </g>
    <g id="xtick_27">
     <g id="line2d_92">
      <path d="M 642.383549 534.04 
L 642.383549 390.261333 
" clip-path="url(#p0878b19270)" style="fill: none; stroke-dasharray: 0.8,1.32; stroke-dashoffset: 0; stroke: #b0b0b0; stroke-width: 0.8"/>
     </g>
     <g id="line2d_93">
      <g>
       <use xlink:href="#meed2999c8b" x="642.383549" y="534.04" style="stroke: #000000; stroke-width: 0.8"/>
      </g>
     </g>
     <g id="text_44">
      <!-- 80 -->
      <g transform="translate(636.021049 548.638438) scale(0.1 -0.1)">
       <use xlink:href="#DejaVuSans-38"/>
       <use xlink:href="#DejaVuSans-30" x="63.623047"/>
      </g>
     </g>
    </g>
    <g id="text_45">
     <!-- Rotor span [m] -->
     <g transform="translate(346.352688 562.316563) scale(0.1 -0.1)">
      <defs>
       <path id="DejaVuSans-52" d="M 2841 2188 
Q 3044 2119 3236 1894 
Q 3428 1669 3622 1275 
L 4263 0 
L 3584 0 
L 2988 1197 
Q 2756 1666 2539 1819 
Q 2322 1972 1947 1972 
L 1259 1972 
L 1259 0 
L 628 0 
L 628 4666 
L 2053 4666 
Q 2853 4666 3247 4331 
Q 3641 3997 3641 3322 
Q 3641 2881 3436 2590 
Q 3231 2300 2841 2188 
z
M 1259 4147 
L 1259 2491 
L 2053 2491 
Q 2509 2491 2742 2702 
Q 2975 2913 2975 3322 
Q 2975 3731 2742 3939 
Q 2509 4147 2053 4147 
L 1259 4147 
z
" transform="scale(0.015625)"/>
       <path id="DejaVuSans-70" d="M 1159 525 
L 1159 -1331 
L 581 -1331 
L 581 3500 
L 1159 3500 
L 1159 2969 
Q 1341 3281 1617 3432 
Q 1894 3584 2278 3584 
Q 2916 3584 3314 3078 
Q 3713 2572 3713 1747 
Q 3713 922 3314 415 
Q 2916 -91 2278 -91 
Q 1894 -91 1617 61 
Q 1341 213 1159 525 
z
M 3116 1747 
Q 3116 2381 2855 2742 
Q 2594 3103 2138 3103 
Q 1681 3103 1420 2742 
Q 1159 2381 1159 1747 
Q 1159 1113 1420 752 
Q 1681 391 2138 391 
Q 2594 391 2855 752 
Q 3116 1113 3116 1747 
z
" transform="scale(0.015625)"/>
       <path id="DejaVuSans-6d" d="M 3328 2828 
Q 3544 3216 3844 3400 
Q 4144 3584 4550 3584 
Q 5097 3584 5394 3201 
Q 5691 2819 5691 2113 
L 5691 0 
L 5113 0 
L 5113 2094 
Q 5113 2597 4934 2840 
Q 4756 3084 4391 3084 
Q 3944 3084 3684 2787 
Q 3425 2491 3425 1978 
L 3425 0 
L 2847 0 
L 2847 2094 
Q 2847 2600 2669 2842 
Q 2491 3084 2119 3084 
Q 1678 3084 1418 2786 
Q 1159 2488 1159 1978 
L 1159 0 
L 581 0 
L 581 3500 
L 1159 3500 
L 1159 2956 
Q 1356 3278 1631 3431 
Q 1906 3584 2284 3584 
Q 2666 3584 2933 3390 
Q 3200 3197 3328 2828 
z
" transform="scale(0.015625)"/>
      </defs>
      <use xlink:href="#DejaVuSans-52"/>
      <use xlink:href="#DejaVuSans-6f" x="64.982422"/>
      <use xlink:href="#DejaVuSans-74" x="126.164062"/>
      <use xlink:href="#DejaVuSans-6f" x="165.373047"/>
      <use xlink:href="#DejaVuSans-72" x="226.554688"/>
      <use xlink:href="#DejaVuSans-20" x="267.667969"/>
      <use xlink:href="#DejaVuSans-73" x="299.455078"/>
      <use xlink:href="#DejaVuSans-70" x="351.554688"/>
      <use xlink:href="#DejaVuSans-61" x="415.03125"/>
      <use xlink:href="#DejaVuSans-6e" x="476.310547"/>
      <use xlink:href="#DejaVuSans-20" x="539.689453"/>
      <use xlink:href="#DejaVuSans-5b" x="571.476562"/>
      <use xlink:href="#DejaVuSans-6d" x="610.490234"/>
      <use xlink:href="#DejaVuSans-5d" x="707.902344"/>
     </g>
    </g>
   </g>
   <g id="matplotlib.axis_6">
    <g id="ytick_13">
     <g id="line2d_94">
      <path d="M 58.196 527.504606 
L 709.2 527.504606 
" clip-path="url(#p0878b19270)" style="fill: none; stroke-dasharray: 0.8,1.32; stroke-dashoffset: 0; stroke: #b0b0b0; stroke-width: 0.8"/>
     </g>
     <g id="line2d_95">
      <g>
       <use xlink:href="#m820305a239" x="58.196" y="527.504606" style="stroke: #000000; stroke-width: 0.8"/>
      </g>
     </g>
     <g id="text_46">
      <!-- 0.0 -->
      <g transform="translate(35.292875 531.303825) scale(0.1 -0.1)">
       <use xlink:href="#DejaVuSans-30"/>
       <use xlink:href="#DejaVuSans-2e" x="63.623047"/>
       <use xlink:href="#DejaVuSans-30" x="95.410156"/>
      </g>
     </g>
    </g>
    <g id="ytick_14">
     <g id="line2d_96">
      <path d="M 58.196 496.180985 
L 709.2 496.180985 
" clip-path="url(#p0878b19270)" style="fill: none; stroke-dasharray: 0.8,1.32; stroke-dashoffset: 0; stroke: #b0b0b0; stroke-width: 0.8"/>
     </g>
     <g id="line2d_97">
      <g>
       <use xlink:href="#m820305a239" x="58.196" y="496.180985" style="stroke: #000000; stroke-width: 0.8"/>
      </g>
     </g>
     <g id="text_47">
      <!-- 0.2 -->
      <g transform="translate(35.292875 499.980203) scale(0.1 -0.1)">
       <use xlink:href="#DejaVuSans-30"/>
       <use xlink:href="#DejaVuSans-2e" x="63.623047"/>
       <use xlink:href="#DejaVuSans-32" x="95.410156"/>
      </g>
     </g>
    </g>
    <g id="ytick_15">
     <g id="line2d_98">
      <path d="M 58.196 464.857363 
L 709.2 464.857363 
" clip-path="url(#p0878b19270)" style="fill: none; stroke-dasharray: 0.8,1.32; stroke-dashoffset: 0; stroke: #b0b0b0; stroke-width: 0.8"/>
     </g>
     <g id="line2d_99">
      <g>
       <use xlink:href="#m820305a239" x="58.196" y="464.857363" style="stroke: #000000; stroke-width: 0.8"/>
      </g>
     </g>
     <g id="text_48">
      <!-- 0.4 -->
      <g transform="translate(35.292875 468.656582) scale(0.1 -0.1)">
       <use xlink:href="#DejaVuSans-30"/>
       <use xlink:href="#DejaVuSans-2e" x="63.623047"/>
       <use xlink:href="#DejaVuSans-34" x="95.410156"/>
      </g>
     </g>
    </g>
    <g id="ytick_16">
     <g id="line2d_100">
      <path d="M 58.196 433.533742 
L 709.2 433.533742 
" clip-path="url(#p0878b19270)" style="fill: none; stroke-dasharray: 0.8,1.32; stroke-dashoffset: 0; stroke: #b0b0b0; stroke-width: 0.8"/>
     </g>
     <g id="line2d_101">
      <g>
       <use xlink:href="#m820305a239" x="58.196" y="433.533742" style="stroke: #000000; stroke-width: 0.8"/>
      </g>
     </g>
     <g id="text_49">
      <!-- 0.6 -->
      <g transform="translate(35.292875 437.332961) scale(0.1 -0.1)">
       <use xlink:href="#DejaVuSans-30"/>
       <use xlink:href="#DejaVuSans-2e" x="63.623047"/>
       <use xlink:href="#DejaVuSans-36" x="95.410156"/>
      </g>
     </g>
    </g>
    <g id="ytick_17">
     <g id="line2d_102">
      <path d="M 58.196 402.210121 
L 709.2 402.210121 
" clip-path="url(#p0878b19270)" style="fill: none; stroke-dasharray: 0.8,1.32; stroke-dashoffset: 0; stroke: #b0b0b0; stroke-width: 0.8"/>
     </g>
     <g id="line2d_103">
      <g>
       <use xlink:href="#m820305a239" x="58.196" y="402.210121" style="stroke: #000000; stroke-width: 0.8"/>
      </g>
     </g>
     <g id="text_50">
      <!-- 0.8 -->
      <g transform="translate(35.292875 406.00934) scale(0.1 -0.1)">
       <use xlink:href="#DejaVuSans-30"/>
       <use xlink:href="#DejaVuSans-2e" x="63.623047"/>
       <use xlink:href="#DejaVuSans-38" x="95.410156"/>
      </g>
     </g>
    </g>
    <g id="text_51">
     <!-- AxIAl induction ($a$) [-] -->
     <g transform="translate(29.213188 515.500667) rotate(-90) scale(0.1 -0.1)">
      <defs>
       <path id="DejaVuSans-41" d="M 2188 4044 
L 1331 1722 
L 3047 1722 
L 2188 4044 
z
M 1831 4666 
L 2547 4666 
L 4325 0 
L 3669 0 
L 3244 1197 
L 1141 1197 
L 716 0 
L 50 0 
L 1831 4666 
z
" transform="scale(0.015625)"/>
       <path id="DejaVuSans-78" d="M 3513 3500 
L 2247 1797 
L 3578 0 
L 2900 0 
L 1881 1375 
L 863 0 
L 184 0 
L 1544 1831 
L 300 3500 
L 978 3500 
L 1906 2253 
L 2834 3500 
L 3513 3500 
z
" transform="scale(0.015625)"/>
       <path id="DejaVuSans-49" d="M 628 4666 
L 1259 4666 
L 1259 0 
L 628 0 
L 628 4666 
z
" transform="scale(0.015625)"/>
       <path id="DejaVuSans-64" d="M 2906 2969 
L 2906 4863 
L 3481 4863 
L 3481 0 
L 2906 0 
L 2906 525 
Q 2725 213 2448 61 
Q 2172 -91 1784 -91 
Q 1150 -91 751 415 
Q 353 922 353 1747 
Q 353 2572 751 3078 
Q 1150 3584 1784 3584 
Q 2172 3584 2448 3432 
Q 2725 3281 2906 2969 
z
M 947 1747 
Q 947 1113 1208 752 
Q 1469 391 1925 391 
Q 2381 391 2643 752 
Q 2906 1113 2906 1747 
Q 2906 2381 2643 2742 
Q 2381 3103 1925 3103 
Q 1469 3103 1208 2742 
Q 947 2381 947 1747 
z
" transform="scale(0.015625)"/>
       <path id="DejaVuSans-Oblique-61" d="M 3438 1997 
L 3047 0 
L 2472 0 
L 2578 531 
Q 2325 219 2001 64 
Q 1678 -91 1281 -91 
Q 834 -91 548 182 
Q 263 456 263 884 
Q 263 1497 752 1853 
Q 1241 2209 2100 2209 
L 2900 2209 
L 2931 2363 
Q 2938 2388 2941 2417 
Q 2944 2447 2944 2509 
Q 2944 2788 2717 2942 
Q 2491 3097 2081 3097 
Q 1800 3097 1504 3025 
Q 1209 2953 897 2809 
L 997 3341 
Q 1322 3463 1633 3523 
Q 1944 3584 2234 3584 
Q 2853 3584 3176 3315 
Q 3500 3047 3500 2534 
Q 3500 2431 3484 2292 
Q 3469 2153 3438 1997 
z
M 2816 1759 
L 2241 1759 
Q 1534 1759 1195 1570 
Q 856 1381 856 984 
Q 856 709 1029 553 
Q 1203 397 1509 397 
Q 1978 397 2328 733 
Q 2678 1069 2791 1631 
L 2816 1759 
z
" transform="scale(0.015625)"/>
      </defs>
      <use xlink:href="#DejaVuSans-41" transform="translate(0 0.015625)"/>
      <use xlink:href="#DejaVuSans-78" transform="translate(68.408203 0.015625)"/>
      <use xlink:href="#DejaVuSans-49" transform="translate(127.587891 0.015625)"/>
      <use xlink:href="#DejaVuSans-41" transform="translate(157.080078 0.015625)"/>
      <use xlink:href="#DejaVuSans-6c" transform="translate(225.488281 0.015625)"/>
      <use xlink:href="#DejaVuSans-20" transform="translate(253.271484 0.015625)"/>
      <use xlink:href="#DejaVuSans-69" transform="translate(285.058594 0.015625)"/>
      <use xlink:href="#DejaVuSans-6e" transform="translate(312.841797 0.015625)"/>
      <use xlink:href="#DejaVuSans-64" transform="translate(376.220703 0.015625)"/>
      <use xlink:href="#DejaVuSans-75" transform="translate(439.697266 0.015625)"/>
      <use xlink:href="#DejaVuSans-63" transform="translate(503.076172 0.015625)"/>
      <use xlink:href="#DejaVuSans-74" transform="translate(558.056641 0.015625)"/>
      <use xlink:href="#DejaVuSans-69" transform="translate(597.265625 0.015625)"/>
      <use xlink:href="#DejaVuSans-6f" transform="translate(625.048828 0.015625)"/>
      <use xlink:href="#DejaVuSans-6e" transform="translate(686.230469 0.015625)"/>
      <use xlink:href="#DejaVuSans-20" transform="translate(749.609375 0.015625)"/>
      <use xlink:href="#DejaVuSans-28" transform="translate(781.396484 0.015625)"/>
      <use xlink:href="#DejaVuSans-Oblique-61" transform="translate(820.410156 0.015625)"/>
      <use xlink:href="#DejaVuSans-29" transform="translate(881.689453 0.015625)"/>
      <use xlink:href="#DejaVuSans-20" transform="translate(920.703125 0.015625)"/>
      <use xlink:href="#DejaVuSans-5b" transform="translate(952.490234 0.015625)"/>
      <use xlink:href="#DejaVuSans-2d" transform="translate(991.503906 0.015625)"/>
      <use xlink:href="#DejaVuSans-5d" transform="translate(1027.587891 0.015625)"/>
     </g>
    </g>
   </g>
   <g id="line2d_104">
    <path d="M 78.642564 527.504606 
L 94.79198 527.503425 
L 110.941395 527.398834 
L 127.09081 527.159815 
L 143.240226 526.596349 
L 159.389641 525.503802 
L 175.539057 523.623068 
L 191.688472 520.644105 
L 207.837888 516.218692 
L 223.987303 510.109859 
L 240.136718 502.632985 
L 256.286134 494.711065 
L 272.435549 482.670863 
L 288.584965 475.37211 
L 304.73438 475.298571 
L 320.883796 475.298571 
L 337.033211 475.298571 
L 353.182626 475.298571 
L 369.332042 475.298571 
L 385.481457 475.298571 
L 401.630873 475.298571 
L 417.780288 475.298571 
L 433.929703 475.298571 
L 450.079119 475.298571 
L 466.228534 475.298571 
L 482.37795 475.298571 
L 498.527365 475.298571 
L 514.676781 475.298571 
L 530.826196 475.298571 
L 546.975611 475.298571 
L 563.125027 475.298571 
L 579.274442 475.298571 
L 595.423858 475.298571 
L 611.573273 475.298571 
L 627.722688 475.298571 
L 643.872104 475.298571 
L 660.021519 475.298571 
L 676.170935 475.298571 
L 692.32035 468.841449 
L 708.469766 396.796727 
" clip-path="url(#p0878b19270)" style="fill: none; stroke: #1f77b4; stroke-width: 1.5; stroke-linecap: square"/>
   </g>
   <g id="line2d_105">
    <path d="M 58.196 475.298571 
L 709.2 475.298571 
" clip-path="url(#p0878b19270)" style="fill: none; stroke-dasharray: 5.55,2.4; stroke-dashoffset: 0; stroke: #000000; stroke-width: 1.5"/>
   </g>
   <g id="line2d_106">
    <path d="M 78.642564 527.504606 
L 94.79198 527.503725 
L 110.941395 527.420913 
L 127.09081 527.231623 
L 143.240226 526.780557 
L 159.389641 525.894625 
L 175.539057 524.348637 
L 191.688472 521.867204 
L 207.837888 518.136846 
L 223.987303 512.938116 
L 240.136718 506.526608 
L 256.286134 499.272706 
L 272.435549 486.551065 
L 288.584965 476.562318 
L 304.73438 475.298571 
L 320.883796 475.298571 
L 337.033211 475.298571 
L 353.182626 475.298571 
L 369.332042 475.298571 
L 385.481457 475.298571 
L 401.630873 475.298571 
L 417.780288 475.298571 
L 433.929703 475.298571 
L 450.079119 475.298571 
L 466.228534 475.298571 
L 482.37795 475.298571 
L 498.527365 475.298571 
L 514.676781 475.298571 
L 530.826196 475.298571 
L 546.975611 475.298571 
L 563.125027 475.298571 
L 579.274442 475.298571 
L 595.423858 475.298571 
L 611.573273 475.298571 
L 627.722688 475.298571 
L 643.872104 475.298571 
L 660.021519 475.298571 
L 676.170935 475.298571 
L 692.32035 468.841449 
L 708.469766 396.796727 
" clip-path="url(#p0878b19270)" style="fill: none; stroke: #ff7f0e; stroke-width: 1.5; stroke-linecap: square"/>
   </g>
   <g id="line2d_107">
    <path d="M 58.196 475.298571 
L 709.2 475.298571 
" clip-path="url(#p0878b19270)" style="fill: none; stroke-dasharray: 5.55,2.4; stroke-dashoffset: 0; stroke: #000000; stroke-width: 1.5"/>
   </g>
   <g id="line2d_108">
    <path d="M 78.642564 527.504606 
L 94.79198 527.503973 
L 110.941395 527.440551 
L 127.09081 527.295454 
L 143.240226 526.945601 
L 159.389641 526.248676 
L 175.539057 525.014048 
L 191.688472 523.002796 
L 207.837888 519.938148 
L 223.987303 515.618896 
L 240.136718 510.242337 
L 256.286134 503.640849 
L 272.435549 490.560036 
L 288.584965 478.87791 
L 304.73438 475.298571 
L 320.883796 475.298571 
L 337.033211 475.298571 
L 353.182626 475.298571 
L 369.332042 475.298571 
L 385.481457 475.298571 
L 401.630873 475.298571 
L 417.780288 475.298571 
L 433.929703 475.298571 
L 450.079119 475.298571 
L 466.228534 475.298571 
L 482.37795 475.298571 
L 498.527365 475.298571 
L 514.676781 475.298571 
L 530.826196 475.298571 
L 546.975611 475.298571 
L 563.125027 475.298571 
L 579.274442 475.298571 
L 595.423858 475.298571 
L 611.573273 475.298571 
L 627.722688 475.298571 
L 643.872104 475.298571 
L 660.021519 475.298571 
L 676.170935 475.298571 
L 692.32035 468.841449 
L 708.469766 396.796727 
" clip-path="url(#p0878b19270)" style="fill: none; stroke: #2ca02c; stroke-width: 1.5; stroke-linecap: square"/>
   </g>
   <g id="line2d_109">
    <path d="M 58.196 475.298571 
L 709.2 475.298571 
" clip-path="url(#p0878b19270)" style="fill: none; stroke-dasharray: 5.55,2.4; stroke-dashoffset: 0; stroke: #000000; stroke-width: 1.5"/>
   </g>
   <g id="patch_14">
    <path d="M 58.196 534.04 
L 58.196 390.261333 
" style="fill: none; stroke: #000000; stroke-width: 0.8; stroke-linejoin: miter; stroke-linecap: square"/>
   </g>
   <g id="patch_15">
    <path d="M 709.2 534.04 
L 709.2 390.261333 
" style="fill: none; stroke: #000000; stroke-width: 0.8; stroke-linejoin: miter; stroke-linecap: square"/>
   </g>
   <g id="patch_16">
    <path d="M 58.196 534.04 
L 709.2 534.04 
" style="fill: none; stroke: #000000; stroke-width: 0.8; stroke-linejoin: miter; stroke-linecap: square"/>
   </g>
   <g id="patch_17">
    <path d="M 58.196 390.261333 
L 709.2 390.261333 
" style="fill: none; stroke: #000000; stroke-width: 0.8; stroke-linejoin: miter; stroke-linecap: square"/>
   </g>
  </g>
  <g id="text_52">
   <!-- $C_T$=0.776, $C_P$=0.424 -->
   <g transform="translate(298.5 20.638125) scale(0.12 -0.12)">
    <defs>
     <path id="DejaVuSans-3d" d="M 678 2906 
L 4684 2906 
L 4684 2381 
L 678 2381 
L 678 2906 
z
M 678 1631 
L 4684 1631 
L 4684 1100 
L 678 1100 
L 678 1631 
z
" transform="scale(0.015625)"/>
     <path id="DejaVuSans-2c" d="M 750 794 
L 1409 794 
L 1409 256 
L 897 -744 
L 494 -744 
L 750 256 
L 750 794 
z
" transform="scale(0.015625)"/>
    </defs>
    <use xlink:href="#DejaVuSans-Oblique-43" transform="translate(0 0.78125)"/>
    <use xlink:href="#DejaVuSans-Oblique-54" transform="translate(69.824219 -15.625) scale(0.7)"/>
    <use xlink:href="#DejaVuSans-3d" transform="translate(115.317383 0.78125)"/>
    <use xlink:href="#DejaVuSans-30" transform="translate(199.106445 0.78125)"/>
    <use xlink:href="#DejaVuSans-2e" transform="translate(262.729492 0.78125)"/>
    <use xlink:href="#DejaVuSans-37" transform="translate(286.766602 0.78125)"/>
    <use xlink:href="#DejaVuSans-37" transform="translate(348.639648 0.78125)"/>
    <use xlink:href="#DejaVuSans-36" transform="translate(412.262695 0.78125)"/>
    <use xlink:href="#DejaVuSans-2c" transform="translate(475.885742 0.78125)"/>
    <use xlink:href="#DejaVuSans-20" transform="translate(507.672852 0.78125)"/>
    <use xlink:href="#DejaVuSans-Oblique-43" transform="translate(539.459961 0.78125)"/>
    <use xlink:href="#DejaVuSans-Oblique-50" transform="translate(609.28418 -15.625) scale(0.7)"/>
    <use xlink:href="#DejaVuSans-3d" transform="translate(654.230469 0.78125)"/>
    <use xlink:href="#DejaVuSans-30" transform="translate(738.019531 0.78125)"/>
    <use xlink:href="#DejaVuSans-2e" transform="translate(801.642578 0.78125)"/>
    <use xlink:href="#DejaVuSans-34" transform="translate(833.429688 0.78125)"/>
    <use xlink:href="#DejaVuSans-32" transform="translate(897.052734 0.78125)"/>
    <use xlink:href="#DejaVuSans-34" transform="translate(960.675781 0.78125)"/>
   </g>
  </g>
 </g>
 <defs>
  <clipPath id="pdbd78366d9">
   <rect x="58.196" y="39.024" width="651.004" height="143.778667"/>
  </clipPath>
  <clipPath id="p6e55d259a5">
   <rect x="58.196" y="214.642667" width="651.004" height="143.778667"/>
  </clipPath>
  <clipPath id="p0878b19270">
   <rect x="58.196" y="390.261333" width="651.004" height="143.778667"/>
  </clipPath>
 </defs>
</svg>
