<?xml version="1.0" encoding="utf-8" standalone="no"?>
<!DOCTYPE svg PUBLIC "-//W3C//DTD SVG 1.1//EN"
  "http://www.w3.org/Graphics/SVG/1.1/DTD/svg11.dtd">
<svg xmlns:xlink="http://www.w3.org/1999/xlink" width="720pt" height="576pt" viewBox="0 0 720 576" xmlns="http://www.w3.org/2000/svg" version="1.1">
 <metadata>
  <rdf:RDF xmlns:dc="http://purl.org/dc/elements/1.1/" xmlns:cc="http://creativecommons.org/ns#" xmlns:rdf="http://www.w3.org/1999/02/22-rdf-syntax-ns#">
   <cc:Work>
    <dc:type rdf:resource="http://purl.org/dc/dcmitype/StillImage"/>
    <dc:date>2024-09-23T23:20:33.325465</dc:date>
    <dc:format>image/svg+xml</dc:format>
    <dc:creator>
     <cc:Agent>
      <dc:title>Matplotlib v3.9.2, https://matplotlib.org/</dc:title>
     </cc:Agent>
    </dc:creator>
   </cc:Work>
  </rdf:RDF>
 </metadata>
 <defs>
  <style type="text/css">*{stroke-linejoin: round; stroke-linecap: butt}</style>
 </defs>
 <g id="figure_1">
  <g id="patch_1">
   <path d="M 0 576 
L 720 576 
L 720 0 
L 0 0 
z
" style="fill: #ffffff"/>
  </g>
  <g id="axes_1">
   <g id="patch_2">
    <path d="M 58.016 183.426667 
L 709.2 183.426667 
L 709.2 39.96 
L 58.016 39.96 
z
" style="fill: #ffffff"/>
   </g>
   <g id="matplotlib.axis_1">
    <g id="xtick_1">
     <g id="line2d_1">
      <path d="M 58.016 183.426667 
L 58.016 39.96 
" clip-path="url(#pc851f175cb)" style="fill: none; stroke-dasharray: 0.8,1.32; stroke-dashoffset: 0; stroke: #b0b0b0; stroke-width: 0.8"/>
     </g>
     <g id="line2d_2">
      <defs>
       <path id="mab37d63d68" d="M 0 0 
L 0 3.5 
" style="stroke: #000000; stroke-width: 0.8"/>
      </defs>
      <g>
       <use xlink:href="#mab37d63d68" x="58.016" y="183.426667" style="stroke: #000000; stroke-width: 0.8"/>
      </g>
     </g>
     <g id="text_1">
      <!-- 0 -->
      <g transform="translate(54.83475 198.025104) scale(0.1 -0.1)">
       <defs>
        <path id="DejaVuSans-30" d="M 2034 4250 
Q 1547 4250 1301 3770 
Q 1056 3291 1056 2328 
Q 1056 1369 1301 889 
Q 1547 409 2034 409 
Q 2525 409 2770 889 
Q 3016 1369 3016 2328 
Q 3016 3291 2770 3770 
Q 2525 4250 2034 4250 
z
M 2034 4750 
Q 2819 4750 3233 4129 
Q 3647 3509 3647 2328 
Q 3647 1150 3233 529 
Q 2819 -91 2034 -91 
Q 1250 -91 836 529 
Q 422 1150 422 2328 
Q 422 3509 836 4129 
Q 1250 4750 2034 4750 
z
" transform="scale(0.015625)"/>
       </defs>
       <use xlink:href="#DejaVuSans-30"/>
      </g>
     </g>
    </g>
    <g id="xtick_2">
     <g id="line2d_3">
      <path d="M 133.42816 183.426667 
L 133.42816 39.96 
" clip-path="url(#pc851f175cb)" style="fill: none; stroke-dasharray: 0.8,1.32; stroke-dashoffset: 0; stroke: #b0b0b0; stroke-width: 0.8"/>
     </g>
     <g id="line2d_4">
      <g>
       <use xlink:href="#mab37d63d68" x="133.42816" y="183.426667" style="stroke: #000000; stroke-width: 0.8"/>
      </g>
     </g>
     <g id="text_2">
      <!-- 10 -->
      <g transform="translate(127.06566 198.025104) scale(0.1 -0.1)">
       <defs>
        <path id="DejaVuSans-31" d="M 794 531 
L 1825 531 
L 1825 4091 
L 703 3866 
L 703 4441 
L 1819 4666 
L 2450 4666 
L 2450 531 
L 3481 531 
L 3481 0 
L 794 0 
L 794 531 
z
" transform="scale(0.015625)"/>
       </defs>
       <use xlink:href="#DejaVuSans-31"/>
       <use xlink:href="#DejaVuSans-30" x="63.623047"/>
      </g>
     </g>
    </g>
    <g id="xtick_3">
     <g id="line2d_5">
      <path d="M 208.84032 183.426667 
L 208.84032 39.96 
" clip-path="url(#pc851f175cb)" style="fill: none; stroke-dasharray: 0.8,1.32; stroke-dashoffset: 0; stroke: #b0b0b0; stroke-width: 0.8"/>
     </g>
     <g id="line2d_6">
      <g>
       <use xlink:href="#mab37d63d68" x="208.84032" y="183.426667" style="stroke: #000000; stroke-width: 0.8"/>
      </g>
     </g>
     <g id="text_3">
      <!-- 20 -->
      <g transform="translate(202.47782 198.025104) scale(0.1 -0.1)">
       <defs>
        <path id="DejaVuSans-32" d="M 1228 531 
L 3431 531 
L 3431 0 
L 469 0 
L 469 531 
Q 828 903 1448 1529 
Q 2069 2156 2228 2338 
Q 2531 2678 2651 2914 
Q 2772 3150 2772 3378 
Q 2772 3750 2511 3984 
Q 2250 4219 1831 4219 
Q 1534 4219 1204 4116 
Q 875 4013 500 3803 
L 500 4441 
Q 881 4594 1212 4672 
Q 1544 4750 1819 4750 
Q 2544 4750 2975 4387 
Q 3406 4025 3406 3419 
Q 3406 3131 3298 2873 
Q 3191 2616 2906 2266 
Q 2828 2175 2409 1742 
Q 1991 1309 1228 531 
z
" transform="scale(0.015625)"/>
       </defs>
       <use xlink:href="#DejaVuSans-32"/>
       <use xlink:href="#DejaVuSans-30" x="63.623047"/>
      </g>
     </g>
    </g>
    <g id="xtick_4">
     <g id="line2d_7">
      <path d="M 284.252479 183.426667 
L 284.252479 39.96 
" clip-path="url(#pc851f175cb)" style="fill: none; stroke-dasharray: 0.8,1.32; stroke-dashoffset: 0; stroke: #b0b0b0; stroke-width: 0.8"/>
     </g>
     <g id="line2d_8">
      <g>
       <use xlink:href="#mab37d63d68" x="284.252479" y="183.426667" style="stroke: #000000; stroke-width: 0.8"/>
      </g>
     </g>
     <g id="text_4">
      <!-- 30 -->
      <g transform="translate(277.889979 198.025104) scale(0.1 -0.1)">
       <defs>
        <path id="DejaVuSans-33" d="M 2597 2516 
Q 3050 2419 3304 2112 
Q 3559 1806 3559 1356 
Q 3559 666 3084 287 
Q 2609 -91 1734 -91 
Q 1441 -91 1130 -33 
Q 819 25 488 141 
L 488 750 
Q 750 597 1062 519 
Q 1375 441 1716 441 
Q 2309 441 2620 675 
Q 2931 909 2931 1356 
Q 2931 1769 2642 2001 
Q 2353 2234 1838 2234 
L 1294 2234 
L 1294 2753 
L 1863 2753 
Q 2328 2753 2575 2939 
Q 2822 3125 2822 3475 
Q 2822 3834 2567 4026 
Q 2313 4219 1838 4219 
Q 1578 4219 1281 4162 
Q 984 4106 628 3988 
L 628 4550 
Q 988 4650 1302 4700 
Q 1616 4750 1894 4750 
Q 2613 4750 3031 4423 
Q 3450 4097 3450 3541 
Q 3450 3153 3228 2886 
Q 3006 2619 2597 2516 
z
" transform="scale(0.015625)"/>
       </defs>
       <use xlink:href="#DejaVuSans-33"/>
       <use xlink:href="#DejaVuSans-30" x="63.623047"/>
      </g>
     </g>
    </g>
    <g id="xtick_5">
     <g id="line2d_9">
      <path d="M 359.664639 183.426667 
L 359.664639 39.96 
" clip-path="url(#pc851f175cb)" style="fill: none; stroke-dasharray: 0.8,1.32; stroke-dashoffset: 0; stroke: #b0b0b0; stroke-width: 0.8"/>
     </g>
     <g id="line2d_10">
      <g>
       <use xlink:href="#mab37d63d68" x="359.664639" y="183.426667" style="stroke: #000000; stroke-width: 0.8"/>
      </g>
     </g>
     <g id="text_5">
      <!-- 40 -->
      <g transform="translate(353.302139 198.025104) scale(0.1 -0.1)">
       <defs>
        <path id="DejaVuSans-34" d="M 2419 4116 
L 825 1625 
L 2419 1625 
L 2419 4116 
z
M 2253 4666 
L 3047 4666 
L 3047 1625 
L 3713 1625 
L 3713 1100 
L 3047 1100 
L 3047 0 
L 2419 0 
L 2419 1100 
L 313 1100 
L 313 1709 
L 2253 4666 
z
" transform="scale(0.015625)"/>
       </defs>
       <use xlink:href="#DejaVuSans-34"/>
       <use xlink:href="#DejaVuSans-30" x="63.623047"/>
      </g>
     </g>
    </g>
    <g id="xtick_6">
     <g id="line2d_11">
      <path d="M 435.076799 183.426667 
L 435.076799 39.96 
" clip-path="url(#pc851f175cb)" style="fill: none; stroke-dasharray: 0.8,1.32; stroke-dashoffset: 0; stroke: #b0b0b0; stroke-width: 0.8"/>
     </g>
     <g id="line2d_12">
      <g>
       <use xlink:href="#mab37d63d68" x="435.076799" y="183.426667" style="stroke: #000000; stroke-width: 0.8"/>
      </g>
     </g>
     <g id="text_6">
      <!-- 50 -->
      <g transform="translate(428.714299 198.025104) scale(0.1 -0.1)">
       <defs>
        <path id="DejaVuSans-35" d="M 691 4666 
L 3169 4666 
L 3169 4134 
L 1269 4134 
L 1269 2991 
Q 1406 3038 1543 3061 
Q 1681 3084 1819 3084 
Q 2600 3084 3056 2656 
Q 3513 2228 3513 1497 
Q 3513 744 3044 326 
Q 2575 -91 1722 -91 
Q 1428 -91 1123 -41 
Q 819 9 494 109 
L 494 744 
Q 775 591 1075 516 
Q 1375 441 1709 441 
Q 2250 441 2565 725 
Q 2881 1009 2881 1497 
Q 2881 1984 2565 2268 
Q 2250 2553 1709 2553 
Q 1456 2553 1204 2497 
Q 953 2441 691 2322 
L 691 4666 
z
" transform="scale(0.015625)"/>
       </defs>
       <use xlink:href="#DejaVuSans-35"/>
       <use xlink:href="#DejaVuSans-30" x="63.623047"/>
      </g>
     </g>
    </g>
    <g id="xtick_7">
     <g id="line2d_13">
      <path d="M 510.488959 183.426667 
L 510.488959 39.96 
" clip-path="url(#pc851f175cb)" style="fill: none; stroke-dasharray: 0.8,1.32; stroke-dashoffset: 0; stroke: #b0b0b0; stroke-width: 0.8"/>
     </g>
     <g id="line2d_14">
      <g>
       <use xlink:href="#mab37d63d68" x="510.488959" y="183.426667" style="stroke: #000000; stroke-width: 0.8"/>
      </g>
     </g>
     <g id="text_7">
      <!-- 60 -->
      <g transform="translate(504.126459 198.025104) scale(0.1 -0.1)">
       <defs>
        <path id="DejaVuSans-36" d="M 2113 2584 
Q 1688 2584 1439 2293 
Q 1191 2003 1191 1497 
Q 1191 994 1439 701 
Q 1688 409 2113 409 
Q 2538 409 2786 701 
Q 3034 994 3034 1497 
Q 3034 2003 2786 2293 
Q 2538 2584 2113 2584 
z
M 3366 4563 
L 3366 3988 
Q 3128 4100 2886 4159 
Q 2644 4219 2406 4219 
Q 1781 4219 1451 3797 
Q 1122 3375 1075 2522 
Q 1259 2794 1537 2939 
Q 1816 3084 2150 3084 
Q 2853 3084 3261 2657 
Q 3669 2231 3669 1497 
Q 3669 778 3244 343 
Q 2819 -91 2113 -91 
Q 1303 -91 875 529 
Q 447 1150 447 2328 
Q 447 3434 972 4092 
Q 1497 4750 2381 4750 
Q 2619 4750 2861 4703 
Q 3103 4656 3366 4563 
z
" transform="scale(0.015625)"/>
       </defs>
       <use xlink:href="#DejaVuSans-36"/>
       <use xlink:href="#DejaVuSans-30" x="63.623047"/>
      </g>
     </g>
    </g>
    <g id="xtick_8">
     <g id="line2d_15">
      <path d="M 585.901119 183.426667 
L 585.901119 39.96 
" clip-path="url(#pc851f175cb)" style="fill: none; stroke-dasharray: 0.8,1.32; stroke-dashoffset: 0; stroke: #b0b0b0; stroke-width: 0.8"/>
     </g>
     <g id="line2d_16">
      <g>
       <use xlink:href="#mab37d63d68" x="585.901119" y="183.426667" style="stroke: #000000; stroke-width: 0.8"/>
      </g>
     </g>
     <g id="text_8">
      <!-- 70 -->
      <g transform="translate(579.538619 198.025104) scale(0.1 -0.1)">
       <defs>
        <path id="DejaVuSans-37" d="M 525 4666 
L 3525 4666 
L 3525 4397 
L 1831 0 
L 1172 0 
L 2766 4134 
L 525 4134 
L 525 4666 
z
" transform="scale(0.015625)"/>
       </defs>
       <use xlink:href="#DejaVuSans-37"/>
       <use xlink:href="#DejaVuSans-30" x="63.623047"/>
      </g>
     </g>
    </g>
    <g id="xtick_9">
     <g id="line2d_17">
      <path d="M 661.313279 183.426667 
L 661.313279 39.96 
" clip-path="url(#pc851f175cb)" style="fill: none; stroke-dasharray: 0.8,1.32; stroke-dashoffset: 0; stroke: #b0b0b0; stroke-width: 0.8"/>
     </g>
     <g id="line2d_18">
      <g>
       <use xlink:href="#mab37d63d68" x="661.313279" y="183.426667" style="stroke: #000000; stroke-width: 0.8"/>
      </g>
     </g>
     <g id="text_9">
      <!-- 80 -->
      <g transform="translate(654.950779 198.025104) scale(0.1 -0.1)">
       <defs>
        <path id="DejaVuSans-38" d="M 2034 2216 
Q 1584 2216 1326 1975 
Q 1069 1734 1069 1313 
Q 1069 891 1326 650 
Q 1584 409 2034 409 
Q 2484 409 2743 651 
Q 3003 894 3003 1313 
Q 3003 1734 2745 1975 
Q 2488 2216 2034 2216 
z
M 1403 2484 
Q 997 2584 770 2862 
Q 544 3141 544 3541 
Q 544 4100 942 4425 
Q 1341 4750 2034 4750 
Q 2731 4750 3128 4425 
Q 3525 4100 3525 3541 
Q 3525 3141 3298 2862 
Q 3072 2584 2669 2484 
Q 3125 2378 3379 2068 
Q 3634 1759 3634 1313 
Q 3634 634 3220 271 
Q 2806 -91 2034 -91 
Q 1263 -91 848 271 
Q 434 634 434 1313 
Q 434 1759 690 2068 
Q 947 2378 1403 2484 
z
M 1172 3481 
Q 1172 3119 1398 2916 
Q 1625 2713 2034 2713 
Q 2441 2713 2670 2916 
Q 2900 3119 2900 3481 
Q 2900 3844 2670 4047 
Q 2441 4250 2034 4250 
Q 1625 4250 1398 4047 
Q 1172 3844 1172 3481 
z
" transform="scale(0.015625)"/>
       </defs>
       <use xlink:href="#DejaVuSans-38"/>
       <use xlink:href="#DejaVuSans-30" x="63.623047"/>
      </g>
     </g>
    </g>
   </g>
   <g id="matplotlib.axis_2">
    <g id="ytick_1">
     <g id="line2d_19">
      <path d="M 58.016 183.426667 
L 709.2 183.426667 
" clip-path="url(#pc851f175cb)" style="fill: none; stroke-dasharray: 0.8,1.32; stroke-dashoffset: 0; stroke: #b0b0b0; stroke-width: 0.8"/>
     </g>
     <g id="line2d_20">
      <defs>
       <path id="mc663b5ff88" d="M 0 0 
L -3.5 0 
" style="stroke: #000000; stroke-width: 0.8"/>
      </defs>
      <g>
       <use xlink:href="#mc663b5ff88" x="58.016" y="183.426667" style="stroke: #000000; stroke-width: 0.8"/>
      </g>
     </g>
     <g id="text_10">
      <!-- 0.0 -->
      <g transform="translate(35.112875 187.225885) scale(0.1 -0.1)">
       <defs>
        <path id="DejaVuSans-2e" d="M 684 794 
L 1344 794 
L 1344 0 
L 684 0 
L 684 794 
z
" transform="scale(0.015625)"/>
       </defs>
       <use xlink:href="#DejaVuSans-30"/>
       <use xlink:href="#DejaVuSans-2e" x="63.623047"/>
       <use xlink:href="#DejaVuSans-30" x="95.410156"/>
      </g>
     </g>
    </g>
    <g id="ytick_2">
     <g id="line2d_21">
      <path d="M 58.016 154.733333 
L 709.2 154.733333 
" clip-path="url(#pc851f175cb)" style="fill: none; stroke-dasharray: 0.8,1.32; stroke-dashoffset: 0; stroke: #b0b0b0; stroke-width: 0.8"/>
     </g>
     <g id="line2d_22">
      <g>
       <use xlink:href="#mc663b5ff88" x="58.016" y="154.733333" style="stroke: #000000; stroke-width: 0.8"/>
      </g>
     </g>
     <g id="text_11">
      <!-- 0.2 -->
      <g transform="translate(35.112875 158.532552) scale(0.1 -0.1)">
       <use xlink:href="#DejaVuSans-30"/>
       <use xlink:href="#DejaVuSans-2e" x="63.623047"/>
       <use xlink:href="#DejaVuSans-32" x="95.410156"/>
      </g>
     </g>
    </g>
    <g id="ytick_3">
     <g id="line2d_23">
      <path d="M 58.016 126.04 
L 709.2 126.04 
" clip-path="url(#pc851f175cb)" style="fill: none; stroke-dasharray: 0.8,1.32; stroke-dashoffset: 0; stroke: #b0b0b0; stroke-width: 0.8"/>
     </g>
     <g id="line2d_24">
      <g>
       <use xlink:href="#mc663b5ff88" x="58.016" y="126.04" style="stroke: #000000; stroke-width: 0.8"/>
      </g>
     </g>
     <g id="text_12">
      <!-- 0.4 -->
      <g transform="translate(35.112875 129.839219) scale(0.1 -0.1)">
       <use xlink:href="#DejaVuSans-30"/>
       <use xlink:href="#DejaVuSans-2e" x="63.623047"/>
       <use xlink:href="#DejaVuSans-34" x="95.410156"/>
      </g>
     </g>
    </g>
    <g id="ytick_4">
     <g id="line2d_25">
      <path d="M 58.016 97.346667 
L 709.2 97.346667 
" clip-path="url(#pc851f175cb)" style="fill: none; stroke-dasharray: 0.8,1.32; stroke-dashoffset: 0; stroke: #b0b0b0; stroke-width: 0.8"/>
     </g>
     <g id="line2d_26">
      <g>
       <use xlink:href="#mc663b5ff88" x="58.016" y="97.346667" style="stroke: #000000; stroke-width: 0.8"/>
      </g>
     </g>
     <g id="text_13">
      <!-- 0.6 -->
      <g transform="translate(35.112875 101.145885) scale(0.1 -0.1)">
       <use xlink:href="#DejaVuSans-30"/>
       <use xlink:href="#DejaVuSans-2e" x="63.623047"/>
       <use xlink:href="#DejaVuSans-36" x="95.410156"/>
      </g>
     </g>
    </g>
    <g id="ytick_5">
     <g id="line2d_27">
      <path d="M 58.016 68.653333 
L 709.2 68.653333 
" clip-path="url(#pc851f175cb)" style="fill: none; stroke-dasharray: 0.8,1.32; stroke-dashoffset: 0; stroke: #b0b0b0; stroke-width: 0.8"/>
     </g>
     <g id="line2d_28">
      <g>
       <use xlink:href="#mc663b5ff88" x="58.016" y="68.653333" style="stroke: #000000; stroke-width: 0.8"/>
      </g>
     </g>
     <g id="text_14">
      <!-- 0.8 -->
      <g transform="translate(35.112875 72.452552) scale(0.1 -0.1)">
       <use xlink:href="#DejaVuSans-30"/>
       <use xlink:href="#DejaVuSans-2e" x="63.623047"/>
       <use xlink:href="#DejaVuSans-38" x="95.410156"/>
      </g>
     </g>
    </g>
    <g id="ytick_6">
     <g id="line2d_29">
      <path d="M 58.016 39.96 
L 709.2 39.96 
" clip-path="url(#pc851f175cb)" style="fill: none; stroke-dasharray: 0.8,1.32; stroke-dashoffset: 0; stroke: #b0b0b0; stroke-width: 0.8"/>
     </g>
     <g id="line2d_30">
      <g>
       <use xlink:href="#mc663b5ff88" x="58.016" y="39.96" style="stroke: #000000; stroke-width: 0.8"/>
      </g>
     </g>
     <g id="text_15">
      <!-- 1.0 -->
      <g transform="translate(35.112875 43.759219) scale(0.1 -0.1)">
       <use xlink:href="#DejaVuSans-31"/>
       <use xlink:href="#DejaVuSans-2e" x="63.623047"/>
       <use xlink:href="#DejaVuSans-30" x="95.410156"/>
      </g>
     </g>
    </g>
    <g id="text_16">
     <!-- Local thrust ($C_{LT}$) [-] -->
     <g transform="translate(29.033187 161.793333) rotate(-90) scale(0.1 -0.1)">
      <defs>
       <path id="DejaVuSans-4c" d="M 628 4666 
L 1259 4666 
L 1259 531 
L 3531 531 
L 3531 0 
L 628 0 
L 628 4666 
z
" transform="scale(0.015625)"/>
       <path id="DejaVuSans-6f" d="M 1959 3097 
Q 1497 3097 1228 2736 
Q 959 2375 959 1747 
Q 959 1119 1226 758 
Q 1494 397 1959 397 
Q 2419 397 2687 759 
Q 2956 1122 2956 1747 
Q 2956 2369 2687 2733 
Q 2419 3097 1959 3097 
z
M 1959 3584 
Q 2709 3584 3137 3096 
Q 3566 2609 3566 1747 
Q 3566 888 3137 398 
Q 2709 -91 1959 -91 
Q 1206 -91 779 398 
Q 353 888 353 1747 
Q 353 2609 779 3096 
Q 1206 3584 1959 3584 
z
" transform="scale(0.015625)"/>
       <path id="DejaVuSans-63" d="M 3122 3366 
L 3122 2828 
Q 2878 2963 2633 3030 
Q 2388 3097 2138 3097 
Q 1578 3097 1268 2742 
Q 959 2388 959 1747 
Q 959 1106 1268 751 
Q 1578 397 2138 397 
Q 2388 397 2633 464 
Q 2878 531 3122 666 
L 3122 134 
Q 2881 22 2623 -34 
Q 2366 -91 2075 -91 
Q 1284 -91 818 406 
Q 353 903 353 1747 
Q 353 2603 823 3093 
Q 1294 3584 2113 3584 
Q 2378 3584 2631 3529 
Q 2884 3475 3122 3366 
z
" transform="scale(0.015625)"/>
       <path id="DejaVuSans-61" d="M 2194 1759 
Q 1497 1759 1228 1600 
Q 959 1441 959 1056 
Q 959 750 1161 570 
Q 1363 391 1709 391 
Q 2188 391 2477 730 
Q 2766 1069 2766 1631 
L 2766 1759 
L 2194 1759 
z
M 3341 1997 
L 3341 0 
L 2766 0 
L 2766 531 
Q 2569 213 2275 61 
Q 1981 -91 1556 -91 
Q 1019 -91 701 211 
Q 384 513 384 1019 
Q 384 1609 779 1909 
Q 1175 2209 1959 2209 
L 2766 2209 
L 2766 2266 
Q 2766 2663 2505 2880 
Q 2244 3097 1772 3097 
Q 1472 3097 1187 3025 
Q 903 2953 641 2809 
L 641 3341 
Q 956 3463 1253 3523 
Q 1550 3584 1831 3584 
Q 2591 3584 2966 3190 
Q 3341 2797 3341 1997 
z
" transform="scale(0.015625)"/>
       <path id="DejaVuSans-6c" d="M 603 4863 
L 1178 4863 
L 1178 0 
L 603 0 
L 603 4863 
z
" transform="scale(0.015625)"/>
       <path id="DejaVuSans-20" transform="scale(0.015625)"/>
       <path id="DejaVuSans-74" d="M 1172 4494 
L 1172 3500 
L 2356 3500 
L 2356 3053 
L 1172 3053 
L 1172 1153 
Q 1172 725 1289 603 
Q 1406 481 1766 481 
L 2356 481 
L 2356 0 
L 1766 0 
Q 1100 0 847 248 
Q 594 497 594 1153 
L 594 3053 
L 172 3053 
L 172 3500 
L 594 3500 
L 594 4494 
L 1172 4494 
z
" transform="scale(0.015625)"/>
       <path id="DejaVuSans-68" d="M 3513 2113 
L 3513 0 
L 2938 0 
L 2938 2094 
Q 2938 2591 2744 2837 
Q 2550 3084 2163 3084 
Q 1697 3084 1428 2787 
Q 1159 2491 1159 1978 
L 1159 0 
L 581 0 
L 581 4863 
L 1159 4863 
L 1159 2956 
Q 1366 3272 1645 3428 
Q 1925 3584 2291 3584 
Q 2894 3584 3203 3211 
Q 3513 2838 3513 2113 
z
" transform="scale(0.015625)"/>
       <path id="DejaVuSans-72" d="M 2631 2963 
Q 2534 3019 2420 3045 
Q 2306 3072 2169 3072 
Q 1681 3072 1420 2755 
Q 1159 2438 1159 1844 
L 1159 0 
L 581 0 
L 581 3500 
L 1159 3500 
L 1159 2956 
Q 1341 3275 1631 3429 
Q 1922 3584 2338 3584 
Q 2397 3584 2469 3576 
Q 2541 3569 2628 3553 
L 2631 2963 
z
" transform="scale(0.015625)"/>
       <path id="DejaVuSans-75" d="M 544 1381 
L 544 3500 
L 1119 3500 
L 1119 1403 
Q 1119 906 1312 657 
Q 1506 409 1894 409 
Q 2359 409 2629 706 
Q 2900 1003 2900 1516 
L 2900 3500 
L 3475 3500 
L 3475 0 
L 2900 0 
L 2900 538 
Q 2691 219 2414 64 
Q 2138 -91 1772 -91 
Q 1169 -91 856 284 
Q 544 659 544 1381 
z
M 1991 3584 
L 1991 3584 
z
" transform="scale(0.015625)"/>
       <path id="DejaVuSans-73" d="M 2834 3397 
L 2834 2853 
Q 2591 2978 2328 3040 
Q 2066 3103 1784 3103 
Q 1356 3103 1142 2972 
Q 928 2841 928 2578 
Q 928 2378 1081 2264 
Q 1234 2150 1697 2047 
L 1894 2003 
Q 2506 1872 2764 1633 
Q 3022 1394 3022 966 
Q 3022 478 2636 193 
Q 2250 -91 1575 -91 
Q 1294 -91 989 -36 
Q 684 19 347 128 
L 347 722 
Q 666 556 975 473 
Q 1284 391 1588 391 
Q 1994 391 2212 530 
Q 2431 669 2431 922 
Q 2431 1156 2273 1281 
Q 2116 1406 1581 1522 
L 1381 1569 
Q 847 1681 609 1914 
Q 372 2147 372 2553 
Q 372 3047 722 3315 
Q 1072 3584 1716 3584 
Q 2034 3584 2315 3537 
Q 2597 3491 2834 3397 
z
" transform="scale(0.015625)"/>
       <path id="DejaVuSans-28" d="M 1984 4856 
Q 1566 4138 1362 3434 
Q 1159 2731 1159 2009 
Q 1159 1288 1364 580 
Q 1569 -128 1984 -844 
L 1484 -844 
Q 1016 -109 783 600 
Q 550 1309 550 2009 
Q 550 2706 781 3412 
Q 1013 4119 1484 4856 
L 1984 4856 
z
" transform="scale(0.015625)"/>
       <path id="DejaVuSans-Oblique-43" d="M 4447 4306 
L 4319 3641 
Q 4019 3944 3683 4091 
Q 3347 4238 2956 4238 
Q 2422 4238 2017 3981 
Q 1613 3725 1319 3200 
Q 1131 2863 1032 2486 
Q 934 2109 934 1728 
Q 934 1091 1264 756 
Q 1594 422 2222 422 
Q 2656 422 3056 561 
Q 3456 700 3834 978 
L 3688 231 
Q 3316 72 2936 -9 
Q 2556 -91 2175 -91 
Q 1278 -91 773 396 
Q 269 884 269 1753 
Q 269 2309 461 2846 
Q 653 3384 1013 3828 
Q 1394 4300 1883 4525 
Q 2372 4750 3022 4750 
Q 3422 4750 3780 4639 
Q 4138 4528 4447 4306 
z
" transform="scale(0.015625)"/>
       <path id="DejaVuSans-Oblique-4c" d="M 1075 4666 
L 1709 4666 
L 909 525 
L 3181 525 
L 3078 0 
L 172 0 
L 1075 4666 
z
" transform="scale(0.015625)"/>
       <path id="DejaVuSans-Oblique-54" d="M 378 4666 
L 4325 4666 
L 4225 4134 
L 2559 4134 
L 1759 0 
L 1125 0 
L 1925 4134 
L 275 4134 
L 378 4666 
z
" transform="scale(0.015625)"/>
       <path id="DejaVuSans-29" d="M 513 4856 
L 1013 4856 
Q 1481 4119 1714 3412 
Q 1947 2706 1947 2009 
Q 1947 1309 1714 600 
Q 1481 -109 1013 -844 
L 513 -844 
Q 928 -128 1133 580 
Q 1338 1288 1338 2009 
Q 1338 2731 1133 3434 
Q 928 4138 513 4856 
z
" transform="scale(0.015625)"/>
       <path id="DejaVuSans-5b" d="M 550 4863 
L 1875 4863 
L 1875 4416 
L 1125 4416 
L 1125 -397 
L 1875 -397 
L 1875 -844 
L 550 -844 
L 550 4863 
z
" transform="scale(0.015625)"/>
       <path id="DejaVuSans-2d" d="M 313 2009 
L 1997 2009 
L 1997 1497 
L 313 1497 
L 313 2009 
z
" transform="scale(0.015625)"/>
       <path id="DejaVuSans-5d" d="M 1947 4863 
L 1947 -844 
L 622 -844 
L 622 -397 
L 1369 -397 
L 1369 4416 
L 622 4416 
L 622 4863 
L 1947 4863 
z
" transform="scale(0.015625)"/>
      </defs>
      <use xlink:href="#DejaVuSans-4c" transform="translate(0 0.015625)"/>
      <use xlink:href="#DejaVuSans-6f" transform="translate(55.712891 0.015625)"/>
      <use xlink:href="#DejaVuSans-63" transform="translate(116.894531 0.015625)"/>
      <use xlink:href="#DejaVuSans-61" transform="translate(171.875 0.015625)"/>
      <use xlink:href="#DejaVuSans-6c" transform="translate(233.154297 0.015625)"/>
      <use xlink:href="#DejaVuSans-20" transform="translate(260.9375 0.015625)"/>
      <use xlink:href="#DejaVuSans-74" transform="translate(292.724609 0.015625)"/>
      <use xlink:href="#DejaVuSans-68" transform="translate(331.933594 0.015625)"/>
      <use xlink:href="#DejaVuSans-72" transform="translate(395.3125 0.015625)"/>
      <use xlink:href="#DejaVuSans-75" transform="translate(436.425781 0.015625)"/>
      <use xlink:href="#DejaVuSans-73" transform="translate(499.804688 0.015625)"/>
      <use xlink:href="#DejaVuSans-74" transform="translate(551.904297 0.015625)"/>
      <use xlink:href="#DejaVuSans-20" transform="translate(591.113281 0.015625)"/>
      <use xlink:href="#DejaVuSans-28" transform="translate(622.900391 0.015625)"/>
      <use xlink:href="#DejaVuSans-Oblique-43" transform="translate(661.914062 0.015625)"/>
      <use xlink:href="#DejaVuSans-Oblique-4c" transform="translate(731.738281 -16.390625) scale(0.7)"/>
      <use xlink:href="#DejaVuSans-Oblique-54" transform="translate(770.737305 -16.390625) scale(0.7)"/>
      <use xlink:href="#DejaVuSans-29" transform="translate(816.230469 0.015625)"/>
      <use xlink:href="#DejaVuSans-20" transform="translate(855.244141 0.015625)"/>
      <use xlink:href="#DejaVuSans-5b" transform="translate(887.03125 0.015625)"/>
      <use xlink:href="#DejaVuSans-2d" transform="translate(926.044922 0.015625)"/>
      <use xlink:href="#DejaVuSans-5d" transform="translate(962.128906 0.015625)"/>
     </g>
    </g>
   </g>
   <g id="line2d_31">
    <path d="M 79.131405 101.161425 
L 95.267673 132.8026 
L 111.403942 144.376551 
L 127.54021 149.799415 
L 143.676479 152.555273 
L 159.812748 153.223855 
L 175.949016 151.371351 
L 192.085285 146.035216 
L 208.221553 136.085416 
L 224.357822 121.025719 
L 240.49409 102.627286 
L 256.630359 84.927619 
L 272.766627 63.782718 
L 288.902896 55.18071 
L 305.039165 55.247807 
L 321.175433 55.30679 
L 337.311702 55.358969 
L 353.44797 55.406466 
L 369.584239 55.450613 
L 385.720507 55.491366 
L 401.856776 55.528995 
L 417.993044 55.564101 
L 434.129313 55.597791 
L 450.265582 55.63183 
L 466.40185 55.669144 
L 482.538119 55.714335 
L 498.674387 55.775228 
L 514.810656 55.863923 
L 530.946924 55.999531 
L 547.083193 56.213911 
L 563.219461 56.559229 
L 579.35573 57.122452 
L 595.491999 58.04889 
L 611.628267 59.57966 
L 627.764536 62.114482 
L 643.900804 66.323826 
L 660.037073 73.36155 
L 676.173341 85.346568 
L 692.30961 100.799833 
L 708.445878 121.732572 
" clip-path="url(#pc851f175cb)" style="fill: none; stroke: #1f77b4; stroke-width: 1.5; stroke-linecap: square"/>
   </g>
   <g id="line2d_32">
    <path d="M 58.016 55.900741 
L 709.2 55.900741 
" clip-path="url(#pc851f175cb)" style="fill: none; stroke-dasharray: 5.55,2.4; stroke-dashoffset: 0; stroke: #000000; stroke-width: 1.5"/>
   </g>
   <g id="line2d_33">
    <path d="M 79.131405 101.161425 
L 95.267673 132.814782 
L 111.403942 144.460224 
L 127.54021 150.040508 
L 143.676479 153.164077 
L 159.812748 154.534089 
L 175.949016 153.828073 
L 192.085285 150.139153 
L 208.221553 142.281774 
L 224.357822 129.492511 
L 240.49409 112.985947 
L 256.630359 95.344116 
L 272.766627 70.100544 
L 288.902896 56.173041 
L 305.039165 55.270632 
L 321.175433 55.327219 
L 337.311702 55.377348 
L 353.44797 55.423047 
L 369.584239 55.465603 
L 385.720507 55.504997 
L 401.856776 55.541504 
L 417.993044 55.575726 
L 434.129313 55.608767 
L 450.265582 55.642387 
L 466.40185 55.679518 
L 482.538119 55.724802 
L 498.674387 55.786263 
L 514.810656 55.87637 
L 530.946924 56.013533 
L 547.083193 56.228807 
L 563.219461 56.574323 
L 579.35573 57.13714 
L 595.491999 58.062722 
L 611.628267 59.59214 
L 627.764536 62.125299 
L 643.900804 66.3334 
L 660.037073 73.370077 
L 676.173341 85.353954 
L 692.30961 100.805524 
L 708.445878 121.733694 
" clip-path="url(#pc851f175cb)" style="fill: none; stroke: #ff7f0e; stroke-width: 1.5; stroke-linecap: square"/>
   </g>
   <g id="line2d_34">
    <path d="M 58.016 55.900741 
L 709.2 55.900741 
" clip-path="url(#pc851f175cb)" style="fill: none; stroke-dasharray: 5.55,2.4; stroke-dashoffset: 0; stroke: #000000; stroke-width: 1.5"/>
   </g>
   <g id="line2d_35">
    <path d="M 79.131405 101.161425 
L 95.267673 132.826416 
L 111.403942 144.533148 
L 127.54021 150.24884 
L 143.676479 153.696034 
L 159.812748 155.701346 
L 175.949016 156.066414 
L 192.085285 153.969985 
L 208.221553 148.219482 
L 224.357822 137.845158 
L 240.49409 123.550574 
L 256.630359 106.27135 
L 272.766627 77.477811 
L 288.902896 58.914926 
L 305.039165 55.287495 
L 321.175433 55.342683 
L 337.311702 55.391636 
L 353.44797 55.436342 
L 369.584239 55.478081 
L 385.720507 55.516852 
L 401.856776 55.552954 
L 417.993044 55.587021 
L 434.129313 55.620222 
L 450.265582 55.654473 
L 466.40185 55.693191 
L 482.538119 55.740781 
L 498.674387 55.804273 
L 514.810656 55.895124 
L 530.946924 56.031564 
L 547.083193 56.244881 
L 563.219461 56.587742 
L 579.35573 57.148068 
L 595.491999 58.071957 
L 611.628267 59.60027 
L 627.764536 62.132775 
L 643.900804 66.340084 
L 660.037073 73.375836 
L 676.173341 85.358905 
L 692.30961 100.809338 
L 708.445878 121.734447 
" clip-path="url(#pc851f175cb)" style="fill: none; stroke: #2ca02c; stroke-width: 1.5; stroke-linecap: square"/>
   </g>
   <g id="line2d_36">
    <path d="M 58.016 55.900741 
L 709.2 55.900741 
" clip-path="url(#pc851f175cb)" style="fill: none; stroke-dasharray: 5.55,2.4; stroke-dashoffset: 0; stroke: #000000; stroke-width: 1.5"/>
   </g>
   <g id="patch_3">
    <path d="M 58.016 183.426667 
L 58.016 39.96 
" style="fill: none; stroke: #000000; stroke-width: 0.8; stroke-linejoin: miter; stroke-linecap: square"/>
   </g>
   <g id="patch_4">
    <path d="M 709.2 183.426667 
L 709.2 39.96 
" style="fill: none; stroke: #000000; stroke-width: 0.8; stroke-linejoin: miter; stroke-linecap: square"/>
   </g>
   <g id="patch_5">
    <path d="M 58.016 183.426667 
L 709.2 183.426667 
" style="fill: none; stroke: #000000; stroke-width: 0.8; stroke-linejoin: miter; stroke-linecap: square"/>
   </g>
   <g id="patch_6">
    <path d="M 58.016 39.96 
L 709.2 39.96 
" style="fill: none; stroke: #000000; stroke-width: 0.8; stroke-linejoin: miter; stroke-linecap: square"/>
   </g>
   <g id="legend_1">
    <g id="patch_7">
     <path d="M 619.434375 178.426667 
L 702.2 178.426667 
Q 704.2 178.426667 704.2 176.426667 
L 704.2 133.392292 
Q 704.2 131.392292 702.2 131.392292 
L 619.434375 131.392292 
Q 617.434375 131.392292 617.434375 133.392292 
L 617.434375 176.426667 
Q 617.434375 178.426667 619.434375 178.426667 
z
" style="fill: #ffffff; opacity: 0.8; stroke: #cccccc; stroke-linejoin: miter"/>
    </g>
    <g id="line2d_37">
     <path d="M 621.434375 139.490729 
L 631.434375 139.490729 
L 641.434375 139.490729 
" style="fill: none; stroke: #1f77b4; stroke-width: 1.5; stroke-linecap: square"/>
    </g>
    <g id="text_17">
     <!-- Design f 1 -->
     <g transform="translate(649.434375 142.990729) scale(0.1 -0.1)">
      <defs>
       <path id="DejaVuSans-44" d="M 1259 4147 
L 1259 519 
L 2022 519 
Q 2988 519 3436 956 
Q 3884 1394 3884 2338 
Q 3884 3275 3436 3711 
Q 2988 4147 2022 4147 
L 1259 4147 
z
M 628 4666 
L 1925 4666 
Q 3281 4666 3915 4102 
Q 4550 3538 4550 2338 
Q 4550 1131 3912 565 
Q 3275 0 1925 0 
L 628 0 
L 628 4666 
z
" transform="scale(0.015625)"/>
       <path id="DejaVuSans-65" d="M 3597 1894 
L 3597 1613 
L 953 1613 
Q 991 1019 1311 708 
Q 1631 397 2203 397 
Q 2534 397 2845 478 
Q 3156 559 3463 722 
L 3463 178 
Q 3153 47 2828 -22 
Q 2503 -91 2169 -91 
Q 1331 -91 842 396 
Q 353 884 353 1716 
Q 353 2575 817 3079 
Q 1281 3584 2069 3584 
Q 2775 3584 3186 3129 
Q 3597 2675 3597 1894 
z
M 3022 2063 
Q 3016 2534 2758 2815 
Q 2500 3097 2075 3097 
Q 1594 3097 1305 2825 
Q 1016 2553 972 2059 
L 3022 2063 
z
" transform="scale(0.015625)"/>
       <path id="DejaVuSans-69" d="M 603 3500 
L 1178 3500 
L 1178 0 
L 603 0 
L 603 3500 
z
M 603 4863 
L 1178 4863 
L 1178 4134 
L 603 4134 
L 603 4863 
z
" transform="scale(0.015625)"/>
       <path id="DejaVuSans-67" d="M 2906 1791 
Q 2906 2416 2648 2759 
Q 2391 3103 1925 3103 
Q 1463 3103 1205 2759 
Q 947 2416 947 1791 
Q 947 1169 1205 825 
Q 1463 481 1925 481 
Q 2391 481 2648 825 
Q 2906 1169 2906 1791 
z
M 3481 434 
Q 3481 -459 3084 -895 
Q 2688 -1331 1869 -1331 
Q 1566 -1331 1297 -1286 
Q 1028 -1241 775 -1147 
L 775 -588 
Q 1028 -725 1275 -790 
Q 1522 -856 1778 -856 
Q 2344 -856 2625 -561 
Q 2906 -266 2906 331 
L 2906 616 
Q 2728 306 2450 153 
Q 2172 0 1784 0 
Q 1141 0 747 490 
Q 353 981 353 1791 
Q 353 2603 747 3093 
Q 1141 3584 1784 3584 
Q 2172 3584 2450 3431 
Q 2728 3278 2906 2969 
L 2906 3500 
L 3481 3500 
L 3481 434 
z
" transform="scale(0.015625)"/>
       <path id="DejaVuSans-6e" d="M 3513 2113 
L 3513 0 
L 2938 0 
L 2938 2094 
Q 2938 2591 2744 2837 
Q 2550 3084 2163 3084 
Q 1697 3084 1428 2787 
Q 1159 2491 1159 1978 
L 1159 0 
L 581 0 
L 581 3500 
L 1159 3500 
L 1159 2956 
Q 1366 3272 1645 3428 
Q 1925 3584 2291 3584 
Q 2894 3584 3203 3211 
Q 3513 2838 3513 2113 
z
" transform="scale(0.015625)"/>
       <path id="DejaVuSans-66" d="M 2375 4863 
L 2375 4384 
L 1825 4384 
Q 1516 4384 1395 4259 
Q 1275 4134 1275 3809 
L 1275 3500 
L 2222 3500 
L 2222 3053 
L 1275 3053 
L 1275 0 
L 697 0 
L 697 3053 
L 147 3053 
L 147 3500 
L 697 3500 
L 697 3744 
Q 697 4328 969 4595 
Q 1241 4863 1831 4863 
L 2375 4863 
z
" transform="scale(0.015625)"/>
      </defs>
      <use xlink:href="#DejaVuSans-44"/>
      <use xlink:href="#DejaVuSans-65" x="77.001953"/>
      <use xlink:href="#DejaVuSans-73" x="138.525391"/>
      <use xlink:href="#DejaVuSans-69" x="190.625"/>
      <use xlink:href="#DejaVuSans-67" x="218.408203"/>
      <use xlink:href="#DejaVuSans-6e" x="281.884766"/>
      <use xlink:href="#DejaVuSans-20" x="345.263672"/>
      <use xlink:href="#DejaVuSans-66" x="377.050781"/>
      <use xlink:href="#DejaVuSans-20" x="412.255859"/>
      <use xlink:href="#DejaVuSans-31" x="444.042969"/>
     </g>
    </g>
    <g id="line2d_38">
     <path d="M 621.434375 154.168854 
L 631.434375 154.168854 
L 641.434375 154.168854 
" style="fill: none; stroke: #ff7f0e; stroke-width: 1.5; stroke-linecap: square"/>
    </g>
    <g id="text_18">
     <!-- Design f 2 -->
     <g transform="translate(649.434375 157.668854) scale(0.1 -0.1)">
      <use xlink:href="#DejaVuSans-44"/>
      <use xlink:href="#DejaVuSans-65" x="77.001953"/>
      <use xlink:href="#DejaVuSans-73" x="138.525391"/>
      <use xlink:href="#DejaVuSans-69" x="190.625"/>
      <use xlink:href="#DejaVuSans-67" x="218.408203"/>
      <use xlink:href="#DejaVuSans-6e" x="281.884766"/>
      <use xlink:href="#DejaVuSans-20" x="345.263672"/>
      <use xlink:href="#DejaVuSans-66" x="377.050781"/>
      <use xlink:href="#DejaVuSans-20" x="412.255859"/>
      <use xlink:href="#DejaVuSans-32" x="444.042969"/>
     </g>
    </g>
    <g id="line2d_39">
     <path d="M 621.434375 168.846979 
L 631.434375 168.846979 
L 641.434375 168.846979 
" style="fill: none; stroke: #2ca02c; stroke-width: 1.5; stroke-linecap: square"/>
    </g>
    <g id="text_19">
     <!-- Design f 3 -->
     <g transform="translate(649.434375 172.346979) scale(0.1 -0.1)">
      <use xlink:href="#DejaVuSans-44"/>
      <use xlink:href="#DejaVuSans-65" x="77.001953"/>
      <use xlink:href="#DejaVuSans-73" x="138.525391"/>
      <use xlink:href="#DejaVuSans-69" x="190.625"/>
      <use xlink:href="#DejaVuSans-67" x="218.408203"/>
      <use xlink:href="#DejaVuSans-6e" x="281.884766"/>
      <use xlink:href="#DejaVuSans-20" x="345.263672"/>
      <use xlink:href="#DejaVuSans-66" x="377.050781"/>
      <use xlink:href="#DejaVuSans-20" x="412.255859"/>
      <use xlink:href="#DejaVuSans-33" x="444.042969"/>
     </g>
    </g>
   </g>
  </g>
  <g id="axes_2">
   <g id="patch_8">
    <path d="M 58.016 358.733333 
L 709.2 358.733333 
L 709.2 215.266667 
L 58.016 215.266667 
z
" style="fill: #ffffff"/>
   </g>
   <g id="matplotlib.axis_3">
    <g id="xtick_10">
     <g id="line2d_40">
      <path d="M 58.016 358.733333 
L 58.016 215.266667 
" clip-path="url(#p3ffa2898d6)" style="fill: none; stroke-dasharray: 0.8,1.32; stroke-dashoffset: 0; stroke: #b0b0b0; stroke-width: 0.8"/>
     </g>
     <g id="line2d_41">
      <g>
       <use xlink:href="#mab37d63d68" x="58.016" y="358.733333" style="stroke: #000000; stroke-width: 0.8"/>
      </g>
     </g>
     <g id="text_20">
      <!-- 0 -->
      <g transform="translate(54.83475 373.331771) scale(0.1 -0.1)">
       <use xlink:href="#DejaVuSans-30"/>
      </g>
     </g>
    </g>
    <g id="xtick_11">
     <g id="line2d_42">
      <path d="M 133.42816 358.733333 
L 133.42816 215.266667 
" clip-path="url(#p3ffa2898d6)" style="fill: none; stroke-dasharray: 0.8,1.32; stroke-dashoffset: 0; stroke: #b0b0b0; stroke-width: 0.8"/>
     </g>
     <g id="line2d_43">
      <g>
       <use xlink:href="#mab37d63d68" x="133.42816" y="358.733333" style="stroke: #000000; stroke-width: 0.8"/>
      </g>
     </g>
     <g id="text_21">
      <!-- 10 -->
      <g transform="translate(127.06566 373.331771) scale(0.1 -0.1)">
       <use xlink:href="#DejaVuSans-31"/>
       <use xlink:href="#DejaVuSans-30" x="63.623047"/>
      </g>
     </g>
    </g>
    <g id="xtick_12">
     <g id="line2d_44">
      <path d="M 208.84032 358.733333 
L 208.84032 215.266667 
" clip-path="url(#p3ffa2898d6)" style="fill: none; stroke-dasharray: 0.8,1.32; stroke-dashoffset: 0; stroke: #b0b0b0; stroke-width: 0.8"/>
     </g>
     <g id="line2d_45">
      <g>
       <use xlink:href="#mab37d63d68" x="208.84032" y="358.733333" style="stroke: #000000; stroke-width: 0.8"/>
      </g>
     </g>
     <g id="text_22">
      <!-- 20 -->
      <g transform="translate(202.47782 373.331771) scale(0.1 -0.1)">
       <use xlink:href="#DejaVuSans-32"/>
       <use xlink:href="#DejaVuSans-30" x="63.623047"/>
      </g>
     </g>
    </g>
    <g id="xtick_13">
     <g id="line2d_46">
      <path d="M 284.252479 358.733333 
L 284.252479 215.266667 
" clip-path="url(#p3ffa2898d6)" style="fill: none; stroke-dasharray: 0.8,1.32; stroke-dashoffset: 0; stroke: #b0b0b0; stroke-width: 0.8"/>
     </g>
     <g id="line2d_47">
      <g>
       <use xlink:href="#mab37d63d68" x="284.252479" y="358.733333" style="stroke: #000000; stroke-width: 0.8"/>
      </g>
     </g>
     <g id="text_23">
      <!-- 30 -->
      <g transform="translate(277.889979 373.331771) scale(0.1 -0.1)">
       <use xlink:href="#DejaVuSans-33"/>
       <use xlink:href="#DejaVuSans-30" x="63.623047"/>
      </g>
     </g>
    </g>
    <g id="xtick_14">
     <g id="line2d_48">
      <path d="M 359.664639 358.733333 
L 359.664639 215.266667 
" clip-path="url(#p3ffa2898d6)" style="fill: none; stroke-dasharray: 0.8,1.32; stroke-dashoffset: 0; stroke: #b0b0b0; stroke-width: 0.8"/>
     </g>
     <g id="line2d_49">
      <g>
       <use xlink:href="#mab37d63d68" x="359.664639" y="358.733333" style="stroke: #000000; stroke-width: 0.8"/>
      </g>
     </g>
     <g id="text_24">
      <!-- 40 -->
      <g transform="translate(353.302139 373.331771) scale(0.1 -0.1)">
       <use xlink:href="#DejaVuSans-34"/>
       <use xlink:href="#DejaVuSans-30" x="63.623047"/>
      </g>
     </g>
    </g>
    <g id="xtick_15">
     <g id="line2d_50">
      <path d="M 435.076799 358.733333 
L 435.076799 215.266667 
" clip-path="url(#p3ffa2898d6)" style="fill: none; stroke-dasharray: 0.8,1.32; stroke-dashoffset: 0; stroke: #b0b0b0; stroke-width: 0.8"/>
     </g>
     <g id="line2d_51">
      <g>
       <use xlink:href="#mab37d63d68" x="435.076799" y="358.733333" style="stroke: #000000; stroke-width: 0.8"/>
      </g>
     </g>
     <g id="text_25">
      <!-- 50 -->
      <g transform="translate(428.714299 373.331771) scale(0.1 -0.1)">
       <use xlink:href="#DejaVuSans-35"/>
       <use xlink:href="#DejaVuSans-30" x="63.623047"/>
      </g>
     </g>
    </g>
    <g id="xtick_16">
     <g id="line2d_52">
      <path d="M 510.488959 358.733333 
L 510.488959 215.266667 
" clip-path="url(#p3ffa2898d6)" style="fill: none; stroke-dasharray: 0.8,1.32; stroke-dashoffset: 0; stroke: #b0b0b0; stroke-width: 0.8"/>
     </g>
     <g id="line2d_53">
      <g>
       <use xlink:href="#mab37d63d68" x="510.488959" y="358.733333" style="stroke: #000000; stroke-width: 0.8"/>
      </g>
     </g>
     <g id="text_26">
      <!-- 60 -->
      <g transform="translate(504.126459 373.331771) scale(0.1 -0.1)">
       <use xlink:href="#DejaVuSans-36"/>
       <use xlink:href="#DejaVuSans-30" x="63.623047"/>
      </g>
     </g>
    </g>
    <g id="xtick_17">
     <g id="line2d_54">
      <path d="M 585.901119 358.733333 
L 585.901119 215.266667 
" clip-path="url(#p3ffa2898d6)" style="fill: none; stroke-dasharray: 0.8,1.32; stroke-dashoffset: 0; stroke: #b0b0b0; stroke-width: 0.8"/>
     </g>
     <g id="line2d_55">
      <g>
       <use xlink:href="#mab37d63d68" x="585.901119" y="358.733333" style="stroke: #000000; stroke-width: 0.8"/>
      </g>
     </g>
     <g id="text_27">
      <!-- 70 -->
      <g transform="translate(579.538619 373.331771) scale(0.1 -0.1)">
       <use xlink:href="#DejaVuSans-37"/>
       <use xlink:href="#DejaVuSans-30" x="63.623047"/>
      </g>
     </g>
    </g>
    <g id="xtick_18">
     <g id="line2d_56">
      <path d="M 661.313279 358.733333 
L 661.313279 215.266667 
" clip-path="url(#p3ffa2898d6)" style="fill: none; stroke-dasharray: 0.8,1.32; stroke-dashoffset: 0; stroke: #b0b0b0; stroke-width: 0.8"/>
     </g>
     <g id="line2d_57">
      <g>
       <use xlink:href="#mab37d63d68" x="661.313279" y="358.733333" style="stroke: #000000; stroke-width: 0.8"/>
      </g>
     </g>
     <g id="text_28">
      <!-- 80 -->
      <g transform="translate(654.950779 373.331771) scale(0.1 -0.1)">
       <use xlink:href="#DejaVuSans-38"/>
       <use xlink:href="#DejaVuSans-30" x="63.623047"/>
      </g>
     </g>
    </g>
   </g>
   <g id="matplotlib.axis_4">
    <g id="ytick_7">
     <g id="line2d_58">
      <path d="M 58.016 358.733333 
L 709.2 358.733333 
" clip-path="url(#p3ffa2898d6)" style="fill: none; stroke-dasharray: 0.8,1.32; stroke-dashoffset: 0; stroke: #b0b0b0; stroke-width: 0.8"/>
     </g>
     <g id="line2d_59">
      <g>
       <use xlink:href="#mc663b5ff88" x="58.016" y="358.733333" style="stroke: #000000; stroke-width: 0.8"/>
      </g>
     </g>
     <g id="text_29">
      <!-- −0.4 -->
      <g transform="translate(26.733188 362.532552) scale(0.1 -0.1)">
       <defs>
        <path id="DejaVuSans-2212" d="M 678 2272 
L 4684 2272 
L 4684 1741 
L 678 1741 
L 678 2272 
z
" transform="scale(0.015625)"/>
       </defs>
       <use xlink:href="#DejaVuSans-2212"/>
       <use xlink:href="#DejaVuSans-30" x="83.789062"/>
       <use xlink:href="#DejaVuSans-2e" x="147.412109"/>
       <use xlink:href="#DejaVuSans-34" x="179.199219"/>
      </g>
     </g>
    </g>
    <g id="ytick_8">
     <g id="line2d_60">
      <path d="M 58.016 330.04 
L 709.2 330.04 
" clip-path="url(#p3ffa2898d6)" style="fill: none; stroke-dasharray: 0.8,1.32; stroke-dashoffset: 0; stroke: #b0b0b0; stroke-width: 0.8"/>
     </g>
     <g id="line2d_61">
      <g>
       <use xlink:href="#mc663b5ff88" x="58.016" y="330.04" style="stroke: #000000; stroke-width: 0.8"/>
      </g>
     </g>
     <g id="text_30">
      <!-- −0.2 -->
      <g transform="translate(26.733188 333.839219) scale(0.1 -0.1)">
       <use xlink:href="#DejaVuSans-2212"/>
       <use xlink:href="#DejaVuSans-30" x="83.789062"/>
       <use xlink:href="#DejaVuSans-2e" x="147.412109"/>
       <use xlink:href="#DejaVuSans-32" x="179.199219"/>
      </g>
     </g>
    </g>
    <g id="ytick_9">
     <g id="line2d_62">
      <path d="M 58.016 301.346667 
L 709.2 301.346667 
" clip-path="url(#p3ffa2898d6)" style="fill: none; stroke-dasharray: 0.8,1.32; stroke-dashoffset: 0; stroke: #b0b0b0; stroke-width: 0.8"/>
     </g>
     <g id="line2d_63">
      <g>
       <use xlink:href="#mc663b5ff88" x="58.016" y="301.346667" style="stroke: #000000; stroke-width: 0.8"/>
      </g>
     </g>
     <g id="text_31">
      <!-- 0.0 -->
      <g transform="translate(35.112875 305.145885) scale(0.1 -0.1)">
       <use xlink:href="#DejaVuSans-30"/>
       <use xlink:href="#DejaVuSans-2e" x="63.623047"/>
       <use xlink:href="#DejaVuSans-30" x="95.410156"/>
      </g>
     </g>
    </g>
    <g id="ytick_10">
     <g id="line2d_64">
      <path d="M 58.016 272.653333 
L 709.2 272.653333 
" clip-path="url(#p3ffa2898d6)" style="fill: none; stroke-dasharray: 0.8,1.32; stroke-dashoffset: 0; stroke: #b0b0b0; stroke-width: 0.8"/>
     </g>
     <g id="line2d_65">
      <g>
       <use xlink:href="#mc663b5ff88" x="58.016" y="272.653333" style="stroke: #000000; stroke-width: 0.8"/>
      </g>
     </g>
     <g id="text_32">
      <!-- 0.2 -->
      <g transform="translate(35.112875 276.452552) scale(0.1 -0.1)">
       <use xlink:href="#DejaVuSans-30"/>
       <use xlink:href="#DejaVuSans-2e" x="63.623047"/>
       <use xlink:href="#DejaVuSans-32" x="95.410156"/>
      </g>
     </g>
    </g>
    <g id="ytick_11">
     <g id="line2d_66">
      <path d="M 58.016 243.96 
L 709.2 243.96 
" clip-path="url(#p3ffa2898d6)" style="fill: none; stroke-dasharray: 0.8,1.32; stroke-dashoffset: 0; stroke: #b0b0b0; stroke-width: 0.8"/>
     </g>
     <g id="line2d_67">
      <g>
       <use xlink:href="#mc663b5ff88" x="58.016" y="243.96" style="stroke: #000000; stroke-width: 0.8"/>
      </g>
     </g>
     <g id="text_33">
      <!-- 0.4 -->
      <g transform="translate(35.112875 247.759219) scale(0.1 -0.1)">
       <use xlink:href="#DejaVuSans-30"/>
       <use xlink:href="#DejaVuSans-2e" x="63.623047"/>
       <use xlink:href="#DejaVuSans-34" x="95.410156"/>
      </g>
     </g>
    </g>
    <g id="ytick_12">
     <g id="line2d_68">
      <path d="M 58.016 215.266667 
L 709.2 215.266667 
" clip-path="url(#p3ffa2898d6)" style="fill: none; stroke-dasharray: 0.8,1.32; stroke-dashoffset: 0; stroke: #b0b0b0; stroke-width: 0.8"/>
     </g>
     <g id="line2d_69">
      <g>
       <use xlink:href="#mc663b5ff88" x="58.016" y="215.266667" style="stroke: #000000; stroke-width: 0.8"/>
      </g>
     </g>
     <g id="text_34">
      <!-- 0.6 -->
      <g transform="translate(35.112875 219.065885) scale(0.1 -0.1)">
       <use xlink:href="#DejaVuSans-30"/>
       <use xlink:href="#DejaVuSans-2e" x="63.623047"/>
       <use xlink:href="#DejaVuSans-36" x="95.410156"/>
      </g>
     </g>
    </g>
    <g id="text_35">
     <!-- Local Power ($C_{LP}$) [-] -->
     <g transform="translate(20.6535 337.45) rotate(-90) scale(0.1 -0.1)">
      <defs>
       <path id="DejaVuSans-50" d="M 1259 4147 
L 1259 2394 
L 2053 2394 
Q 2494 2394 2734 2622 
Q 2975 2850 2975 3272 
Q 2975 3691 2734 3919 
Q 2494 4147 2053 4147 
L 1259 4147 
z
M 628 4666 
L 2053 4666 
Q 2838 4666 3239 4311 
Q 3641 3956 3641 3272 
Q 3641 2581 3239 2228 
Q 2838 1875 2053 1875 
L 1259 1875 
L 1259 0 
L 628 0 
L 628 4666 
z
" transform="scale(0.015625)"/>
       <path id="DejaVuSans-77" d="M 269 3500 
L 844 3500 
L 1563 769 
L 2278 3500 
L 2956 3500 
L 3675 769 
L 4391 3500 
L 4966 3500 
L 4050 0 
L 3372 0 
L 2619 2869 
L 1863 0 
L 1184 0 
L 269 3500 
z
" transform="scale(0.015625)"/>
       <path id="DejaVuSans-Oblique-50" d="M 1081 4666 
L 2541 4666 
Q 3178 4666 3512 4369 
Q 3847 4072 3847 3500 
Q 3847 2731 3353 2303 
Q 2859 1875 1966 1875 
L 1172 1875 
L 806 0 
L 172 0 
L 1081 4666 
z
M 1613 4147 
L 1275 2394 
L 2069 2394 
Q 2606 2394 2893 2669 
Q 3181 2944 3181 3456 
Q 3181 3784 2986 3965 
Q 2791 4147 2438 4147 
L 1613 4147 
z
" transform="scale(0.015625)"/>
      </defs>
      <use xlink:href="#DejaVuSans-4c" transform="translate(0 0.015625)"/>
      <use xlink:href="#DejaVuSans-6f" transform="translate(55.712891 0.015625)"/>
      <use xlink:href="#DejaVuSans-63" transform="translate(116.894531 0.015625)"/>
      <use xlink:href="#DejaVuSans-61" transform="translate(171.875 0.015625)"/>
      <use xlink:href="#DejaVuSans-6c" transform="translate(233.154297 0.015625)"/>
      <use xlink:href="#DejaVuSans-20" transform="translate(260.9375 0.015625)"/>
      <use xlink:href="#DejaVuSans-50" transform="translate(292.724609 0.015625)"/>
      <use xlink:href="#DejaVuSans-6f" transform="translate(353.027344 0.015625)"/>
      <use xlink:href="#DejaVuSans-77" transform="translate(414.208984 0.015625)"/>
      <use xlink:href="#DejaVuSans-65" transform="translate(495.996094 0.015625)"/>
      <use xlink:href="#DejaVuSans-72" transform="translate(557.519531 0.015625)"/>
      <use xlink:href="#DejaVuSans-20" transform="translate(598.632812 0.015625)"/>
      <use xlink:href="#DejaVuSans-28" transform="translate(630.419922 0.015625)"/>
      <use xlink:href="#DejaVuSans-Oblique-43" transform="translate(669.433594 0.015625)"/>
      <use xlink:href="#DejaVuSans-Oblique-4c" transform="translate(739.257812 -16.390625) scale(0.7)"/>
      <use xlink:href="#DejaVuSans-Oblique-50" transform="translate(778.256836 -16.390625) scale(0.7)"/>
      <use xlink:href="#DejaVuSans-29" transform="translate(823.203125 0.015625)"/>
      <use xlink:href="#DejaVuSans-20" transform="translate(862.216797 0.015625)"/>
      <use xlink:href="#DejaVuSans-5b" transform="translate(894.003906 0.015625)"/>
      <use xlink:href="#DejaVuSans-2d" transform="translate(933.017578 0.015625)"/>
      <use xlink:href="#DejaVuSans-5d" transform="translate(969.101562 0.015625)"/>
     </g>
    </g>
   </g>
   <g id="line2d_70">
    <path d="M 79.131405 308.353032 
L 95.267673 314.76053 
L 111.403942 322.024103 
L 127.54021 330.0025 
L 143.676479 336.730557 
L 159.812748 339.64704 
L 175.949016 335.813815 
L 192.085285 322.913198 
L 208.221553 300.759102 
L 224.357822 273.555592 
L 240.49409 250.259611 
L 256.630359 237.650362 
L 272.766627 230.113021 
L 288.902896 229.342597 
L 305.039165 229.524117 
L 321.175433 229.698541 
L 337.311702 229.860784 
L 353.44797 229.981681 
L 369.584239 230.040214 
L 385.720507 230.051546 
L 401.856776 230.031712 
L 417.993044 229.997286 
L 434.129313 229.962244 
L 450.265582 229.939529 
L 466.40185 229.934544 
L 482.538119 229.949921 
L 498.674387 229.960052 
L 514.810656 229.948359 
L 530.946924 229.932288 
L 547.083193 229.928661 
L 563.219461 230.008567 
L 579.35573 230.261226 
L 595.491999 230.743157 
L 611.628267 231.528501 
L 627.764536 232.861367 
L 643.900804 235.20051 
L 660.037073 239.197902 
L 676.173341 246.182485 
L 692.30961 258.469291 
L 708.445878 297.533592 
" clip-path="url(#p3ffa2898d6)" style="fill: none; stroke: #1f77b4; stroke-width: 1.5; stroke-linecap: square"/>
   </g>
   <g id="line2d_71">
    <path d="M 58.016 216.329383 
L 709.2 216.329383 
" clip-path="url(#p3ffa2898d6)" style="fill: none; stroke-dasharray: 5.55,2.4; stroke-dashoffset: 0; stroke: #000000; stroke-width: 1.5"/>
   </g>
   <g id="line2d_72">
    <path d="M 79.131405 308.353032 
L 95.267673 314.758658 
L 111.403942 322.100379 
L 127.54021 330.277032 
L 143.676479 337.465688 
L 159.812748 341.187056 
L 175.949016 338.494392 
L 192.085285 326.92623 
L 208.221553 306.014611 
L 224.357822 279.592094 
L 240.49409 256.336999 
L 256.630359 242.538958 
L 272.766627 231.274396 
L 288.902896 228.951348 
L 305.039165 229.117567 
L 321.175433 229.286478 
L 337.311702 229.44395 
L 353.44797 229.561562 
L 369.584239 229.618307 
L 385.720507 229.627629 
L 401.856776 229.60385 
L 417.993044 229.561808 
L 434.129313 229.513738 
L 450.265582 229.470642 
L 466.40185 229.43535 
L 482.538119 229.405965 
L 498.674387 229.342467 
L 514.810656 229.200018 
L 530.946924 229.03036 
L 547.083193 228.902852 
L 563.219461 228.899732 
L 579.35573 229.112445 
L 595.491999 229.593707 
L 611.628267 230.428368 
L 627.764536 231.851655 
L 643.900804 234.255601 
L 660.037073 238.30955 
L 676.173341 245.371311 
L 692.30961 257.76803 
L 708.445878 296.996334 
" clip-path="url(#p3ffa2898d6)" style="fill: none; stroke: #ff7f0e; stroke-width: 1.5; stroke-linecap: square"/>
   </g>
   <g id="line2d_73">
    <path d="M 58.016 216.329383 
L 709.2 216.329383 
" clip-path="url(#p3ffa2898d6)" style="fill: none; stroke-dasharray: 5.55,2.4; stroke-dashoffset: 0; stroke: #000000; stroke-width: 1.5"/>
   </g>
   <g id="line2d_74">
    <path d="M 79.131405 308.353032 
L 95.267673 314.756688 
L 111.403942 322.168916 
L 127.54021 330.526537 
L 143.676479 338.146321 
L 159.812748 342.643609 
L 175.949016 341.093245 
L 192.085285 330.936324 
L 208.221553 311.475558 
L 224.357822 286.205928 
L 240.49409 263.49941 
L 256.630359 248.7754 
L 272.766627 233.541138 
L 288.902896 228.825799 
L 305.039165 228.81722 
L 321.175433 228.974549 
L 337.311702 229.119902 
L 353.44797 229.224711 
L 369.584239 229.267145 
L 385.720507 229.258927 
L 401.856776 229.212189 
L 417.993044 229.1387 
L 434.129313 229.045645 
L 450.265582 228.933835 
L 466.40185 228.777437 
L 482.538119 228.575534 
L 498.674387 228.334448 
L 514.810656 228.072581 
L 530.946924 227.868793 
L 547.083193 227.795928 
L 563.219461 227.913942 
L 579.35573 228.257811 
L 595.491999 228.82616 
L 611.628267 229.711708 
L 627.764536 231.153806 
L 643.900804 233.596061 
L 660.037073 237.709564 
L 676.173341 244.827646 
L 692.30961 257.298031 
L 708.445878 296.636253 
" clip-path="url(#p3ffa2898d6)" style="fill: none; stroke: #2ca02c; stroke-width: 1.5; stroke-linecap: square"/>
   </g>
   <g id="line2d_75">
    <path d="M 58.016 216.329383 
L 709.2 216.329383 
" clip-path="url(#p3ffa2898d6)" style="fill: none; stroke-dasharray: 5.55,2.4; stroke-dashoffset: 0; stroke: #000000; stroke-width: 1.5"/>
   </g>
   <g id="patch_9">
    <path d="M 58.016 358.733333 
L 58.016 215.266667 
" style="fill: none; stroke: #000000; stroke-width: 0.8; stroke-linejoin: miter; stroke-linecap: square"/>
   </g>
   <g id="patch_10">
    <path d="M 709.2 358.733333 
L 709.2 215.266667 
" style="fill: none; stroke: #000000; stroke-width: 0.8; stroke-linejoin: miter; stroke-linecap: square"/>
   </g>
   <g id="patch_11">
    <path d="M 58.016 358.733333 
L 709.2 358.733333 
" style="fill: none; stroke: #000000; stroke-width: 0.8; stroke-linejoin: miter; stroke-linecap: square"/>
   </g>
   <g id="patch_12">
    <path d="M 58.016 215.266667 
L 709.2 215.266667 
" style="fill: none; stroke: #000000; stroke-width: 0.8; stroke-linejoin: miter; stroke-linecap: square"/>
   </g>
  </g>
  <g id="axes_3">
   <g id="patch_13">
    <path d="M 58.016 534.04 
L 709.2 534.04 
L 709.2 390.573333 
L 58.016 390.573333 
z
" style="fill: #ffffff"/>
   </g>
   <g id="matplotlib.axis_5">
    <g id="xtick_19">
     <g id="line2d_76">
      <path d="M 58.016 534.04 
L 58.016 390.573333 
" clip-path="url(#pe39ac90843)" style="fill: none; stroke-dasharray: 0.8,1.32; stroke-dashoffset: 0; stroke: #b0b0b0; stroke-width: 0.8"/>
     </g>
     <g id="line2d_77">
      <g>
       <use xlink:href="#mab37d63d68" x="58.016" y="534.04" style="stroke: #000000; stroke-width: 0.8"/>
      </g>
     </g>
     <g id="text_36">
      <!-- 0 -->
      <g transform="translate(54.83475 548.638438) scale(0.1 -0.1)">
       <use xlink:href="#DejaVuSans-30"/>
      </g>
     </g>
    </g>
    <g id="xtick_20">
     <g id="line2d_78">
      <path d="M 133.42816 534.04 
L 133.42816 390.573333 
" clip-path="url(#pe39ac90843)" style="fill: none; stroke-dasharray: 0.8,1.32; stroke-dashoffset: 0; stroke: #b0b0b0; stroke-width: 0.8"/>
     </g>
     <g id="line2d_79">
      <g>
       <use xlink:href="#mab37d63d68" x="133.42816" y="534.04" style="stroke: #000000; stroke-width: 0.8"/>
      </g>
     </g>
     <g id="text_37">
      <!-- 10 -->
      <g transform="translate(127.06566 548.638438) scale(0.1 -0.1)">
       <use xlink:href="#DejaVuSans-31"/>
       <use xlink:href="#DejaVuSans-30" x="63.623047"/>
      </g>
     </g>
    </g>
    <g id="xtick_21">
     <g id="line2d_80">
      <path d="M 208.84032 534.04 
L 208.84032 390.573333 
" clip-path="url(#pe39ac90843)" style="fill: none; stroke-dasharray: 0.8,1.32; stroke-dashoffset: 0; stroke: #b0b0b0; stroke-width: 0.8"/>
     </g>
     <g id="line2d_81">
      <g>
       <use xlink:href="#mab37d63d68" x="208.84032" y="534.04" style="stroke: #000000; stroke-width: 0.8"/>
      </g>
     </g>
     <g id="text_38">
      <!-- 20 -->
      <g transform="translate(202.47782 548.638438) scale(0.1 -0.1)">
       <use xlink:href="#DejaVuSans-32"/>
       <use xlink:href="#DejaVuSans-30" x="63.623047"/>
      </g>
     </g>
    </g>
    <g id="xtick_22">
     <g id="line2d_82">
      <path d="M 284.252479 534.04 
L 284.252479 390.573333 
" clip-path="url(#pe39ac90843)" style="fill: none; stroke-dasharray: 0.8,1.32; stroke-dashoffset: 0; stroke: #b0b0b0; stroke-width: 0.8"/>
     </g>
     <g id="line2d_83">
      <g>
       <use xlink:href="#mab37d63d68" x="284.252479" y="534.04" style="stroke: #000000; stroke-width: 0.8"/>
      </g>
     </g>
     <g id="text_39">
      <!-- 30 -->
      <g transform="translate(277.889979 548.638438) scale(0.1 -0.1)">
       <use xlink:href="#DejaVuSans-33"/>
       <use xlink:href="#DejaVuSans-30" x="63.623047"/>
      </g>
     </g>
    </g>
    <g id="xtick_23">
     <g id="line2d_84">
      <path d="M 359.664639 534.04 
L 359.664639 390.573333 
" clip-path="url(#pe39ac90843)" style="fill: none; stroke-dasharray: 0.8,1.32; stroke-dashoffset: 0; stroke: #b0b0b0; stroke-width: 0.8"/>
     </g>
     <g id="line2d_85">
      <g>
       <use xlink:href="#mab37d63d68" x="359.664639" y="534.04" style="stroke: #000000; stroke-width: 0.8"/>
      </g>
     </g>
     <g id="text_40">
      <!-- 40 -->
      <g transform="translate(353.302139 548.638438) scale(0.1 -0.1)">
       <use xlink:href="#DejaVuSans-34"/>
       <use xlink:href="#DejaVuSans-30" x="63.623047"/>
      </g>
     </g>
    </g>
    <g id="xtick_24">
     <g id="line2d_86">
      <path d="M 435.076799 534.04 
L 435.076799 390.573333 
" clip-path="url(#pe39ac90843)" style="fill: none; stroke-dasharray: 0.8,1.32; stroke-dashoffset: 0; stroke: #b0b0b0; stroke-width: 0.8"/>
     </g>
     <g id="line2d_87">
      <g>
       <use xlink:href="#mab37d63d68" x="435.076799" y="534.04" style="stroke: #000000; stroke-width: 0.8"/>
      </g>
     </g>
     <g id="text_41">
      <!-- 50 -->
      <g transform="translate(428.714299 548.638438) scale(0.1 -0.1)">
       <use xlink:href="#DejaVuSans-35"/>
       <use xlink:href="#DejaVuSans-30" x="63.623047"/>
      </g>
     </g>
    </g>
    <g id="xtick_25">
     <g id="line2d_88">
      <path d="M 510.488959 534.04 
L 510.488959 390.573333 
" clip-path="url(#pe39ac90843)" style="fill: none; stroke-dasharray: 0.8,1.32; stroke-dashoffset: 0; stroke: #b0b0b0; stroke-width: 0.8"/>
     </g>
     <g id="line2d_89">
      <g>
       <use xlink:href="#mab37d63d68" x="510.488959" y="534.04" style="stroke: #000000; stroke-width: 0.8"/>
      </g>
     </g>
     <g id="text_42">
      <!-- 60 -->
      <g transform="translate(504.126459 548.638438) scale(0.1 -0.1)">
       <use xlink:href="#DejaVuSans-36"/>
       <use xlink:href="#DejaVuSans-30" x="63.623047"/>
      </g>
     </g>
    </g>
    <g id="xtick_26">
     <g id="line2d_90">
      <path d="M 585.901119 534.04 
L 585.901119 390.573333 
" clip-path="url(#pe39ac90843)" style="fill: none; stroke-dasharray: 0.8,1.32; stroke-dashoffset: 0; stroke: #b0b0b0; stroke-width: 0.8"/>
     </g>
     <g id="line2d_91">
      <g>
       <use xlink:href="#mab37d63d68" x="585.901119" y="534.04" style="stroke: #000000; stroke-width: 0.8"/>
      </g>
     </g>
     <g id="text_43">
      <!-- 70 -->
      <g transform="translate(579.538619 548.638438) scale(0.1 -0.1)">
       <use xlink:href="#DejaVuSans-37"/>
       <use xlink:href="#DejaVuSans-30" x="63.623047"/>
      </g>
     </g>
    </g>
    <g id="xtick_27">
     <g id="line2d_92">
      <path d="M 661.313279 534.04 
L 661.313279 390.573333 
" clip-path="url(#pe39ac90843)" style="fill: none; stroke-dasharray: 0.8,1.32; stroke-dashoffset: 0; stroke: #b0b0b0; stroke-width: 0.8"/>
     </g>
     <g id="line2d_93">
      <g>
       <use xlink:href="#mab37d63d68" x="661.313279" y="534.04" style="stroke: #000000; stroke-width: 0.8"/>
      </g>
     </g>
     <g id="text_44">
      <!-- 80 -->
      <g transform="translate(654.950779 548.638438) scale(0.1 -0.1)">
       <use xlink:href="#DejaVuSans-38"/>
       <use xlink:href="#DejaVuSans-30" x="63.623047"/>
      </g>
     </g>
    </g>
    <g id="text_45">
     <!-- Rotor span [m] -->
     <g transform="translate(346.262688 562.316563) scale(0.1 -0.1)">
      <defs>
       <path id="DejaVuSans-52" d="M 2841 2188 
Q 3044 2119 3236 1894 
Q 3428 1669 3622 1275 
L 4263 0 
L 3584 0 
L 2988 1197 
Q 2756 1666 2539 1819 
Q 2322 1972 1947 1972 
L 1259 1972 
L 1259 0 
L 628 0 
L 628 4666 
L 2053 4666 
Q 2853 4666 3247 4331 
Q 3641 3997 3641 3322 
Q 3641 2881 3436 2590 
Q 3231 2300 2841 2188 
z
M 1259 4147 
L 1259 2491 
L 2053 2491 
Q 2509 2491 2742 2702 
Q 2975 2913 2975 3322 
Q 2975 3731 2742 3939 
Q 2509 4147 2053 4147 
L 1259 4147 
z
" transform="scale(0.015625)"/>
       <path id="DejaVuSans-70" d="M 1159 525 
L 1159 -1331 
L 581 -1331 
L 581 3500 
L 1159 3500 
L 1159 2969 
Q 1341 3281 1617 3432 
Q 1894 3584 2278 3584 
Q 2916 3584 3314 3078 
Q 3713 2572 3713 1747 
Q 3713 922 3314 415 
Q 2916 -91 2278 -91 
Q 1894 -91 1617 61 
Q 1341 213 1159 525 
z
M 3116 1747 
Q 3116 2381 2855 2742 
Q 2594 3103 2138 3103 
Q 1681 3103 1420 2742 
Q 1159 2381 1159 1747 
Q 1159 1113 1420 752 
Q 1681 391 2138 391 
Q 2594 391 2855 752 
Q 3116 1113 3116 1747 
z
" transform="scale(0.015625)"/>
       <path id="DejaVuSans-6d" d="M 3328 2828 
Q 3544 3216 3844 3400 
Q 4144 3584 4550 3584 
Q 5097 3584 5394 3201 
Q 5691 2819 5691 2113 
L 5691 0 
L 5113 0 
L 5113 2094 
Q 5113 2597 4934 2840 
Q 4756 3084 4391 3084 
Q 3944 3084 3684 2787 
Q 3425 2491 3425 1978 
L 3425 0 
L 2847 0 
L 2847 2094 
Q 2847 2600 2669 2842 
Q 2491 3084 2119 3084 
Q 1678 3084 1418 2786 
Q 1159 2488 1159 1978 
L 1159 0 
L 581 0 
L 581 3500 
L 1159 3500 
L 1159 2956 
Q 1356 3278 1631 3431 
Q 1906 3584 2284 3584 
Q 2666 3584 2933 3390 
Q 3200 3197 3328 2828 
z
" transform="scale(0.015625)"/>
      </defs>
      <use xlink:href="#DejaVuSans-52"/>
      <use xlink:href="#DejaVuSans-6f" x="64.982422"/>
      <use xlink:href="#DejaVuSans-74" x="126.164062"/>
      <use xlink:href="#DejaVuSans-6f" x="165.373047"/>
      <use xlink:href="#DejaVuSans-72" x="226.554688"/>
      <use xlink:href="#DejaVuSans-20" x="267.667969"/>
      <use xlink:href="#DejaVuSans-73" x="299.455078"/>
      <use xlink:href="#DejaVuSans-70" x="351.554688"/>
      <use xlink:href="#DejaVuSans-61" x="415.03125"/>
      <use xlink:href="#DejaVuSans-6e" x="476.310547"/>
      <use xlink:href="#DejaVuSans-20" x="539.689453"/>
      <use xlink:href="#DejaVuSans-5b" x="571.476562"/>
      <use xlink:href="#DejaVuSans-6d" x="610.490234"/>
      <use xlink:href="#DejaVuSans-5d" x="707.902344"/>
     </g>
    </g>
   </g>
   <g id="matplotlib.axis_6">
    <g id="ytick_13">
     <g id="line2d_94">
      <path d="M 58.016 527.518788 
L 709.2 527.518788 
" clip-path="url(#pe39ac90843)" style="fill: none; stroke-dasharray: 0.8,1.32; stroke-dashoffset: 0; stroke: #b0b0b0; stroke-width: 0.8"/>
     </g>
     <g id="line2d_95">
      <g>
       <use xlink:href="#mc663b5ff88" x="58.016" y="527.518788" style="stroke: #000000; stroke-width: 0.8"/>
      </g>
     </g>
     <g id="text_46">
      <!-- 0.0 -->
      <g transform="translate(35.112875 531.318007) scale(0.1 -0.1)">
       <use xlink:href="#DejaVuSans-30"/>
       <use xlink:href="#DejaVuSans-2e" x="63.623047"/>
       <use xlink:href="#DejaVuSans-30" x="95.410156"/>
      </g>
     </g>
    </g>
    <g id="ytick_14">
     <g id="line2d_96">
      <path d="M 58.016 496.124912 
L 709.2 496.124912 
" clip-path="url(#pe39ac90843)" style="fill: none; stroke-dasharray: 0.8,1.32; stroke-dashoffset: 0; stroke: #b0b0b0; stroke-width: 0.8"/>
     </g>
     <g id="line2d_97">
      <g>
       <use xlink:href="#mc663b5ff88" x="58.016" y="496.124912" style="stroke: #000000; stroke-width: 0.8"/>
      </g>
     </g>
     <g id="text_47">
      <!-- 0.2 -->
      <g transform="translate(35.112875 499.924131) scale(0.1 -0.1)">
       <use xlink:href="#DejaVuSans-30"/>
       <use xlink:href="#DejaVuSans-2e" x="63.623047"/>
       <use xlink:href="#DejaVuSans-32" x="95.410156"/>
      </g>
     </g>
    </g>
    <g id="ytick_15">
     <g id="line2d_98">
      <path d="M 58.016 464.731037 
L 709.2 464.731037 
" clip-path="url(#pe39ac90843)" style="fill: none; stroke-dasharray: 0.8,1.32; stroke-dashoffset: 0; stroke: #b0b0b0; stroke-width: 0.8"/>
     </g>
     <g id="line2d_99">
      <g>
       <use xlink:href="#mc663b5ff88" x="58.016" y="464.731037" style="stroke: #000000; stroke-width: 0.8"/>
      </g>
     </g>
     <g id="text_48">
      <!-- 0.4 -->
      <g transform="translate(35.112875 468.530256) scale(0.1 -0.1)">
       <use xlink:href="#DejaVuSans-30"/>
       <use xlink:href="#DejaVuSans-2e" x="63.623047"/>
       <use xlink:href="#DejaVuSans-34" x="95.410156"/>
      </g>
     </g>
    </g>
    <g id="ytick_16">
     <g id="line2d_100">
      <path d="M 58.016 433.337161 
L 709.2 433.337161 
" clip-path="url(#pe39ac90843)" style="fill: none; stroke-dasharray: 0.8,1.32; stroke-dashoffset: 0; stroke: #b0b0b0; stroke-width: 0.8"/>
     </g>
     <g id="line2d_101">
      <g>
       <use xlink:href="#mc663b5ff88" x="58.016" y="433.337161" style="stroke: #000000; stroke-width: 0.8"/>
      </g>
     </g>
     <g id="text_49">
      <!-- 0.6 -->
      <g transform="translate(35.112875 437.13638) scale(0.1 -0.1)">
       <use xlink:href="#DejaVuSans-30"/>
       <use xlink:href="#DejaVuSans-2e" x="63.623047"/>
       <use xlink:href="#DejaVuSans-36" x="95.410156"/>
      </g>
     </g>
    </g>
    <g id="ytick_17">
     <g id="line2d_102">
      <path d="M 58.016 401.943286 
L 709.2 401.943286 
" clip-path="url(#pe39ac90843)" style="fill: none; stroke-dasharray: 0.8,1.32; stroke-dashoffset: 0; stroke: #b0b0b0; stroke-width: 0.8"/>
     </g>
     <g id="line2d_103">
      <g>
       <use xlink:href="#mc663b5ff88" x="58.016" y="401.943286" style="stroke: #000000; stroke-width: 0.8"/>
      </g>
     </g>
     <g id="text_50">
      <!-- 0.8 -->
      <g transform="translate(35.112875 405.742504) scale(0.1 -0.1)">
       <use xlink:href="#DejaVuSans-30"/>
       <use xlink:href="#DejaVuSans-2e" x="63.623047"/>
       <use xlink:href="#DejaVuSans-38" x="95.410156"/>
      </g>
     </g>
    </g>
    <g id="text_51">
     <!-- AxIAl induction ($a$) [-] -->
     <g transform="translate(29.033187 515.656667) rotate(-90) scale(0.1 -0.1)">
      <defs>
       <path id="DejaVuSans-41" d="M 2188 4044 
L 1331 1722 
L 3047 1722 
L 2188 4044 
z
M 1831 4666 
L 2547 4666 
L 4325 0 
L 3669 0 
L 3244 1197 
L 1141 1197 
L 716 0 
L 50 0 
L 1831 4666 
z
" transform="scale(0.015625)"/>
       <path id="DejaVuSans-78" d="M 3513 3500 
L 2247 1797 
L 3578 0 
L 2900 0 
L 1881 1375 
L 863 0 
L 184 0 
L 1544 1831 
L 300 3500 
L 978 3500 
L 1906 2253 
L 2834 3500 
L 3513 3500 
z
" transform="scale(0.015625)"/>
       <path id="DejaVuSans-49" d="M 628 4666 
L 1259 4666 
L 1259 0 
L 628 0 
L 628 4666 
z
" transform="scale(0.015625)"/>
       <path id="DejaVuSans-64" d="M 2906 2969 
L 2906 4863 
L 3481 4863 
L 3481 0 
L 2906 0 
L 2906 525 
Q 2725 213 2448 61 
Q 2172 -91 1784 -91 
Q 1150 -91 751 415 
Q 353 922 353 1747 
Q 353 2572 751 3078 
Q 1150 3584 1784 3584 
Q 2172 3584 2448 3432 
Q 2725 3281 2906 2969 
z
M 947 1747 
Q 947 1113 1208 752 
Q 1469 391 1925 391 
Q 2381 391 2643 752 
Q 2906 1113 2906 1747 
Q 2906 2381 2643 2742 
Q 2381 3103 1925 3103 
Q 1469 3103 1208 2742 
Q 947 2381 947 1747 
z
" transform="scale(0.015625)"/>
       <path id="DejaVuSans-Oblique-61" d="M 3438 1997 
L 3047 0 
L 2472 0 
L 2578 531 
Q 2325 219 2001 64 
Q 1678 -91 1281 -91 
Q 834 -91 548 182 
Q 263 456 263 884 
Q 263 1497 752 1853 
Q 1241 2209 2100 2209 
L 2900 2209 
L 2931 2363 
Q 2938 2388 2941 2417 
Q 2944 2447 2944 2509 
Q 2944 2788 2717 2942 
Q 2491 3097 2081 3097 
Q 1800 3097 1504 3025 
Q 1209 2953 897 2809 
L 997 3341 
Q 1322 3463 1633 3523 
Q 1944 3584 2234 3584 
Q 2853 3584 3176 3315 
Q 3500 3047 3500 2534 
Q 3500 2431 3484 2292 
Q 3469 2153 3438 1997 
z
M 2816 1759 
L 2241 1759 
Q 1534 1759 1195 1570 
Q 856 1381 856 984 
Q 856 709 1029 553 
Q 1203 397 1509 397 
Q 1978 397 2328 733 
Q 2678 1069 2791 1631 
L 2816 1759 
z
" transform="scale(0.015625)"/>
      </defs>
      <use xlink:href="#DejaVuSans-41" transform="translate(0 0.015625)"/>
      <use xlink:href="#DejaVuSans-78" transform="translate(68.408203 0.015625)"/>
      <use xlink:href="#DejaVuSans-49" transform="translate(127.587891 0.015625)"/>
      <use xlink:href="#DejaVuSans-41" transform="translate(157.080078 0.015625)"/>
      <use xlink:href="#DejaVuSans-6c" transform="translate(225.488281 0.015625)"/>
      <use xlink:href="#DejaVuSans-20" transform="translate(253.271484 0.015625)"/>
      <use xlink:href="#DejaVuSans-69" transform="translate(285.058594 0.015625)"/>
      <use xlink:href="#DejaVuSans-6e" transform="translate(312.841797 0.015625)"/>
      <use xlink:href="#DejaVuSans-64" transform="translate(376.220703 0.015625)"/>
      <use xlink:href="#DejaVuSans-75" transform="translate(439.697266 0.015625)"/>
      <use xlink:href="#DejaVuSans-63" transform="translate(503.076172 0.015625)"/>
      <use xlink:href="#DejaVuSans-74" transform="translate(558.056641 0.015625)"/>
      <use xlink:href="#DejaVuSans-69" transform="translate(597.265625 0.015625)"/>
      <use xlink:href="#DejaVuSans-6f" transform="translate(625.048828 0.015625)"/>
      <use xlink:href="#DejaVuSans-6e" transform="translate(686.230469 0.015625)"/>
      <use xlink:href="#DejaVuSans-20" transform="translate(749.609375 0.015625)"/>
      <use xlink:href="#DejaVuSans-28" transform="translate(781.396484 0.015625)"/>
      <use xlink:href="#DejaVuSans-Oblique-61" transform="translate(820.410156 0.015625)"/>
      <use xlink:href="#DejaVuSans-29" transform="translate(881.689453 0.015625)"/>
      <use xlink:href="#DejaVuSans-20" transform="translate(920.703125 0.015625)"/>
      <use xlink:href="#DejaVuSans-5b" transform="translate(952.490234 0.015625)"/>
      <use xlink:href="#DejaVuSans-2d" transform="translate(991.503906 0.015625)"/>
      <use xlink:href="#DejaVuSans-5d" transform="translate(1027.587891 0.015625)"/>
     </g>
    </g>
   </g>
   <g id="line2d_104">
    <path d="M 79.131405 527.518788 
L 95.267673 527.517526 
L 111.403942 527.407717 
L 127.54021 527.156369 
L 143.676479 526.565031 
L 159.812748 525.421264 
L 175.949016 523.457206 
L 192.085285 520.352806 
L 208.221553 515.747715 
L 224.357822 509.394743 
L 240.49409 501.621928 
L 256.630359 493.51469 
L 272.766627 481.585606 
L 288.902896 475.195662 
L 305.039165 475.195662 
L 321.175433 475.195662 
L 337.311702 475.195662 
L 353.44797 475.195662 
L 369.584239 475.195662 
L 385.720507 475.195662 
L 401.856776 475.195662 
L 417.993044 475.195662 
L 434.129313 475.195662 
L 450.265582 475.195662 
L 466.40185 475.195662 
L 482.538119 475.195662 
L 498.674387 475.195662 
L 514.810656 475.195662 
L 530.946924 475.195662 
L 547.083193 475.195662 
L 563.219461 475.195662 
L 579.35573 475.195662 
L 595.491999 475.195662 
L 611.628267 475.195662 
L 627.764536 475.195662 
L 643.900804 475.195662 
L 660.037073 475.195662 
L 676.173341 475.195662 
L 692.30961 468.750296 
L 708.445878 397.094545 
" clip-path="url(#pe39ac90843)" style="fill: none; stroke: #1f77b4; stroke-width: 1.5; stroke-linecap: square"/>
   </g>
   <g id="line2d_105">
    <path d="M 58.016 475.195662 
L 709.2 475.195662 
" clip-path="url(#pe39ac90843)" style="fill: none; stroke-dasharray: 5.55,2.4; stroke-dashoffset: 0; stroke: #000000; stroke-width: 1.5"/>
   </g>
   <g id="line2d_106">
    <path d="M 79.131405 527.518788 
L 95.267673 527.517848 
L 111.403942 527.430939 
L 127.54021 527.231955 
L 143.676479 526.758695 
L 159.812748 525.831378 
L 175.949016 524.21709 
L 192.085285 521.631564 
L 208.221553 517.750926 
L 224.357822 512.347942 
L 240.49409 505.690741 
L 256.630359 498.289646 
L 272.766627 485.516178 
L 288.902896 475.981869 
L 305.039165 475.195662 
L 321.175433 475.195662 
L 337.311702 475.195662 
L 353.44797 475.195662 
L 369.584239 475.195662 
L 385.720507 475.195662 
L 401.856776 475.195662 
L 417.993044 475.195662 
L 434.129313 475.195662 
L 450.265582 475.195662 
L 466.40185 475.195662 
L 482.538119 475.195662 
L 498.674387 475.195662 
L 514.810656 475.195662 
L 530.946924 475.195662 
L 547.083193 475.195662 
L 563.219461 475.195662 
L 579.35573 475.195662 
L 595.491999 475.195662 
L 611.628267 475.195662 
L 627.764536 475.195662 
L 643.900804 475.195662 
L 660.037073 475.195662 
L 676.173341 475.195662 
L 692.30961 468.750296 
L 708.445878 397.094545 
" clip-path="url(#pe39ac90843)" style="fill: none; stroke: #ff7f0e; stroke-width: 1.5; stroke-linecap: square"/>
   </g>
   <g id="line2d_107">
    <path d="M 58.016 475.195662 
L 709.2 475.195662 
" clip-path="url(#pe39ac90843)" style="fill: none; stroke-dasharray: 5.55,2.4; stroke-dashoffset: 0; stroke: #000000; stroke-width: 1.5"/>
   </g>
   <g id="line2d_108">
    <path d="M 79.131405 527.518788 
L 95.267673 527.518112 
L 111.403942 527.451553 
L 127.54021 527.299008 
L 143.676479 526.931886 
L 159.812748 526.202297 
L 175.949016 524.913008 
L 192.085285 522.817485 
L 208.221553 519.630329 
L 224.357822 515.144622 
L 240.49409 509.569447 
L 256.630359 502.850817 
L 272.766627 489.632601 
L 288.902896 478.081633 
L 305.039165 475.195662 
L 321.175433 475.195662 
L 337.311702 475.195662 
L 353.44797 475.195662 
L 369.584239 475.195662 
L 385.720507 475.195662 
L 401.856776 475.195662 
L 417.993044 475.195662 
L 434.129313 475.195662 
L 450.265582 475.195662 
L 466.40185 475.195662 
L 482.538119 475.195662 
L 498.674387 475.195662 
L 514.810656 475.195662 
L 530.946924 475.195662 
L 547.083193 475.195662 
L 563.219461 475.195662 
L 579.35573 475.195662 
L 595.491999 475.195662 
L 611.628267 475.195662 
L 627.764536 475.195662 
L 643.900804 475.195662 
L 660.037073 475.195662 
L 676.173341 475.195662 
L 692.30961 468.750296 
L 708.445878 397.094545 
" clip-path="url(#pe39ac90843)" style="fill: none; stroke: #2ca02c; stroke-width: 1.5; stroke-linecap: square"/>
   </g>
   <g id="line2d_109">
    <path d="M 58.016 475.195662 
L 709.2 475.195662 
" clip-path="url(#pe39ac90843)" style="fill: none; stroke-dasharray: 5.55,2.4; stroke-dashoffset: 0; stroke: #000000; stroke-width: 1.5"/>
   </g>
   <g id="patch_14">
    <path d="M 58.016 534.04 
L 58.016 390.573333 
" style="fill: none; stroke: #000000; stroke-width: 0.8; stroke-linejoin: miter; stroke-linecap: square"/>
   </g>
   <g id="patch_15">
    <path d="M 709.2 534.04 
L 709.2 390.573333 
" style="fill: none; stroke: #000000; stroke-width: 0.8; stroke-linejoin: miter; stroke-linecap: square"/>
   </g>
   <g id="patch_16">
    <path d="M 58.016 534.04 
L 709.2 534.04 
" style="fill: none; stroke: #000000; stroke-width: 0.8; stroke-linejoin: miter; stroke-linecap: square"/>
   </g>
   <g id="patch_17">
    <path d="M 58.016 390.573333 
L 709.2 390.573333 
" style="fill: none; stroke: #000000; stroke-width: 0.8; stroke-linejoin: miter; stroke-linecap: square"/>
   </g>
  </g>
  <g id="text_52">
   <!-- $C_T$=0.777, $C_P$=0.421 -->
   <g transform="translate(298.62 20.638125) scale(0.12 -0.12)">
    <defs>
     <path id="DejaVuSans-3d" d="M 678 2906 
L 4684 2906 
L 4684 2381 
L 678 2381 
L 678 2906 
z
M 678 1631 
L 4684 1631 
L 4684 1100 
L 678 1100 
L 678 1631 
z
" transform="scale(0.015625)"/>
     <path id="DejaVuSans-2c" d="M 750 794 
L 1409 794 
L 1409 256 
L 897 -744 
L 494 -744 
L 750 256 
L 750 794 
z
" transform="scale(0.015625)"/>
    </defs>
    <use xlink:href="#DejaVuSans-Oblique-43" transform="translate(0 0.78125)"/>
    <use xlink:href="#DejaVuSans-Oblique-54" transform="translate(69.824219 -15.625) scale(0.7)"/>
    <use xlink:href="#DejaVuSans-3d" transform="translate(115.317383 0.78125)"/>
    <use xlink:href="#DejaVuSans-30" transform="translate(199.106445 0.78125)"/>
    <use xlink:href="#DejaVuSans-2e" transform="translate(262.729492 0.78125)"/>
    <use xlink:href="#DejaVuSans-37" transform="translate(286.766602 0.78125)"/>
    <use xlink:href="#DejaVuSans-37" transform="translate(348.639648 0.78125)"/>
    <use xlink:href="#DejaVuSans-37" transform="translate(410.512695 0.78125)"/>
    <use xlink:href="#DejaVuSans-2c" transform="translate(474.135742 0.78125)"/>
    <use xlink:href="#DejaVuSans-20" transform="translate(505.922852 0.78125)"/>
    <use xlink:href="#DejaVuSans-Oblique-43" transform="translate(537.709961 0.78125)"/>
    <use xlink:href="#DejaVuSans-Oblique-50" transform="translate(607.53418 -15.625) scale(0.7)"/>
    <use xlink:href="#DejaVuSans-3d" transform="translate(652.480469 0.78125)"/>
    <use xlink:href="#DejaVuSans-30" transform="translate(736.269531 0.78125)"/>
    <use xlink:href="#DejaVuSans-2e" transform="translate(799.892578 0.78125)"/>
    <use xlink:href="#DejaVuSans-34" transform="translate(831.679688 0.78125)"/>
    <use xlink:href="#DejaVuSans-32" transform="translate(895.302734 0.78125)"/>
    <use xlink:href="#DejaVuSans-31" transform="translate(958.925781 0.78125)"/>
   </g>
  </g>
 </g>
 <defs>
  <clipPath id="pc851f175cb">
   <rect x="58.016" y="39.96" width="651.184" height="143.466667"/>
  </clipPath>
  <clipPath id="p3ffa2898d6">
   <rect x="58.016" y="215.266667" width="651.184" height="143.466667"/>
  </clipPath>
  <clipPath id="pe39ac90843">
   <rect x="58.016" y="390.573333" width="651.184" height="143.466667"/>
  </clipPath>
 </defs>
</svg>
