<?xml version="1.0" encoding="utf-8" standalone="no"?>
<!DOCTYPE svg PUBLIC "-//W3C//DTD SVG 1.1//EN"
  "http://www.w3.org/Graphics/SVG/1.1/DTD/svg11.dtd">
<svg xmlns:xlink="http://www.w3.org/1999/xlink" width="720pt" height="576pt" viewBox="0 0 720 576" xmlns="http://www.w3.org/2000/svg" version="1.1">
 <metadata>
  <rdf:RDF xmlns:dc="http://purl.org/dc/elements/1.1/" xmlns:cc="http://creativecommons.org/ns#" xmlns:rdf="http://www.w3.org/1999/02/22-rdf-syntax-ns#">
   <cc:Work>
    <dc:type rdf:resource="http://purl.org/dc/dcmitype/StillImage"/>
    <dc:date>2024-09-23T21:58:22.713463</dc:date>
    <dc:format>image/svg+xml</dc:format>
    <dc:creator>
     <cc:Agent>
      <dc:title>Matplotlib v3.9.2, https://matplotlib.org/</dc:title>
     </cc:Agent>
    </dc:creator>
   </cc:Work>
  </rdf:RDF>
 </metadata>
 <defs>
  <style type="text/css">*{stroke-linejoin: round; stroke-linecap: butt}</style>
 </defs>
 <g id="figure_1">
  <g id="patch_1">
   <path d="M 0 576 
L 720 576 
L 720 0 
L 0 0 
z
" style="fill: #ffffff"/>
  </g>
  <g id="axes_1">
   <g id="patch_2">
    <path d="M 52.886 166.079167 
L 699.705 166.079167 
L 699.705 10.8 
L 52.886 10.8 
z
" style="fill: #ffffff"/>
   </g>
   <g id="matplotlib.axis_1">
    <g id="xtick_1">
     <g id="line2d_1">
      <path d="M 52.886 166.079167 
L 52.886 10.8 
" clip-path="url(#pe620c8cf50)" style="fill: none; stroke-dasharray: 0.8,1.32; stroke-dashoffset: 0; stroke: #b0b0b0; stroke-width: 0.8"/>
     </g>
     <g id="line2d_2">
      <defs>
       <path id="m48e829849a" d="M 0 0 
L 0 3.5 
" style="stroke: #000000; stroke-width: 0.8"/>
      </defs>
      <g>
       <use xlink:href="#m48e829849a" x="52.886" y="166.079167" style="stroke: #000000; stroke-width: 0.8"/>
      </g>
     </g>
     <g id="text_1">
      <!-- 0 -->
      <g transform="translate(49.70475 180.677604) scale(0.1 -0.1)">
       <defs>
        <path id="DejaVuSans-30" d="M 2034 4250 
Q 1547 4250 1301 3770 
Q 1056 3291 1056 2328 
Q 1056 1369 1301 889 
Q 1547 409 2034 409 
Q 2525 409 2770 889 
Q 3016 1369 3016 2328 
Q 3016 3291 2770 3770 
Q 2525 4250 2034 4250 
z
M 2034 4750 
Q 2819 4750 3233 4129 
Q 3647 3509 3647 2328 
Q 3647 1150 3233 529 
Q 2819 -91 2034 -91 
Q 1250 -91 836 529 
Q 422 1150 422 2328 
Q 422 3509 836 4129 
Q 1250 4750 2034 4750 
z
" transform="scale(0.015625)"/>
       </defs>
       <use xlink:href="#DejaVuSans-30"/>
      </g>
     </g>
    </g>
    <g id="xtick_2">
     <g id="line2d_3">
      <path d="M 182.2498 166.079167 
L 182.2498 10.8 
" clip-path="url(#pe620c8cf50)" style="fill: none; stroke-dasharray: 0.8,1.32; stroke-dashoffset: 0; stroke: #b0b0b0; stroke-width: 0.8"/>
     </g>
     <g id="line2d_4">
      <g>
       <use xlink:href="#m48e829849a" x="182.2498" y="166.079167" style="stroke: #000000; stroke-width: 0.8"/>
      </g>
     </g>
     <g id="text_2">
      <!-- 20 -->
      <g transform="translate(175.8873 180.677604) scale(0.1 -0.1)">
       <defs>
        <path id="DejaVuSans-32" d="M 1228 531 
L 3431 531 
L 3431 0 
L 469 0 
L 469 531 
Q 828 903 1448 1529 
Q 2069 2156 2228 2338 
Q 2531 2678 2651 2914 
Q 2772 3150 2772 3378 
Q 2772 3750 2511 3984 
Q 2250 4219 1831 4219 
Q 1534 4219 1204 4116 
Q 875 4013 500 3803 
L 500 4441 
Q 881 4594 1212 4672 
Q 1544 4750 1819 4750 
Q 2544 4750 2975 4387 
Q 3406 4025 3406 3419 
Q 3406 3131 3298 2873 
Q 3191 2616 2906 2266 
Q 2828 2175 2409 1742 
Q 1991 1309 1228 531 
z
" transform="scale(0.015625)"/>
       </defs>
       <use xlink:href="#DejaVuSans-32"/>
       <use xlink:href="#DejaVuSans-30" x="63.623047"/>
      </g>
     </g>
    </g>
    <g id="xtick_3">
     <g id="line2d_5">
      <path d="M 311.6136 166.079167 
L 311.6136 10.8 
" clip-path="url(#pe620c8cf50)" style="fill: none; stroke-dasharray: 0.8,1.32; stroke-dashoffset: 0; stroke: #b0b0b0; stroke-width: 0.8"/>
     </g>
     <g id="line2d_6">
      <g>
       <use xlink:href="#m48e829849a" x="311.6136" y="166.079167" style="stroke: #000000; stroke-width: 0.8"/>
      </g>
     </g>
     <g id="text_3">
      <!-- 40 -->
      <g transform="translate(305.2511 180.677604) scale(0.1 -0.1)">
       <defs>
        <path id="DejaVuSans-34" d="M 2419 4116 
L 825 1625 
L 2419 1625 
L 2419 4116 
z
M 2253 4666 
L 3047 4666 
L 3047 1625 
L 3713 1625 
L 3713 1100 
L 3047 1100 
L 3047 0 
L 2419 0 
L 2419 1100 
L 313 1100 
L 313 1709 
L 2253 4666 
z
" transform="scale(0.015625)"/>
       </defs>
       <use xlink:href="#DejaVuSans-34"/>
       <use xlink:href="#DejaVuSans-30" x="63.623047"/>
      </g>
     </g>
    </g>
    <g id="xtick_4">
     <g id="line2d_7">
      <path d="M 440.9774 166.079167 
L 440.9774 10.8 
" clip-path="url(#pe620c8cf50)" style="fill: none; stroke-dasharray: 0.8,1.32; stroke-dashoffset: 0; stroke: #b0b0b0; stroke-width: 0.8"/>
     </g>
     <g id="line2d_8">
      <g>
       <use xlink:href="#m48e829849a" x="440.9774" y="166.079167" style="stroke: #000000; stroke-width: 0.8"/>
      </g>
     </g>
     <g id="text_4">
      <!-- 60 -->
      <g transform="translate(434.6149 180.677604) scale(0.1 -0.1)">
       <defs>
        <path id="DejaVuSans-36" d="M 2113 2584 
Q 1688 2584 1439 2293 
Q 1191 2003 1191 1497 
Q 1191 994 1439 701 
Q 1688 409 2113 409 
Q 2538 409 2786 701 
Q 3034 994 3034 1497 
Q 3034 2003 2786 2293 
Q 2538 2584 2113 2584 
z
M 3366 4563 
L 3366 3988 
Q 3128 4100 2886 4159 
Q 2644 4219 2406 4219 
Q 1781 4219 1451 3797 
Q 1122 3375 1075 2522 
Q 1259 2794 1537 2939 
Q 1816 3084 2150 3084 
Q 2853 3084 3261 2657 
Q 3669 2231 3669 1497 
Q 3669 778 3244 343 
Q 2819 -91 2113 -91 
Q 1303 -91 875 529 
Q 447 1150 447 2328 
Q 447 3434 972 4092 
Q 1497 4750 2381 4750 
Q 2619 4750 2861 4703 
Q 3103 4656 3366 4563 
z
" transform="scale(0.015625)"/>
       </defs>
       <use xlink:href="#DejaVuSans-36"/>
       <use xlink:href="#DejaVuSans-30" x="63.623047"/>
      </g>
     </g>
    </g>
    <g id="xtick_5">
     <g id="line2d_9">
      <path d="M 570.3412 166.079167 
L 570.3412 10.8 
" clip-path="url(#pe620c8cf50)" style="fill: none; stroke-dasharray: 0.8,1.32; stroke-dashoffset: 0; stroke: #b0b0b0; stroke-width: 0.8"/>
     </g>
     <g id="line2d_10">
      <g>
       <use xlink:href="#m48e829849a" x="570.3412" y="166.079167" style="stroke: #000000; stroke-width: 0.8"/>
      </g>
     </g>
     <g id="text_5">
      <!-- 80 -->
      <g transform="translate(563.9787 180.677604) scale(0.1 -0.1)">
       <defs>
        <path id="DejaVuSans-38" d="M 2034 2216 
Q 1584 2216 1326 1975 
Q 1069 1734 1069 1313 
Q 1069 891 1326 650 
Q 1584 409 2034 409 
Q 2484 409 2743 651 
Q 3003 894 3003 1313 
Q 3003 1734 2745 1975 
Q 2488 2216 2034 2216 
z
M 1403 2484 
Q 997 2584 770 2862 
Q 544 3141 544 3541 
Q 544 4100 942 4425 
Q 1341 4750 2034 4750 
Q 2731 4750 3128 4425 
Q 3525 4100 3525 3541 
Q 3525 3141 3298 2862 
Q 3072 2584 2669 2484 
Q 3125 2378 3379 2068 
Q 3634 1759 3634 1313 
Q 3634 634 3220 271 
Q 2806 -91 2034 -91 
Q 1263 -91 848 271 
Q 434 634 434 1313 
Q 434 1759 690 2068 
Q 947 2378 1403 2484 
z
M 1172 3481 
Q 1172 3119 1398 2916 
Q 1625 2713 2034 2713 
Q 2441 2713 2670 2916 
Q 2900 3119 2900 3481 
Q 2900 3844 2670 4047 
Q 2441 4250 2034 4250 
Q 1625 4250 1398 4047 
Q 1172 3844 1172 3481 
z
" transform="scale(0.015625)"/>
       </defs>
       <use xlink:href="#DejaVuSans-38"/>
       <use xlink:href="#DejaVuSans-30" x="63.623047"/>
      </g>
     </g>
    </g>
    <g id="xtick_6">
     <g id="line2d_11">
      <path d="M 699.705 166.079167 
L 699.705 10.8 
" clip-path="url(#pe620c8cf50)" style="fill: none; stroke-dasharray: 0.8,1.32; stroke-dashoffset: 0; stroke: #b0b0b0; stroke-width: 0.8"/>
     </g>
     <g id="line2d_12">
      <g>
       <use xlink:href="#m48e829849a" x="699.705" y="166.079167" style="stroke: #000000; stroke-width: 0.8"/>
      </g>
     </g>
     <g id="text_6">
      <!-- 100 -->
      <g transform="translate(690.16125 180.677604) scale(0.1 -0.1)">
       <defs>
        <path id="DejaVuSans-31" d="M 794 531 
L 1825 531 
L 1825 4091 
L 703 3866 
L 703 4441 
L 1819 4666 
L 2450 4666 
L 2450 531 
L 3481 531 
L 3481 0 
L 794 0 
L 794 531 
z
" transform="scale(0.015625)"/>
       </defs>
       <use xlink:href="#DejaVuSans-31"/>
       <use xlink:href="#DejaVuSans-30" x="63.623047"/>
       <use xlink:href="#DejaVuSans-30" x="127.246094"/>
      </g>
     </g>
    </g>
   </g>
   <g id="matplotlib.axis_2">
    <g id="ytick_1">
     <g id="line2d_13">
      <path d="M 52.886 159.021023 
L 699.705 159.021023 
" clip-path="url(#pe620c8cf50)" style="fill: none; stroke-dasharray: 0.8,1.32; stroke-dashoffset: 0; stroke: #b0b0b0; stroke-width: 0.8"/>
     </g>
     <g id="line2d_14">
      <defs>
       <path id="m95dbd6057e" d="M 0 0 
L -3.5 0 
" style="stroke: #000000; stroke-width: 0.8"/>
      </defs>
      <g>
       <use xlink:href="#m95dbd6057e" x="52.886" y="159.021023" style="stroke: #000000; stroke-width: 0.8"/>
      </g>
     </g>
     <g id="text_7">
      <!-- 0.00 -->
      <g transform="translate(23.620375 162.820241) scale(0.1 -0.1)">
       <defs>
        <path id="DejaVuSans-2e" d="M 684 794 
L 1344 794 
L 1344 0 
L 684 0 
L 684 794 
z
" transform="scale(0.015625)"/>
       </defs>
       <use xlink:href="#DejaVuSans-30"/>
       <use xlink:href="#DejaVuSans-2e" x="63.623047"/>
       <use xlink:href="#DejaVuSans-30" x="95.410156"/>
       <use xlink:href="#DejaVuSans-30" x="159.033203"/>
      </g>
     </g>
    </g>
    <g id="ytick_2">
     <g id="line2d_15">
      <path d="M 52.886 135.709893 
L 699.705 135.709893 
" clip-path="url(#pe620c8cf50)" style="fill: none; stroke-dasharray: 0.8,1.32; stroke-dashoffset: 0; stroke: #b0b0b0; stroke-width: 0.8"/>
     </g>
     <g id="line2d_16">
      <g>
       <use xlink:href="#m95dbd6057e" x="52.886" y="135.709893" style="stroke: #000000; stroke-width: 0.8"/>
      </g>
     </g>
     <g id="text_8">
      <!-- 0.25 -->
      <g transform="translate(23.620375 139.509111) scale(0.1 -0.1)">
       <defs>
        <path id="DejaVuSans-35" d="M 691 4666 
L 3169 4666 
L 3169 4134 
L 1269 4134 
L 1269 2991 
Q 1406 3038 1543 3061 
Q 1681 3084 1819 3084 
Q 2600 3084 3056 2656 
Q 3513 2228 3513 1497 
Q 3513 744 3044 326 
Q 2575 -91 1722 -91 
Q 1428 -91 1123 -41 
Q 819 9 494 109 
L 494 744 
Q 775 591 1075 516 
Q 1375 441 1709 441 
Q 2250 441 2565 725 
Q 2881 1009 2881 1497 
Q 2881 1984 2565 2268 
Q 2250 2553 1709 2553 
Q 1456 2553 1204 2497 
Q 953 2441 691 2322 
L 691 4666 
z
" transform="scale(0.015625)"/>
       </defs>
       <use xlink:href="#DejaVuSans-30"/>
       <use xlink:href="#DejaVuSans-2e" x="63.623047"/>
       <use xlink:href="#DejaVuSans-32" x="95.410156"/>
       <use xlink:href="#DejaVuSans-35" x="159.033203"/>
      </g>
     </g>
    </g>
    <g id="ytick_3">
     <g id="line2d_17">
      <path d="M 52.886 112.398763 
L 699.705 112.398763 
" clip-path="url(#pe620c8cf50)" style="fill: none; stroke-dasharray: 0.8,1.32; stroke-dashoffset: 0; stroke: #b0b0b0; stroke-width: 0.8"/>
     </g>
     <g id="line2d_18">
      <g>
       <use xlink:href="#m95dbd6057e" x="52.886" y="112.398763" style="stroke: #000000; stroke-width: 0.8"/>
      </g>
     </g>
     <g id="text_9">
      <!-- 0.50 -->
      <g transform="translate(23.620375 116.197981) scale(0.1 -0.1)">
       <use xlink:href="#DejaVuSans-30"/>
       <use xlink:href="#DejaVuSans-2e" x="63.623047"/>
       <use xlink:href="#DejaVuSans-35" x="95.410156"/>
       <use xlink:href="#DejaVuSans-30" x="159.033203"/>
      </g>
     </g>
    </g>
    <g id="ytick_4">
     <g id="line2d_19">
      <path d="M 52.886 89.087633 
L 699.705 89.087633 
" clip-path="url(#pe620c8cf50)" style="fill: none; stroke-dasharray: 0.8,1.32; stroke-dashoffset: 0; stroke: #b0b0b0; stroke-width: 0.8"/>
     </g>
     <g id="line2d_20">
      <g>
       <use xlink:href="#m95dbd6057e" x="52.886" y="89.087633" style="stroke: #000000; stroke-width: 0.8"/>
      </g>
     </g>
     <g id="text_10">
      <!-- 0.75 -->
      <g transform="translate(23.620375 92.886851) scale(0.1 -0.1)">
       <defs>
        <path id="DejaVuSans-37" d="M 525 4666 
L 3525 4666 
L 3525 4397 
L 1831 0 
L 1172 0 
L 2766 4134 
L 525 4134 
L 525 4666 
z
" transform="scale(0.015625)"/>
       </defs>
       <use xlink:href="#DejaVuSans-30"/>
       <use xlink:href="#DejaVuSans-2e" x="63.623047"/>
       <use xlink:href="#DejaVuSans-37" x="95.410156"/>
       <use xlink:href="#DejaVuSans-35" x="159.033203"/>
      </g>
     </g>
    </g>
    <g id="ytick_5">
     <g id="line2d_21">
      <path d="M 52.886 65.776503 
L 699.705 65.776503 
" clip-path="url(#pe620c8cf50)" style="fill: none; stroke-dasharray: 0.8,1.32; stroke-dashoffset: 0; stroke: #b0b0b0; stroke-width: 0.8"/>
     </g>
     <g id="line2d_22">
      <g>
       <use xlink:href="#m95dbd6057e" x="52.886" y="65.776503" style="stroke: #000000; stroke-width: 0.8"/>
      </g>
     </g>
     <g id="text_11">
      <!-- 1.00 -->
      <g transform="translate(23.620375 69.575722) scale(0.1 -0.1)">
       <use xlink:href="#DejaVuSans-31"/>
       <use xlink:href="#DejaVuSans-2e" x="63.623047"/>
       <use xlink:href="#DejaVuSans-30" x="95.410156"/>
       <use xlink:href="#DejaVuSans-30" x="159.033203"/>
      </g>
     </g>
    </g>
    <g id="ytick_6">
     <g id="line2d_23">
      <path d="M 52.886 42.465373 
L 699.705 42.465373 
" clip-path="url(#pe620c8cf50)" style="fill: none; stroke-dasharray: 0.8,1.32; stroke-dashoffset: 0; stroke: #b0b0b0; stroke-width: 0.8"/>
     </g>
     <g id="line2d_24">
      <g>
       <use xlink:href="#m95dbd6057e" x="52.886" y="42.465373" style="stroke: #000000; stroke-width: 0.8"/>
      </g>
     </g>
     <g id="text_12">
      <!-- 1.25 -->
      <g transform="translate(23.620375 46.264592) scale(0.1 -0.1)">
       <use xlink:href="#DejaVuSans-31"/>
       <use xlink:href="#DejaVuSans-2e" x="63.623047"/>
       <use xlink:href="#DejaVuSans-32" x="95.410156"/>
       <use xlink:href="#DejaVuSans-35" x="159.033203"/>
      </g>
     </g>
    </g>
    <g id="ytick_7">
     <g id="line2d_25">
      <path d="M 52.886 19.154243 
L 699.705 19.154243 
" clip-path="url(#pe620c8cf50)" style="fill: none; stroke-dasharray: 0.8,1.32; stroke-dashoffset: 0; stroke: #b0b0b0; stroke-width: 0.8"/>
     </g>
     <g id="line2d_26">
      <g>
       <use xlink:href="#m95dbd6057e" x="52.886" y="19.154243" style="stroke: #000000; stroke-width: 0.8"/>
      </g>
     </g>
     <g id="text_13">
      <!-- 1.50 -->
      <g transform="translate(23.620375 22.953462) scale(0.1 -0.1)">
       <use xlink:href="#DejaVuSans-31"/>
       <use xlink:href="#DejaVuSans-2e" x="63.623047"/>
       <use xlink:href="#DejaVuSans-35" x="95.410156"/>
       <use xlink:href="#DejaVuSans-30" x="159.033203"/>
      </g>
     </g>
    </g>
    <g id="text_14">
     <!-- $C_l$ [-] -->
     <g transform="translate(17.540688 100.339583) rotate(-90) scale(0.1 -0.1)">
      <defs>
       <path id="DejaVuSans-Oblique-43" d="M 4447 4306 
L 4319 3641 
Q 4019 3944 3683 4091 
Q 3347 4238 2956 4238 
Q 2422 4238 2017 3981 
Q 1613 3725 1319 3200 
Q 1131 2863 1032 2486 
Q 934 2109 934 1728 
Q 934 1091 1264 756 
Q 1594 422 2222 422 
Q 2656 422 3056 561 
Q 3456 700 3834 978 
L 3688 231 
Q 3316 72 2936 -9 
Q 2556 -91 2175 -91 
Q 1278 -91 773 396 
Q 269 884 269 1753 
Q 269 2309 461 2846 
Q 653 3384 1013 3828 
Q 1394 4300 1883 4525 
Q 2372 4750 3022 4750 
Q 3422 4750 3780 4639 
Q 4138 4528 4447 4306 
z
" transform="scale(0.015625)"/>
       <path id="DejaVuSans-Oblique-6c" d="M 1172 4863 
L 1747 4863 
L 800 0 
L 225 0 
L 1172 4863 
z
" transform="scale(0.015625)"/>
       <path id="DejaVuSans-20" transform="scale(0.015625)"/>
       <path id="DejaVuSans-5b" d="M 550 4863 
L 1875 4863 
L 1875 4416 
L 1125 4416 
L 1125 -397 
L 1875 -397 
L 1875 -844 
L 550 -844 
L 550 4863 
z
" transform="scale(0.015625)"/>
       <path id="DejaVuSans-2d" d="M 313 2009 
L 1997 2009 
L 1997 1497 
L 313 1497 
L 313 2009 
z
" transform="scale(0.015625)"/>
       <path id="DejaVuSans-5d" d="M 1947 4863 
L 1947 -844 
L 622 -844 
L 622 -397 
L 1369 -397 
L 1369 4416 
L 622 4416 
L 622 4863 
L 1947 4863 
z
" transform="scale(0.015625)"/>
      </defs>
      <use xlink:href="#DejaVuSans-Oblique-43" transform="translate(0 0.015625)"/>
      <use xlink:href="#DejaVuSans-Oblique-6c" transform="translate(69.824219 -16.390625) scale(0.7)"/>
      <use xlink:href="#DejaVuSans-20" transform="translate(92.006836 0.015625)"/>
      <use xlink:href="#DejaVuSans-5b" transform="translate(123.793945 0.015625)"/>
      <use xlink:href="#DejaVuSans-2d" transform="translate(162.807617 0.015625)"/>
      <use xlink:href="#DejaVuSans-5d" transform="translate(198.891602 0.015625)"/>
     </g>
    </g>
   </g>
   <g id="line2d_27">
    <path d="M 52.886 17.858144 
L 59.419525 17.858144 
L 65.953051 17.858144 
L 72.486576 17.858144 
L 79.020101 17.858144 
L 85.553626 17.858144 
L 92.087152 17.858144 
L 98.620677 17.858144 
L 105.154202 17.858144 
L 111.687727 17.858144 
L 118.221253 17.858144 
L 124.754778 17.858144 
L 131.288303 17.858144 
L 137.821828 17.858144 
L 144.355354 17.858144 
L 150.888879 17.858144 
L 157.422404 17.858144 
L 163.955929 17.858144 
L 170.489455 17.858144 
L 177.02298 17.858144 
L 183.556505 17.858144 
L 190.09003 17.858144 
L 196.623556 17.858144 
L 203.157081 17.858144 
L 209.690606 17.868265 
L 216.224131 18.45482 
L 222.757657 19.726217 
L 229.291182 21.37773 
L 235.824707 23.104633 
L 242.358232 24.6022 
L 248.891758 25.576493 
L 255.425283 26.173044 
L 261.958808 26.619899 
L 268.492333 27.017771 
L 275.025859 27.467377 
L 281.559384 28.069431 
L 288.092909 29.023567 
L 294.626434 31.422938 
L 301.15996 35.31057 
L 307.693485 40.389728 
L 314.22701 46.363677 
L 320.760535 52.935682 
L 327.294061 59.809007 
L 333.827586 66.686918 
L 340.361111 73.272679 
L 346.894636 79.269555 
L 353.428162 84.380811 
L 359.961687 88.309712 
L 366.495212 90.949457 
L 373.028737 93.347324 
L 379.562263 95.712286 
L 386.095788 98.043756 
L 392.629313 100.341143 
L 399.162838 102.603859 
L 405.696364 104.831314 
L 412.229889 107.02292 
L 418.763414 109.178088 
L 425.296939 111.296229 
L 431.830465 113.376752 
L 438.36399 115.419071 
L 444.897515 117.422594 
L 451.43104 119.386734 
L 457.964566 121.310901 
L 464.498091 123.194507 
L 471.031616 125.036962 
L 477.565141 126.837677 
L 484.098667 128.596063 
L 490.632192 130.311531 
L 497.165717 131.983493 
L 503.699242 133.611358 
L 510.232768 135.194538 
L 516.766293 136.732445 
L 523.299818 138.224488 
L 529.833343 139.670079 
L 536.366869 141.068628 
L 542.900394 142.419548 
L 549.433919 143.722248 
L 555.967444 144.97614 
L 562.50097 146.180634 
L 569.034495 147.335142 
L 575.56802 148.439075 
L 582.101545 149.491843 
L 588.635071 150.492857 
L 595.168596 151.441529 
L 601.702121 152.337269 
L 608.235646 153.179489 
L 614.769172 153.967598 
L 621.302697 154.701009 
L 627.836222 155.379132 
L 634.369747 156.001379 
L 640.903273 156.567159 
L 647.436798 157.075884 
L 653.970323 157.526965 
L 660.503848 157.919814 
L 667.037374 158.25384 
L 673.570899 158.528455 
L 680.104424 158.74307 
L 686.637949 158.897095 
L 693.171475 158.989943 
L 699.705 159.021023 
" clip-path="url(#pe620c8cf50)" style="fill: none; stroke: #1f77b4; stroke-width: 1.5; stroke-linecap: square"/>
   </g>
   <g id="line2d_28">
    <defs>
     <path id="m703434955d" d="M 0 3 
C 0.795609 3 1.55874 2.683901 2.12132 2.12132 
C 2.683901 1.55874 3 0.795609 3 0 
C 3 -0.795609 2.683901 -1.55874 2.12132 -2.12132 
C 1.55874 -2.683901 0.795609 -3 0 -3 
C -0.795609 -3 -1.55874 -2.683901 -2.12132 -2.12132 
C -2.683901 -1.55874 -3 -0.795609 -3 0 
C -3 0.795609 -2.683901 1.55874 -2.12132 2.12132 
C -1.55874 2.683901 -0.795609 3 0 3 
z
" style="stroke: #1f77b4"/>
    </defs>
    <g clip-path="url(#pe620c8cf50)">
     <use xlink:href="#m703434955d" x="208.769379" y="17.858144" style="fill: #1f77b4; stroke: #1f77b4"/>
     <use xlink:href="#m703434955d" x="247.578519" y="25.429599" style="fill: #1f77b4; stroke: #1f77b4"/>
     <use xlink:href="#m703434955d" x="285.74084" y="28.581264" style="fill: #1f77b4; stroke: #1f77b4"/>
     <use xlink:href="#m703434955d" x="363.35912" y="89.786967" style="fill: #1f77b4; stroke: #1f77b4"/>
    </g>
   </g>
   <g id="line2d_29">
    <defs>
     <path id="m08ff5cadc1" d="M -3 3 
L 3 -3 
M -3 -3 
L 3 3 
" style="stroke: #000000"/>
    </defs>
    <g clip-path="url(#pe620c8cf50)">
     <use xlink:href="#m08ff5cadc1" x="208.769379" y="37.803147" style="stroke: #000000"/>
     <use xlink:href="#m08ff5cadc1" x="247.578519" y="44.330263" style="stroke: #000000"/>
     <use xlink:href="#m08ff5cadc1" x="285.74084" y="31.27603" style="stroke: #000000"/>
     <use xlink:href="#m08ff5cadc1" x="363.35912" y="108.668982" style="stroke: #000000"/>
    </g>
   </g>
   <g id="line2d_30">
    <path d="M 52.886 27.182596 
L 59.419525 27.182596 
L 65.953051 27.182596 
L 72.486576 27.182596 
L 79.020101 27.182596 
L 85.553626 27.182596 
L 92.087152 27.182596 
L 98.620677 27.182596 
L 105.154202 27.182596 
L 111.687727 27.182596 
L 118.221253 27.182596 
L 124.754778 27.182596 
L 131.288303 27.182596 
L 137.821828 27.182596 
L 144.355354 27.182596 
L 150.888879 27.182596 
L 157.422404 27.182596 
L 163.955929 27.182596 
L 170.489455 27.182596 
L 177.02298 27.182596 
L 183.556505 27.182596 
L 190.09003 27.182596 
L 196.623556 27.182596 
L 203.157081 27.182596 
L 209.690606 27.192717 
L 216.224131 27.779272 
L 222.757657 29.050669 
L 229.291182 30.702182 
L 235.824707 32.429085 
L 242.358232 33.926652 
L 248.891758 34.900945 
L 255.425283 35.497496 
L 261.958808 35.944351 
L 268.492333 36.342223 
L 275.025859 36.791829 
L 281.559384 37.393883 
L 288.092909 38.350593 
L 294.626434 40.780936 
L 301.15996 44.726436 
L 307.693485 49.880013 
L 314.22701 55.934587 
L 320.760535 62.58308 
L 327.294061 69.51841 
L 333.827586 76.4335 
L 340.361111 83.021269 
L 346.894636 88.974638 
L 353.428162 93.986528 
L 359.961687 97.749858 
L 366.495212 100.156865 
L 373.028737 102.309388 
L 379.562263 104.427201 
L 386.095788 106.509985 
L 392.629313 108.55742 
L 399.162838 110.569185 
L 405.696364 112.544961 
L 412.229889 114.484429 
L 418.763414 116.387268 
L 425.296939 118.253159 
L 431.830465 120.081781 
L 438.36399 121.872816 
L 444.897515 123.625943 
L 451.43104 125.340843 
L 457.964566 127.017195 
L 464.498091 128.654681 
L 471.031616 130.25298 
L 477.565141 131.811772 
L 484.098667 133.330738 
L 490.632192 134.809557 
L 497.165717 136.247911 
L 503.699242 137.645479 
L 510.232768 139.001941 
L 516.766293 140.316978 
L 523.299818 141.59027 
L 529.833343 142.821498 
L 536.366869 144.01034 
L 542.900394 145.156478 
L 549.433919 146.259592 
L 555.967444 147.319362 
L 562.50097 148.335468 
L 569.034495 149.307591 
L 575.56802 150.23541 
L 582.101545 151.118606 
L 588.635071 151.956859 
L 595.168596 152.74985 
L 601.702121 153.497258 
L 608.235646 154.198763 
L 614.769172 154.854047 
L 621.302697 155.462789 
L 627.836222 156.024669 
L 634.369747 156.539367 
L 640.903273 157.006565 
L 647.436798 157.425941 
L 653.970323 157.797177 
L 660.503848 158.119952 
L 667.037374 158.393947 
L 673.570899 158.618841 
L 680.104424 158.794316 
L 686.637949 158.920051 
L 693.171475 158.995726 
L 699.705 159.021023 
" clip-path="url(#pe620c8cf50)" style="fill: none; stroke: #ff7f0e; stroke-width: 1.5; stroke-linecap: square"/>
   </g>
   <g id="line2d_31">
    <defs>
     <path id="mea61eb92a4" d="M 0 3 
C 0.795609 3 1.55874 2.683901 2.12132 2.12132 
C 2.683901 1.55874 3 0.795609 3 0 
C 3 -0.795609 2.683901 -1.55874 2.12132 -2.12132 
C 1.55874 -2.683901 0.795609 -3 0 -3 
C -0.795609 -3 -1.55874 -2.683901 -2.12132 -2.12132 
C -2.683901 -1.55874 -3 -0.795609 -3 0 
C -3 0.795609 -2.683901 1.55874 -2.12132 2.12132 
C -1.55874 2.683901 -0.795609 3 0 3 
z
" style="stroke: #ff7f0e"/>
    </defs>
    <g clip-path="url(#pe620c8cf50)">
     <use xlink:href="#mea61eb92a4" x="208.769379" y="27.182596" style="fill: #ff7f0e; stroke: #ff7f0e"/>
     <use xlink:href="#mea61eb92a4" x="247.578519" y="34.754051" style="fill: #ff7f0e; stroke: #ff7f0e"/>
     <use xlink:href="#mea61eb92a4" x="285.74084" y="37.905716" style="fill: #ff7f0e; stroke: #ff7f0e"/>
     <use xlink:href="#mea61eb92a4" x="363.35912" y="99.111419" style="fill: #ff7f0e; stroke: #ff7f0e"/>
    </g>
   </g>
   <g id="line2d_32">
    <g clip-path="url(#pe620c8cf50)">
     <use xlink:href="#m08ff5cadc1" x="208.769379" y="37.803147" style="stroke: #000000"/>
     <use xlink:href="#m08ff5cadc1" x="247.578519" y="44.330263" style="stroke: #000000"/>
     <use xlink:href="#m08ff5cadc1" x="285.74084" y="31.27603" style="stroke: #000000"/>
     <use xlink:href="#m08ff5cadc1" x="363.35912" y="108.668982" style="stroke: #000000"/>
    </g>
   </g>
   <g id="line2d_33">
    <path d="M 52.886 36.507048 
L 59.419525 36.507048 
L 65.953051 36.507048 
L 72.486576 36.507048 
L 79.020101 36.507048 
L 85.553626 36.507048 
L 92.087152 36.507048 
L 98.620677 36.507048 
L 105.154202 36.507048 
L 111.687727 36.507048 
L 118.221253 36.507048 
L 124.754778 36.507048 
L 131.288303 36.507048 
L 137.821828 36.507048 
L 144.355354 36.507048 
L 150.888879 36.507048 
L 157.422404 36.507048 
L 163.955929 36.507048 
L 170.489455 36.507048 
L 177.02298 36.507048 
L 183.556505 36.507048 
L 190.09003 36.507048 
L 196.623556 36.507048 
L 203.157081 36.507048 
L 209.690606 36.517169 
L 216.224131 37.103724 
L 222.757657 38.375121 
L 229.291182 40.026634 
L 235.824707 41.753537 
L 242.358232 43.251104 
L 248.891758 44.225397 
L 255.425283 44.821948 
L 261.958808 45.268803 
L 268.492333 45.666675 
L 275.025859 46.116281 
L 281.559384 46.718335 
L 288.092909 47.677833 
L 294.626434 50.141723 
L 301.15996 54.149901 
L 307.693485 59.384082 
L 314.22701 65.525984 
L 320.760535 72.257321 
L 327.294061 79.259811 
L 333.827586 86.21517 
L 340.361111 92.805115 
L 346.894636 98.71136 
L 353.428162 103.615624 
L 359.961687 107.199621 
L 366.495212 109.354744 
L 373.028737 111.243214 
L 379.562263 113.096673 
L 386.095788 114.915023 
L 392.629313 116.698169 
L 399.162838 118.446014 
L 405.696364 120.158463 
L 412.229889 121.835418 
L 418.763414 123.476784 
L 425.296939 125.082464 
L 431.830465 126.652361 
L 438.36399 128.18638 
L 444.897515 129.684424 
L 451.43104 131.146397 
L 457.964566 132.572203 
L 464.498091 133.961744 
L 471.031616 135.314926 
L 477.565141 136.631651 
L 484.098667 137.911823 
L 490.632192 139.155347 
L 497.165717 140.362125 
L 503.699242 141.532061 
L 510.232768 142.665059 
L 516.766293 143.761023 
L 523.299818 144.819856 
L 529.833343 145.841462 
L 536.366869 146.825745 
L 542.900394 147.772609 
L 549.433919 148.681956 
L 555.967444 149.553691 
L 562.50097 150.387718 
L 569.034495 151.183939 
L 575.56802 151.94226 
L 582.101545 152.662583 
L 588.635071 153.344812 
L 595.168596 153.988851 
L 601.702121 154.594604 
L 608.235646 155.161974 
L 614.769172 155.690865 
L 621.302697 156.18118 
L 627.836222 156.632824 
L 634.369747 157.045699 
L 640.903273 157.41971 
L 647.436798 157.754761 
L 653.970323 158.050754 
L 660.503848 158.307595 
L 667.037374 158.525185 
L 673.570899 158.70343 
L 680.104424 158.842232 
L 686.637949 158.941496 
L 693.171475 159.001125 
L 699.705 159.021023 
" clip-path="url(#pe620c8cf50)" style="fill: none; stroke: #2ca02c; stroke-width: 1.5; stroke-linecap: square"/>
   </g>
   <g id="line2d_34">
    <defs>
     <path id="mbd6e6a2b54" d="M 0 3 
C 0.795609 3 1.55874 2.683901 2.12132 2.12132 
C 2.683901 1.55874 3 0.795609 3 0 
C 3 -0.795609 2.683901 -1.55874 2.12132 -2.12132 
C 1.55874 -2.683901 0.795609 -3 0 -3 
C -0.795609 -3 -1.55874 -2.683901 -2.12132 -2.12132 
C -2.683901 -1.55874 -3 -0.795609 -3 0 
C -3 0.795609 -2.683901 1.55874 -2.12132 2.12132 
C -1.55874 2.683901 -0.795609 3 0 3 
z
" style="stroke: #2ca02c"/>
    </defs>
    <g clip-path="url(#pe620c8cf50)">
     <use xlink:href="#mbd6e6a2b54" x="208.769379" y="36.507048" style="fill: #2ca02c; stroke: #2ca02c"/>
     <use xlink:href="#mbd6e6a2b54" x="247.578519" y="44.078503" style="fill: #2ca02c; stroke: #2ca02c"/>
     <use xlink:href="#mbd6e6a2b54" x="285.74084" y="47.230168" style="fill: #2ca02c; stroke: #2ca02c"/>
     <use xlink:href="#mbd6e6a2b54" x="363.35912" y="108.435871" style="fill: #2ca02c; stroke: #2ca02c"/>
    </g>
   </g>
   <g id="line2d_35">
    <g clip-path="url(#pe620c8cf50)">
     <use xlink:href="#m08ff5cadc1" x="208.769379" y="37.803147" style="stroke: #000000"/>
     <use xlink:href="#m08ff5cadc1" x="247.578519" y="44.330263" style="stroke: #000000"/>
     <use xlink:href="#m08ff5cadc1" x="285.74084" y="31.27603" style="stroke: #000000"/>
     <use xlink:href="#m08ff5cadc1" x="363.35912" y="108.668982" style="stroke: #000000"/>
    </g>
   </g>
   <g id="patch_3">
    <path d="M 52.886 166.079167 
L 52.886 10.8 
" style="fill: none; stroke: #000000; stroke-width: 0.8; stroke-linejoin: miter; stroke-linecap: square"/>
   </g>
   <g id="patch_4">
    <path d="M 699.705 166.079167 
L 699.705 10.8 
" style="fill: none; stroke: #000000; stroke-width: 0.8; stroke-linejoin: miter; stroke-linecap: square"/>
   </g>
   <g id="patch_5">
    <path d="M 52.886 166.079167 
L 699.705 166.079167 
" style="fill: none; stroke: #000000; stroke-width: 0.8; stroke-linejoin: miter; stroke-linecap: square"/>
   </g>
   <g id="patch_6">
    <path d="M 52.886 10.8 
L 699.705 10.8 
" style="fill: none; stroke: #000000; stroke-width: 0.8; stroke-linejoin: miter; stroke-linecap: square"/>
   </g>
   <g id="legend_1">
    <g id="patch_7">
     <path d="M 591.765937 77.5125 
L 692.705 77.5125 
Q 694.705 77.5125 694.705 75.5125 
L 694.705 17.8 
Q 694.705 15.8 692.705 15.8 
L 591.765937 15.8 
Q 589.765937 15.8 589.765937 17.8 
L 589.765937 75.5125 
Q 589.765937 77.5125 591.765937 77.5125 
z
" style="fill: #ffffff; opacity: 0.8; stroke: #cccccc; stroke-linejoin: miter"/>
    </g>
    <g id="line2d_36">
     <path d="M 593.765937 23.898438 
L 603.765937 23.898438 
L 613.765937 23.898438 
" style="fill: none; stroke: #1f77b4; stroke-width: 1.5; stroke-linecap: square"/>
    </g>
    <g id="text_15">
     <!-- Design func 1 -->
     <g transform="translate(621.765937 27.398438) scale(0.1 -0.1)">
      <defs>
       <path id="DejaVuSans-44" d="M 1259 4147 
L 1259 519 
L 2022 519 
Q 2988 519 3436 956 
Q 3884 1394 3884 2338 
Q 3884 3275 3436 3711 
Q 2988 4147 2022 4147 
L 1259 4147 
z
M 628 4666 
L 1925 4666 
Q 3281 4666 3915 4102 
Q 4550 3538 4550 2338 
Q 4550 1131 3912 565 
Q 3275 0 1925 0 
L 628 0 
L 628 4666 
z
" transform="scale(0.015625)"/>
       <path id="DejaVuSans-65" d="M 3597 1894 
L 3597 1613 
L 953 1613 
Q 991 1019 1311 708 
Q 1631 397 2203 397 
Q 2534 397 2845 478 
Q 3156 559 3463 722 
L 3463 178 
Q 3153 47 2828 -22 
Q 2503 -91 2169 -91 
Q 1331 -91 842 396 
Q 353 884 353 1716 
Q 353 2575 817 3079 
Q 1281 3584 2069 3584 
Q 2775 3584 3186 3129 
Q 3597 2675 3597 1894 
z
M 3022 2063 
Q 3016 2534 2758 2815 
Q 2500 3097 2075 3097 
Q 1594 3097 1305 2825 
Q 1016 2553 972 2059 
L 3022 2063 
z
" transform="scale(0.015625)"/>
       <path id="DejaVuSans-73" d="M 2834 3397 
L 2834 2853 
Q 2591 2978 2328 3040 
Q 2066 3103 1784 3103 
Q 1356 3103 1142 2972 
Q 928 2841 928 2578 
Q 928 2378 1081 2264 
Q 1234 2150 1697 2047 
L 1894 2003 
Q 2506 1872 2764 1633 
Q 3022 1394 3022 966 
Q 3022 478 2636 193 
Q 2250 -91 1575 -91 
Q 1294 -91 989 -36 
Q 684 19 347 128 
L 347 722 
Q 666 556 975 473 
Q 1284 391 1588 391 
Q 1994 391 2212 530 
Q 2431 669 2431 922 
Q 2431 1156 2273 1281 
Q 2116 1406 1581 1522 
L 1381 1569 
Q 847 1681 609 1914 
Q 372 2147 372 2553 
Q 372 3047 722 3315 
Q 1072 3584 1716 3584 
Q 2034 3584 2315 3537 
Q 2597 3491 2834 3397 
z
" transform="scale(0.015625)"/>
       <path id="DejaVuSans-69" d="M 603 3500 
L 1178 3500 
L 1178 0 
L 603 0 
L 603 3500 
z
M 603 4863 
L 1178 4863 
L 1178 4134 
L 603 4134 
L 603 4863 
z
" transform="scale(0.015625)"/>
       <path id="DejaVuSans-67" d="M 2906 1791 
Q 2906 2416 2648 2759 
Q 2391 3103 1925 3103 
Q 1463 3103 1205 2759 
Q 947 2416 947 1791 
Q 947 1169 1205 825 
Q 1463 481 1925 481 
Q 2391 481 2648 825 
Q 2906 1169 2906 1791 
z
M 3481 434 
Q 3481 -459 3084 -895 
Q 2688 -1331 1869 -1331 
Q 1566 -1331 1297 -1286 
Q 1028 -1241 775 -1147 
L 775 -588 
Q 1028 -725 1275 -790 
Q 1522 -856 1778 -856 
Q 2344 -856 2625 -561 
Q 2906 -266 2906 331 
L 2906 616 
Q 2728 306 2450 153 
Q 2172 0 1784 0 
Q 1141 0 747 490 
Q 353 981 353 1791 
Q 353 2603 747 3093 
Q 1141 3584 1784 3584 
Q 2172 3584 2450 3431 
Q 2728 3278 2906 2969 
L 2906 3500 
L 3481 3500 
L 3481 434 
z
" transform="scale(0.015625)"/>
       <path id="DejaVuSans-6e" d="M 3513 2113 
L 3513 0 
L 2938 0 
L 2938 2094 
Q 2938 2591 2744 2837 
Q 2550 3084 2163 3084 
Q 1697 3084 1428 2787 
Q 1159 2491 1159 1978 
L 1159 0 
L 581 0 
L 581 3500 
L 1159 3500 
L 1159 2956 
Q 1366 3272 1645 3428 
Q 1925 3584 2291 3584 
Q 2894 3584 3203 3211 
Q 3513 2838 3513 2113 
z
" transform="scale(0.015625)"/>
       <path id="DejaVuSans-66" d="M 2375 4863 
L 2375 4384 
L 1825 4384 
Q 1516 4384 1395 4259 
Q 1275 4134 1275 3809 
L 1275 3500 
L 2222 3500 
L 2222 3053 
L 1275 3053 
L 1275 0 
L 697 0 
L 697 3053 
L 147 3053 
L 147 3500 
L 697 3500 
L 697 3744 
Q 697 4328 969 4595 
Q 1241 4863 1831 4863 
L 2375 4863 
z
" transform="scale(0.015625)"/>
       <path id="DejaVuSans-75" d="M 544 1381 
L 544 3500 
L 1119 3500 
L 1119 1403 
Q 1119 906 1312 657 
Q 1506 409 1894 409 
Q 2359 409 2629 706 
Q 2900 1003 2900 1516 
L 2900 3500 
L 3475 3500 
L 3475 0 
L 2900 0 
L 2900 538 
Q 2691 219 2414 64 
Q 2138 -91 1772 -91 
Q 1169 -91 856 284 
Q 544 659 544 1381 
z
M 1991 3584 
L 1991 3584 
z
" transform="scale(0.015625)"/>
       <path id="DejaVuSans-63" d="M 3122 3366 
L 3122 2828 
Q 2878 2963 2633 3030 
Q 2388 3097 2138 3097 
Q 1578 3097 1268 2742 
Q 959 2388 959 1747 
Q 959 1106 1268 751 
Q 1578 397 2138 397 
Q 2388 397 2633 464 
Q 2878 531 3122 666 
L 3122 134 
Q 2881 22 2623 -34 
Q 2366 -91 2075 -91 
Q 1284 -91 818 406 
Q 353 903 353 1747 
Q 353 2603 823 3093 
Q 1294 3584 2113 3584 
Q 2378 3584 2631 3529 
Q 2884 3475 3122 3366 
z
" transform="scale(0.015625)"/>
      </defs>
      <use xlink:href="#DejaVuSans-44"/>
      <use xlink:href="#DejaVuSans-65" x="77.001953"/>
      <use xlink:href="#DejaVuSans-73" x="138.525391"/>
      <use xlink:href="#DejaVuSans-69" x="190.625"/>
      <use xlink:href="#DejaVuSans-67" x="218.408203"/>
      <use xlink:href="#DejaVuSans-6e" x="281.884766"/>
      <use xlink:href="#DejaVuSans-20" x="345.263672"/>
      <use xlink:href="#DejaVuSans-66" x="377.050781"/>
      <use xlink:href="#DejaVuSans-75" x="412.255859"/>
      <use xlink:href="#DejaVuSans-6e" x="475.634766"/>
      <use xlink:href="#DejaVuSans-63" x="539.013672"/>
      <use xlink:href="#DejaVuSans-20" x="593.994141"/>
      <use xlink:href="#DejaVuSans-31" x="625.78125"/>
     </g>
    </g>
    <g id="line2d_37">
     <path d="M 593.765937 38.576563 
L 603.765937 38.576563 
L 613.765937 38.576563 
" style="fill: none; stroke: #ff7f0e; stroke-width: 1.5; stroke-linecap: square"/>
    </g>
    <g id="text_16">
     <!-- Design func 2 -->
     <g transform="translate(621.765937 42.076563) scale(0.1 -0.1)">
      <use xlink:href="#DejaVuSans-44"/>
      <use xlink:href="#DejaVuSans-65" x="77.001953"/>
      <use xlink:href="#DejaVuSans-73" x="138.525391"/>
      <use xlink:href="#DejaVuSans-69" x="190.625"/>
      <use xlink:href="#DejaVuSans-67" x="218.408203"/>
      <use xlink:href="#DejaVuSans-6e" x="281.884766"/>
      <use xlink:href="#DejaVuSans-20" x="345.263672"/>
      <use xlink:href="#DejaVuSans-66" x="377.050781"/>
      <use xlink:href="#DejaVuSans-75" x="412.255859"/>
      <use xlink:href="#DejaVuSans-6e" x="475.634766"/>
      <use xlink:href="#DejaVuSans-63" x="539.013672"/>
      <use xlink:href="#DejaVuSans-20" x="593.994141"/>
      <use xlink:href="#DejaVuSans-32" x="625.78125"/>
     </g>
    </g>
    <g id="line2d_38">
     <path d="M 593.765937 53.254688 
L 603.765937 53.254688 
L 613.765937 53.254688 
" style="fill: none; stroke: #2ca02c; stroke-width: 1.5; stroke-linecap: square"/>
    </g>
    <g id="text_17">
     <!-- Design func 3 -->
     <g transform="translate(621.765937 56.754688) scale(0.1 -0.1)">
      <defs>
       <path id="DejaVuSans-33" d="M 2597 2516 
Q 3050 2419 3304 2112 
Q 3559 1806 3559 1356 
Q 3559 666 3084 287 
Q 2609 -91 1734 -91 
Q 1441 -91 1130 -33 
Q 819 25 488 141 
L 488 750 
Q 750 597 1062 519 
Q 1375 441 1716 441 
Q 2309 441 2620 675 
Q 2931 909 2931 1356 
Q 2931 1769 2642 2001 
Q 2353 2234 1838 2234 
L 1294 2234 
L 1294 2753 
L 1863 2753 
Q 2328 2753 2575 2939 
Q 2822 3125 2822 3475 
Q 2822 3834 2567 4026 
Q 2313 4219 1838 4219 
Q 1578 4219 1281 4162 
Q 984 4106 628 3988 
L 628 4550 
Q 988 4650 1302 4700 
Q 1616 4750 1894 4750 
Q 2613 4750 3031 4423 
Q 3450 4097 3450 3541 
Q 3450 3153 3228 2886 
Q 3006 2619 2597 2516 
z
" transform="scale(0.015625)"/>
      </defs>
      <use xlink:href="#DejaVuSans-44"/>
      <use xlink:href="#DejaVuSans-65" x="77.001953"/>
      <use xlink:href="#DejaVuSans-73" x="138.525391"/>
      <use xlink:href="#DejaVuSans-69" x="190.625"/>
      <use xlink:href="#DejaVuSans-67" x="218.408203"/>
      <use xlink:href="#DejaVuSans-6e" x="281.884766"/>
      <use xlink:href="#DejaVuSans-20" x="345.263672"/>
      <use xlink:href="#DejaVuSans-66" x="377.050781"/>
      <use xlink:href="#DejaVuSans-75" x="412.255859"/>
      <use xlink:href="#DejaVuSans-6e" x="475.634766"/>
      <use xlink:href="#DejaVuSans-63" x="539.013672"/>
      <use xlink:href="#DejaVuSans-20" x="593.994141"/>
      <use xlink:href="#DejaVuSans-33" x="625.78125"/>
     </g>
    </g>
    <g id="line2d_39">
     <g>
      <use xlink:href="#m08ff5cadc1" x="603.765937" y="67.932813" style="stroke: #000000"/>
     </g>
    </g>
    <g id="text_18">
     <!-- Design points -->
     <g transform="translate(621.765937 71.432813) scale(0.1 -0.1)">
      <defs>
       <path id="DejaVuSans-70" d="M 1159 525 
L 1159 -1331 
L 581 -1331 
L 581 3500 
L 1159 3500 
L 1159 2969 
Q 1341 3281 1617 3432 
Q 1894 3584 2278 3584 
Q 2916 3584 3314 3078 
Q 3713 2572 3713 1747 
Q 3713 922 3314 415 
Q 2916 -91 2278 -91 
Q 1894 -91 1617 61 
Q 1341 213 1159 525 
z
M 3116 1747 
Q 3116 2381 2855 2742 
Q 2594 3103 2138 3103 
Q 1681 3103 1420 2742 
Q 1159 2381 1159 1747 
Q 1159 1113 1420 752 
Q 1681 391 2138 391 
Q 2594 391 2855 752 
Q 3116 1113 3116 1747 
z
" transform="scale(0.015625)"/>
       <path id="DejaVuSans-6f" d="M 1959 3097 
Q 1497 3097 1228 2736 
Q 959 2375 959 1747 
Q 959 1119 1226 758 
Q 1494 397 1959 397 
Q 2419 397 2687 759 
Q 2956 1122 2956 1747 
Q 2956 2369 2687 2733 
Q 2419 3097 1959 3097 
z
M 1959 3584 
Q 2709 3584 3137 3096 
Q 3566 2609 3566 1747 
Q 3566 888 3137 398 
Q 2709 -91 1959 -91 
Q 1206 -91 779 398 
Q 353 888 353 1747 
Q 353 2609 779 3096 
Q 1206 3584 1959 3584 
z
" transform="scale(0.015625)"/>
       <path id="DejaVuSans-74" d="M 1172 4494 
L 1172 3500 
L 2356 3500 
L 2356 3053 
L 1172 3053 
L 1172 1153 
Q 1172 725 1289 603 
Q 1406 481 1766 481 
L 2356 481 
L 2356 0 
L 1766 0 
Q 1100 0 847 248 
Q 594 497 594 1153 
L 594 3053 
L 172 3053 
L 172 3500 
L 594 3500 
L 594 4494 
L 1172 4494 
z
" transform="scale(0.015625)"/>
      </defs>
      <use xlink:href="#DejaVuSans-44"/>
      <use xlink:href="#DejaVuSans-65" x="77.001953"/>
      <use xlink:href="#DejaVuSans-73" x="138.525391"/>
      <use xlink:href="#DejaVuSans-69" x="190.625"/>
      <use xlink:href="#DejaVuSans-67" x="218.408203"/>
      <use xlink:href="#DejaVuSans-6e" x="281.884766"/>
      <use xlink:href="#DejaVuSans-20" x="345.263672"/>
      <use xlink:href="#DejaVuSans-70" x="377.050781"/>
      <use xlink:href="#DejaVuSans-6f" x="440.527344"/>
      <use xlink:href="#DejaVuSans-69" x="501.708984"/>
      <use xlink:href="#DejaVuSans-6e" x="529.492188"/>
      <use xlink:href="#DejaVuSans-74" x="592.871094"/>
      <use xlink:href="#DejaVuSans-73" x="632.080078"/>
     </g>
    </g>
   </g>
  </g>
  <g id="axes_2">
   <g id="patch_8">
    <path d="M 52.886 349.238333 
L 699.705 349.238333 
L 699.705 193.959167 
L 52.886 193.959167 
z
" style="fill: #ffffff"/>
   </g>
   <g id="matplotlib.axis_3">
    <g id="xtick_7">
     <g id="line2d_40">
      <path d="M 52.886 349.238333 
L 52.886 193.959167 
" clip-path="url(#p2dd1415946)" style="fill: none; stroke-dasharray: 0.8,1.32; stroke-dashoffset: 0; stroke: #b0b0b0; stroke-width: 0.8"/>
     </g>
     <g id="line2d_41">
      <g>
       <use xlink:href="#m48e829849a" x="52.886" y="349.238333" style="stroke: #000000; stroke-width: 0.8"/>
      </g>
     </g>
     <g id="text_19">
      <!-- 0 -->
      <g transform="translate(49.70475 363.836771) scale(0.1 -0.1)">
       <use xlink:href="#DejaVuSans-30"/>
      </g>
     </g>
    </g>
    <g id="xtick_8">
     <g id="line2d_42">
      <path d="M 182.2498 349.238333 
L 182.2498 193.959167 
" clip-path="url(#p2dd1415946)" style="fill: none; stroke-dasharray: 0.8,1.32; stroke-dashoffset: 0; stroke: #b0b0b0; stroke-width: 0.8"/>
     </g>
     <g id="line2d_43">
      <g>
       <use xlink:href="#m48e829849a" x="182.2498" y="349.238333" style="stroke: #000000; stroke-width: 0.8"/>
      </g>
     </g>
     <g id="text_20">
      <!-- 20 -->
      <g transform="translate(175.8873 363.836771) scale(0.1 -0.1)">
       <use xlink:href="#DejaVuSans-32"/>
       <use xlink:href="#DejaVuSans-30" x="63.623047"/>
      </g>
     </g>
    </g>
    <g id="xtick_9">
     <g id="line2d_44">
      <path d="M 311.6136 349.238333 
L 311.6136 193.959167 
" clip-path="url(#p2dd1415946)" style="fill: none; stroke-dasharray: 0.8,1.32; stroke-dashoffset: 0; stroke: #b0b0b0; stroke-width: 0.8"/>
     </g>
     <g id="line2d_45">
      <g>
       <use xlink:href="#m48e829849a" x="311.6136" y="349.238333" style="stroke: #000000; stroke-width: 0.8"/>
      </g>
     </g>
     <g id="text_21">
      <!-- 40 -->
      <g transform="translate(305.2511 363.836771) scale(0.1 -0.1)">
       <use xlink:href="#DejaVuSans-34"/>
       <use xlink:href="#DejaVuSans-30" x="63.623047"/>
      </g>
     </g>
    </g>
    <g id="xtick_10">
     <g id="line2d_46">
      <path d="M 440.9774 349.238333 
L 440.9774 193.959167 
" clip-path="url(#p2dd1415946)" style="fill: none; stroke-dasharray: 0.8,1.32; stroke-dashoffset: 0; stroke: #b0b0b0; stroke-width: 0.8"/>
     </g>
     <g id="line2d_47">
      <g>
       <use xlink:href="#m48e829849a" x="440.9774" y="349.238333" style="stroke: #000000; stroke-width: 0.8"/>
      </g>
     </g>
     <g id="text_22">
      <!-- 60 -->
      <g transform="translate(434.6149 363.836771) scale(0.1 -0.1)">
       <use xlink:href="#DejaVuSans-36"/>
       <use xlink:href="#DejaVuSans-30" x="63.623047"/>
      </g>
     </g>
    </g>
    <g id="xtick_11">
     <g id="line2d_48">
      <path d="M 570.3412 349.238333 
L 570.3412 193.959167 
" clip-path="url(#p2dd1415946)" style="fill: none; stroke-dasharray: 0.8,1.32; stroke-dashoffset: 0; stroke: #b0b0b0; stroke-width: 0.8"/>
     </g>
     <g id="line2d_49">
      <g>
       <use xlink:href="#m48e829849a" x="570.3412" y="349.238333" style="stroke: #000000; stroke-width: 0.8"/>
      </g>
     </g>
     <g id="text_23">
      <!-- 80 -->
      <g transform="translate(563.9787 363.836771) scale(0.1 -0.1)">
       <use xlink:href="#DejaVuSans-38"/>
       <use xlink:href="#DejaVuSans-30" x="63.623047"/>
      </g>
     </g>
    </g>
    <g id="xtick_12">
     <g id="line2d_50">
      <path d="M 699.705 349.238333 
L 699.705 193.959167 
" clip-path="url(#p2dd1415946)" style="fill: none; stroke-dasharray: 0.8,1.32; stroke-dashoffset: 0; stroke: #b0b0b0; stroke-width: 0.8"/>
     </g>
     <g id="line2d_51">
      <g>
       <use xlink:href="#m48e829849a" x="699.705" y="349.238333" style="stroke: #000000; stroke-width: 0.8"/>
      </g>
     </g>
     <g id="text_24">
      <!-- 100 -->
      <g transform="translate(690.16125 363.836771) scale(0.1 -0.1)">
       <use xlink:href="#DejaVuSans-31"/>
       <use xlink:href="#DejaVuSans-30" x="63.623047"/>
       <use xlink:href="#DejaVuSans-30" x="127.246094"/>
      </g>
     </g>
    </g>
   </g>
   <g id="matplotlib.axis_4">
    <g id="ytick_8">
     <g id="line2d_52">
      <path d="M 52.886 342.180189 
L 699.705 342.180189 
" clip-path="url(#p2dd1415946)" style="fill: none; stroke-dasharray: 0.8,1.32; stroke-dashoffset: 0; stroke: #b0b0b0; stroke-width: 0.8"/>
     </g>
     <g id="line2d_53">
      <g>
       <use xlink:href="#m95dbd6057e" x="52.886" y="342.180189" style="stroke: #000000; stroke-width: 0.8"/>
      </g>
     </g>
     <g id="text_25">
      <!-- 0 -->
      <g transform="translate(39.5235 345.979408) scale(0.1 -0.1)">
       <use xlink:href="#DejaVuSans-30"/>
      </g>
     </g>
    </g>
    <g id="ytick_9">
     <g id="line2d_54">
      <path d="M 52.886 315.297616 
L 699.705 315.297616 
" clip-path="url(#p2dd1415946)" style="fill: none; stroke-dasharray: 0.8,1.32; stroke-dashoffset: 0; stroke: #b0b0b0; stroke-width: 0.8"/>
     </g>
     <g id="line2d_55">
      <g>
       <use xlink:href="#m95dbd6057e" x="52.886" y="315.297616" style="stroke: #000000; stroke-width: 0.8"/>
      </g>
     </g>
     <g id="text_26">
      <!-- 20 -->
      <g transform="translate(33.161 319.096835) scale(0.1 -0.1)">
       <use xlink:href="#DejaVuSans-32"/>
       <use xlink:href="#DejaVuSans-30" x="63.623047"/>
      </g>
     </g>
    </g>
    <g id="ytick_10">
     <g id="line2d_56">
      <path d="M 52.886 288.415043 
L 699.705 288.415043 
" clip-path="url(#p2dd1415946)" style="fill: none; stroke-dasharray: 0.8,1.32; stroke-dashoffset: 0; stroke: #b0b0b0; stroke-width: 0.8"/>
     </g>
     <g id="line2d_57">
      <g>
       <use xlink:href="#m95dbd6057e" x="52.886" y="288.415043" style="stroke: #000000; stroke-width: 0.8"/>
      </g>
     </g>
     <g id="text_27">
      <!-- 40 -->
      <g transform="translate(33.161 292.214262) scale(0.1 -0.1)">
       <use xlink:href="#DejaVuSans-34"/>
       <use xlink:href="#DejaVuSans-30" x="63.623047"/>
      </g>
     </g>
    </g>
    <g id="ytick_11">
     <g id="line2d_58">
      <path d="M 52.886 261.53247 
L 699.705 261.53247 
" clip-path="url(#p2dd1415946)" style="fill: none; stroke-dasharray: 0.8,1.32; stroke-dashoffset: 0; stroke: #b0b0b0; stroke-width: 0.8"/>
     </g>
     <g id="line2d_59">
      <g>
       <use xlink:href="#m95dbd6057e" x="52.886" y="261.53247" style="stroke: #000000; stroke-width: 0.8"/>
      </g>
     </g>
     <g id="text_28">
      <!-- 60 -->
      <g transform="translate(33.161 265.331688) scale(0.1 -0.1)">
       <use xlink:href="#DejaVuSans-36"/>
       <use xlink:href="#DejaVuSans-30" x="63.623047"/>
      </g>
     </g>
    </g>
    <g id="ytick_12">
     <g id="line2d_60">
      <path d="M 52.886 234.649896 
L 699.705 234.649896 
" clip-path="url(#p2dd1415946)" style="fill: none; stroke-dasharray: 0.8,1.32; stroke-dashoffset: 0; stroke: #b0b0b0; stroke-width: 0.8"/>
     </g>
     <g id="line2d_61">
      <g>
       <use xlink:href="#m95dbd6057e" x="52.886" y="234.649896" style="stroke: #000000; stroke-width: 0.8"/>
      </g>
     </g>
     <g id="text_29">
      <!-- 80 -->
      <g transform="translate(33.161 238.449115) scale(0.1 -0.1)">
       <use xlink:href="#DejaVuSans-38"/>
       <use xlink:href="#DejaVuSans-30" x="63.623047"/>
      </g>
     </g>
    </g>
    <g id="ytick_13">
     <g id="line2d_62">
      <path d="M 52.886 207.767323 
L 699.705 207.767323 
" clip-path="url(#p2dd1415946)" style="fill: none; stroke-dasharray: 0.8,1.32; stroke-dashoffset: 0; stroke: #b0b0b0; stroke-width: 0.8"/>
     </g>
     <g id="line2d_63">
      <g>
       <use xlink:href="#m95dbd6057e" x="52.886" y="207.767323" style="stroke: #000000; stroke-width: 0.8"/>
      </g>
     </g>
     <g id="text_30">
      <!-- 100 -->
      <g transform="translate(26.7985 211.566542) scale(0.1 -0.1)">
       <use xlink:href="#DejaVuSans-31"/>
       <use xlink:href="#DejaVuSans-30" x="63.623047"/>
       <use xlink:href="#DejaVuSans-30" x="127.246094"/>
      </g>
     </g>
    </g>
    <g id="text_31">
     <!-- $C_l/C_d$ [-] -->
     <g transform="translate(20.718812 291.04875) rotate(-90) scale(0.1 -0.1)">
      <defs>
       <path id="DejaVuSans-2f" d="M 1625 4666 
L 2156 4666 
L 531 -594 
L 0 -594 
L 1625 4666 
z
" transform="scale(0.015625)"/>
       <path id="DejaVuSans-Oblique-64" d="M 2675 525 
Q 2444 222 2128 65 
Q 1813 -91 1428 -91 
Q 903 -91 598 267 
Q 294 625 294 1247 
Q 294 1766 478 2236 
Q 663 2706 1013 3078 
Q 1244 3325 1534 3454 
Q 1825 3584 2144 3584 
Q 2481 3584 2739 3421 
Q 2997 3259 3138 2956 
L 3513 4863 
L 4091 4863 
L 3144 0 
L 2566 0 
L 2675 525 
z
M 891 1350 
Q 891 897 1095 644 
Q 1300 391 1663 391 
Q 1931 391 2161 520 
Q 2391 650 2566 903 
Q 2750 1166 2856 1509 
Q 2963 1853 2963 2188 
Q 2963 2622 2758 2865 
Q 2553 3109 2194 3109 
Q 1922 3109 1687 2981 
Q 1453 2853 1288 2613 
Q 1106 2353 998 2009 
Q 891 1666 891 1350 
z
" transform="scale(0.015625)"/>
      </defs>
      <use xlink:href="#DejaVuSans-Oblique-43" transform="translate(0 0.015625)"/>
      <use xlink:href="#DejaVuSans-Oblique-6c" transform="translate(69.824219 -16.390625) scale(0.7)"/>
      <use xlink:href="#DejaVuSans-2f" transform="translate(92.006836 0.015625)"/>
      <use xlink:href="#DejaVuSans-Oblique-43" transform="translate(125.698242 0.015625)"/>
      <use xlink:href="#DejaVuSans-Oblique-64" transform="translate(195.522461 -16.390625) scale(0.7)"/>
      <use xlink:href="#DejaVuSans-20" transform="translate(242.69043 0.015625)"/>
      <use xlink:href="#DejaVuSans-5b" transform="translate(274.477539 0.015625)"/>
      <use xlink:href="#DejaVuSans-2d" transform="translate(313.491211 0.015625)"/>
      <use xlink:href="#DejaVuSans-5d" transform="translate(349.575195 0.015625)"/>
     </g>
    </g>
   </g>
   <g id="line2d_64">
    <path d="M 52.886 202.345494 
L 59.419525 202.345494 
L 65.953051 202.345494 
L 72.486576 202.345494 
L 79.020101 202.345494 
L 85.553626 202.345494 
L 92.087152 202.345494 
L 98.620677 202.345494 
L 105.154202 202.345494 
L 111.687727 202.345494 
L 118.221253 202.345494 
L 124.754778 202.345494 
L 131.288303 202.345494 
L 137.821828 202.345494 
L 144.355354 202.345494 
L 150.888879 202.345494 
L 157.422404 202.345494 
L 163.955929 202.345494 
L 170.489455 202.345494 
L 177.02298 202.345494 
L 183.556505 202.345494 
L 190.09003 202.345494 
L 196.623556 202.345494 
L 203.157081 202.345494 
L 209.690606 202.378927 
L 216.224131 204.339313 
L 222.757657 208.611759 
L 229.291182 214.176468 
L 235.824707 220.108378 
L 242.358232 225.651864 
L 248.891758 230.252536 
L 255.425283 234.567142 
L 261.958808 238.945224 
L 268.492333 243.291191 
L 275.025859 247.541878 
L 281.559384 251.661769 
L 288.092909 255.695758 
L 294.626434 260.244918 
L 301.15996 265.332371 
L 307.693485 270.795418 
L 314.22701 276.477219 
L 320.760535 282.224019 
L 327.294061 287.884888 
L 333.827586 293.313405 
L 340.361111 298.370762 
L 346.894636 302.929751 
L 353.428162 306.879049 
L 359.961687 310.127231 
L 366.495212 312.790166 
L 373.028737 315.871235 
L 379.562263 319.181825 
L 386.095788 322.397894 
L 392.629313 325.327927 
L 399.162838 327.8913 
L 405.696364 330.079148 
L 412.229889 331.920358 
L 418.763414 333.459006 
L 425.296939 334.741752 
L 431.830465 335.811813 
L 438.36399 336.706693 
L 444.897515 337.457808 
L 451.43104 338.090979 
L 457.964566 338.627209 
L 464.498091 339.083502 
L 471.031616 339.473614 
L 477.565141 339.808685 
L 484.098667 340.097757 
L 490.632192 340.3482 
L 497.165717 340.566044 
L 503.699242 340.756242 
L 510.232768 340.922886 
L 516.766293 341.069368 
L 523.299818 341.198515 
L 529.833343 341.312693 
L 536.366869 341.41389 
L 542.900394 341.503786 
L 549.433919 341.583805 
L 555.967444 341.655156 
L 562.50097 341.718874 
L 569.034495 341.775845 
L 575.56802 341.826832 
L 582.101545 341.87249 
L 588.635071 341.913387 
L 595.168596 341.950015 
L 601.702121 341.982801 
L 608.235646 342.012116 
L 614.769172 342.038283 
L 621.302697 342.061582 
L 627.836222 342.082258 
L 634.369747 342.100524 
L 640.903273 342.116563 
L 647.436798 342.130535 
L 653.970323 342.142576 
L 660.503848 342.152801 
L 667.037374 342.161305 
L 673.570899 342.168169 
L 680.104424 342.173452 
L 686.637949 342.1772 
L 693.171475 342.179442 
L 699.705 342.180189 
" clip-path="url(#p2dd1415946)" style="fill: none; stroke: #1f77b4; stroke-width: 1.5; stroke-linecap: square"/>
   </g>
   <g id="line2d_65">
    <g clip-path="url(#p2dd1415946)">
     <use xlink:href="#m703434955d" x="208.769379" y="202.345494" style="fill: #1f77b4; stroke: #1f77b4"/>
     <use xlink:href="#m703434955d" x="247.578519" y="229.403888" style="fill: #1f77b4; stroke: #1f77b4"/>
     <use xlink:href="#m703434955d" x="285.74084" y="254.222912" style="fill: #1f77b4; stroke: #1f77b4"/>
     <use xlink:href="#m703434955d" x="363.35912" y="311.515538" style="fill: #1f77b4; stroke: #1f77b4"/>
    </g>
   </g>
   <g id="line2d_66">
    <g clip-path="url(#p2dd1415946)">
     <use xlink:href="#m08ff5cadc1" x="208.769379" y="207.767323" style="stroke: #000000"/>
     <use xlink:href="#m08ff5cadc1" x="247.578519" y="224.088885" style="stroke: #000000"/>
     <use xlink:href="#m08ff5cadc1" x="285.74084" y="254.491796" style="stroke: #000000"/>
     <use xlink:href="#m08ff5cadc1" x="363.35912" y="319.498018" style="stroke: #000000"/>
    </g>
   </g>
   <g id="line2d_67">
    <path d="M 52.886 201.017311 
L 59.419525 201.017311 
L 65.953051 201.017311 
L 72.486576 201.017311 
L 79.020101 201.017311 
L 85.553626 201.017311 
L 92.087152 201.017311 
L 98.620677 201.017311 
L 105.154202 201.017311 
L 111.687727 201.017311 
L 118.221253 201.017311 
L 124.754778 201.017311 
L 131.288303 201.017311 
L 137.821828 201.017311 
L 144.355354 201.017311 
L 150.888879 201.017311 
L 157.422404 201.017311 
L 163.955929 201.017311 
L 170.489455 201.017311 
L 177.02298 201.017311 
L 183.556505 201.017311 
L 190.09003 201.017311 
L 196.623556 201.017311 
L 203.157081 201.017311 
L 209.690606 201.049113 
L 216.224131 202.923322 
L 222.757657 207.047887 
L 229.291182 212.493221 
L 235.824707 218.396641 
L 242.358232 224.033758 
L 248.891758 228.873425 
L 255.425283 233.867579 
L 261.958808 239.244269 
L 268.492333 244.63803 
L 275.025859 249.801387 
L 281.559384 254.586418 
L 288.092909 258.993069 
L 294.626434 263.79028 
L 301.15996 269.064113 
L 307.693485 274.663219 
L 314.22701 280.439644 
L 320.760535 286.245533 
L 327.294061 291.932773 
L 333.827586 297.354959 
L 340.361111 302.37113 
L 346.894636 306.850676 
L 353.428162 310.67874 
L 359.961687 313.761384 
L 366.495212 316.209041 
L 373.028737 319.006435 
L 379.562263 321.993249 
L 386.095788 324.877335 
L 392.629313 327.490127 
L 399.162838 329.764227 
L 405.696364 331.696248 
L 412.229889 333.315515 
L 418.763414 334.663783 
L 425.296939 335.784184 
L 431.830465 336.716115 
L 438.36399 337.493441 
L 444.897515 338.144333 
L 451.43104 338.691813 
L 457.964566 339.154523 
L 464.498091 339.5475 
L 471.031616 339.882867 
L 477.565141 340.170414 
L 484.098667 340.41807 
L 490.632192 340.632283 
L 497.165717 340.818317 
L 503.699242 340.980489 
L 510.232768 341.12236 
L 516.766293 341.246877 
L 523.299818 341.356494 
L 529.833343 341.45326 
L 536.366869 341.538897 
L 542.900394 341.614857 
L 549.433919 341.682369 
L 555.967444 341.742479 
L 562.50097 341.796078 
L 569.034495 341.843929 
L 575.56802 341.886689 
L 582.101545 341.924921 
L 588.635071 341.959114 
L 595.168596 341.989691 
L 601.702121 342.017018 
L 608.235646 342.041413 
L 614.769172 342.063154 
L 621.302697 342.082481 
L 627.836222 342.099606 
L 634.369747 342.11471 
L 640.903273 342.127952 
L 647.436798 342.139469 
L 653.970323 342.149377 
L 660.503848 342.157778 
L 667.037374 342.164754 
L 673.570899 342.170374 
L 680.104424 342.174694 
L 686.637949 342.177754 
L 693.171475 342.179581 
L 699.705 342.180189 
" clip-path="url(#p2dd1415946)" style="fill: none; stroke: #ff7f0e; stroke-width: 1.5; stroke-linecap: square"/>
   </g>
   <g id="line2d_68">
    <g clip-path="url(#p2dd1415946)">
     <use xlink:href="#mea61eb92a4" x="208.769379" y="201.017311" style="fill: #ff7f0e; stroke: #ff7f0e"/>
     <use xlink:href="#mea61eb92a4" x="247.578519" y="227.956409" style="fill: #ff7f0e; stroke: #ff7f0e"/>
     <use xlink:href="#mea61eb92a4" x="285.74084" y="257.41338" style="fill: #ff7f0e; stroke: #ff7f0e"/>
     <use xlink:href="#mea61eb92a4" x="363.35912" y="315.045837" style="fill: #ff7f0e; stroke: #ff7f0e"/>
    </g>
   </g>
   <g id="line2d_69">
    <g clip-path="url(#p2dd1415946)">
     <use xlink:href="#m08ff5cadc1" x="208.769379" y="207.767323" style="stroke: #000000"/>
     <use xlink:href="#m08ff5cadc1" x="247.578519" y="224.088885" style="stroke: #000000"/>
     <use xlink:href="#m08ff5cadc1" x="285.74084" y="254.491796" style="stroke: #000000"/>
     <use xlink:href="#m08ff5cadc1" x="363.35912" y="319.498018" style="stroke: #000000"/>
    </g>
   </g>
   <g id="line2d_70">
    <path d="M 52.886 201.794129 
L 59.419525 201.794129 
L 65.953051 201.794129 
L 72.486576 201.794129 
L 79.020101 201.794129 
L 85.553626 201.794129 
L 92.087152 201.794129 
L 98.620677 201.794129 
L 105.154202 201.794129 
L 111.687727 201.794129 
L 118.221253 201.794129 
L 124.754778 201.794129 
L 131.288303 201.794129 
L 137.821828 201.794129 
L 144.355354 201.794129 
L 150.888879 201.794129 
L 157.422404 201.794129 
L 163.955929 201.794129 
L 170.489455 201.794129 
L 177.02298 201.794129 
L 183.556505 201.794129 
L 190.09003 201.794129 
L 196.623556 201.794129 
L 203.157081 201.794129 
L 209.690606 201.826662 
L 216.224131 203.746558 
L 222.757657 207.980438 
L 229.291182 213.58391 
L 235.824707 219.676853 
L 242.358232 225.518757 
L 248.891758 230.574017 
L 255.425283 235.972364 
L 261.958808 241.885794 
L 268.492333 247.808969 
L 275.025859 253.411935 
L 281.559384 258.508749 
L 288.092909 263.097398 
L 294.626434 268.046927 
L 301.15996 273.464113 
L 307.693485 279.189997 
L 314.22701 285.069639 
L 320.760535 290.948426 
L 327.294061 296.671732 
L 333.827586 302.087184 
L 340.361111 307.04888 
L 346.894636 311.422848 
L 353.428162 315.092965 
L 359.961687 317.966494 
L 366.495212 320.148451 
L 373.028737 322.587053 
L 379.562263 325.164266 
L 386.095788 327.634797 
L 392.629313 329.860771 
L 399.162838 331.790068 
L 405.696364 333.42372 
L 412.229889 334.789243 
L 418.763414 335.923695 
L 425.296939 336.864615 
L 431.830465 337.645942 
L 438.36399 338.296658 
L 444.897515 338.840767 
L 451.43104 339.297822 
L 457.964566 339.683614 
L 464.498091 340.010856 
L 471.031616 340.289783 
L 477.565141 340.528645 
L 484.098667 340.734119 
L 490.632192 340.911627 
L 497.165717 341.065592 
L 503.699242 341.19964 
L 510.232768 341.316757 
L 516.766293 341.419414 
L 523.299818 341.509666 
L 529.833343 341.58923 
L 536.366869 341.659546 
L 542.900394 341.721829 
L 549.433919 341.777106 
L 555.967444 341.826249 
L 562.50097 341.870004 
L 569.034495 341.909007 
L 575.56802 341.943806 
L 582.101545 341.974871 
L 588.635071 342.002609 
L 595.168596 342.027372 
L 601.702121 342.049467 
L 608.235646 342.069157 
L 614.769172 342.086675 
L 621.302697 342.102221 
L 627.836222 342.115971 
L 634.369747 342.128076 
L 640.903273 342.13867 
L 647.436798 342.147866 
L 653.970323 342.155763 
L 660.503848 342.162445 
L 667.037374 342.167985 
L 673.570899 342.172439 
L 680.104424 342.175856 
L 686.637949 342.178271 
L 693.171475 342.179711 
L 699.705 342.180189 
" clip-path="url(#p2dd1415946)" style="fill: none; stroke: #2ca02c; stroke-width: 1.5; stroke-linecap: square"/>
   </g>
   <g id="line2d_71">
    <g clip-path="url(#p2dd1415946)">
     <use xlink:href="#mbd6e6a2b54" x="208.769379" y="201.794129" style="fill: #2ca02c; stroke: #2ca02c"/>
     <use xlink:href="#mbd6e6a2b54" x="247.578519" y="229.608043" style="fill: #2ca02c; stroke: #2ca02c"/>
     <use xlink:href="#mbd6e6a2b54" x="285.74084" y="261.462384" style="fill: #2ca02c; stroke: #2ca02c"/>
     <use xlink:href="#mbd6e6a2b54" x="363.35912" y="319.12315" style="fill: #2ca02c; stroke: #2ca02c"/>
    </g>
   </g>
   <g id="line2d_72">
    <g clip-path="url(#p2dd1415946)">
     <use xlink:href="#m08ff5cadc1" x="208.769379" y="207.767323" style="stroke: #000000"/>
     <use xlink:href="#m08ff5cadc1" x="247.578519" y="224.088885" style="stroke: #000000"/>
     <use xlink:href="#m08ff5cadc1" x="285.74084" y="254.491796" style="stroke: #000000"/>
     <use xlink:href="#m08ff5cadc1" x="363.35912" y="319.498018" style="stroke: #000000"/>
    </g>
   </g>
   <g id="patch_9">
    <path d="M 52.886 349.238333 
L 52.886 193.959167 
" style="fill: none; stroke: #000000; stroke-width: 0.8; stroke-linejoin: miter; stroke-linecap: square"/>
   </g>
   <g id="patch_10">
    <path d="M 699.705 349.238333 
L 699.705 193.959167 
" style="fill: none; stroke: #000000; stroke-width: 0.8; stroke-linejoin: miter; stroke-linecap: square"/>
   </g>
   <g id="patch_11">
    <path d="M 52.886 349.238333 
L 699.705 349.238333 
" style="fill: none; stroke: #000000; stroke-width: 0.8; stroke-linejoin: miter; stroke-linecap: square"/>
   </g>
   <g id="patch_12">
    <path d="M 52.886 193.959167 
L 699.705 193.959167 
" style="fill: none; stroke: #000000; stroke-width: 0.8; stroke-linejoin: miter; stroke-linecap: square"/>
   </g>
  </g>
  <g id="axes_3">
   <g id="patch_13">
    <path d="M 52.886 532.3975 
L 699.705 532.3975 
L 699.705 377.118333 
L 52.886 377.118333 
z
" style="fill: #ffffff"/>
   </g>
   <g id="matplotlib.axis_5">
    <g id="xtick_13">
     <g id="line2d_73">
      <path d="M 52.886 532.3975 
L 52.886 377.118333 
" clip-path="url(#p2053ba9e79)" style="fill: none; stroke-dasharray: 0.8,1.32; stroke-dashoffset: 0; stroke: #b0b0b0; stroke-width: 0.8"/>
     </g>
     <g id="line2d_74">
      <g>
       <use xlink:href="#m48e829849a" x="52.886" y="532.3975" style="stroke: #000000; stroke-width: 0.8"/>
      </g>
     </g>
     <g id="text_32">
      <!-- 0 -->
      <g transform="translate(49.70475 546.995937) scale(0.1 -0.1)">
       <use xlink:href="#DejaVuSans-30"/>
      </g>
     </g>
    </g>
    <g id="xtick_14">
     <g id="line2d_75">
      <path d="M 182.2498 532.3975 
L 182.2498 377.118333 
" clip-path="url(#p2053ba9e79)" style="fill: none; stroke-dasharray: 0.8,1.32; stroke-dashoffset: 0; stroke: #b0b0b0; stroke-width: 0.8"/>
     </g>
     <g id="line2d_76">
      <g>
       <use xlink:href="#m48e829849a" x="182.2498" y="532.3975" style="stroke: #000000; stroke-width: 0.8"/>
      </g>
     </g>
     <g id="text_33">
      <!-- 20 -->
      <g transform="translate(175.8873 546.995937) scale(0.1 -0.1)">
       <use xlink:href="#DejaVuSans-32"/>
       <use xlink:href="#DejaVuSans-30" x="63.623047"/>
      </g>
     </g>
    </g>
    <g id="xtick_15">
     <g id="line2d_77">
      <path d="M 311.6136 532.3975 
L 311.6136 377.118333 
" clip-path="url(#p2053ba9e79)" style="fill: none; stroke-dasharray: 0.8,1.32; stroke-dashoffset: 0; stroke: #b0b0b0; stroke-width: 0.8"/>
     </g>
     <g id="line2d_78">
      <g>
       <use xlink:href="#m48e829849a" x="311.6136" y="532.3975" style="stroke: #000000; stroke-width: 0.8"/>
      </g>
     </g>
     <g id="text_34">
      <!-- 40 -->
      <g transform="translate(305.2511 546.995937) scale(0.1 -0.1)">
       <use xlink:href="#DejaVuSans-34"/>
       <use xlink:href="#DejaVuSans-30" x="63.623047"/>
      </g>
     </g>
    </g>
    <g id="xtick_16">
     <g id="line2d_79">
      <path d="M 440.9774 532.3975 
L 440.9774 377.118333 
" clip-path="url(#p2053ba9e79)" style="fill: none; stroke-dasharray: 0.8,1.32; stroke-dashoffset: 0; stroke: #b0b0b0; stroke-width: 0.8"/>
     </g>
     <g id="line2d_80">
      <g>
       <use xlink:href="#m48e829849a" x="440.9774" y="532.3975" style="stroke: #000000; stroke-width: 0.8"/>
      </g>
     </g>
     <g id="text_35">
      <!-- 60 -->
      <g transform="translate(434.6149 546.995937) scale(0.1 -0.1)">
       <use xlink:href="#DejaVuSans-36"/>
       <use xlink:href="#DejaVuSans-30" x="63.623047"/>
      </g>
     </g>
    </g>
    <g id="xtick_17">
     <g id="line2d_81">
      <path d="M 570.3412 532.3975 
L 570.3412 377.118333 
" clip-path="url(#p2053ba9e79)" style="fill: none; stroke-dasharray: 0.8,1.32; stroke-dashoffset: 0; stroke: #b0b0b0; stroke-width: 0.8"/>
     </g>
     <g id="line2d_82">
      <g>
       <use xlink:href="#m48e829849a" x="570.3412" y="532.3975" style="stroke: #000000; stroke-width: 0.8"/>
      </g>
     </g>
     <g id="text_36">
      <!-- 80 -->
      <g transform="translate(563.9787 546.995937) scale(0.1 -0.1)">
       <use xlink:href="#DejaVuSans-38"/>
       <use xlink:href="#DejaVuSans-30" x="63.623047"/>
      </g>
     </g>
    </g>
    <g id="xtick_18">
     <g id="line2d_83">
      <path d="M 699.705 532.3975 
L 699.705 377.118333 
" clip-path="url(#p2053ba9e79)" style="fill: none; stroke-dasharray: 0.8,1.32; stroke-dashoffset: 0; stroke: #b0b0b0; stroke-width: 0.8"/>
     </g>
     <g id="line2d_84">
      <g>
       <use xlink:href="#m48e829849a" x="699.705" y="532.3975" style="stroke: #000000; stroke-width: 0.8"/>
      </g>
     </g>
     <g id="text_37">
      <!-- 100 -->
      <g transform="translate(690.16125 546.995937) scale(0.1 -0.1)">
       <use xlink:href="#DejaVuSans-31"/>
       <use xlink:href="#DejaVuSans-30" x="63.623047"/>
       <use xlink:href="#DejaVuSans-30" x="127.246094"/>
      </g>
     </g>
    </g>
    <g id="text_38">
     <!-- $t/c$ [-] -->
     <g transform="translate(362.5955 560.674062) scale(0.1 -0.1)">
      <defs>
       <path id="DejaVuSans-Oblique-74" d="M 2706 3500 
L 2619 3053 
L 1472 3053 
L 1100 1153 
Q 1081 1047 1072 975 
Q 1063 903 1063 863 
Q 1063 663 1183 572 
Q 1303 481 1569 481 
L 2150 481 
L 2053 0 
L 1503 0 
Q 991 0 739 200 
Q 488 400 488 806 
Q 488 878 497 964 
Q 506 1050 525 1153 
L 897 3053 
L 409 3053 
L 500 3500 
L 978 3500 
L 1172 4494 
L 1747 4494 
L 1556 3500 
L 2706 3500 
z
" transform="scale(0.015625)"/>
       <path id="DejaVuSans-Oblique-63" d="M 3431 3366 
L 3316 2797 
Q 3109 2947 2876 3022 
Q 2644 3097 2394 3097 
Q 2119 3097 1870 3000 
Q 1622 2903 1453 2725 
Q 1184 2453 1037 2087 
Q 891 1722 891 1331 
Q 891 859 1127 628 
Q 1363 397 1844 397 
Q 2081 397 2348 469 
Q 2616 541 2906 684 
L 2797 116 
Q 2547 13 2283 -39 
Q 2019 -91 1741 -91 
Q 1044 -91 669 257 
Q 294 606 294 1253 
Q 294 1797 489 2255 
Q 684 2713 1069 3078 
Q 1331 3328 1684 3456 
Q 2038 3584 2456 3584 
Q 2700 3584 2940 3529 
Q 3181 3475 3431 3366 
z
" transform="scale(0.015625)"/>
      </defs>
      <use xlink:href="#DejaVuSans-Oblique-74" transform="translate(0 0.015625)"/>
      <use xlink:href="#DejaVuSans-2f" transform="translate(39.208984 0.015625)"/>
      <use xlink:href="#DejaVuSans-Oblique-63" transform="translate(72.900391 0.015625)"/>
      <use xlink:href="#DejaVuSans-20" transform="translate(127.880859 0.015625)"/>
      <use xlink:href="#DejaVuSans-5b" transform="translate(159.667969 0.015625)"/>
      <use xlink:href="#DejaVuSans-2d" transform="translate(198.681641 0.015625)"/>
      <use xlink:href="#DejaVuSans-5d" transform="translate(234.765625 0.015625)"/>
     </g>
    </g>
   </g>
   <g id="matplotlib.axis_6">
    <g id="ytick_14">
     <g id="line2d_85">
      <path d="M 52.886 525.339356 
L 699.705 525.339356 
" clip-path="url(#p2053ba9e79)" style="fill: none; stroke-dasharray: 0.8,1.32; stroke-dashoffset: 0; stroke: #b0b0b0; stroke-width: 0.8"/>
     </g>
     <g id="line2d_86">
      <g>
       <use xlink:href="#m95dbd6057e" x="52.886" y="525.339356" style="stroke: #000000; stroke-width: 0.8"/>
      </g>
     </g>
     <g id="text_39">
      <!-- 0 -->
      <g transform="translate(39.5235 529.138575) scale(0.1 -0.1)">
       <use xlink:href="#DejaVuSans-30"/>
      </g>
     </g>
    </g>
    <g id="ytick_15">
     <g id="line2d_87">
      <path d="M 52.886 497.46252 
L 699.705 497.46252 
" clip-path="url(#p2053ba9e79)" style="fill: none; stroke-dasharray: 0.8,1.32; stroke-dashoffset: 0; stroke: #b0b0b0; stroke-width: 0.8"/>
     </g>
     <g id="line2d_88">
      <g>
       <use xlink:href="#m95dbd6057e" x="52.886" y="497.46252" style="stroke: #000000; stroke-width: 0.8"/>
      </g>
     </g>
     <g id="text_40">
      <!-- 2 -->
      <g transform="translate(39.5235 501.261739) scale(0.1 -0.1)">
       <use xlink:href="#DejaVuSans-32"/>
      </g>
     </g>
    </g>
    <g id="ytick_16">
     <g id="line2d_89">
      <path d="M 52.886 469.585684 
L 699.705 469.585684 
" clip-path="url(#p2053ba9e79)" style="fill: none; stroke-dasharray: 0.8,1.32; stroke-dashoffset: 0; stroke: #b0b0b0; stroke-width: 0.8"/>
     </g>
     <g id="line2d_90">
      <g>
       <use xlink:href="#m95dbd6057e" x="52.886" y="469.585684" style="stroke: #000000; stroke-width: 0.8"/>
      </g>
     </g>
     <g id="text_41">
      <!-- 4 -->
      <g transform="translate(39.5235 473.384902) scale(0.1 -0.1)">
       <use xlink:href="#DejaVuSans-34"/>
      </g>
     </g>
    </g>
    <g id="ytick_17">
     <g id="line2d_91">
      <path d="M 52.886 441.708848 
L 699.705 441.708848 
" clip-path="url(#p2053ba9e79)" style="fill: none; stroke-dasharray: 0.8,1.32; stroke-dashoffset: 0; stroke: #b0b0b0; stroke-width: 0.8"/>
     </g>
     <g id="line2d_92">
      <g>
       <use xlink:href="#m95dbd6057e" x="52.886" y="441.708848" style="stroke: #000000; stroke-width: 0.8"/>
      </g>
     </g>
     <g id="text_42">
      <!-- 6 -->
      <g transform="translate(39.5235 445.508066) scale(0.1 -0.1)">
       <use xlink:href="#DejaVuSans-36"/>
      </g>
     </g>
    </g>
    <g id="ytick_18">
     <g id="line2d_93">
      <path d="M 52.886 413.832011 
L 699.705 413.832011 
" clip-path="url(#p2053ba9e79)" style="fill: none; stroke-dasharray: 0.8,1.32; stroke-dashoffset: 0; stroke: #b0b0b0; stroke-width: 0.8"/>
     </g>
     <g id="line2d_94">
      <g>
       <use xlink:href="#m95dbd6057e" x="52.886" y="413.832011" style="stroke: #000000; stroke-width: 0.8"/>
      </g>
     </g>
     <g id="text_43">
      <!-- 8 -->
      <g transform="translate(39.5235 417.63123) scale(0.1 -0.1)">
       <use xlink:href="#DejaVuSans-38"/>
      </g>
     </g>
    </g>
    <g id="ytick_19">
     <g id="line2d_95">
      <path d="M 52.886 385.955175 
L 699.705 385.955175 
" clip-path="url(#p2053ba9e79)" style="fill: none; stroke-dasharray: 0.8,1.32; stroke-dashoffset: 0; stroke: #b0b0b0; stroke-width: 0.8"/>
     </g>
     <g id="line2d_96">
      <g>
       <use xlink:href="#m95dbd6057e" x="52.886" y="385.955175" style="stroke: #000000; stroke-width: 0.8"/>
      </g>
     </g>
     <g id="text_44">
      <!-- 10 -->
      <g transform="translate(33.161 389.754394) scale(0.1 -0.1)">
       <use xlink:href="#DejaVuSans-31"/>
       <use xlink:href="#DejaVuSans-30" x="63.623047"/>
      </g>
     </g>
    </g>
    <g id="text_45">
     <!-- $\alpha$ [] -->
     <g transform="translate(27.081313 466.057917) rotate(-90) scale(0.1 -0.1)">
      <defs>
       <path id="DejaVuSans-Oblique-3b1" d="M 2619 1628 
L 2622 2350 
Q 2625 3088 2069 3091 
Q 1653 3094 1394 2747 
Q 1069 2319 959 1747 
Q 825 1059 994 731 
Q 1169 397 1547 397 
Q 1966 397 2319 1063 
L 2619 1628 
z
M 2166 3578 
Q 3141 3594 3128 2584 
Q 3128 2584 3616 3500 
L 4128 3500 
L 3119 1603 
L 3109 919 
Q 3109 766 3194 638 
Q 3291 488 3391 488 
L 3669 488 
L 3575 0 
L 3228 0 
Q 2934 0 2722 263 
Q 2622 394 2619 669 
Q 2416 334 2066 50 
Q 1900 -81 1453 -78 
Q 722 -72 456 397 
Q 184 884 353 1747 
Q 534 2675 1009 3097 
Q 1544 3569 2166 3578 
z
" transform="scale(0.015625)"/>
       <path id="DejaVuSans-b0" d="M 1600 4347 
Q 1350 4347 1178 4173 
Q 1006 4000 1006 3750 
Q 1006 3503 1178 3333 
Q 1350 3163 1600 3163 
Q 1850 3163 2022 3333 
Q 2194 3503 2194 3750 
Q 2194 3997 2020 4172 
Q 1847 4347 1600 4347 
z
M 1600 4750 
Q 1800 4750 1984 4673 
Q 2169 4597 2303 4453 
Q 2447 4313 2519 4134 
Q 2591 3956 2591 3750 
Q 2591 3338 2302 3052 
Q 2013 2766 1594 2766 
Q 1172 2766 890 3047 
Q 609 3328 609 3750 
Q 609 4169 896 4459 
Q 1184 4750 1600 4750 
z
" transform="scale(0.015625)"/>
      </defs>
      <use xlink:href="#DejaVuSans-Oblique-3b1" transform="translate(0 0.015625)"/>
      <use xlink:href="#DejaVuSans-20" transform="translate(65.917969 0.015625)"/>
      <use xlink:href="#DejaVuSans-5b" transform="translate(97.705078 0.015625)"/>
      <use xlink:href="#DejaVuSans-b0" transform="translate(136.71875 0.015625)"/>
      <use xlink:href="#DejaVuSans-5d" transform="translate(186.71875 0.015625)"/>
     </g>
    </g>
   </g>
   <g id="line2d_97">
    <path d="M 52.886 384.176477 
L 59.419525 384.176477 
L 65.953051 384.176477 
L 72.486576 384.176477 
L 79.020101 384.176477 
L 85.553626 384.176477 
L 92.087152 384.176477 
L 98.620677 384.176477 
L 105.154202 384.176477 
L 111.687727 384.176477 
L 118.221253 384.176477 
L 124.754778 384.176477 
L 131.288303 384.176477 
L 137.821828 384.176477 
L 144.355354 384.176477 
L 150.888879 384.176477 
L 157.422404 384.176477 
L 163.955929 384.176477 
L 170.489455 384.176477 
L 177.02298 384.176477 
L 183.556505 384.176477 
L 190.09003 384.176477 
L 196.623556 384.176477 
L 203.157081 384.176477 
L 209.690606 384.183682 
L 216.224131 384.628293 
L 222.757657 385.696939 
L 229.291182 387.297514 
L 235.824707 389.33791 
L 242.358232 391.72602 
L 248.891758 394.457986 
L 255.425283 400.001408 
L 261.958808 408.446308 
L 268.492333 418.343921 
L 275.025859 428.245485 
L 281.559384 436.702235 
L 288.092909 442.510514 
L 294.626434 447.426297 
L 301.15996 452.111401 
L 307.693485 456.550864 
L 314.22701 460.729728 
L 320.760535 464.633031 
L 327.294061 468.245813 
L 333.827586 471.553114 
L 340.361111 474.539973 
L 346.894636 477.191431 
L 353.428162 479.492527 
L 359.961687 481.428301 
L 366.495212 483.026136 
L 373.028737 484.551968 
L 379.562263 486.05455 
L 386.095788 487.533599 
L 392.629313 488.988835 
L 399.162838 490.419976 
L 405.696364 491.826742 
L 412.229889 493.20885 
L 418.763414 494.566019 
L 425.296939 495.897967 
L 431.830465 497.204415 
L 438.36399 498.485079 
L 444.897515 499.739679 
L 451.43104 500.967933 
L 457.964566 502.16956 
L 464.498091 503.344278 
L 471.031616 504.491807 
L 477.565141 505.611864 
L 484.098667 506.704169 
L 490.632192 507.76844 
L 497.165717 508.804395 
L 503.699242 509.811754 
L 510.232768 510.790234 
L 516.766293 511.739555 
L 523.299818 512.659435 
L 529.833343 513.549592 
L 536.366869 514.409746 
L 542.900394 515.239615 
L 549.433919 516.038918 
L 555.967444 516.807372 
L 562.50097 517.544697 
L 569.034495 518.250612 
L 575.56802 518.924835 
L 582.101545 519.567084 
L 588.635071 520.177079 
L 595.168596 520.754538 
L 601.702121 521.299179 
L 608.235646 521.810721 
L 614.769172 522.288883 
L 621.302697 522.733383 
L 627.836222 523.14394 
L 634.369747 523.520273 
L 640.903273 523.8621 
L 647.436798 524.16914 
L 653.970323 524.441112 
L 660.503848 524.677733 
L 667.037374 524.878723 
L 673.570899 525.043801 
L 680.104424 525.172684 
L 686.637949 525.265092 
L 693.171475 525.320743 
L 699.705 525.339356 
" clip-path="url(#p2053ba9e79)" style="fill: none; stroke: #1f77b4; stroke-width: 1.5; stroke-linecap: square"/>
   </g>
   <g id="line2d_98">
    <g clip-path="url(#p2053ba9e79)">
     <use xlink:href="#m703434955d" x="208.769379" y="384.176477" style="fill: #1f77b4; stroke: #1f77b4"/>
     <use xlink:href="#m703434955d" x="247.578519" y="393.822262" style="fill: #1f77b4; stroke: #1f77b4"/>
     <use xlink:href="#m703434955d" x="285.74084" y="440.687243" style="fill: #1f77b4; stroke: #1f77b4"/>
     <use xlink:href="#m703434955d" x="363.35912" y="482.285561" style="fill: #1f77b4; stroke: #1f77b4"/>
    </g>
   </g>
   <g id="line2d_99">
    <g clip-path="url(#p2053ba9e79)">
     <use xlink:href="#m08ff5cadc1" x="208.769379" y="412.43817" style="stroke: #000000"/>
     <use xlink:href="#m08ff5cadc1" x="247.578519" y="420.80122" style="stroke: #000000"/>
     <use xlink:href="#m08ff5cadc1" x="285.74084" y="444.496531" style="stroke: #000000"/>
     <use xlink:href="#m08ff5cadc1" x="363.35912" y="500.250204" style="stroke: #000000"/>
    </g>
   </g>
   <g id="line2d_100">
    <path d="M 52.886 397.882453 
L 59.419525 397.882453 
L 65.953051 397.882453 
L 72.486576 397.882453 
L 79.020101 397.882453 
L 85.553626 397.882453 
L 92.087152 397.882453 
L 98.620677 397.882453 
L 105.154202 397.882453 
L 111.687727 397.882453 
L 118.221253 397.882453 
L 124.754778 397.882453 
L 131.288303 397.882453 
L 137.821828 397.882453 
L 144.355354 397.882453 
L 150.888879 397.882453 
L 157.422404 397.882453 
L 163.955929 397.882453 
L 170.489455 397.882453 
L 177.02298 397.882453 
L 183.556505 397.882453 
L 190.09003 397.882453 
L 196.623556 397.882453 
L 203.157081 397.882453 
L 209.690606 397.890005 
L 216.224131 398.354726 
L 222.757657 399.466986 
L 229.291182 401.124259 
L 235.824707 403.22402 
L 242.358232 405.663746 
L 248.891758 408.420681 
L 255.425283 413.709711 
L 261.958808 421.606188 
L 268.492333 430.796058 
L 275.025859 439.965264 
L 281.559384 447.799753 
L 288.092909 453.210554 
L 294.626434 457.81954 
L 301.15996 462.229579 
L 307.693485 466.420488 
L 314.22701 470.372082 
L 320.760535 474.064179 
L 327.294061 477.476594 
L 333.827586 480.589144 
L 340.361111 483.381646 
L 346.894636 485.833915 
L 353.428162 487.925769 
L 359.961687 489.637023 
L 366.495212 490.992699 
L 373.028737 492.274086 
L 379.562263 493.533207 
L 386.095788 494.769938 
L 392.629313 495.984152 
L 399.162838 497.175724 
L 405.696364 498.344528 
L 412.229889 499.490438 
L 418.763414 500.61333 
L 425.296939 501.713077 
L 431.830465 502.789554 
L 438.36399 503.842635 
L 444.897515 504.872194 
L 451.43104 505.878107 
L 457.964566 506.860247 
L 464.498091 507.818489 
L 471.031616 508.752706 
L 477.565141 509.662775 
L 484.098667 510.548568 
L 490.632192 511.409961 
L 497.165717 512.246827 
L 503.699242 513.059042 
L 510.232768 513.846479 
L 516.766293 514.609013 
L 523.299818 515.346518 
L 529.833343 516.058869 
L 536.366869 516.745941 
L 542.900394 517.407606 
L 549.433919 518.043741 
L 555.967444 518.654218 
L 562.50097 519.238914 
L 569.034495 519.797702 
L 575.56802 520.330456 
L 582.101545 520.837051 
L 588.635071 521.317361 
L 595.168596 521.77126 
L 601.702121 522.198624 
L 608.235646 522.599327 
L 614.769172 522.973242 
L 621.302697 523.320244 
L 627.836222 523.640208 
L 634.369747 523.933008 
L 640.903273 524.198519 
L 647.436798 524.436614 
L 653.970323 524.647168 
L 660.503848 524.830056 
L 667.037374 524.985152 
L 673.570899 525.112331 
L 680.104424 525.211466 
L 686.637949 525.282432 
L 693.171475 525.325104 
L 699.705 525.339356 
" clip-path="url(#p2053ba9e79)" style="fill: none; stroke: #ff7f0e; stroke-width: 1.5; stroke-linecap: square"/>
   </g>
   <g id="line2d_101">
    <g clip-path="url(#p2053ba9e79)">
     <use xlink:href="#mea61eb92a4" x="208.769379" y="397.882453" style="fill: #ff7f0e; stroke: #ff7f0e"/>
     <use xlink:href="#mea61eb92a4" x="247.578519" y="407.788671" style="fill: #ff7f0e; stroke: #ff7f0e"/>
     <use xlink:href="#mea61eb92a4" x="285.74084" y="451.506504" style="fill: #ff7f0e; stroke: #ff7f0e"/>
     <use xlink:href="#mea61eb92a4" x="363.35912" y="490.369761" style="fill: #ff7f0e; stroke: #ff7f0e"/>
    </g>
   </g>
   <g id="line2d_102">
    <g clip-path="url(#p2053ba9e79)">
     <use xlink:href="#m08ff5cadc1" x="208.769379" y="412.43817" style="stroke: #000000"/>
     <use xlink:href="#m08ff5cadc1" x="247.578519" y="420.80122" style="stroke: #000000"/>
     <use xlink:href="#m08ff5cadc1" x="285.74084" y="444.496531" style="stroke: #000000"/>
     <use xlink:href="#m08ff5cadc1" x="363.35912" y="500.250204" style="stroke: #000000"/>
    </g>
   </g>
   <g id="line2d_103">
    <path d="M 52.886 410.942764 
L 59.419525 410.942764 
L 65.953051 410.942764 
L 72.486576 410.942764 
L 79.020101 410.942764 
L 85.553626 410.942764 
L 92.087152 410.942764 
L 98.620677 410.942764 
L 105.154202 410.942764 
L 111.687727 410.942764 
L 118.221253 410.942764 
L 124.754778 410.942764 
L 131.288303 410.942764 
L 137.821828 410.942764 
L 144.355354 410.942764 
L 150.888879 410.942764 
L 157.422404 410.942764 
L 163.955929 410.942764 
L 170.489455 410.942764 
L 177.02298 410.942764 
L 183.556505 410.942764 
L 190.09003 410.942764 
L 196.623556 410.942764 
L 203.157081 410.942764 
L 209.690606 410.950473 
L 216.224131 411.423854 
L 222.757657 412.553183 
L 229.291182 414.229187 
L 235.824707 416.342594 
L 242.358232 418.784128 
L 248.891758 421.516549 
L 255.425283 426.528532 
L 261.958808 433.891485 
L 268.492333 442.424607 
L 275.025859 450.9471 
L 281.559384 458.278163 
L 288.092909 463.442115 
L 294.626434 467.92378 
L 301.15996 472.259442 
L 307.693485 476.415426 
L 314.22701 480.358053 
L 320.760535 484.053648 
L 327.294061 487.468532 
L 333.827586 490.569029 
L 340.361111 493.321462 
L 346.894636 495.692153 
L 353.428162 497.647426 
L 359.961687 499.153604 
L 366.495212 500.232854 
L 373.028737 501.227194 
L 379.562263 502.20069 
L 386.095788 503.153388 
L 392.629313 504.085337 
L 399.162838 504.996582 
L 405.696364 505.887169 
L 412.229889 506.757146 
L 418.763414 507.606559 
L 425.296939 508.435455 
L 431.830465 509.243881 
L 438.36399 510.031882 
L 444.897515 510.799505 
L 451.43104 511.546798 
L 457.964566 512.273807 
L 464.498091 512.980578 
L 471.031616 513.667158 
L 477.565141 514.333594 
L 484.098667 514.979932 
L 490.632192 515.606219 
L 497.165717 516.212501 
L 503.699242 516.798826 
L 510.232768 517.365239 
L 516.766293 517.911788 
L 523.299818 518.438518 
L 529.833343 518.945477 
L 536.366869 519.432711 
L 542.900394 519.900268 
L 549.433919 520.348192 
L 555.967444 520.776532 
L 562.50097 521.185333 
L 569.034495 521.574642 
L 575.56802 521.944507 
L 582.101545 522.294972 
L 588.635071 522.626086 
L 595.168596 522.937895 
L 601.702121 523.230445 
L 608.235646 523.503783 
L 614.769172 523.757956 
L 621.302697 523.993009 
L 627.836222 524.208991 
L 634.369747 524.405947 
L 640.903273 524.583924 
L 647.436798 524.742969 
L 653.970323 524.883128 
L 660.503848 525.004448 
L 667.037374 525.106975 
L 673.570899 525.190756 
L 680.104424 525.255839 
L 686.637949 525.302268 
L 693.171475 525.330092 
L 699.705 525.339356 
" clip-path="url(#p2053ba9e79)" style="fill: none; stroke: #2ca02c; stroke-width: 1.5; stroke-linecap: square"/>
   </g>
   <g id="line2d_104">
    <g clip-path="url(#p2053ba9e79)">
     <use xlink:href="#mbd6e6a2b54" x="208.769379" y="410.942764" style="fill: #2ca02c; stroke: #2ca02c"/>
     <use xlink:href="#mbd6e6a2b54" x="247.578519" y="420.897468" style="fill: #2ca02c; stroke: #2ca02c"/>
     <use xlink:href="#mbd6e6a2b54" x="285.74084" y="461.79946" style="fill: #2ca02c; stroke: #2ca02c"/>
     <use xlink:href="#mbd6e6a2b54" x="363.35912" y="499.748154" style="fill: #2ca02c; stroke: #2ca02c"/>
    </g>
   </g>
   <g id="line2d_105">
    <g clip-path="url(#p2053ba9e79)">
     <use xlink:href="#m08ff5cadc1" x="208.769379" y="412.43817" style="stroke: #000000"/>
     <use xlink:href="#m08ff5cadc1" x="247.578519" y="420.80122" style="stroke: #000000"/>
     <use xlink:href="#m08ff5cadc1" x="285.74084" y="444.496531" style="stroke: #000000"/>
     <use xlink:href="#m08ff5cadc1" x="363.35912" y="500.250204" style="stroke: #000000"/>
    </g>
   </g>
   <g id="patch_14">
    <path d="M 52.886 532.3975 
L 52.886 377.118333 
" style="fill: none; stroke: #000000; stroke-width: 0.8; stroke-linejoin: miter; stroke-linecap: square"/>
   </g>
   <g id="patch_15">
    <path d="M 699.705 532.3975 
L 699.705 377.118333 
" style="fill: none; stroke: #000000; stroke-width: 0.8; stroke-linejoin: miter; stroke-linecap: square"/>
   </g>
   <g id="patch_16">
    <path d="M 52.886 532.3975 
L 699.705 532.3975 
" style="fill: none; stroke: #000000; stroke-width: 0.8; stroke-linejoin: miter; stroke-linecap: square"/>
   </g>
   <g id="patch_17">
    <path d="M 52.886 377.118333 
L 699.705 377.118333 
" style="fill: none; stroke: #000000; stroke-width: 0.8; stroke-linejoin: miter; stroke-linecap: square"/>
   </g>
  </g>
 </g>
 <defs>
  <clipPath id="pe620c8cf50">
   <rect x="52.886" y="10.8" width="646.819" height="155.279167"/>
  </clipPath>
  <clipPath id="p2dd1415946">
   <rect x="52.886" y="193.959167" width="646.819" height="155.279167"/>
  </clipPath>
  <clipPath id="p2053ba9e79">
   <rect x="52.886" y="377.118333" width="646.819" height="155.279167"/>
  </clipPath>
 </defs>
</svg>
