<?xml version="1.0" encoding="utf-8" standalone="no"?>
<!DOCTYPE svg PUBLIC "-//W3C//DTD SVG 1.1//EN"
  "http://www.w3.org/Graphics/SVG/1.1/DTD/svg11.dtd">
<svg xmlns:xlink="http://www.w3.org/1999/xlink" width="720pt" height="576pt" viewBox="0 0 720 576" xmlns="http://www.w3.org/2000/svg" version="1.1">
 <metadata>
  <rdf:RDF xmlns:dc="http://purl.org/dc/elements/1.1/" xmlns:cc="http://creativecommons.org/ns#" xmlns:rdf="http://www.w3.org/1999/02/22-rdf-syntax-ns#">
   <cc:Work>
    <dc:type rdf:resource="http://purl.org/dc/dcmitype/StillImage"/>
    <dc:date>2024-09-20T00:12:56.553094</dc:date>
    <dc:format>image/svg+xml</dc:format>
    <dc:creator>
     <cc:Agent>
      <dc:title>Matplotlib v3.8.0, https://matplotlib.org/</dc:title>
     </cc:Agent>
    </dc:creator>
   </cc:Work>
  </rdf:RDF>
 </metadata>
 <defs>
  <style type="text/css">*{stroke-linejoin: round; stroke-linecap: butt}</style>
 </defs>
 <g id="figure_1">
  <g id="patch_1">
   <path d="M 0 576 
L 720 576 
L 720 0 
L 0 0 
z
" style="fill: #ffffff"/>
  </g>
  <g id="axes_1">
   <g id="patch_2">
    <path d="M 49.736 166.079167 
L 699.705 166.079167 
L 699.705 10.8 
L 49.736 10.8 
z
" style="fill: #ffffff"/>
   </g>
   <g id="matplotlib.axis_1">
    <g id="xtick_1">
     <g id="line2d_1">
      <path d="M 49.736 166.079167 
L 49.736 10.8 
" clip-path="url(#pebf8338a9a)" style="fill: none; stroke-dasharray: 0.8,1.32; stroke-dashoffset: 0; stroke: #b0b0b0; stroke-width: 0.8"/>
     </g>
     <g id="line2d_2">
      <defs>
       <path id="m3b086f6f84" d="M 0 0 
L 0 3.5 
" style="stroke: #000000; stroke-width: 0.8"/>
      </defs>
      <g>
       <use xlink:href="#m3b086f6f84" x="49.736" y="166.079167" style="stroke: #000000; stroke-width: 0.8"/>
      </g>
     </g>
     <g id="text_1">
      <!-- 0 -->
      <g transform="translate(46.55475 180.677604) scale(0.1 -0.1)">
       <defs>
        <path id="DejaVuSans-30" d="M 2034 4250 
Q 1547 4250 1301 3770 
Q 1056 3291 1056 2328 
Q 1056 1369 1301 889 
Q 1547 409 2034 409 
Q 2525 409 2770 889 
Q 3016 1369 3016 2328 
Q 3016 3291 2770 3770 
Q 2525 4250 2034 4250 
z
M 2034 4750 
Q 2819 4750 3233 4129 
Q 3647 3509 3647 2328 
Q 3647 1150 3233 529 
Q 2819 -91 2034 -91 
Q 1250 -91 836 529 
Q 422 1150 422 2328 
Q 422 3509 836 4129 
Q 1250 4750 2034 4750 
z
" transform="scale(0.015625)"/>
       </defs>
       <use xlink:href="#DejaVuSans-30"/>
      </g>
     </g>
    </g>
    <g id="xtick_2">
     <g id="line2d_3">
      <path d="M 179.7298 166.079167 
L 179.7298 10.8 
" clip-path="url(#pebf8338a9a)" style="fill: none; stroke-dasharray: 0.8,1.32; stroke-dashoffset: 0; stroke: #b0b0b0; stroke-width: 0.8"/>
     </g>
     <g id="line2d_4">
      <g>
       <use xlink:href="#m3b086f6f84" x="179.7298" y="166.079167" style="stroke: #000000; stroke-width: 0.8"/>
      </g>
     </g>
     <g id="text_2">
      <!-- 20 -->
      <g transform="translate(173.3673 180.677604) scale(0.1 -0.1)">
       <defs>
        <path id="DejaVuSans-32" d="M 1228 531 
L 3431 531 
L 3431 0 
L 469 0 
L 469 531 
Q 828 903 1448 1529 
Q 2069 2156 2228 2338 
Q 2531 2678 2651 2914 
Q 2772 3150 2772 3378 
Q 2772 3750 2511 3984 
Q 2250 4219 1831 4219 
Q 1534 4219 1204 4116 
Q 875 4013 500 3803 
L 500 4441 
Q 881 4594 1212 4672 
Q 1544 4750 1819 4750 
Q 2544 4750 2975 4387 
Q 3406 4025 3406 3419 
Q 3406 3131 3298 2873 
Q 3191 2616 2906 2266 
Q 2828 2175 2409 1742 
Q 1991 1309 1228 531 
z
" transform="scale(0.015625)"/>
       </defs>
       <use xlink:href="#DejaVuSans-32"/>
       <use xlink:href="#DejaVuSans-30" x="63.623047"/>
      </g>
     </g>
    </g>
    <g id="xtick_3">
     <g id="line2d_5">
      <path d="M 309.7236 166.079167 
L 309.7236 10.8 
" clip-path="url(#pebf8338a9a)" style="fill: none; stroke-dasharray: 0.8,1.32; stroke-dashoffset: 0; stroke: #b0b0b0; stroke-width: 0.8"/>
     </g>
     <g id="line2d_6">
      <g>
       <use xlink:href="#m3b086f6f84" x="309.7236" y="166.079167" style="stroke: #000000; stroke-width: 0.8"/>
      </g>
     </g>
     <g id="text_3">
      <!-- 40 -->
      <g transform="translate(303.3611 180.677604) scale(0.1 -0.1)">
       <defs>
        <path id="DejaVuSans-34" d="M 2419 4116 
L 825 1625 
L 2419 1625 
L 2419 4116 
z
M 2253 4666 
L 3047 4666 
L 3047 1625 
L 3713 1625 
L 3713 1100 
L 3047 1100 
L 3047 0 
L 2419 0 
L 2419 1100 
L 313 1100 
L 313 1709 
L 2253 4666 
z
" transform="scale(0.015625)"/>
       </defs>
       <use xlink:href="#DejaVuSans-34"/>
       <use xlink:href="#DejaVuSans-30" x="63.623047"/>
      </g>
     </g>
    </g>
    <g id="xtick_4">
     <g id="line2d_7">
      <path d="M 439.7174 166.079167 
L 439.7174 10.8 
" clip-path="url(#pebf8338a9a)" style="fill: none; stroke-dasharray: 0.8,1.32; stroke-dashoffset: 0; stroke: #b0b0b0; stroke-width: 0.8"/>
     </g>
     <g id="line2d_8">
      <g>
       <use xlink:href="#m3b086f6f84" x="439.7174" y="166.079167" style="stroke: #000000; stroke-width: 0.8"/>
      </g>
     </g>
     <g id="text_4">
      <!-- 60 -->
      <g transform="translate(433.3549 180.677604) scale(0.1 -0.1)">
       <defs>
        <path id="DejaVuSans-36" d="M 2113 2584 
Q 1688 2584 1439 2293 
Q 1191 2003 1191 1497 
Q 1191 994 1439 701 
Q 1688 409 2113 409 
Q 2538 409 2786 701 
Q 3034 994 3034 1497 
Q 3034 2003 2786 2293 
Q 2538 2584 2113 2584 
z
M 3366 4563 
L 3366 3988 
Q 3128 4100 2886 4159 
Q 2644 4219 2406 4219 
Q 1781 4219 1451 3797 
Q 1122 3375 1075 2522 
Q 1259 2794 1537 2939 
Q 1816 3084 2150 3084 
Q 2853 3084 3261 2657 
Q 3669 2231 3669 1497 
Q 3669 778 3244 343 
Q 2819 -91 2113 -91 
Q 1303 -91 875 529 
Q 447 1150 447 2328 
Q 447 3434 972 4092 
Q 1497 4750 2381 4750 
Q 2619 4750 2861 4703 
Q 3103 4656 3366 4563 
z
" transform="scale(0.015625)"/>
       </defs>
       <use xlink:href="#DejaVuSans-36"/>
       <use xlink:href="#DejaVuSans-30" x="63.623047"/>
      </g>
     </g>
    </g>
    <g id="xtick_5">
     <g id="line2d_9">
      <path d="M 569.7112 166.079167 
L 569.7112 10.8 
" clip-path="url(#pebf8338a9a)" style="fill: none; stroke-dasharray: 0.8,1.32; stroke-dashoffset: 0; stroke: #b0b0b0; stroke-width: 0.8"/>
     </g>
     <g id="line2d_10">
      <g>
       <use xlink:href="#m3b086f6f84" x="569.7112" y="166.079167" style="stroke: #000000; stroke-width: 0.8"/>
      </g>
     </g>
     <g id="text_5">
      <!-- 80 -->
      <g transform="translate(563.3487 180.677604) scale(0.1 -0.1)">
       <defs>
        <path id="DejaVuSans-38" d="M 2034 2216 
Q 1584 2216 1326 1975 
Q 1069 1734 1069 1313 
Q 1069 891 1326 650 
Q 1584 409 2034 409 
Q 2484 409 2743 651 
Q 3003 894 3003 1313 
Q 3003 1734 2745 1975 
Q 2488 2216 2034 2216 
z
M 1403 2484 
Q 997 2584 770 2862 
Q 544 3141 544 3541 
Q 544 4100 942 4425 
Q 1341 4750 2034 4750 
Q 2731 4750 3128 4425 
Q 3525 4100 3525 3541 
Q 3525 3141 3298 2862 
Q 3072 2584 2669 2484 
Q 3125 2378 3379 2068 
Q 3634 1759 3634 1313 
Q 3634 634 3220 271 
Q 2806 -91 2034 -91 
Q 1263 -91 848 271 
Q 434 634 434 1313 
Q 434 1759 690 2068 
Q 947 2378 1403 2484 
z
M 1172 3481 
Q 1172 3119 1398 2916 
Q 1625 2713 2034 2713 
Q 2441 2713 2670 2916 
Q 2900 3119 2900 3481 
Q 2900 3844 2670 4047 
Q 2441 4250 2034 4250 
Q 1625 4250 1398 4047 
Q 1172 3844 1172 3481 
z
" transform="scale(0.015625)"/>
       </defs>
       <use xlink:href="#DejaVuSans-38"/>
       <use xlink:href="#DejaVuSans-30" x="63.623047"/>
      </g>
     </g>
    </g>
    <g id="xtick_6">
     <g id="line2d_11">
      <path d="M 699.705 166.079167 
L 699.705 10.8 
" clip-path="url(#pebf8338a9a)" style="fill: none; stroke-dasharray: 0.8,1.32; stroke-dashoffset: 0; stroke: #b0b0b0; stroke-width: 0.8"/>
     </g>
     <g id="line2d_12">
      <g>
       <use xlink:href="#m3b086f6f84" x="699.705" y="166.079167" style="stroke: #000000; stroke-width: 0.8"/>
      </g>
     </g>
     <g id="text_6">
      <!-- 100 -->
      <g transform="translate(690.16125 180.677604) scale(0.1 -0.1)">
       <defs>
        <path id="DejaVuSans-31" d="M 794 531 
L 1825 531 
L 1825 4091 
L 703 3866 
L 703 4441 
L 1819 4666 
L 2450 4666 
L 2450 531 
L 3481 531 
L 3481 0 
L 794 0 
L 794 531 
z
" transform="scale(0.015625)"/>
       </defs>
       <use xlink:href="#DejaVuSans-31"/>
       <use xlink:href="#DejaVuSans-30" x="63.623047"/>
       <use xlink:href="#DejaVuSans-30" x="127.246094"/>
      </g>
     </g>
    </g>
   </g>
   <g id="matplotlib.axis_2">
    <g id="ytick_1">
     <g id="line2d_13">
      <path d="M 49.736 159.021023 
L 699.705 159.021023 
" clip-path="url(#pebf8338a9a)" style="fill: none; stroke-dasharray: 0.8,1.32; stroke-dashoffset: 0; stroke: #b0b0b0; stroke-width: 0.8"/>
     </g>
     <g id="line2d_14">
      <defs>
       <path id="mab0ab2d2ea" d="M 0 0 
L -3.5 0 
" style="stroke: #000000; stroke-width: 0.8"/>
      </defs>
      <g>
       <use xlink:href="#mab0ab2d2ea" x="49.736" y="159.021023" style="stroke: #000000; stroke-width: 0.8"/>
      </g>
     </g>
     <g id="text_7">
      <!-- 0.00 -->
      <g transform="translate(20.470375 162.820241) scale(0.1 -0.1)">
       <defs>
        <path id="DejaVuSans-2e" d="M 684 794 
L 1344 794 
L 1344 0 
L 684 0 
L 684 794 
z
" transform="scale(0.015625)"/>
       </defs>
       <use xlink:href="#DejaVuSans-30"/>
       <use xlink:href="#DejaVuSans-2e" x="63.623047"/>
       <use xlink:href="#DejaVuSans-30" x="95.410156"/>
       <use xlink:href="#DejaVuSans-30" x="159.033203"/>
      </g>
     </g>
    </g>
    <g id="ytick_2">
     <g id="line2d_15">
      <path d="M 49.736 135.709893 
L 699.705 135.709893 
" clip-path="url(#pebf8338a9a)" style="fill: none; stroke-dasharray: 0.8,1.32; stroke-dashoffset: 0; stroke: #b0b0b0; stroke-width: 0.8"/>
     </g>
     <g id="line2d_16">
      <g>
       <use xlink:href="#mab0ab2d2ea" x="49.736" y="135.709893" style="stroke: #000000; stroke-width: 0.8"/>
      </g>
     </g>
     <g id="text_8">
      <!-- 0.25 -->
      <g transform="translate(20.470375 139.509111) scale(0.1 -0.1)">
       <defs>
        <path id="DejaVuSans-35" d="M 691 4666 
L 3169 4666 
L 3169 4134 
L 1269 4134 
L 1269 2991 
Q 1406 3038 1543 3061 
Q 1681 3084 1819 3084 
Q 2600 3084 3056 2656 
Q 3513 2228 3513 1497 
Q 3513 744 3044 326 
Q 2575 -91 1722 -91 
Q 1428 -91 1123 -41 
Q 819 9 494 109 
L 494 744 
Q 775 591 1075 516 
Q 1375 441 1709 441 
Q 2250 441 2565 725 
Q 2881 1009 2881 1497 
Q 2881 1984 2565 2268 
Q 2250 2553 1709 2553 
Q 1456 2553 1204 2497 
Q 953 2441 691 2322 
L 691 4666 
z
" transform="scale(0.015625)"/>
       </defs>
       <use xlink:href="#DejaVuSans-30"/>
       <use xlink:href="#DejaVuSans-2e" x="63.623047"/>
       <use xlink:href="#DejaVuSans-32" x="95.410156"/>
       <use xlink:href="#DejaVuSans-35" x="159.033203"/>
      </g>
     </g>
    </g>
    <g id="ytick_3">
     <g id="line2d_17">
      <path d="M 49.736 112.398763 
L 699.705 112.398763 
" clip-path="url(#pebf8338a9a)" style="fill: none; stroke-dasharray: 0.8,1.32; stroke-dashoffset: 0; stroke: #b0b0b0; stroke-width: 0.8"/>
     </g>
     <g id="line2d_18">
      <g>
       <use xlink:href="#mab0ab2d2ea" x="49.736" y="112.398763" style="stroke: #000000; stroke-width: 0.8"/>
      </g>
     </g>
     <g id="text_9">
      <!-- 0.50 -->
      <g transform="translate(20.470375 116.197981) scale(0.1 -0.1)">
       <use xlink:href="#DejaVuSans-30"/>
       <use xlink:href="#DejaVuSans-2e" x="63.623047"/>
       <use xlink:href="#DejaVuSans-35" x="95.410156"/>
       <use xlink:href="#DejaVuSans-30" x="159.033203"/>
      </g>
     </g>
    </g>
    <g id="ytick_4">
     <g id="line2d_19">
      <path d="M 49.736 89.087633 
L 699.705 89.087633 
" clip-path="url(#pebf8338a9a)" style="fill: none; stroke-dasharray: 0.8,1.32; stroke-dashoffset: 0; stroke: #b0b0b0; stroke-width: 0.8"/>
     </g>
     <g id="line2d_20">
      <g>
       <use xlink:href="#mab0ab2d2ea" x="49.736" y="89.087633" style="stroke: #000000; stroke-width: 0.8"/>
      </g>
     </g>
     <g id="text_10">
      <!-- 0.75 -->
      <g transform="translate(20.470375 92.886851) scale(0.1 -0.1)">
       <defs>
        <path id="DejaVuSans-37" d="M 525 4666 
L 3525 4666 
L 3525 4397 
L 1831 0 
L 1172 0 
L 2766 4134 
L 525 4134 
L 525 4666 
z
" transform="scale(0.015625)"/>
       </defs>
       <use xlink:href="#DejaVuSans-30"/>
       <use xlink:href="#DejaVuSans-2e" x="63.623047"/>
       <use xlink:href="#DejaVuSans-37" x="95.410156"/>
       <use xlink:href="#DejaVuSans-35" x="159.033203"/>
      </g>
     </g>
    </g>
    <g id="ytick_5">
     <g id="line2d_21">
      <path d="M 49.736 65.776503 
L 699.705 65.776503 
" clip-path="url(#pebf8338a9a)" style="fill: none; stroke-dasharray: 0.8,1.32; stroke-dashoffset: 0; stroke: #b0b0b0; stroke-width: 0.8"/>
     </g>
     <g id="line2d_22">
      <g>
       <use xlink:href="#mab0ab2d2ea" x="49.736" y="65.776503" style="stroke: #000000; stroke-width: 0.8"/>
      </g>
     </g>
     <g id="text_11">
      <!-- 1.00 -->
      <g transform="translate(20.470375 69.575722) scale(0.1 -0.1)">
       <use xlink:href="#DejaVuSans-31"/>
       <use xlink:href="#DejaVuSans-2e" x="63.623047"/>
       <use xlink:href="#DejaVuSans-30" x="95.410156"/>
       <use xlink:href="#DejaVuSans-30" x="159.033203"/>
      </g>
     </g>
    </g>
    <g id="ytick_6">
     <g id="line2d_23">
      <path d="M 49.736 42.465373 
L 699.705 42.465373 
" clip-path="url(#pebf8338a9a)" style="fill: none; stroke-dasharray: 0.8,1.32; stroke-dashoffset: 0; stroke: #b0b0b0; stroke-width: 0.8"/>
     </g>
     <g id="line2d_24">
      <g>
       <use xlink:href="#mab0ab2d2ea" x="49.736" y="42.465373" style="stroke: #000000; stroke-width: 0.8"/>
      </g>
     </g>
     <g id="text_12">
      <!-- 1.25 -->
      <g transform="translate(20.470375 46.264592) scale(0.1 -0.1)">
       <use xlink:href="#DejaVuSans-31"/>
       <use xlink:href="#DejaVuSans-2e" x="63.623047"/>
       <use xlink:href="#DejaVuSans-32" x="95.410156"/>
       <use xlink:href="#DejaVuSans-35" x="159.033203"/>
      </g>
     </g>
    </g>
    <g id="ytick_7">
     <g id="line2d_25">
      <path d="M 49.736 19.154243 
L 699.705 19.154243 
" clip-path="url(#pebf8338a9a)" style="fill: none; stroke-dasharray: 0.8,1.32; stroke-dashoffset: 0; stroke: #b0b0b0; stroke-width: 0.8"/>
     </g>
     <g id="line2d_26">
      <g>
       <use xlink:href="#mab0ab2d2ea" x="49.736" y="19.154243" style="stroke: #000000; stroke-width: 0.8"/>
      </g>
     </g>
     <g id="text_13">
      <!-- 1.50 -->
      <g transform="translate(20.470375 22.953462) scale(0.1 -0.1)">
       <use xlink:href="#DejaVuSans-31"/>
       <use xlink:href="#DejaVuSans-2e" x="63.623047"/>
       <use xlink:href="#DejaVuSans-35" x="95.410156"/>
       <use xlink:href="#DejaVuSans-30" x="159.033203"/>
      </g>
     </g>
    </g>
    <g id="text_14">
     <!-- $C_l$ [-] -->
     <g transform="translate(14.390688 100.339583) rotate(-90) scale(0.1 -0.1)">
      <defs>
       <path id="DejaVuSans-Oblique-43" d="M 4447 4306 
L 4319 3641 
Q 4019 3944 3683 4091 
Q 3347 4238 2956 4238 
Q 2422 4238 2017 3981 
Q 1613 3725 1319 3200 
Q 1131 2863 1032 2486 
Q 934 2109 934 1728 
Q 934 1091 1264 756 
Q 1594 422 2222 422 
Q 2656 422 3056 561 
Q 3456 700 3834 978 
L 3688 231 
Q 3316 72 2936 -9 
Q 2556 -91 2175 -91 
Q 1278 -91 773 396 
Q 269 884 269 1753 
Q 269 2309 461 2846 
Q 653 3384 1013 3828 
Q 1394 4300 1883 4525 
Q 2372 4750 3022 4750 
Q 3422 4750 3780 4639 
Q 4138 4528 4447 4306 
z
" transform="scale(0.015625)"/>
       <path id="DejaVuSans-Oblique-6c" d="M 1172 4863 
L 1747 4863 
L 800 0 
L 225 0 
L 1172 4863 
z
" transform="scale(0.015625)"/>
       <path id="DejaVuSans-20" transform="scale(0.015625)"/>
       <path id="DejaVuSans-5b" d="M 550 4863 
L 1875 4863 
L 1875 4416 
L 1125 4416 
L 1125 -397 
L 1875 -397 
L 1875 -844 
L 550 -844 
L 550 4863 
z
" transform="scale(0.015625)"/>
       <path id="DejaVuSans-2d" d="M 313 2009 
L 1997 2009 
L 1997 1497 
L 313 1497 
L 313 2009 
z
" transform="scale(0.015625)"/>
       <path id="DejaVuSans-5d" d="M 1947 4863 
L 1947 -844 
L 622 -844 
L 622 -397 
L 1369 -397 
L 1369 4416 
L 622 4416 
L 622 4863 
L 1947 4863 
z
" transform="scale(0.015625)"/>
      </defs>
      <use xlink:href="#DejaVuSans-Oblique-43" transform="translate(0 0.015625)"/>
      <use xlink:href="#DejaVuSans-Oblique-6c" transform="translate(69.824219 -16.390625) scale(0.7)"/>
      <use xlink:href="#DejaVuSans-20" transform="translate(92.006836 0.015625)"/>
      <use xlink:href="#DejaVuSans-5b" transform="translate(123.793945 0.015625)"/>
      <use xlink:href="#DejaVuSans-2d" transform="translate(162.807617 0.015625)"/>
      <use xlink:href="#DejaVuSans-5d" transform="translate(198.891602 0.015625)"/>
     </g>
    </g>
   </g>
   <g id="line2d_27">
    <path d="M 49.736 17.858144 
L 56.301343 17.858144 
L 62.866687 17.858144 
L 69.43203 17.858144 
L 75.997374 17.858144 
L 82.562717 17.858144 
L 89.128061 17.858144 
L 95.693404 17.858144 
L 102.258747 17.858144 
L 108.824091 17.858144 
L 115.389434 17.858144 
L 121.954778 17.858144 
L 128.520121 17.858144 
L 135.085465 17.858144 
L 141.650808 17.858144 
L 148.216152 17.858144 
L 154.781495 17.858144 
L 161.346838 17.858144 
L 167.912182 17.858144 
L 174.477525 17.858144 
L 181.042869 17.858144 
L 187.608212 17.858144 
L 194.173556 17.858144 
L 200.738899 17.858144 
L 207.304242 17.868265 
L 213.869586 18.45482 
L 220.434929 19.726217 
L 227.000273 21.37773 
L 233.565616 23.104633 
L 240.13096 24.6022 
L 246.696303 25.576493 
L 253.261646 26.173044 
L 259.82699 26.619899 
L 266.392333 27.017771 
L 272.957677 27.467377 
L 279.52302 28.069431 
L 286.088364 29.023567 
L 292.653707 31.422938 
L 299.219051 35.31057 
L 305.784394 40.389728 
L 312.349737 46.363677 
L 318.915081 52.935682 
L 325.480424 59.809007 
L 332.045768 66.686918 
L 338.611111 73.272679 
L 345.176455 79.269555 
L 351.741798 84.380811 
L 358.307141 88.309712 
L 364.872485 90.949457 
L 371.437828 93.347324 
L 378.003172 95.712286 
L 384.568515 98.043756 
L 391.133859 100.341143 
L 397.699202 102.603859 
L 404.264545 104.831314 
L 410.829889 107.02292 
L 417.395232 109.178088 
L 423.960576 111.296229 
L 430.525919 113.376752 
L 437.091263 115.419071 
L 443.656606 117.422594 
L 450.221949 119.386734 
L 456.787293 121.310901 
L 463.352636 123.194507 
L 469.91798 125.036962 
L 476.483323 126.837677 
L 483.048667 128.596063 
L 489.61401 130.311531 
L 496.179354 131.983493 
L 502.744697 133.611358 
L 509.31004 135.194538 
L 515.875384 136.732445 
L 522.440727 138.224488 
L 529.006071 139.670079 
L 535.571414 141.068628 
L 542.136758 142.419548 
L 548.702101 143.722248 
L 555.267444 144.97614 
L 561.832788 146.180634 
L 568.398131 147.335142 
L 574.963475 148.439075 
L 581.528818 149.491843 
L 588.094162 150.492857 
L 594.659505 151.441529 
L 601.224848 152.337269 
L 607.790192 153.179489 
L 614.355535 153.967598 
L 620.920879 154.701009 
L 627.486222 155.379132 
L 634.051566 156.001379 
L 640.616909 156.567159 
L 647.182253 157.075884 
L 653.747596 157.526965 
L 660.312939 157.919814 
L 666.878283 158.25384 
L 673.443626 158.528455 
L 680.00897 158.74307 
L 686.574313 158.897095 
L 693.139657 158.989943 
L 699.705 159.021023 
" clip-path="url(#pebf8338a9a)" style="fill: none; stroke: #1f77b4; stroke-width: 1.5; stroke-linecap: square"/>
   </g>
   <g id="line2d_28">
    <defs>
     <path id="md0e69438e7" d="M 0 3 
C 0.795609 3 1.55874 2.683901 2.12132 2.12132 
C 2.683901 1.55874 3 0.795609 3 0 
C 3 -0.795609 2.683901 -1.55874 2.12132 -2.12132 
C 1.55874 -2.683901 0.795609 -3 0 -3 
C -0.795609 -3 -1.55874 -2.683901 -2.12132 -2.12132 
C -2.683901 -1.55874 -3 -0.795609 -3 0 
C -3 0.795609 -2.683901 1.55874 -2.12132 2.12132 
C -1.55874 2.683901 -0.795609 3 0 3 
z
" style="stroke: #1f77b4"/>
    </defs>
    <g clip-path="url(#pebf8338a9a)">
     <use xlink:href="#md0e69438e7" x="206.378529" y="17.858144" style="fill: #1f77b4; stroke: #1f77b4"/>
     <use xlink:href="#md0e69438e7" x="245.376669" y="25.429599" style="fill: #1f77b4; stroke: #1f77b4"/>
     <use xlink:href="#md0e69438e7" x="283.72484" y="28.581264" style="fill: #1f77b4; stroke: #1f77b4"/>
     <use xlink:href="#md0e69438e7" x="361.72112" y="89.786967" style="fill: #1f77b4; stroke: #1f77b4"/>
    </g>
   </g>
   <g id="line2d_29">
    <defs>
     <path id="m205c84dfb7" d="M -3 3 
L 3 -3 
M -3 -3 
L 3 3 
" style="stroke: #000000"/>
    </defs>
    <g clip-path="url(#pebf8338a9a)">
     <use xlink:href="#m205c84dfb7" x="206.378529" y="37.803147" style="stroke: #000000"/>
     <use xlink:href="#m205c84dfb7" x="245.376669" y="44.330263" style="stroke: #000000"/>
     <use xlink:href="#m205c84dfb7" x="283.72484" y="31.27603" style="stroke: #000000"/>
     <use xlink:href="#m205c84dfb7" x="361.72112" y="108.668982" style="stroke: #000000"/>
    </g>
   </g>
   <g id="line2d_30">
    <path d="M 49.736 27.182596 
L 56.301343 27.182596 
L 62.866687 27.182596 
L 69.43203 27.182596 
L 75.997374 27.182596 
L 82.562717 27.182596 
L 89.128061 27.182596 
L 95.693404 27.182596 
L 102.258747 27.182596 
L 108.824091 27.182596 
L 115.389434 27.182596 
L 121.954778 27.182596 
L 128.520121 27.182596 
L 135.085465 27.182596 
L 141.650808 27.182596 
L 148.216152 27.182596 
L 154.781495 27.182596 
L 161.346838 27.182596 
L 167.912182 27.182596 
L 174.477525 27.182596 
L 181.042869 27.182596 
L 187.608212 27.182596 
L 194.173556 27.182596 
L 200.738899 27.182596 
L 207.304242 27.192717 
L 213.869586 27.779272 
L 220.434929 29.050669 
L 227.000273 30.702182 
L 233.565616 32.429085 
L 240.13096 33.926652 
L 246.696303 34.900945 
L 253.261646 35.497496 
L 259.82699 35.944351 
L 266.392333 36.342223 
L 272.957677 36.791829 
L 279.52302 37.393883 
L 286.088364 38.350593 
L 292.653707 40.780936 
L 299.219051 44.726436 
L 305.784394 49.880013 
L 312.349737 55.934587 
L 318.915081 62.58308 
L 325.480424 69.51841 
L 332.045768 76.4335 
L 338.611111 83.021269 
L 345.176455 88.974638 
L 351.741798 93.986528 
L 358.307141 97.749858 
L 364.872485 100.156865 
L 371.437828 102.309388 
L 378.003172 104.427201 
L 384.568515 106.509985 
L 391.133859 108.55742 
L 397.699202 110.569185 
L 404.264545 112.544961 
L 410.829889 114.484429 
L 417.395232 116.387268 
L 423.960576 118.253159 
L 430.525919 120.081781 
L 437.091263 121.872816 
L 443.656606 123.625943 
L 450.221949 125.340843 
L 456.787293 127.017195 
L 463.352636 128.654681 
L 469.91798 130.25298 
L 476.483323 131.811772 
L 483.048667 133.330738 
L 489.61401 134.809557 
L 496.179354 136.247911 
L 502.744697 137.645479 
L 509.31004 139.001941 
L 515.875384 140.316978 
L 522.440727 141.59027 
L 529.006071 142.821498 
L 535.571414 144.01034 
L 542.136758 145.156478 
L 548.702101 146.259592 
L 555.267444 147.319362 
L 561.832788 148.335468 
L 568.398131 149.307591 
L 574.963475 150.23541 
L 581.528818 151.118606 
L 588.094162 151.956859 
L 594.659505 152.74985 
L 601.224848 153.497258 
L 607.790192 154.198763 
L 614.355535 154.854047 
L 620.920879 155.462789 
L 627.486222 156.024669 
L 634.051566 156.539367 
L 640.616909 157.006565 
L 647.182253 157.425941 
L 653.747596 157.797177 
L 660.312939 158.119952 
L 666.878283 158.393947 
L 673.443626 158.618841 
L 680.00897 158.794316 
L 686.574313 158.920051 
L 693.139657 158.995726 
L 699.705 159.021023 
" clip-path="url(#pebf8338a9a)" style="fill: none; stroke: #ff7f0e; stroke-width: 1.5; stroke-linecap: square"/>
   </g>
   <g id="line2d_31">
    <defs>
     <path id="mf0999ded1e" d="M 0 3 
C 0.795609 3 1.55874 2.683901 2.12132 2.12132 
C 2.683901 1.55874 3 0.795609 3 0 
C 3 -0.795609 2.683901 -1.55874 2.12132 -2.12132 
C 1.55874 -2.683901 0.795609 -3 0 -3 
C -0.795609 -3 -1.55874 -2.683901 -2.12132 -2.12132 
C -2.683901 -1.55874 -3 -0.795609 -3 0 
C -3 0.795609 -2.683901 1.55874 -2.12132 2.12132 
C -1.55874 2.683901 -0.795609 3 0 3 
z
" style="stroke: #ff7f0e"/>
    </defs>
    <g clip-path="url(#pebf8338a9a)">
     <use xlink:href="#mf0999ded1e" x="206.378529" y="27.182596" style="fill: #ff7f0e; stroke: #ff7f0e"/>
     <use xlink:href="#mf0999ded1e" x="245.376669" y="34.754051" style="fill: #ff7f0e; stroke: #ff7f0e"/>
     <use xlink:href="#mf0999ded1e" x="283.72484" y="37.905716" style="fill: #ff7f0e; stroke: #ff7f0e"/>
     <use xlink:href="#mf0999ded1e" x="361.72112" y="99.111419" style="fill: #ff7f0e; stroke: #ff7f0e"/>
    </g>
   </g>
   <g id="line2d_32">
    <g clip-path="url(#pebf8338a9a)">
     <use xlink:href="#m205c84dfb7" x="206.378529" y="37.803147" style="stroke: #000000"/>
     <use xlink:href="#m205c84dfb7" x="245.376669" y="44.330263" style="stroke: #000000"/>
     <use xlink:href="#m205c84dfb7" x="283.72484" y="31.27603" style="stroke: #000000"/>
     <use xlink:href="#m205c84dfb7" x="361.72112" y="108.668982" style="stroke: #000000"/>
    </g>
   </g>
   <g id="line2d_33">
    <path d="M 49.736 36.507048 
L 56.301343 36.507048 
L 62.866687 36.507048 
L 69.43203 36.507048 
L 75.997374 36.507048 
L 82.562717 36.507048 
L 89.128061 36.507048 
L 95.693404 36.507048 
L 102.258747 36.507048 
L 108.824091 36.507048 
L 115.389434 36.507048 
L 121.954778 36.507048 
L 128.520121 36.507048 
L 135.085465 36.507048 
L 141.650808 36.507048 
L 148.216152 36.507048 
L 154.781495 36.507048 
L 161.346838 36.507048 
L 167.912182 36.507048 
L 174.477525 36.507048 
L 181.042869 36.507048 
L 187.608212 36.507048 
L 194.173556 36.507048 
L 200.738899 36.507048 
L 207.304242 36.517169 
L 213.869586 37.103724 
L 220.434929 38.375121 
L 227.000273 40.026634 
L 233.565616 41.753537 
L 240.13096 43.251104 
L 246.696303 44.225397 
L 253.261646 44.821948 
L 259.82699 45.268803 
L 266.392333 45.666675 
L 272.957677 46.116281 
L 279.52302 46.718335 
L 286.088364 47.677833 
L 292.653707 50.141723 
L 299.219051 54.149901 
L 305.784394 59.384082 
L 312.349737 65.525984 
L 318.915081 72.257321 
L 325.480424 79.259811 
L 332.045768 86.21517 
L 338.611111 92.805115 
L 345.176455 98.71136 
L 351.741798 103.615624 
L 358.307141 107.199621 
L 364.872485 109.354744 
L 371.437828 111.243214 
L 378.003172 113.096673 
L 384.568515 114.915023 
L 391.133859 116.698169 
L 397.699202 118.446014 
L 404.264545 120.158463 
L 410.829889 121.835418 
L 417.395232 123.476784 
L 423.960576 125.082464 
L 430.525919 126.652361 
L 437.091263 128.18638 
L 443.656606 129.684424 
L 450.221949 131.146397 
L 456.787293 132.572203 
L 463.352636 133.961744 
L 469.91798 135.314926 
L 476.483323 136.631651 
L 483.048667 137.911823 
L 489.61401 139.155347 
L 496.179354 140.362125 
L 502.744697 141.532061 
L 509.31004 142.665059 
L 515.875384 143.761023 
L 522.440727 144.819856 
L 529.006071 145.841462 
L 535.571414 146.825745 
L 542.136758 147.772609 
L 548.702101 148.681956 
L 555.267444 149.553691 
L 561.832788 150.387718 
L 568.398131 151.183939 
L 574.963475 151.94226 
L 581.528818 152.662583 
L 588.094162 153.344812 
L 594.659505 153.988851 
L 601.224848 154.594604 
L 607.790192 155.161974 
L 614.355535 155.690865 
L 620.920879 156.18118 
L 627.486222 156.632824 
L 634.051566 157.045699 
L 640.616909 157.41971 
L 647.182253 157.754761 
L 653.747596 158.050754 
L 660.312939 158.307595 
L 666.878283 158.525185 
L 673.443626 158.70343 
L 680.00897 158.842232 
L 686.574313 158.941496 
L 693.139657 159.001125 
L 699.705 159.021023 
" clip-path="url(#pebf8338a9a)" style="fill: none; stroke: #2ca02c; stroke-width: 1.5; stroke-linecap: square"/>
   </g>
   <g id="line2d_34">
    <defs>
     <path id="m23fd9511a0" d="M 0 3 
C 0.795609 3 1.55874 2.683901 2.12132 2.12132 
C 2.683901 1.55874 3 0.795609 3 0 
C 3 -0.795609 2.683901 -1.55874 2.12132 -2.12132 
C 1.55874 -2.683901 0.795609 -3 0 -3 
C -0.795609 -3 -1.55874 -2.683901 -2.12132 -2.12132 
C -2.683901 -1.55874 -3 -0.795609 -3 0 
C -3 0.795609 -2.683901 1.55874 -2.12132 2.12132 
C -1.55874 2.683901 -0.795609 3 0 3 
z
" style="stroke: #2ca02c"/>
    </defs>
    <g clip-path="url(#pebf8338a9a)">
     <use xlink:href="#m23fd9511a0" x="206.378529" y="36.507048" style="fill: #2ca02c; stroke: #2ca02c"/>
     <use xlink:href="#m23fd9511a0" x="245.376669" y="44.078503" style="fill: #2ca02c; stroke: #2ca02c"/>
     <use xlink:href="#m23fd9511a0" x="283.72484" y="47.230168" style="fill: #2ca02c; stroke: #2ca02c"/>
     <use xlink:href="#m23fd9511a0" x="361.72112" y="108.435871" style="fill: #2ca02c; stroke: #2ca02c"/>
    </g>
   </g>
   <g id="line2d_35">
    <g clip-path="url(#pebf8338a9a)">
     <use xlink:href="#m205c84dfb7" x="206.378529" y="37.803147" style="stroke: #000000"/>
     <use xlink:href="#m205c84dfb7" x="245.376669" y="44.330263" style="stroke: #000000"/>
     <use xlink:href="#m205c84dfb7" x="283.72484" y="31.27603" style="stroke: #000000"/>
     <use xlink:href="#m205c84dfb7" x="361.72112" y="108.668982" style="stroke: #000000"/>
    </g>
   </g>
   <g id="patch_3">
    <path d="M 49.736 166.079167 
L 49.736 10.8 
" style="fill: none; stroke: #000000; stroke-width: 0.8; stroke-linejoin: miter; stroke-linecap: square"/>
   </g>
   <g id="patch_4">
    <path d="M 699.705 166.079167 
L 699.705 10.8 
" style="fill: none; stroke: #000000; stroke-width: 0.8; stroke-linejoin: miter; stroke-linecap: square"/>
   </g>
   <g id="patch_5">
    <path d="M 49.736 166.079167 
L 699.705 166.079167 
" style="fill: none; stroke: #000000; stroke-width: 0.8; stroke-linejoin: miter; stroke-linecap: square"/>
   </g>
   <g id="patch_6">
    <path d="M 49.736 10.8 
L 699.705 10.8 
" style="fill: none; stroke: #000000; stroke-width: 0.8; stroke-linejoin: miter; stroke-linecap: square"/>
   </g>
   <g id="legend_1">
    <g id="patch_7">
     <path d="M 591.765937 77.5125 
L 692.705 77.5125 
Q 694.705 77.5125 694.705 75.5125 
L 694.705 17.8 
Q 694.705 15.8 692.705 15.8 
L 591.765937 15.8 
Q 589.765937 15.8 589.765937 17.8 
L 589.765937 75.5125 
Q 589.765937 77.5125 591.765937 77.5125 
z
" style="fill: #ffffff; opacity: 0.8; stroke: #cccccc; stroke-linejoin: miter"/>
    </g>
    <g id="line2d_36">
     <path d="M 593.765937 23.898438 
L 603.765937 23.898438 
L 613.765937 23.898438 
" style="fill: none; stroke: #1f77b4; stroke-width: 1.5; stroke-linecap: square"/>
    </g>
    <g id="text_15">
     <!-- Design func 1 -->
     <g transform="translate(621.765937 27.398438) scale(0.1 -0.1)">
      <defs>
       <path id="DejaVuSans-44" d="M 1259 4147 
L 1259 519 
L 2022 519 
Q 2988 519 3436 956 
Q 3884 1394 3884 2338 
Q 3884 3275 3436 3711 
Q 2988 4147 2022 4147 
L 1259 4147 
z
M 628 4666 
L 1925 4666 
Q 3281 4666 3915 4102 
Q 4550 3538 4550 2338 
Q 4550 1131 3912 565 
Q 3275 0 1925 0 
L 628 0 
L 628 4666 
z
" transform="scale(0.015625)"/>
       <path id="DejaVuSans-65" d="M 3597 1894 
L 3597 1613 
L 953 1613 
Q 991 1019 1311 708 
Q 1631 397 2203 397 
Q 2534 397 2845 478 
Q 3156 559 3463 722 
L 3463 178 
Q 3153 47 2828 -22 
Q 2503 -91 2169 -91 
Q 1331 -91 842 396 
Q 353 884 353 1716 
Q 353 2575 817 3079 
Q 1281 3584 2069 3584 
Q 2775 3584 3186 3129 
Q 3597 2675 3597 1894 
z
M 3022 2063 
Q 3016 2534 2758 2815 
Q 2500 3097 2075 3097 
Q 1594 3097 1305 2825 
Q 1016 2553 972 2059 
L 3022 2063 
z
" transform="scale(0.015625)"/>
       <path id="DejaVuSans-73" d="M 2834 3397 
L 2834 2853 
Q 2591 2978 2328 3040 
Q 2066 3103 1784 3103 
Q 1356 3103 1142 2972 
Q 928 2841 928 2578 
Q 928 2378 1081 2264 
Q 1234 2150 1697 2047 
L 1894 2003 
Q 2506 1872 2764 1633 
Q 3022 1394 3022 966 
Q 3022 478 2636 193 
Q 2250 -91 1575 -91 
Q 1294 -91 989 -36 
Q 684 19 347 128 
L 347 722 
Q 666 556 975 473 
Q 1284 391 1588 391 
Q 1994 391 2212 530 
Q 2431 669 2431 922 
Q 2431 1156 2273 1281 
Q 2116 1406 1581 1522 
L 1381 1569 
Q 847 1681 609 1914 
Q 372 2147 372 2553 
Q 372 3047 722 3315 
Q 1072 3584 1716 3584 
Q 2034 3584 2315 3537 
Q 2597 3491 2834 3397 
z
" transform="scale(0.015625)"/>
       <path id="DejaVuSans-69" d="M 603 3500 
L 1178 3500 
L 1178 0 
L 603 0 
L 603 3500 
z
M 603 4863 
L 1178 4863 
L 1178 4134 
L 603 4134 
L 603 4863 
z
" transform="scale(0.015625)"/>
       <path id="DejaVuSans-67" d="M 2906 1791 
Q 2906 2416 2648 2759 
Q 2391 3103 1925 3103 
Q 1463 3103 1205 2759 
Q 947 2416 947 1791 
Q 947 1169 1205 825 
Q 1463 481 1925 481 
Q 2391 481 2648 825 
Q 2906 1169 2906 1791 
z
M 3481 434 
Q 3481 -459 3084 -895 
Q 2688 -1331 1869 -1331 
Q 1566 -1331 1297 -1286 
Q 1028 -1241 775 -1147 
L 775 -588 
Q 1028 -725 1275 -790 
Q 1522 -856 1778 -856 
Q 2344 -856 2625 -561 
Q 2906 -266 2906 331 
L 2906 616 
Q 2728 306 2450 153 
Q 2172 0 1784 0 
Q 1141 0 747 490 
Q 353 981 353 1791 
Q 353 2603 747 3093 
Q 1141 3584 1784 3584 
Q 2172 3584 2450 3431 
Q 2728 3278 2906 2969 
L 2906 3500 
L 3481 3500 
L 3481 434 
z
" transform="scale(0.015625)"/>
       <path id="DejaVuSans-6e" d="M 3513 2113 
L 3513 0 
L 2938 0 
L 2938 2094 
Q 2938 2591 2744 2837 
Q 2550 3084 2163 3084 
Q 1697 3084 1428 2787 
Q 1159 2491 1159 1978 
L 1159 0 
L 581 0 
L 581 3500 
L 1159 3500 
L 1159 2956 
Q 1366 3272 1645 3428 
Q 1925 3584 2291 3584 
Q 2894 3584 3203 3211 
Q 3513 2838 3513 2113 
z
" transform="scale(0.015625)"/>
       <path id="DejaVuSans-66" d="M 2375 4863 
L 2375 4384 
L 1825 4384 
Q 1516 4384 1395 4259 
Q 1275 4134 1275 3809 
L 1275 3500 
L 2222 3500 
L 2222 3053 
L 1275 3053 
L 1275 0 
L 697 0 
L 697 3053 
L 147 3053 
L 147 3500 
L 697 3500 
L 697 3744 
Q 697 4328 969 4595 
Q 1241 4863 1831 4863 
L 2375 4863 
z
" transform="scale(0.015625)"/>
       <path id="DejaVuSans-75" d="M 544 1381 
L 544 3500 
L 1119 3500 
L 1119 1403 
Q 1119 906 1312 657 
Q 1506 409 1894 409 
Q 2359 409 2629 706 
Q 2900 1003 2900 1516 
L 2900 3500 
L 3475 3500 
L 3475 0 
L 2900 0 
L 2900 538 
Q 2691 219 2414 64 
Q 2138 -91 1772 -91 
Q 1169 -91 856 284 
Q 544 659 544 1381 
z
M 1991 3584 
L 1991 3584 
z
" transform="scale(0.015625)"/>
       <path id="DejaVuSans-63" d="M 3122 3366 
L 3122 2828 
Q 2878 2963 2633 3030 
Q 2388 3097 2138 3097 
Q 1578 3097 1268 2742 
Q 959 2388 959 1747 
Q 959 1106 1268 751 
Q 1578 397 2138 397 
Q 2388 397 2633 464 
Q 2878 531 3122 666 
L 3122 134 
Q 2881 22 2623 -34 
Q 2366 -91 2075 -91 
Q 1284 -91 818 406 
Q 353 903 353 1747 
Q 353 2603 823 3093 
Q 1294 3584 2113 3584 
Q 2378 3584 2631 3529 
Q 2884 3475 3122 3366 
z
" transform="scale(0.015625)"/>
      </defs>
      <use xlink:href="#DejaVuSans-44"/>
      <use xlink:href="#DejaVuSans-65" x="77.001953"/>
      <use xlink:href="#DejaVuSans-73" x="138.525391"/>
      <use xlink:href="#DejaVuSans-69" x="190.625"/>
      <use xlink:href="#DejaVuSans-67" x="218.408203"/>
      <use xlink:href="#DejaVuSans-6e" x="281.884766"/>
      <use xlink:href="#DejaVuSans-20" x="345.263672"/>
      <use xlink:href="#DejaVuSans-66" x="377.050781"/>
      <use xlink:href="#DejaVuSans-75" x="412.255859"/>
      <use xlink:href="#DejaVuSans-6e" x="475.634766"/>
      <use xlink:href="#DejaVuSans-63" x="539.013672"/>
      <use xlink:href="#DejaVuSans-20" x="593.994141"/>
      <use xlink:href="#DejaVuSans-31" x="625.78125"/>
     </g>
    </g>
    <g id="line2d_37">
     <path d="M 593.765937 38.576563 
L 603.765937 38.576563 
L 613.765937 38.576563 
" style="fill: none; stroke: #ff7f0e; stroke-width: 1.5; stroke-linecap: square"/>
    </g>
    <g id="text_16">
     <!-- Design func 2 -->
     <g transform="translate(621.765937 42.076563) scale(0.1 -0.1)">
      <use xlink:href="#DejaVuSans-44"/>
      <use xlink:href="#DejaVuSans-65" x="77.001953"/>
      <use xlink:href="#DejaVuSans-73" x="138.525391"/>
      <use xlink:href="#DejaVuSans-69" x="190.625"/>
      <use xlink:href="#DejaVuSans-67" x="218.408203"/>
      <use xlink:href="#DejaVuSans-6e" x="281.884766"/>
      <use xlink:href="#DejaVuSans-20" x="345.263672"/>
      <use xlink:href="#DejaVuSans-66" x="377.050781"/>
      <use xlink:href="#DejaVuSans-75" x="412.255859"/>
      <use xlink:href="#DejaVuSans-6e" x="475.634766"/>
      <use xlink:href="#DejaVuSans-63" x="539.013672"/>
      <use xlink:href="#DejaVuSans-20" x="593.994141"/>
      <use xlink:href="#DejaVuSans-32" x="625.78125"/>
     </g>
    </g>
    <g id="line2d_38">
     <path d="M 593.765937 53.254688 
L 603.765937 53.254688 
L 613.765937 53.254688 
" style="fill: none; stroke: #2ca02c; stroke-width: 1.5; stroke-linecap: square"/>
    </g>
    <g id="text_17">
     <!-- Design func 3 -->
     <g transform="translate(621.765937 56.754688) scale(0.1 -0.1)">
      <defs>
       <path id="DejaVuSans-33" d="M 2597 2516 
Q 3050 2419 3304 2112 
Q 3559 1806 3559 1356 
Q 3559 666 3084 287 
Q 2609 -91 1734 -91 
Q 1441 -91 1130 -33 
Q 819 25 488 141 
L 488 750 
Q 750 597 1062 519 
Q 1375 441 1716 441 
Q 2309 441 2620 675 
Q 2931 909 2931 1356 
Q 2931 1769 2642 2001 
Q 2353 2234 1838 2234 
L 1294 2234 
L 1294 2753 
L 1863 2753 
Q 2328 2753 2575 2939 
Q 2822 3125 2822 3475 
Q 2822 3834 2567 4026 
Q 2313 4219 1838 4219 
Q 1578 4219 1281 4162 
Q 984 4106 628 3988 
L 628 4550 
Q 988 4650 1302 4700 
Q 1616 4750 1894 4750 
Q 2613 4750 3031 4423 
Q 3450 4097 3450 3541 
Q 3450 3153 3228 2886 
Q 3006 2619 2597 2516 
z
" transform="scale(0.015625)"/>
      </defs>
      <use xlink:href="#DejaVuSans-44"/>
      <use xlink:href="#DejaVuSans-65" x="77.001953"/>
      <use xlink:href="#DejaVuSans-73" x="138.525391"/>
      <use xlink:href="#DejaVuSans-69" x="190.625"/>
      <use xlink:href="#DejaVuSans-67" x="218.408203"/>
      <use xlink:href="#DejaVuSans-6e" x="281.884766"/>
      <use xlink:href="#DejaVuSans-20" x="345.263672"/>
      <use xlink:href="#DejaVuSans-66" x="377.050781"/>
      <use xlink:href="#DejaVuSans-75" x="412.255859"/>
      <use xlink:href="#DejaVuSans-6e" x="475.634766"/>
      <use xlink:href="#DejaVuSans-63" x="539.013672"/>
      <use xlink:href="#DejaVuSans-20" x="593.994141"/>
      <use xlink:href="#DejaVuSans-33" x="625.78125"/>
     </g>
    </g>
    <g id="line2d_39">
     <g>
      <use xlink:href="#m205c84dfb7" x="603.765937" y="67.932813" style="stroke: #000000"/>
     </g>
    </g>
    <g id="text_18">
     <!-- Design points -->
     <g transform="translate(621.765937 71.432813) scale(0.1 -0.1)">
      <defs>
       <path id="DejaVuSans-70" d="M 1159 525 
L 1159 -1331 
L 581 -1331 
L 581 3500 
L 1159 3500 
L 1159 2969 
Q 1341 3281 1617 3432 
Q 1894 3584 2278 3584 
Q 2916 3584 3314 3078 
Q 3713 2572 3713 1747 
Q 3713 922 3314 415 
Q 2916 -91 2278 -91 
Q 1894 -91 1617 61 
Q 1341 213 1159 525 
z
M 3116 1747 
Q 3116 2381 2855 2742 
Q 2594 3103 2138 3103 
Q 1681 3103 1420 2742 
Q 1159 2381 1159 1747 
Q 1159 1113 1420 752 
Q 1681 391 2138 391 
Q 2594 391 2855 752 
Q 3116 1113 3116 1747 
z
" transform="scale(0.015625)"/>
       <path id="DejaVuSans-6f" d="M 1959 3097 
Q 1497 3097 1228 2736 
Q 959 2375 959 1747 
Q 959 1119 1226 758 
Q 1494 397 1959 397 
Q 2419 397 2687 759 
Q 2956 1122 2956 1747 
Q 2956 2369 2687 2733 
Q 2419 3097 1959 3097 
z
M 1959 3584 
Q 2709 3584 3137 3096 
Q 3566 2609 3566 1747 
Q 3566 888 3137 398 
Q 2709 -91 1959 -91 
Q 1206 -91 779 398 
Q 353 888 353 1747 
Q 353 2609 779 3096 
Q 1206 3584 1959 3584 
z
" transform="scale(0.015625)"/>
       <path id="DejaVuSans-74" d="M 1172 4494 
L 1172 3500 
L 2356 3500 
L 2356 3053 
L 1172 3053 
L 1172 1153 
Q 1172 725 1289 603 
Q 1406 481 1766 481 
L 2356 481 
L 2356 0 
L 1766 0 
Q 1100 0 847 248 
Q 594 497 594 1153 
L 594 3053 
L 172 3053 
L 172 3500 
L 594 3500 
L 594 4494 
L 1172 4494 
z
" transform="scale(0.015625)"/>
      </defs>
      <use xlink:href="#DejaVuSans-44"/>
      <use xlink:href="#DejaVuSans-65" x="77.001953"/>
      <use xlink:href="#DejaVuSans-73" x="138.525391"/>
      <use xlink:href="#DejaVuSans-69" x="190.625"/>
      <use xlink:href="#DejaVuSans-67" x="218.408203"/>
      <use xlink:href="#DejaVuSans-6e" x="281.884766"/>
      <use xlink:href="#DejaVuSans-20" x="345.263672"/>
      <use xlink:href="#DejaVuSans-70" x="377.050781"/>
      <use xlink:href="#DejaVuSans-6f" x="440.527344"/>
      <use xlink:href="#DejaVuSans-69" x="501.708984"/>
      <use xlink:href="#DejaVuSans-6e" x="529.492188"/>
      <use xlink:href="#DejaVuSans-74" x="592.871094"/>
      <use xlink:href="#DejaVuSans-73" x="632.080078"/>
     </g>
    </g>
   </g>
  </g>
  <g id="axes_2">
   <g id="patch_8">
    <path d="M 49.736 349.238333 
L 699.705 349.238333 
L 699.705 193.959167 
L 49.736 193.959167 
z
" style="fill: #ffffff"/>
   </g>
   <g id="matplotlib.axis_3">
    <g id="xtick_7">
     <g id="line2d_40">
      <path d="M 49.736 349.238333 
L 49.736 193.959167 
" clip-path="url(#p8a81fb4704)" style="fill: none; stroke-dasharray: 0.8,1.32; stroke-dashoffset: 0; stroke: #b0b0b0; stroke-width: 0.8"/>
     </g>
     <g id="line2d_41">
      <g>
       <use xlink:href="#m3b086f6f84" x="49.736" y="349.238333" style="stroke: #000000; stroke-width: 0.8"/>
      </g>
     </g>
     <g id="text_19">
      <!-- 0 -->
      <g transform="translate(46.55475 363.836771) scale(0.1 -0.1)">
       <use xlink:href="#DejaVuSans-30"/>
      </g>
     </g>
    </g>
    <g id="xtick_8">
     <g id="line2d_42">
      <path d="M 179.7298 349.238333 
L 179.7298 193.959167 
" clip-path="url(#p8a81fb4704)" style="fill: none; stroke-dasharray: 0.8,1.32; stroke-dashoffset: 0; stroke: #b0b0b0; stroke-width: 0.8"/>
     </g>
     <g id="line2d_43">
      <g>
       <use xlink:href="#m3b086f6f84" x="179.7298" y="349.238333" style="stroke: #000000; stroke-width: 0.8"/>
      </g>
     </g>
     <g id="text_20">
      <!-- 20 -->
      <g transform="translate(173.3673 363.836771) scale(0.1 -0.1)">
       <use xlink:href="#DejaVuSans-32"/>
       <use xlink:href="#DejaVuSans-30" x="63.623047"/>
      </g>
     </g>
    </g>
    <g id="xtick_9">
     <g id="line2d_44">
      <path d="M 309.7236 349.238333 
L 309.7236 193.959167 
" clip-path="url(#p8a81fb4704)" style="fill: none; stroke-dasharray: 0.8,1.32; stroke-dashoffset: 0; stroke: #b0b0b0; stroke-width: 0.8"/>
     </g>
     <g id="line2d_45">
      <g>
       <use xlink:href="#m3b086f6f84" x="309.7236" y="349.238333" style="stroke: #000000; stroke-width: 0.8"/>
      </g>
     </g>
     <g id="text_21">
      <!-- 40 -->
      <g transform="translate(303.3611 363.836771) scale(0.1 -0.1)">
       <use xlink:href="#DejaVuSans-34"/>
       <use xlink:href="#DejaVuSans-30" x="63.623047"/>
      </g>
     </g>
    </g>
    <g id="xtick_10">
     <g id="line2d_46">
      <path d="M 439.7174 349.238333 
L 439.7174 193.959167 
" clip-path="url(#p8a81fb4704)" style="fill: none; stroke-dasharray: 0.8,1.32; stroke-dashoffset: 0; stroke: #b0b0b0; stroke-width: 0.8"/>
     </g>
     <g id="line2d_47">
      <g>
       <use xlink:href="#m3b086f6f84" x="439.7174" y="349.238333" style="stroke: #000000; stroke-width: 0.8"/>
      </g>
     </g>
     <g id="text_22">
      <!-- 60 -->
      <g transform="translate(433.3549 363.836771) scale(0.1 -0.1)">
       <use xlink:href="#DejaVuSans-36"/>
       <use xlink:href="#DejaVuSans-30" x="63.623047"/>
      </g>
     </g>
    </g>
    <g id="xtick_11">
     <g id="line2d_48">
      <path d="M 569.7112 349.238333 
L 569.7112 193.959167 
" clip-path="url(#p8a81fb4704)" style="fill: none; stroke-dasharray: 0.8,1.32; stroke-dashoffset: 0; stroke: #b0b0b0; stroke-width: 0.8"/>
     </g>
     <g id="line2d_49">
      <g>
       <use xlink:href="#m3b086f6f84" x="569.7112" y="349.238333" style="stroke: #000000; stroke-width: 0.8"/>
      </g>
     </g>
     <g id="text_23">
      <!-- 80 -->
      <g transform="translate(563.3487 363.836771) scale(0.1 -0.1)">
       <use xlink:href="#DejaVuSans-38"/>
       <use xlink:href="#DejaVuSans-30" x="63.623047"/>
      </g>
     </g>
    </g>
    <g id="xtick_12">
     <g id="line2d_50">
      <path d="M 699.705 349.238333 
L 699.705 193.959167 
" clip-path="url(#p8a81fb4704)" style="fill: none; stroke-dasharray: 0.8,1.32; stroke-dashoffset: 0; stroke: #b0b0b0; stroke-width: 0.8"/>
     </g>
     <g id="line2d_51">
      <g>
       <use xlink:href="#m3b086f6f84" x="699.705" y="349.238333" style="stroke: #000000; stroke-width: 0.8"/>
      </g>
     </g>
     <g id="text_24">
      <!-- 100 -->
      <g transform="translate(690.16125 363.836771) scale(0.1 -0.1)">
       <use xlink:href="#DejaVuSans-31"/>
       <use xlink:href="#DejaVuSans-30" x="63.623047"/>
       <use xlink:href="#DejaVuSans-30" x="127.246094"/>
      </g>
     </g>
    </g>
   </g>
   <g id="matplotlib.axis_4">
    <g id="ytick_8">
     <g id="line2d_52">
      <path d="M 49.736 345.203278 
L 699.705 345.203278 
" clip-path="url(#p8a81fb4704)" style="fill: none; stroke-dasharray: 0.8,1.32; stroke-dashoffset: 0; stroke: #b0b0b0; stroke-width: 0.8"/>
     </g>
     <g id="line2d_53">
      <g>
       <use xlink:href="#mab0ab2d2ea" x="49.736" y="345.203278" style="stroke: #000000; stroke-width: 0.8"/>
      </g>
     </g>
     <g id="text_25">
      <!-- 0.0 -->
      <g transform="translate(26.832875 349.002497) scale(0.1 -0.1)">
       <use xlink:href="#DejaVuSans-30"/>
       <use xlink:href="#DejaVuSans-2e" x="63.623047"/>
       <use xlink:href="#DejaVuSans-30" x="95.410156"/>
      </g>
     </g>
    </g>
    <g id="ytick_9">
     <g id="line2d_54">
      <path d="M 49.736 321.172284 
L 699.705 321.172284 
" clip-path="url(#p8a81fb4704)" style="fill: none; stroke-dasharray: 0.8,1.32; stroke-dashoffset: 0; stroke: #b0b0b0; stroke-width: 0.8"/>
     </g>
     <g id="line2d_55">
      <g>
       <use xlink:href="#mab0ab2d2ea" x="49.736" y="321.172284" style="stroke: #000000; stroke-width: 0.8"/>
      </g>
     </g>
     <g id="text_26">
      <!-- 0.1 -->
      <g transform="translate(26.832875 324.971502) scale(0.1 -0.1)">
       <use xlink:href="#DejaVuSans-30"/>
       <use xlink:href="#DejaVuSans-2e" x="63.623047"/>
       <use xlink:href="#DejaVuSans-31" x="95.410156"/>
      </g>
     </g>
    </g>
    <g id="ytick_10">
     <g id="line2d_56">
      <path d="M 49.736 297.141289 
L 699.705 297.141289 
" clip-path="url(#p8a81fb4704)" style="fill: none; stroke-dasharray: 0.8,1.32; stroke-dashoffset: 0; stroke: #b0b0b0; stroke-width: 0.8"/>
     </g>
     <g id="line2d_57">
      <g>
       <use xlink:href="#mab0ab2d2ea" x="49.736" y="297.141289" style="stroke: #000000; stroke-width: 0.8"/>
      </g>
     </g>
     <g id="text_27">
      <!-- 0.2 -->
      <g transform="translate(26.832875 300.940508) scale(0.1 -0.1)">
       <use xlink:href="#DejaVuSans-30"/>
       <use xlink:href="#DejaVuSans-2e" x="63.623047"/>
       <use xlink:href="#DejaVuSans-32" x="95.410156"/>
      </g>
     </g>
    </g>
    <g id="ytick_11">
     <g id="line2d_58">
      <path d="M 49.736 273.110294 
L 699.705 273.110294 
" clip-path="url(#p8a81fb4704)" style="fill: none; stroke-dasharray: 0.8,1.32; stroke-dashoffset: 0; stroke: #b0b0b0; stroke-width: 0.8"/>
     </g>
     <g id="line2d_59">
      <g>
       <use xlink:href="#mab0ab2d2ea" x="49.736" y="273.110294" style="stroke: #000000; stroke-width: 0.8"/>
      </g>
     </g>
     <g id="text_28">
      <!-- 0.3 -->
      <g transform="translate(26.832875 276.909513) scale(0.1 -0.1)">
       <use xlink:href="#DejaVuSans-30"/>
       <use xlink:href="#DejaVuSans-2e" x="63.623047"/>
       <use xlink:href="#DejaVuSans-33" x="95.410156"/>
      </g>
     </g>
    </g>
    <g id="ytick_12">
     <g id="line2d_60">
      <path d="M 49.736 249.0793 
L 699.705 249.0793 
" clip-path="url(#p8a81fb4704)" style="fill: none; stroke-dasharray: 0.8,1.32; stroke-dashoffset: 0; stroke: #b0b0b0; stroke-width: 0.8"/>
     </g>
     <g id="line2d_61">
      <g>
       <use xlink:href="#mab0ab2d2ea" x="49.736" y="249.0793" style="stroke: #000000; stroke-width: 0.8"/>
      </g>
     </g>
     <g id="text_29">
      <!-- 0.4 -->
      <g transform="translate(26.832875 252.878519) scale(0.1 -0.1)">
       <use xlink:href="#DejaVuSans-30"/>
       <use xlink:href="#DejaVuSans-2e" x="63.623047"/>
       <use xlink:href="#DejaVuSans-34" x="95.410156"/>
      </g>
     </g>
    </g>
    <g id="ytick_13">
     <g id="line2d_62">
      <path d="M 49.736 225.048305 
L 699.705 225.048305 
" clip-path="url(#p8a81fb4704)" style="fill: none; stroke-dasharray: 0.8,1.32; stroke-dashoffset: 0; stroke: #b0b0b0; stroke-width: 0.8"/>
     </g>
     <g id="line2d_63">
      <g>
       <use xlink:href="#mab0ab2d2ea" x="49.736" y="225.048305" style="stroke: #000000; stroke-width: 0.8"/>
      </g>
     </g>
     <g id="text_30">
      <!-- 0.5 -->
      <g transform="translate(26.832875 228.847524) scale(0.1 -0.1)">
       <use xlink:href="#DejaVuSans-30"/>
       <use xlink:href="#DejaVuSans-2e" x="63.623047"/>
       <use xlink:href="#DejaVuSans-35" x="95.410156"/>
      </g>
     </g>
    </g>
    <g id="ytick_14">
     <g id="line2d_64">
      <path d="M 49.736 201.017311 
L 699.705 201.017311 
" clip-path="url(#p8a81fb4704)" style="fill: none; stroke-dasharray: 0.8,1.32; stroke-dashoffset: 0; stroke: #b0b0b0; stroke-width: 0.8"/>
     </g>
     <g id="line2d_65">
      <g>
       <use xlink:href="#mab0ab2d2ea" x="49.736" y="201.017311" style="stroke: #000000; stroke-width: 0.8"/>
      </g>
     </g>
     <g id="text_31">
      <!-- 0.6 -->
      <g transform="translate(26.832875 204.816529) scale(0.1 -0.1)">
       <use xlink:href="#DejaVuSans-30"/>
       <use xlink:href="#DejaVuSans-2e" x="63.623047"/>
       <use xlink:href="#DejaVuSans-36" x="95.410156"/>
      </g>
     </g>
    </g>
    <g id="text_32">
     <!-- $C_d$ [-] -->
     <g transform="translate(20.753188 284.74875) rotate(-90) scale(0.1 -0.1)">
      <defs>
       <path id="DejaVuSans-Oblique-64" d="M 2675 525 
Q 2444 222 2128 65 
Q 1813 -91 1428 -91 
Q 903 -91 598 267 
Q 294 625 294 1247 
Q 294 1766 478 2236 
Q 663 2706 1013 3078 
Q 1244 3325 1534 3454 
Q 1825 3584 2144 3584 
Q 2481 3584 2739 3421 
Q 2997 3259 3138 2956 
L 3513 4863 
L 4091 4863 
L 3144 0 
L 2566 0 
L 2675 525 
z
M 891 1350 
Q 891 897 1095 644 
Q 1300 391 1663 391 
Q 1931 391 2161 520 
Q 2391 650 2566 903 
Q 2750 1166 2856 1509 
Q 2963 1853 2963 2188 
Q 2963 2622 2758 2865 
Q 2553 3109 2194 3109 
Q 1922 3109 1687 2981 
Q 1453 2853 1288 2613 
Q 1106 2353 998 2009 
Q 891 1666 891 1350 
z
" transform="scale(0.015625)"/>
      </defs>
      <use xlink:href="#DejaVuSans-Oblique-43" transform="translate(0 0.015625)"/>
      <use xlink:href="#DejaVuSans-Oblique-64" transform="translate(69.824219 -16.390625) scale(0.7)"/>
      <use xlink:href="#DejaVuSans-20" transform="translate(116.992188 0.015625)"/>
      <use xlink:href="#DejaVuSans-5b" transform="translate(148.779297 0.015625)"/>
      <use xlink:href="#DejaVuSans-2d" transform="translate(187.792969 0.015625)"/>
      <use xlink:href="#DejaVuSans-5d" transform="translate(223.876953 0.015625)"/>
     </g>
    </g>
   </g>
   <g id="line2d_66">
    <path d="M 49.736 341.706285 
L 56.301343 341.706285 
L 62.866687 341.706285 
L 69.43203 341.706285 
L 75.997374 341.706285 
L 82.562717 341.706285 
L 89.128061 341.706285 
L 95.693404 341.706285 
L 102.258747 341.706285 
L 108.824091 341.706285 
L 115.389434 341.706285 
L 121.954778 341.706285 
L 128.520121 341.706285 
L 135.085465 341.706285 
L 141.650808 341.706285 
L 148.216152 341.706285 
L 154.781495 341.706285 
L 161.346838 341.706285 
L 167.912182 341.706285 
L 174.477525 341.706285 
L 181.042869 341.706285 
L 187.608212 341.706285 
L 194.173556 341.706285 
L 200.738899 341.706285 
L 207.304242 341.705699 
L 213.869586 341.670697 
L 220.434929 341.590674 
L 227.000273 341.478317 
L 233.565616 341.346313 
L 240.13096 341.207348 
L 246.696303 341.073254 
L 253.261646 340.926869 
L 259.82699 340.760505 
L 266.392333 340.579192 
L 272.957677 340.387958 
L 279.52302 340.191832 
L 286.088364 339.996295 
L 292.653707 339.808638 
L 299.219051 339.626747 
L 305.784394 339.446454 
L 312.349737 339.263588 
L 318.915081 339.07398 
L 325.480424 338.873459 
L 332.045768 338.657856 
L 338.611111 338.423001 
L 345.176455 338.164724 
L 351.741798 337.878856 
L 358.307141 337.561225 
L 364.872485 337.17994 
L 371.437828 336.556045 
L 378.003172 335.667504 
L 384.568515 334.525509 
L 391.133859 333.141252 
L 397.699202 331.525926 
L 404.264545 329.690723 
L 410.829889 327.646835 
L 417.395232 325.405454 
L 423.960576 322.977774 
L 430.525919 320.374986 
L 437.091263 317.608282 
L 443.656606 314.688856 
L 450.221949 311.627898 
L 456.787293 308.436603 
L 463.352636 305.126161 
L 469.91798 301.707765 
L 476.483323 298.192607 
L 483.048667 294.591881 
L 489.61401 290.916777 
L 496.179354 287.17849 
L 502.744697 283.388209 
L 509.31004 279.557129 
L 515.875384 275.696442 
L 522.440727 271.817339 
L 529.006071 267.931013 
L 535.571414 264.048656 
L 542.136758 260.181461 
L 548.702101 256.34062 
L 555.267444 252.537325 
L 561.832788 248.782769 
L 568.398131 245.088144 
L 574.963475 241.464643 
L 581.528818 237.923456 
L 588.094162 234.475778 
L 594.659505 231.1328 
L 601.224848 227.905714 
L 607.790192 224.805713 
L 614.355535 221.84399 
L 620.920879 219.031736 
L 627.486222 216.380144 
L 634.051566 213.900405 
L 640.616909 211.603714 
L 647.182253 209.501261 
L 653.747596 207.604239 
L 660.312939 205.92384 
L 666.878283 204.471258 
L 673.443626 203.257683 
L 680.00897 202.294308 
L 686.574313 201.592327 
L 693.139657 201.16293 
L 699.705 201.017311 
" clip-path="url(#p8a81fb4704)" style="fill: none; stroke: #1f77b4; stroke-width: 1.5; stroke-linecap: square"/>
   </g>
   <g id="line2d_67">
    <g clip-path="url(#p8a81fb4704)">
     <use xlink:href="#md0e69438e7" x="206.378529" y="341.706285" style="fill: #1f77b4; stroke: #1f77b4"/>
     <use xlink:href="#md0e69438e7" x="245.376669" y="341.09982" style="fill: #1f77b4; stroke: #1f77b4"/>
     <use xlink:href="#md0e69438e7" x="283.72484" y="340.066066" style="fill: #1f77b4; stroke: #1f77b4"/>
     <use xlink:href="#md0e69438e7" x="361.72112" y="337.382121" style="fill: #1f77b4; stroke: #1f77b4"/>
    </g>
   </g>
   <g id="line2d_68">
    <g clip-path="url(#p8a81fb4704)">
     <use xlink:href="#m205c84dfb7" x="206.378529" y="342.079249" style="stroke: #000000"/>
     <use xlink:href="#m205c84dfb7" x="245.376669" y="341.838939" style="stroke: #000000"/>
     <use xlink:href="#m205c84dfb7" x="283.72484" y="340.156769" style="stroke: #000000"/>
     <use xlink:href="#m205c84dfb7" x="361.72112" y="337.51336" style="stroke: #000000"/>
    </g>
   </g>
   <g id="line2d_69">
    <path d="M 49.736 341.968006 
L 56.301343 341.968006 
L 62.866687 341.968006 
L 69.43203 341.968006 
L 75.997374 341.968006 
L 82.562717 341.968006 
L 89.128061 341.968006 
L 95.693404 341.968006 
L 102.258747 341.968006 
L 108.824091 341.968006 
L 115.389434 341.968006 
L 121.954778 341.968006 
L 128.520121 341.968006 
L 135.085465 341.968006 
L 141.650808 341.968006 
L 148.216152 341.968006 
L 154.781495 341.968006 
L 161.346838 341.968006 
L 167.912182 341.968006 
L 174.477525 341.968006 
L 181.042869 341.968006 
L 187.608212 341.968006 
L 194.173556 341.968006 
L 200.738899 341.968006 
L 207.304242 341.967526 
L 213.869586 341.938568 
L 220.434929 341.871513 
L 227.000273 341.775732 
L 233.565616 341.660594 
L 240.13096 341.535472 
L 246.696303 341.408596 
L 253.261646 341.252707 
L 259.82699 341.061393 
L 266.392333 340.84649 
L 272.957677 340.619835 
L 279.52302 340.393262 
L 286.088364 340.178302 
L 292.653707 339.978187 
L 299.219051 339.788233 
L 305.784394 339.603584 
L 312.349737 339.419384 
L 318.915081 339.230777 
L 325.480424 339.032908 
L 332.045768 338.82092 
L 338.611111 338.589958 
L 345.176455 338.335167 
L 351.741798 338.05169 
L 358.307141 337.734672 
L 364.872485 337.351843 
L 371.437828 336.725832 
L 378.003172 335.834946 
L 384.568515 334.690389 
L 391.133859 333.303362 
L 397.699202 331.68507 
L 404.264545 329.846716 
L 410.829889 327.799503 
L 417.395232 325.554634 
L 423.960576 323.123313 
L 430.525919 320.516743 
L 437.091263 317.746127 
L 443.656606 314.822668 
L 450.221949 311.75757 
L 456.787293 308.562036 
L 463.352636 305.247269 
L 469.91798 301.824473 
L 476.483323 298.30485 
L 483.048667 294.699604 
L 489.61401 291.019939 
L 496.179354 287.277057 
L 502.744697 283.482161 
L 509.31004 279.646456 
L 515.875384 275.781144 
L 522.440727 271.897428 
L 529.006071 268.006513 
L 535.571414 264.1196 
L 542.136758 260.247893 
L 548.702101 256.402597 
L 555.267444 252.594913 
L 561.832788 248.836045 
L 568.398131 245.137196 
L 574.963475 241.50957 
L 581.528818 237.96437 
L 588.094162 234.512799 
L 594.659505 231.16606 
L 601.224848 227.935358 
L 607.790192 224.831894 
L 614.355535 221.866872 
L 620.920879 219.051495 
L 627.486222 216.396968 
L 634.051566 213.914492 
L 640.616909 211.615272 
L 647.182253 209.51051 
L 653.747596 207.611409 
L 660.312939 205.929174 
L 666.878283 204.475007 
L 673.443626 203.260112 
L 680.00897 202.295691 
L 686.574313 201.592949 
L 693.139657 201.163087 
L 699.705 201.017311 
" clip-path="url(#p8a81fb4704)" style="fill: none; stroke: #ff7f0e; stroke-width: 1.5; stroke-linecap: square"/>
   </g>
   <g id="line2d_70">
    <g clip-path="url(#p8a81fb4704)">
     <use xlink:href="#mf0999ded1e" x="206.378529" y="341.968006" style="fill: #ff7f0e; stroke: #ff7f0e"/>
     <use xlink:href="#mf0999ded1e" x="245.376669" y="341.434605" style="fill: #ff7f0e; stroke: #ff7f0e"/>
     <use xlink:href="#mf0999ded1e" x="283.72484" y="340.253765" style="fill: #ff7f0e; stroke: #ff7f0e"/>
     <use xlink:href="#mf0999ded1e" x="361.72112" y="337.554955" style="fill: #ff7f0e; stroke: #ff7f0e"/>
    </g>
   </g>
   <g id="line2d_71">
    <g clip-path="url(#p8a81fb4704)">
     <use xlink:href="#m205c84dfb7" x="206.378529" y="342.079249" style="stroke: #000000"/>
     <use xlink:href="#m205c84dfb7" x="245.376669" y="341.838939" style="stroke: #000000"/>
     <use xlink:href="#m205c84dfb7" x="283.72484" y="340.156769" style="stroke: #000000"/>
     <use xlink:href="#m205c84dfb7" x="361.72112" y="337.51336" style="stroke: #000000"/>
    </g>
   </g>
   <g id="line2d_72">
    <path d="M 49.736 342.180189 
L 56.301343 342.180189 
L 62.866687 342.180189 
L 69.43203 342.180189 
L 75.997374 342.180189 
L 82.562717 342.180189 
L 89.128061 342.180189 
L 95.693404 342.180189 
L 102.258747 342.180189 
L 108.824091 342.180189 
L 115.389434 342.180189 
L 121.954778 342.180189 
L 128.520121 342.180189 
L 135.085465 342.180189 
L 141.650808 342.180189 
L 148.216152 342.180189 
L 154.781495 342.180189 
L 161.346838 342.180189 
L 167.912182 342.180189 
L 174.477525 342.180189 
L 181.042869 342.180189 
L 187.608212 342.180189 
L 194.173556 342.180189 
L 200.738899 342.180189 
L 207.304242 342.179738 
L 213.869586 342.152484 
L 220.434929 342.089052 
L 227.000273 341.997841 
L 233.565616 341.887244 
L 240.13096 341.76566 
L 246.696303 341.640192 
L 253.261646 341.478544 
L 259.82699 341.274365 
L 266.392333 341.042372 
L 272.957677 340.797286 
L 279.52302 340.553822 
L 286.088364 340.326074 
L 292.653707 340.115578 
L 299.219051 339.916552 
L 305.784394 339.723831 
L 312.349737 339.532254 
L 318.915081 339.336657 
L 325.480424 339.131878 
L 332.045768 338.912752 
L 338.611111 338.674119 
L 345.176455 338.410814 
L 351.741798 338.117675 
L 358.307141 337.789538 
L 364.872485 337.394158 
L 371.437828 336.756103 
L 378.003172 335.854028 
L 384.568515 334.699114 
L 391.133859 333.302537 
L 397.699202 331.675476 
L 404.264545 329.829109 
L 410.829889 327.774615 
L 417.395232 325.523172 
L 423.960576 323.085958 
L 430.525919 320.474152 
L 437.091263 317.698931 
L 443.656606 314.771475 
L 450.221949 311.70296 
L 456.787293 308.504567 
L 463.352636 305.187472 
L 469.91798 301.762855 
L 476.483323 298.241893 
L 483.048667 294.635766 
L 489.61401 290.95565 
L 496.179354 287.212725 
L 502.744697 283.418169 
L 509.31004 279.583159 
L 515.875384 275.718875 
L 522.440727 271.836495 
L 529.006071 267.947197 
L 535.571414 264.062159 
L 542.136758 260.192559 
L 548.702101 256.349576 
L 555.267444 252.544389 
L 561.832788 248.788175 
L 568.398131 245.092113 
L 574.963475 241.46738 
L 581.528818 237.925156 
L 588.094162 234.476619 
L 594.659505 231.132947 
L 601.224848 227.905317 
L 607.790192 224.80491 
L 614.355535 221.842902 
L 620.920879 219.030472 
L 627.486222 216.378799 
L 634.051566 213.899061 
L 640.616909 211.602435 
L 647.182253 209.500101 
L 653.747596 207.603236 
L 660.312939 205.92302 
L 666.878283 204.470629 
L 673.443626 203.257243 
L 680.00897 202.29404 
L 686.574313 201.592198 
L 693.139657 201.162896 
L 699.705 201.017311 
" clip-path="url(#p8a81fb4704)" style="fill: none; stroke: #2ca02c; stroke-width: 1.5; stroke-linecap: square"/>
   </g>
   <g id="line2d_73">
    <g clip-path="url(#p8a81fb4704)">
     <use xlink:href="#m23fd9511a0" x="206.378529" y="342.180189" style="fill: #2ca02c; stroke: #2ca02c"/>
     <use xlink:href="#m23fd9511a0" x="245.376669" y="341.666246" style="fill: #2ca02c; stroke: #2ca02c"/>
     <use xlink:href="#m23fd9511a0" x="283.72484" y="340.405654" style="fill: #2ca02c; stroke: #2ca02c"/>
     <use xlink:href="#m23fd9511a0" x="361.72112" y="337.603362" style="fill: #2ca02c; stroke: #2ca02c"/>
    </g>
   </g>
   <g id="line2d_74">
    <g clip-path="url(#p8a81fb4704)">
     <use xlink:href="#m205c84dfb7" x="206.378529" y="342.079249" style="stroke: #000000"/>
     <use xlink:href="#m205c84dfb7" x="245.376669" y="341.838939" style="stroke: #000000"/>
     <use xlink:href="#m205c84dfb7" x="283.72484" y="340.156769" style="stroke: #000000"/>
     <use xlink:href="#m205c84dfb7" x="361.72112" y="337.51336" style="stroke: #000000"/>
    </g>
   </g>
   <g id="patch_9">
    <path d="M 49.736 349.238333 
L 49.736 193.959167 
" style="fill: none; stroke: #000000; stroke-width: 0.8; stroke-linejoin: miter; stroke-linecap: square"/>
   </g>
   <g id="patch_10">
    <path d="M 699.705 349.238333 
L 699.705 193.959167 
" style="fill: none; stroke: #000000; stroke-width: 0.8; stroke-linejoin: miter; stroke-linecap: square"/>
   </g>
   <g id="patch_11">
    <path d="M 49.736 349.238333 
L 699.705 349.238333 
" style="fill: none; stroke: #000000; stroke-width: 0.8; stroke-linejoin: miter; stroke-linecap: square"/>
   </g>
   <g id="patch_12">
    <path d="M 49.736 193.959167 
L 699.705 193.959167 
" style="fill: none; stroke: #000000; stroke-width: 0.8; stroke-linejoin: miter; stroke-linecap: square"/>
   </g>
  </g>
  <g id="axes_3">
   <g id="patch_13">
    <path d="M 49.736 532.3975 
L 699.705 532.3975 
L 699.705 377.118333 
L 49.736 377.118333 
z
" style="fill: #ffffff"/>
   </g>
   <g id="matplotlib.axis_5">
    <g id="xtick_13">
     <g id="line2d_75">
      <path d="M 49.736 532.3975 
L 49.736 377.118333 
" clip-path="url(#pfd847afe5c)" style="fill: none; stroke-dasharray: 0.8,1.32; stroke-dashoffset: 0; stroke: #b0b0b0; stroke-width: 0.8"/>
     </g>
     <g id="line2d_76">
      <g>
       <use xlink:href="#m3b086f6f84" x="49.736" y="532.3975" style="stroke: #000000; stroke-width: 0.8"/>
      </g>
     </g>
     <g id="text_33">
      <!-- 0 -->
      <g transform="translate(46.55475 546.995937) scale(0.1 -0.1)">
       <use xlink:href="#DejaVuSans-30"/>
      </g>
     </g>
    </g>
    <g id="xtick_14">
     <g id="line2d_77">
      <path d="M 179.7298 532.3975 
L 179.7298 377.118333 
" clip-path="url(#pfd847afe5c)" style="fill: none; stroke-dasharray: 0.8,1.32; stroke-dashoffset: 0; stroke: #b0b0b0; stroke-width: 0.8"/>
     </g>
     <g id="line2d_78">
      <g>
       <use xlink:href="#m3b086f6f84" x="179.7298" y="532.3975" style="stroke: #000000; stroke-width: 0.8"/>
      </g>
     </g>
     <g id="text_34">
      <!-- 20 -->
      <g transform="translate(173.3673 546.995937) scale(0.1 -0.1)">
       <use xlink:href="#DejaVuSans-32"/>
       <use xlink:href="#DejaVuSans-30" x="63.623047"/>
      </g>
     </g>
    </g>
    <g id="xtick_15">
     <g id="line2d_79">
      <path d="M 309.7236 532.3975 
L 309.7236 377.118333 
" clip-path="url(#pfd847afe5c)" style="fill: none; stroke-dasharray: 0.8,1.32; stroke-dashoffset: 0; stroke: #b0b0b0; stroke-width: 0.8"/>
     </g>
     <g id="line2d_80">
      <g>
       <use xlink:href="#m3b086f6f84" x="309.7236" y="532.3975" style="stroke: #000000; stroke-width: 0.8"/>
      </g>
     </g>
     <g id="text_35">
      <!-- 40 -->
      <g transform="translate(303.3611 546.995937) scale(0.1 -0.1)">
       <use xlink:href="#DejaVuSans-34"/>
       <use xlink:href="#DejaVuSans-30" x="63.623047"/>
      </g>
     </g>
    </g>
    <g id="xtick_16">
     <g id="line2d_81">
      <path d="M 439.7174 532.3975 
L 439.7174 377.118333 
" clip-path="url(#pfd847afe5c)" style="fill: none; stroke-dasharray: 0.8,1.32; stroke-dashoffset: 0; stroke: #b0b0b0; stroke-width: 0.8"/>
     </g>
     <g id="line2d_82">
      <g>
       <use xlink:href="#m3b086f6f84" x="439.7174" y="532.3975" style="stroke: #000000; stroke-width: 0.8"/>
      </g>
     </g>
     <g id="text_36">
      <!-- 60 -->
      <g transform="translate(433.3549 546.995937) scale(0.1 -0.1)">
       <use xlink:href="#DejaVuSans-36"/>
       <use xlink:href="#DejaVuSans-30" x="63.623047"/>
      </g>
     </g>
    </g>
    <g id="xtick_17">
     <g id="line2d_83">
      <path d="M 569.7112 532.3975 
L 569.7112 377.118333 
" clip-path="url(#pfd847afe5c)" style="fill: none; stroke-dasharray: 0.8,1.32; stroke-dashoffset: 0; stroke: #b0b0b0; stroke-width: 0.8"/>
     </g>
     <g id="line2d_84">
      <g>
       <use xlink:href="#m3b086f6f84" x="569.7112" y="532.3975" style="stroke: #000000; stroke-width: 0.8"/>
      </g>
     </g>
     <g id="text_37">
      <!-- 80 -->
      <g transform="translate(563.3487 546.995937) scale(0.1 -0.1)">
       <use xlink:href="#DejaVuSans-38"/>
       <use xlink:href="#DejaVuSans-30" x="63.623047"/>
      </g>
     </g>
    </g>
    <g id="xtick_18">
     <g id="line2d_85">
      <path d="M 699.705 532.3975 
L 699.705 377.118333 
" clip-path="url(#pfd847afe5c)" style="fill: none; stroke-dasharray: 0.8,1.32; stroke-dashoffset: 0; stroke: #b0b0b0; stroke-width: 0.8"/>
     </g>
     <g id="line2d_86">
      <g>
       <use xlink:href="#m3b086f6f84" x="699.705" y="532.3975" style="stroke: #000000; stroke-width: 0.8"/>
      </g>
     </g>
     <g id="text_38">
      <!-- 100 -->
      <g transform="translate(690.16125 546.995937) scale(0.1 -0.1)">
       <use xlink:href="#DejaVuSans-31"/>
       <use xlink:href="#DejaVuSans-30" x="63.623047"/>
       <use xlink:href="#DejaVuSans-30" x="127.246094"/>
      </g>
     </g>
    </g>
    <g id="text_39">
     <!-- $t/c$ [-] -->
     <g transform="translate(361.0205 560.674062) scale(0.1 -0.1)">
      <defs>
       <path id="DejaVuSans-Oblique-74" d="M 2706 3500 
L 2619 3053 
L 1472 3053 
L 1100 1153 
Q 1081 1047 1072 975 
Q 1063 903 1063 863 
Q 1063 663 1183 572 
Q 1303 481 1569 481 
L 2150 481 
L 2053 0 
L 1503 0 
Q 991 0 739 200 
Q 488 400 488 806 
Q 488 878 497 964 
Q 506 1050 525 1153 
L 897 3053 
L 409 3053 
L 500 3500 
L 978 3500 
L 1172 4494 
L 1747 4494 
L 1556 3500 
L 2706 3500 
z
" transform="scale(0.015625)"/>
       <path id="DejaVuSans-2f" d="M 1625 4666 
L 2156 4666 
L 531 -594 
L 0 -594 
L 1625 4666 
z
" transform="scale(0.015625)"/>
       <path id="DejaVuSans-Oblique-63" d="M 3431 3366 
L 3316 2797 
Q 3109 2947 2876 3022 
Q 2644 3097 2394 3097 
Q 2119 3097 1870 3000 
Q 1622 2903 1453 2725 
Q 1184 2453 1037 2087 
Q 891 1722 891 1331 
Q 891 859 1127 628 
Q 1363 397 1844 397 
Q 2081 397 2348 469 
Q 2616 541 2906 684 
L 2797 116 
Q 2547 13 2283 -39 
Q 2019 -91 1741 -91 
Q 1044 -91 669 257 
Q 294 606 294 1253 
Q 294 1797 489 2255 
Q 684 2713 1069 3078 
Q 1331 3328 1684 3456 
Q 2038 3584 2456 3584 
Q 2700 3584 2940 3529 
Q 3181 3475 3431 3366 
z
" transform="scale(0.015625)"/>
      </defs>
      <use xlink:href="#DejaVuSans-Oblique-74" transform="translate(0 0.015625)"/>
      <use xlink:href="#DejaVuSans-2f" transform="translate(39.208984 0.015625)"/>
      <use xlink:href="#DejaVuSans-Oblique-63" transform="translate(72.900391 0.015625)"/>
      <use xlink:href="#DejaVuSans-20" transform="translate(127.880859 0.015625)"/>
      <use xlink:href="#DejaVuSans-5b" transform="translate(159.667969 0.015625)"/>
      <use xlink:href="#DejaVuSans-2d" transform="translate(198.681641 0.015625)"/>
      <use xlink:href="#DejaVuSans-5d" transform="translate(234.765625 0.015625)"/>
     </g>
    </g>
   </g>
   <g id="matplotlib.axis_6">
    <g id="ytick_15">
     <g id="line2d_87">
      <path d="M 49.736 525.339356 
L 699.705 525.339356 
" clip-path="url(#pfd847afe5c)" style="fill: none; stroke-dasharray: 0.8,1.32; stroke-dashoffset: 0; stroke: #b0b0b0; stroke-width: 0.8"/>
     </g>
     <g id="line2d_88">
      <g>
       <use xlink:href="#mab0ab2d2ea" x="49.736" y="525.339356" style="stroke: #000000; stroke-width: 0.8"/>
      </g>
     </g>
     <g id="text_40">
      <!-- 0 -->
      <g transform="translate(36.3735 529.138575) scale(0.1 -0.1)">
       <use xlink:href="#DejaVuSans-30"/>
      </g>
     </g>
    </g>
    <g id="ytick_16">
     <g id="line2d_89">
      <path d="M 49.736 497.46252 
L 699.705 497.46252 
" clip-path="url(#pfd847afe5c)" style="fill: none; stroke-dasharray: 0.8,1.32; stroke-dashoffset: 0; stroke: #b0b0b0; stroke-width: 0.8"/>
     </g>
     <g id="line2d_90">
      <g>
       <use xlink:href="#mab0ab2d2ea" x="49.736" y="497.46252" style="stroke: #000000; stroke-width: 0.8"/>
      </g>
     </g>
     <g id="text_41">
      <!-- 2 -->
      <g transform="translate(36.3735 501.261739) scale(0.1 -0.1)">
       <use xlink:href="#DejaVuSans-32"/>
      </g>
     </g>
    </g>
    <g id="ytick_17">
     <g id="line2d_91">
      <path d="M 49.736 469.585684 
L 699.705 469.585684 
" clip-path="url(#pfd847afe5c)" style="fill: none; stroke-dasharray: 0.8,1.32; stroke-dashoffset: 0; stroke: #b0b0b0; stroke-width: 0.8"/>
     </g>
     <g id="line2d_92">
      <g>
       <use xlink:href="#mab0ab2d2ea" x="49.736" y="469.585684" style="stroke: #000000; stroke-width: 0.8"/>
      </g>
     </g>
     <g id="text_42">
      <!-- 4 -->
      <g transform="translate(36.3735 473.384902) scale(0.1 -0.1)">
       <use xlink:href="#DejaVuSans-34"/>
      </g>
     </g>
    </g>
    <g id="ytick_18">
     <g id="line2d_93">
      <path d="M 49.736 441.708848 
L 699.705 441.708848 
" clip-path="url(#pfd847afe5c)" style="fill: none; stroke-dasharray: 0.8,1.32; stroke-dashoffset: 0; stroke: #b0b0b0; stroke-width: 0.8"/>
     </g>
     <g id="line2d_94">
      <g>
       <use xlink:href="#mab0ab2d2ea" x="49.736" y="441.708848" style="stroke: #000000; stroke-width: 0.8"/>
      </g>
     </g>
     <g id="text_43">
      <!-- 6 -->
      <g transform="translate(36.3735 445.508066) scale(0.1 -0.1)">
       <use xlink:href="#DejaVuSans-36"/>
      </g>
     </g>
    </g>
    <g id="ytick_19">
     <g id="line2d_95">
      <path d="M 49.736 413.832011 
L 699.705 413.832011 
" clip-path="url(#pfd847afe5c)" style="fill: none; stroke-dasharray: 0.8,1.32; stroke-dashoffset: 0; stroke: #b0b0b0; stroke-width: 0.8"/>
     </g>
     <g id="line2d_96">
      <g>
       <use xlink:href="#mab0ab2d2ea" x="49.736" y="413.832011" style="stroke: #000000; stroke-width: 0.8"/>
      </g>
     </g>
     <g id="text_44">
      <!-- 8 -->
      <g transform="translate(36.3735 417.63123) scale(0.1 -0.1)">
       <use xlink:href="#DejaVuSans-38"/>
      </g>
     </g>
    </g>
    <g id="ytick_20">
     <g id="line2d_97">
      <path d="M 49.736 385.955175 
L 699.705 385.955175 
" clip-path="url(#pfd847afe5c)" style="fill: none; stroke-dasharray: 0.8,1.32; stroke-dashoffset: 0; stroke: #b0b0b0; stroke-width: 0.8"/>
     </g>
     <g id="line2d_98">
      <g>
       <use xlink:href="#mab0ab2d2ea" x="49.736" y="385.955175" style="stroke: #000000; stroke-width: 0.8"/>
      </g>
     </g>
     <g id="text_45">
      <!-- 10 -->
      <g transform="translate(30.011 389.754394) scale(0.1 -0.1)">
       <use xlink:href="#DejaVuSans-31"/>
       <use xlink:href="#DejaVuSans-30" x="63.623047"/>
      </g>
     </g>
    </g>
    <g id="text_46">
     <!-- $\alpha$ [] -->
     <g transform="translate(23.931313 466.057917) rotate(-90) scale(0.1 -0.1)">
      <defs>
       <path id="DejaVuSans-Oblique-3b1" d="M 2619 1628 
L 2622 2350 
Q 2625 3088 2069 3091 
Q 1653 3094 1394 2747 
Q 1069 2319 959 1747 
Q 825 1059 994 731 
Q 1169 397 1547 397 
Q 1966 397 2319 1063 
L 2619 1628 
z
M 2166 3578 
Q 3141 3594 3128 2584 
Q 3128 2584 3616 3500 
L 4128 3500 
L 3119 1603 
L 3109 919 
Q 3109 766 3194 638 
Q 3291 488 3391 488 
L 3669 488 
L 3575 0 
L 3228 0 
Q 2934 0 2722 263 
Q 2622 394 2619 669 
Q 2416 334 2066 50 
Q 1900 -81 1453 -78 
Q 722 -72 456 397 
Q 184 884 353 1747 
Q 534 2675 1009 3097 
Q 1544 3569 2166 3578 
z
" transform="scale(0.015625)"/>
       <path id="DejaVuSans-b0" d="M 1600 4347 
Q 1350 4347 1178 4173 
Q 1006 4000 1006 3750 
Q 1006 3503 1178 3333 
Q 1350 3163 1600 3163 
Q 1850 3163 2022 3333 
Q 2194 3503 2194 3750 
Q 2194 3997 2020 4172 
Q 1847 4347 1600 4347 
z
M 1600 4750 
Q 1800 4750 1984 4673 
Q 2169 4597 2303 4453 
Q 2447 4313 2519 4134 
Q 2591 3956 2591 3750 
Q 2591 3338 2302 3052 
Q 2013 2766 1594 2766 
Q 1172 2766 890 3047 
Q 609 3328 609 3750 
Q 609 4169 896 4459 
Q 1184 4750 1600 4750 
z
" transform="scale(0.015625)"/>
      </defs>
      <use xlink:href="#DejaVuSans-Oblique-3b1" transform="translate(0 0.015625)"/>
      <use xlink:href="#DejaVuSans-20" transform="translate(65.917969 0.015625)"/>
      <use xlink:href="#DejaVuSans-5b" transform="translate(97.705078 0.015625)"/>
      <use xlink:href="#DejaVuSans-b0" transform="translate(136.71875 0.015625)"/>
      <use xlink:href="#DejaVuSans-5d" transform="translate(186.71875 0.015625)"/>
     </g>
    </g>
   </g>
   <g id="line2d_99">
    <path d="M 49.736 384.176477 
L 56.301343 384.176477 
L 62.866687 384.176477 
L 69.43203 384.176477 
L 75.997374 384.176477 
L 82.562717 384.176477 
L 89.128061 384.176477 
L 95.693404 384.176477 
L 102.258747 384.176477 
L 108.824091 384.176477 
L 115.389434 384.176477 
L 121.954778 384.176477 
L 128.520121 384.176477 
L 135.085465 384.176477 
L 141.650808 384.176477 
L 148.216152 384.176477 
L 154.781495 384.176477 
L 161.346838 384.176477 
L 167.912182 384.176477 
L 174.477525 384.176477 
L 181.042869 384.176477 
L 187.608212 384.176477 
L 194.173556 384.176477 
L 200.738899 384.176477 
L 207.304242 384.183682 
L 213.869586 384.628293 
L 220.434929 385.696939 
L 227.000273 387.297514 
L 233.565616 389.33791 
L 240.13096 391.72602 
L 246.696303 394.457986 
L 253.261646 400.001408 
L 259.82699 408.446308 
L 266.392333 418.343921 
L 272.957677 428.245485 
L 279.52302 436.702235 
L 286.088364 442.510514 
L 292.653707 447.426297 
L 299.219051 452.111401 
L 305.784394 456.550864 
L 312.349737 460.729728 
L 318.915081 464.633031 
L 325.480424 468.245813 
L 332.045768 471.553114 
L 338.611111 474.539973 
L 345.176455 477.191431 
L 351.741798 479.492527 
L 358.307141 481.428301 
L 364.872485 483.026136 
L 371.437828 484.551968 
L 378.003172 486.05455 
L 384.568515 487.533599 
L 391.133859 488.988835 
L 397.699202 490.419976 
L 404.264545 491.826742 
L 410.829889 493.20885 
L 417.395232 494.566019 
L 423.960576 495.897967 
L 430.525919 497.204415 
L 437.091263 498.485079 
L 443.656606 499.739679 
L 450.221949 500.967933 
L 456.787293 502.16956 
L 463.352636 503.344278 
L 469.91798 504.491807 
L 476.483323 505.611864 
L 483.048667 506.704169 
L 489.61401 507.76844 
L 496.179354 508.804395 
L 502.744697 509.811754 
L 509.31004 510.790234 
L 515.875384 511.739555 
L 522.440727 512.659435 
L 529.006071 513.549592 
L 535.571414 514.409746 
L 542.136758 515.239615 
L 548.702101 516.038918 
L 555.267444 516.807372 
L 561.832788 517.544697 
L 568.398131 518.250612 
L 574.963475 518.924835 
L 581.528818 519.567084 
L 588.094162 520.177079 
L 594.659505 520.754538 
L 601.224848 521.299179 
L 607.790192 521.810721 
L 614.355535 522.288883 
L 620.920879 522.733383 
L 627.486222 523.14394 
L 634.051566 523.520273 
L 640.616909 523.8621 
L 647.182253 524.16914 
L 653.747596 524.441112 
L 660.312939 524.677733 
L 666.878283 524.878723 
L 673.443626 525.043801 
L 680.00897 525.172684 
L 686.574313 525.265092 
L 693.139657 525.320743 
L 699.705 525.339356 
" clip-path="url(#pfd847afe5c)" style="fill: none; stroke: #1f77b4; stroke-width: 1.5; stroke-linecap: square"/>
   </g>
   <g id="line2d_100">
    <g clip-path="url(#pfd847afe5c)">
     <use xlink:href="#md0e69438e7" x="206.378529" y="384.176477" style="fill: #1f77b4; stroke: #1f77b4"/>
     <use xlink:href="#md0e69438e7" x="245.376669" y="393.822262" style="fill: #1f77b4; stroke: #1f77b4"/>
     <use xlink:href="#md0e69438e7" x="283.72484" y="440.687243" style="fill: #1f77b4; stroke: #1f77b4"/>
     <use xlink:href="#md0e69438e7" x="361.72112" y="482.285561" style="fill: #1f77b4; stroke: #1f77b4"/>
    </g>
   </g>
   <g id="line2d_101">
    <g clip-path="url(#pfd847afe5c)">
     <use xlink:href="#m205c84dfb7" x="206.378529" y="412.43817" style="stroke: #000000"/>
     <use xlink:href="#m205c84dfb7" x="245.376669" y="420.80122" style="stroke: #000000"/>
     <use xlink:href="#m205c84dfb7" x="283.72484" y="444.496531" style="stroke: #000000"/>
     <use xlink:href="#m205c84dfb7" x="361.72112" y="500.250204" style="stroke: #000000"/>
    </g>
   </g>
   <g id="line2d_102">
    <path d="M 49.736 397.882453 
L 56.301343 397.882453 
L 62.866687 397.882453 
L 69.43203 397.882453 
L 75.997374 397.882453 
L 82.562717 397.882453 
L 89.128061 397.882453 
L 95.693404 397.882453 
L 102.258747 397.882453 
L 108.824091 397.882453 
L 115.389434 397.882453 
L 121.954778 397.882453 
L 128.520121 397.882453 
L 135.085465 397.882453 
L 141.650808 397.882453 
L 148.216152 397.882453 
L 154.781495 397.882453 
L 161.346838 397.882453 
L 167.912182 397.882453 
L 174.477525 397.882453 
L 181.042869 397.882453 
L 187.608212 397.882453 
L 194.173556 397.882453 
L 200.738899 397.882453 
L 207.304242 397.890005 
L 213.869586 398.354726 
L 220.434929 399.466986 
L 227.000273 401.124259 
L 233.565616 403.22402 
L 240.13096 405.663746 
L 246.696303 408.420681 
L 253.261646 413.709711 
L 259.82699 421.606188 
L 266.392333 430.796058 
L 272.957677 439.965264 
L 279.52302 447.799753 
L 286.088364 453.210554 
L 292.653707 457.81954 
L 299.219051 462.229579 
L 305.784394 466.420488 
L 312.349737 470.372082 
L 318.915081 474.064179 
L 325.480424 477.476594 
L 332.045768 480.589144 
L 338.611111 483.381646 
L 345.176455 485.833915 
L 351.741798 487.925769 
L 358.307141 489.637023 
L 364.872485 490.992699 
L 371.437828 492.274086 
L 378.003172 493.533207 
L 384.568515 494.769938 
L 391.133859 495.984152 
L 397.699202 497.175724 
L 404.264545 498.344528 
L 410.829889 499.490438 
L 417.395232 500.61333 
L 423.960576 501.713077 
L 430.525919 502.789554 
L 437.091263 503.842635 
L 443.656606 504.872194 
L 450.221949 505.878107 
L 456.787293 506.860247 
L 463.352636 507.818489 
L 469.91798 508.752706 
L 476.483323 509.662775 
L 483.048667 510.548568 
L 489.61401 511.409961 
L 496.179354 512.246827 
L 502.744697 513.059042 
L 509.31004 513.846479 
L 515.875384 514.609013 
L 522.440727 515.346518 
L 529.006071 516.058869 
L 535.571414 516.745941 
L 542.136758 517.407606 
L 548.702101 518.043741 
L 555.267444 518.654218 
L 561.832788 519.238914 
L 568.398131 519.797702 
L 574.963475 520.330456 
L 581.528818 520.837051 
L 588.094162 521.317361 
L 594.659505 521.77126 
L 601.224848 522.198624 
L 607.790192 522.599327 
L 614.355535 522.973242 
L 620.920879 523.320244 
L 627.486222 523.640208 
L 634.051566 523.933008 
L 640.616909 524.198519 
L 647.182253 524.436614 
L 653.747596 524.647168 
L 660.312939 524.830056 
L 666.878283 524.985152 
L 673.443626 525.112331 
L 680.00897 525.211466 
L 686.574313 525.282432 
L 693.139657 525.325104 
L 699.705 525.339356 
" clip-path="url(#pfd847afe5c)" style="fill: none; stroke: #ff7f0e; stroke-width: 1.5; stroke-linecap: square"/>
   </g>
   <g id="line2d_103">
    <g clip-path="url(#pfd847afe5c)">
     <use xlink:href="#mf0999ded1e" x="206.378529" y="397.882453" style="fill: #ff7f0e; stroke: #ff7f0e"/>
     <use xlink:href="#mf0999ded1e" x="245.376669" y="407.788671" style="fill: #ff7f0e; stroke: #ff7f0e"/>
     <use xlink:href="#mf0999ded1e" x="283.72484" y="451.506504" style="fill: #ff7f0e; stroke: #ff7f0e"/>
     <use xlink:href="#mf0999ded1e" x="361.72112" y="490.369761" style="fill: #ff7f0e; stroke: #ff7f0e"/>
    </g>
   </g>
   <g id="line2d_104">
    <g clip-path="url(#pfd847afe5c)">
     <use xlink:href="#m205c84dfb7" x="206.378529" y="412.43817" style="stroke: #000000"/>
     <use xlink:href="#m205c84dfb7" x="245.376669" y="420.80122" style="stroke: #000000"/>
     <use xlink:href="#m205c84dfb7" x="283.72484" y="444.496531" style="stroke: #000000"/>
     <use xlink:href="#m205c84dfb7" x="361.72112" y="500.250204" style="stroke: #000000"/>
    </g>
   </g>
   <g id="line2d_105">
    <path d="M 49.736 410.942764 
L 56.301343 410.942764 
L 62.866687 410.942764 
L 69.43203 410.942764 
L 75.997374 410.942764 
L 82.562717 410.942764 
L 89.128061 410.942764 
L 95.693404 410.942764 
L 102.258747 410.942764 
L 108.824091 410.942764 
L 115.389434 410.942764 
L 121.954778 410.942764 
L 128.520121 410.942764 
L 135.085465 410.942764 
L 141.650808 410.942764 
L 148.216152 410.942764 
L 154.781495 410.942764 
L 161.346838 410.942764 
L 167.912182 410.942764 
L 174.477525 410.942764 
L 181.042869 410.942764 
L 187.608212 410.942764 
L 194.173556 410.942764 
L 200.738899 410.942764 
L 207.304242 410.950473 
L 213.869586 411.423854 
L 220.434929 412.553183 
L 227.000273 414.229187 
L 233.565616 416.342594 
L 240.13096 418.784128 
L 246.696303 421.516549 
L 253.261646 426.528532 
L 259.82699 433.891485 
L 266.392333 442.424607 
L 272.957677 450.9471 
L 279.52302 458.278163 
L 286.088364 463.442115 
L 292.653707 467.92378 
L 299.219051 472.259442 
L 305.784394 476.415426 
L 312.349737 480.358053 
L 318.915081 484.053648 
L 325.480424 487.468532 
L 332.045768 490.569029 
L 338.611111 493.321462 
L 345.176455 495.692153 
L 351.741798 497.647426 
L 358.307141 499.153604 
L 364.872485 500.232854 
L 371.437828 501.227194 
L 378.003172 502.20069 
L 384.568515 503.153388 
L 391.133859 504.085337 
L 397.699202 504.996582 
L 404.264545 505.887169 
L 410.829889 506.757146 
L 417.395232 507.606559 
L 423.960576 508.435455 
L 430.525919 509.243881 
L 437.091263 510.031882 
L 443.656606 510.799505 
L 450.221949 511.546798 
L 456.787293 512.273807 
L 463.352636 512.980578 
L 469.91798 513.667158 
L 476.483323 514.333594 
L 483.048667 514.979932 
L 489.61401 515.606219 
L 496.179354 516.212501 
L 502.744697 516.798826 
L 509.31004 517.365239 
L 515.875384 517.911788 
L 522.440727 518.438518 
L 529.006071 518.945477 
L 535.571414 519.432711 
L 542.136758 519.900268 
L 548.702101 520.348192 
L 555.267444 520.776532 
L 561.832788 521.185333 
L 568.398131 521.574642 
L 574.963475 521.944507 
L 581.528818 522.294972 
L 588.094162 522.626086 
L 594.659505 522.937895 
L 601.224848 523.230445 
L 607.790192 523.503783 
L 614.355535 523.757956 
L 620.920879 523.993009 
L 627.486222 524.208991 
L 634.051566 524.405947 
L 640.616909 524.583924 
L 647.182253 524.742969 
L 653.747596 524.883128 
L 660.312939 525.004448 
L 666.878283 525.106975 
L 673.443626 525.190756 
L 680.00897 525.255839 
L 686.574313 525.302268 
L 693.139657 525.330092 
L 699.705 525.339356 
" clip-path="url(#pfd847afe5c)" style="fill: none; stroke: #2ca02c; stroke-width: 1.5; stroke-linecap: square"/>
   </g>
   <g id="line2d_106">
    <g clip-path="url(#pfd847afe5c)">
     <use xlink:href="#m23fd9511a0" x="206.378529" y="410.942764" style="fill: #2ca02c; stroke: #2ca02c"/>
     <use xlink:href="#m23fd9511a0" x="245.376669" y="420.897468" style="fill: #2ca02c; stroke: #2ca02c"/>
     <use xlink:href="#m23fd9511a0" x="283.72484" y="461.79946" style="fill: #2ca02c; stroke: #2ca02c"/>
     <use xlink:href="#m23fd9511a0" x="361.72112" y="499.748154" style="fill: #2ca02c; stroke: #2ca02c"/>
    </g>
   </g>
   <g id="line2d_107">
    <g clip-path="url(#pfd847afe5c)">
     <use xlink:href="#m205c84dfb7" x="206.378529" y="412.43817" style="stroke: #000000"/>
     <use xlink:href="#m205c84dfb7" x="245.376669" y="420.80122" style="stroke: #000000"/>
     <use xlink:href="#m205c84dfb7" x="283.72484" y="444.496531" style="stroke: #000000"/>
     <use xlink:href="#m205c84dfb7" x="361.72112" y="500.250204" style="stroke: #000000"/>
    </g>
   </g>
   <g id="patch_14">
    <path d="M 49.736 532.3975 
L 49.736 377.118333 
" style="fill: none; stroke: #000000; stroke-width: 0.8; stroke-linejoin: miter; stroke-linecap: square"/>
   </g>
   <g id="patch_15">
    <path d="M 699.705 532.3975 
L 699.705 377.118333 
" style="fill: none; stroke: #000000; stroke-width: 0.8; stroke-linejoin: miter; stroke-linecap: square"/>
   </g>
   <g id="patch_16">
    <path d="M 49.736 532.3975 
L 699.705 532.3975 
" style="fill: none; stroke: #000000; stroke-width: 0.8; stroke-linejoin: miter; stroke-linecap: square"/>
   </g>
   <g id="patch_17">
    <path d="M 49.736 377.118333 
L 699.705 377.118333 
" style="fill: none; stroke: #000000; stroke-width: 0.8; stroke-linejoin: miter; stroke-linecap: square"/>
   </g>
  </g>
 </g>
 <defs>
  <clipPath id="pebf8338a9a">
   <rect x="49.736" y="10.8" width="649.969" height="155.279167"/>
  </clipPath>
  <clipPath id="p8a81fb4704">
   <rect x="49.736" y="193.959167" width="649.969" height="155.279167"/>
  </clipPath>
  <clipPath id="pfd847afe5c">
   <rect x="49.736" y="377.118333" width="649.969" height="155.279167"/>
  </clipPath>
 </defs>
</svg>
