<?xml version="1.0" encoding="utf-8" standalone="no"?>
<!DOCTYPE svg PUBLIC "-//W3C//DTD SVG 1.1//EN"
  "http://www.w3.org/Graphics/SVG/1.1/DTD/svg11.dtd">
<svg xmlns:xlink="http://www.w3.org/1999/xlink" width="720pt" height="576pt" viewBox="0 0 720 576" xmlns="http://www.w3.org/2000/svg" version="1.1">
 <metadata>
  <rdf:RDF xmlns:dc="http://purl.org/dc/elements/1.1/" xmlns:cc="http://creativecommons.org/ns#" xmlns:rdf="http://www.w3.org/1999/02/22-rdf-syntax-ns#">
   <cc:Work>
    <dc:type rdf:resource="http://purl.org/dc/dcmitype/StillImage"/>
    <dc:date>2024-09-27T17:40:43.139939</dc:date>
    <dc:format>image/svg+xml</dc:format>
    <dc:creator>
     <cc:Agent>
      <dc:title>Matplotlib v3.8.0, https://matplotlib.org/</dc:title>
     </cc:Agent>
    </dc:creator>
   </cc:Work>
  </rdf:RDF>
 </metadata>
 <defs>
  <style type="text/css">*{stroke-linejoin: round; stroke-linecap: butt}</style>
 </defs>
 <g id="figure_1">
  <g id="patch_1">
   <path d="M 0 576 
L 720 576 
L 720 0 
L 0 0 
z
" style="fill: #ffffff"/>
  </g>
  <g id="axes_1">
   <g id="patch_2">
    <path d="M 64.586 161.826667 
L 695.835 161.826667 
L 695.835 10.8 
L 64.586 10.8 
z
" style="fill: #ffffff"/>
   </g>
   <g id="matplotlib.axis_1">
    <g id="xtick_1">
     <g id="line2d_1">
      <path d="M 64.586 161.826667 
L 64.586 10.8 
" clip-path="url(#p28d74911f9)" style="fill: none; stroke-dasharray: 0.8,1.32; stroke-dashoffset: 0; stroke: #b0b0b0; stroke-width: 0.8"/>
     </g>
     <g id="line2d_2">
      <defs>
       <path id="mb4de97986f" d="M 0 0 
L 0 3.5 
" style="stroke: #000000; stroke-width: 0.8"/>
      </defs>
      <g>
       <use xlink:href="#mb4de97986f" x="64.586" y="161.826667" style="stroke: #000000; stroke-width: 0.8"/>
      </g>
     </g>
     <g id="text_1">
      <!-- 0 -->
      <g transform="translate(60.13225 179.464479) scale(0.14 -0.14)">
       <defs>
        <path id="DejaVuSans-30" d="M 2034 4250 
Q 1547 4250 1301 3770 
Q 1056 3291 1056 2328 
Q 1056 1369 1301 889 
Q 1547 409 2034 409 
Q 2525 409 2770 889 
Q 3016 1369 3016 2328 
Q 3016 3291 2770 3770 
Q 2525 4250 2034 4250 
z
M 2034 4750 
Q 2819 4750 3233 4129 
Q 3647 3509 3647 2328 
Q 3647 1150 3233 529 
Q 2819 -91 2034 -91 
Q 1250 -91 836 529 
Q 422 1150 422 2328 
Q 422 3509 836 4129 
Q 1250 4750 2034 4750 
z
" transform="scale(0.015625)"/>
       </defs>
       <use xlink:href="#DejaVuSans-30"/>
      </g>
     </g>
    </g>
    <g id="xtick_2">
     <g id="line2d_3">
      <path d="M 190.8358 161.826667 
L 190.8358 10.8 
" clip-path="url(#p28d74911f9)" style="fill: none; stroke-dasharray: 0.8,1.32; stroke-dashoffset: 0; stroke: #b0b0b0; stroke-width: 0.8"/>
     </g>
     <g id="line2d_4">
      <g>
       <use xlink:href="#mb4de97986f" x="190.8358" y="161.826667" style="stroke: #000000; stroke-width: 0.8"/>
      </g>
     </g>
     <g id="text_2">
      <!-- 20 -->
      <g transform="translate(181.9283 179.464479) scale(0.14 -0.14)">
       <defs>
        <path id="DejaVuSans-32" d="M 1228 531 
L 3431 531 
L 3431 0 
L 469 0 
L 469 531 
Q 828 903 1448 1529 
Q 2069 2156 2228 2338 
Q 2531 2678 2651 2914 
Q 2772 3150 2772 3378 
Q 2772 3750 2511 3984 
Q 2250 4219 1831 4219 
Q 1534 4219 1204 4116 
Q 875 4013 500 3803 
L 500 4441 
Q 881 4594 1212 4672 
Q 1544 4750 1819 4750 
Q 2544 4750 2975 4387 
Q 3406 4025 3406 3419 
Q 3406 3131 3298 2873 
Q 3191 2616 2906 2266 
Q 2828 2175 2409 1742 
Q 1991 1309 1228 531 
z
" transform="scale(0.015625)"/>
       </defs>
       <use xlink:href="#DejaVuSans-32"/>
       <use xlink:href="#DejaVuSans-30" x="63.623047"/>
      </g>
     </g>
    </g>
    <g id="xtick_3">
     <g id="line2d_5">
      <path d="M 317.0856 161.826667 
L 317.0856 10.8 
" clip-path="url(#p28d74911f9)" style="fill: none; stroke-dasharray: 0.8,1.32; stroke-dashoffset: 0; stroke: #b0b0b0; stroke-width: 0.8"/>
     </g>
     <g id="line2d_6">
      <g>
       <use xlink:href="#mb4de97986f" x="317.0856" y="161.826667" style="stroke: #000000; stroke-width: 0.8"/>
      </g>
     </g>
     <g id="text_3">
      <!-- 40 -->
      <g transform="translate(308.1781 179.464479) scale(0.14 -0.14)">
       <defs>
        <path id="DejaVuSans-34" d="M 2419 4116 
L 825 1625 
L 2419 1625 
L 2419 4116 
z
M 2253 4666 
L 3047 4666 
L 3047 1625 
L 3713 1625 
L 3713 1100 
L 3047 1100 
L 3047 0 
L 2419 0 
L 2419 1100 
L 313 1100 
L 313 1709 
L 2253 4666 
z
" transform="scale(0.015625)"/>
       </defs>
       <use xlink:href="#DejaVuSans-34"/>
       <use xlink:href="#DejaVuSans-30" x="63.623047"/>
      </g>
     </g>
    </g>
    <g id="xtick_4">
     <g id="line2d_7">
      <path d="M 443.3354 161.826667 
L 443.3354 10.8 
" clip-path="url(#p28d74911f9)" style="fill: none; stroke-dasharray: 0.8,1.32; stroke-dashoffset: 0; stroke: #b0b0b0; stroke-width: 0.8"/>
     </g>
     <g id="line2d_8">
      <g>
       <use xlink:href="#mb4de97986f" x="443.3354" y="161.826667" style="stroke: #000000; stroke-width: 0.8"/>
      </g>
     </g>
     <g id="text_4">
      <!-- 60 -->
      <g transform="translate(434.4279 179.464479) scale(0.14 -0.14)">
       <defs>
        <path id="DejaVuSans-36" d="M 2113 2584 
Q 1688 2584 1439 2293 
Q 1191 2003 1191 1497 
Q 1191 994 1439 701 
Q 1688 409 2113 409 
Q 2538 409 2786 701 
Q 3034 994 3034 1497 
Q 3034 2003 2786 2293 
Q 2538 2584 2113 2584 
z
M 3366 4563 
L 3366 3988 
Q 3128 4100 2886 4159 
Q 2644 4219 2406 4219 
Q 1781 4219 1451 3797 
Q 1122 3375 1075 2522 
Q 1259 2794 1537 2939 
Q 1816 3084 2150 3084 
Q 2853 3084 3261 2657 
Q 3669 2231 3669 1497 
Q 3669 778 3244 343 
Q 2819 -91 2113 -91 
Q 1303 -91 875 529 
Q 447 1150 447 2328 
Q 447 3434 972 4092 
Q 1497 4750 2381 4750 
Q 2619 4750 2861 4703 
Q 3103 4656 3366 4563 
z
" transform="scale(0.015625)"/>
       </defs>
       <use xlink:href="#DejaVuSans-36"/>
       <use xlink:href="#DejaVuSans-30" x="63.623047"/>
      </g>
     </g>
    </g>
    <g id="xtick_5">
     <g id="line2d_9">
      <path d="M 569.5852 161.826667 
L 569.5852 10.8 
" clip-path="url(#p28d74911f9)" style="fill: none; stroke-dasharray: 0.8,1.32; stroke-dashoffset: 0; stroke: #b0b0b0; stroke-width: 0.8"/>
     </g>
     <g id="line2d_10">
      <g>
       <use xlink:href="#mb4de97986f" x="569.5852" y="161.826667" style="stroke: #000000; stroke-width: 0.8"/>
      </g>
     </g>
     <g id="text_5">
      <!-- 80 -->
      <g transform="translate(560.6777 179.464479) scale(0.14 -0.14)">
       <defs>
        <path id="DejaVuSans-38" d="M 2034 2216 
Q 1584 2216 1326 1975 
Q 1069 1734 1069 1313 
Q 1069 891 1326 650 
Q 1584 409 2034 409 
Q 2484 409 2743 651 
Q 3003 894 3003 1313 
Q 3003 1734 2745 1975 
Q 2488 2216 2034 2216 
z
M 1403 2484 
Q 997 2584 770 2862 
Q 544 3141 544 3541 
Q 544 4100 942 4425 
Q 1341 4750 2034 4750 
Q 2731 4750 3128 4425 
Q 3525 4100 3525 3541 
Q 3525 3141 3298 2862 
Q 3072 2584 2669 2484 
Q 3125 2378 3379 2068 
Q 3634 1759 3634 1313 
Q 3634 634 3220 271 
Q 2806 -91 2034 -91 
Q 1263 -91 848 271 
Q 434 634 434 1313 
Q 434 1759 690 2068 
Q 947 2378 1403 2484 
z
M 1172 3481 
Q 1172 3119 1398 2916 
Q 1625 2713 2034 2713 
Q 2441 2713 2670 2916 
Q 2900 3119 2900 3481 
Q 2900 3844 2670 4047 
Q 2441 4250 2034 4250 
Q 1625 4250 1398 4047 
Q 1172 3844 1172 3481 
z
" transform="scale(0.015625)"/>
       </defs>
       <use xlink:href="#DejaVuSans-38"/>
       <use xlink:href="#DejaVuSans-30" x="63.623047"/>
      </g>
     </g>
    </g>
    <g id="xtick_6">
     <g id="line2d_11">
      <path d="M 695.835 161.826667 
L 695.835 10.8 
" clip-path="url(#p28d74911f9)" style="fill: none; stroke-dasharray: 0.8,1.32; stroke-dashoffset: 0; stroke: #b0b0b0; stroke-width: 0.8"/>
     </g>
     <g id="line2d_12">
      <g>
       <use xlink:href="#mb4de97986f" x="695.835" y="161.826667" style="stroke: #000000; stroke-width: 0.8"/>
      </g>
     </g>
     <g id="text_6">
      <!-- 100 -->
      <g transform="translate(682.47375 179.464479) scale(0.14 -0.14)">
       <defs>
        <path id="DejaVuSans-31" d="M 794 531 
L 1825 531 
L 1825 4091 
L 703 3866 
L 703 4441 
L 1819 4666 
L 2450 4666 
L 2450 531 
L 3481 531 
L 3481 0 
L 794 0 
L 794 531 
z
" transform="scale(0.015625)"/>
       </defs>
       <use xlink:href="#DejaVuSans-31"/>
       <use xlink:href="#DejaVuSans-30" x="63.623047"/>
       <use xlink:href="#DejaVuSans-30" x="127.246094"/>
      </g>
     </g>
    </g>
   </g>
   <g id="matplotlib.axis_2">
    <g id="ytick_1">
     <g id="line2d_13">
      <path d="M 64.586 154.961818 
L 695.835 154.961818 
" clip-path="url(#p28d74911f9)" style="fill: none; stroke-dasharray: 0.8,1.32; stroke-dashoffset: 0; stroke: #b0b0b0; stroke-width: 0.8"/>
     </g>
     <g id="line2d_14">
      <defs>
       <path id="mbf363bbdb2" d="M 0 0 
L -3.5 0 
" style="stroke: #000000; stroke-width: 0.8"/>
      </defs>
      <g>
       <use xlink:href="#mbf363bbdb2" x="64.586" y="154.961818" style="stroke: #000000; stroke-width: 0.8"/>
      </g>
     </g>
     <g id="text_7">
      <!-- 0.0 -->
      <g transform="translate(35.321625 160.280724) scale(0.14 -0.14)">
       <defs>
        <path id="DejaVuSans-2e" d="M 684 794 
L 1344 794 
L 1344 0 
L 684 0 
L 684 794 
z
" transform="scale(0.015625)"/>
       </defs>
       <use xlink:href="#DejaVuSans-30"/>
       <use xlink:href="#DejaVuSans-2e" x="63.623047"/>
       <use xlink:href="#DejaVuSans-30" x="95.410156"/>
      </g>
     </g>
    </g>
    <g id="ytick_2">
     <g id="line2d_15">
      <path d="M 64.586 109.616363 
L 695.835 109.616363 
" clip-path="url(#p28d74911f9)" style="fill: none; stroke-dasharray: 0.8,1.32; stroke-dashoffset: 0; stroke: #b0b0b0; stroke-width: 0.8"/>
     </g>
     <g id="line2d_16">
      <g>
       <use xlink:href="#mbf363bbdb2" x="64.586" y="109.616363" style="stroke: #000000; stroke-width: 0.8"/>
      </g>
     </g>
     <g id="text_8">
      <!-- 0.5 -->
      <g transform="translate(35.321625 114.935269) scale(0.14 -0.14)">
       <defs>
        <path id="DejaVuSans-35" d="M 691 4666 
L 3169 4666 
L 3169 4134 
L 1269 4134 
L 1269 2991 
Q 1406 3038 1543 3061 
Q 1681 3084 1819 3084 
Q 2600 3084 3056 2656 
Q 3513 2228 3513 1497 
Q 3513 744 3044 326 
Q 2575 -91 1722 -91 
Q 1428 -91 1123 -41 
Q 819 9 494 109 
L 494 744 
Q 775 591 1075 516 
Q 1375 441 1709 441 
Q 2250 441 2565 725 
Q 2881 1009 2881 1497 
Q 2881 1984 2565 2268 
Q 2250 2553 1709 2553 
Q 1456 2553 1204 2497 
Q 953 2441 691 2322 
L 691 4666 
z
" transform="scale(0.015625)"/>
       </defs>
       <use xlink:href="#DejaVuSans-30"/>
       <use xlink:href="#DejaVuSans-2e" x="63.623047"/>
       <use xlink:href="#DejaVuSans-35" x="95.410156"/>
      </g>
     </g>
    </g>
    <g id="ytick_3">
     <g id="line2d_17">
      <path d="M 64.586 64.270907 
L 695.835 64.270907 
" clip-path="url(#p28d74911f9)" style="fill: none; stroke-dasharray: 0.8,1.32; stroke-dashoffset: 0; stroke: #b0b0b0; stroke-width: 0.8"/>
     </g>
     <g id="line2d_18">
      <g>
       <use xlink:href="#mbf363bbdb2" x="64.586" y="64.270907" style="stroke: #000000; stroke-width: 0.8"/>
      </g>
     </g>
     <g id="text_9">
      <!-- 1.0 -->
      <g transform="translate(35.321625 69.589814) scale(0.14 -0.14)">
       <use xlink:href="#DejaVuSans-31"/>
       <use xlink:href="#DejaVuSans-2e" x="63.623047"/>
       <use xlink:href="#DejaVuSans-30" x="95.410156"/>
      </g>
     </g>
    </g>
    <g id="ytick_4">
     <g id="line2d_19">
      <path d="M 64.586 18.925452 
L 695.835 18.925452 
" clip-path="url(#p28d74911f9)" style="fill: none; stroke-dasharray: 0.8,1.32; stroke-dashoffset: 0; stroke: #b0b0b0; stroke-width: 0.8"/>
     </g>
     <g id="line2d_20">
      <g>
       <use xlink:href="#mbf363bbdb2" x="64.586" y="18.925452" style="stroke: #000000; stroke-width: 0.8"/>
      </g>
     </g>
     <g id="text_10">
      <!-- 1.5 -->
      <g transform="translate(35.321625 24.244358) scale(0.14 -0.14)">
       <use xlink:href="#DejaVuSans-31"/>
       <use xlink:href="#DejaVuSans-2e" x="63.623047"/>
       <use xlink:href="#DejaVuSans-35" x="95.410156"/>
      </g>
     </g>
    </g>
    <g id="text_11">
     <!-- $C_l$ [-] -->
     <g transform="translate(28.410062 102.973333) rotate(-90) scale(0.14 -0.14)">
      <defs>
       <path id="DejaVuSans-Oblique-43" d="M 4447 4306 
L 4319 3641 
Q 4019 3944 3683 4091 
Q 3347 4238 2956 4238 
Q 2422 4238 2017 3981 
Q 1613 3725 1319 3200 
Q 1131 2863 1032 2486 
Q 934 2109 934 1728 
Q 934 1091 1264 756 
Q 1594 422 2222 422 
Q 2656 422 3056 561 
Q 3456 700 3834 978 
L 3688 231 
Q 3316 72 2936 -9 
Q 2556 -91 2175 -91 
Q 1278 -91 773 396 
Q 269 884 269 1753 
Q 269 2309 461 2846 
Q 653 3384 1013 3828 
Q 1394 4300 1883 4525 
Q 2372 4750 3022 4750 
Q 3422 4750 3780 4639 
Q 4138 4528 4447 4306 
z
" transform="scale(0.015625)"/>
       <path id="DejaVuSans-Oblique-6c" d="M 1172 4863 
L 1747 4863 
L 800 0 
L 225 0 
L 1172 4863 
z
" transform="scale(0.015625)"/>
       <path id="DejaVuSans-20" transform="scale(0.015625)"/>
       <path id="DejaVuSans-5b" d="M 550 4863 
L 1875 4863 
L 1875 4416 
L 1125 4416 
L 1125 -397 
L 1875 -397 
L 1875 -844 
L 550 -844 
L 550 4863 
z
" transform="scale(0.015625)"/>
       <path id="DejaVuSans-2d" d="M 313 2009 
L 1997 2009 
L 1997 1497 
L 313 1497 
L 313 2009 
z
" transform="scale(0.015625)"/>
       <path id="DejaVuSans-5d" d="M 1947 4863 
L 1947 -844 
L 622 -844 
L 622 -397 
L 1369 -397 
L 1369 4416 
L 622 4416 
L 622 4863 
L 1947 4863 
z
" transform="scale(0.015625)"/>
      </defs>
      <use xlink:href="#DejaVuSans-Oblique-43" transform="translate(0 0.015625)"/>
      <use xlink:href="#DejaVuSans-Oblique-6c" transform="translate(69.824219 -16.390625) scale(0.7)"/>
      <use xlink:href="#DejaVuSans-20" transform="translate(92.006836 0.015625)"/>
      <use xlink:href="#DejaVuSans-5b" transform="translate(123.793945 0.015625)"/>
      <use xlink:href="#DejaVuSans-2d" transform="translate(162.807617 0.015625)"/>
      <use xlink:href="#DejaVuSans-5d" transform="translate(198.891602 0.015625)"/>
     </g>
    </g>
   </g>
   <g id="line2d_21">
    <path d="M 64.586 17.664848 
L 70.962253 17.664848 
L 77.338505 17.664848 
L 83.714758 17.664848 
L 90.09101 17.664848 
L 96.467263 17.664848 
L 102.843515 17.664848 
L 109.219768 17.664848 
L 115.59602 17.664848 
L 121.972273 17.664848 
L 128.348525 17.664848 
L 134.724778 17.664848 
L 141.10103 17.664848 
L 147.477283 17.664848 
L 153.853535 17.664848 
L 160.229788 17.664848 
L 166.60604 17.664848 
L 172.982293 17.664848 
L 179.358545 17.664848 
L 185.734798 17.664848 
L 192.111051 17.664848 
L 198.487303 17.664848 
L 204.863556 17.664848 
L 211.239808 17.664848 
L 217.616061 17.674693 
L 223.992313 18.245184 
L 230.368566 19.481762 
L 236.744818 21.088047 
L 243.121071 22.767657 
L 249.497323 24.224211 
L 255.873576 25.171822 
L 262.249828 25.752036 
L 268.626081 26.186652 
L 275.002333 26.573629 
L 281.378586 27.010921 
L 287.754838 27.596488 
L 294.131091 28.524493 
L 300.507343 30.858155 
L 306.883596 34.63932 
L 313.259848 39.579379 
L 319.636101 45.389725 
L 326.012354 51.781748 
L 332.388606 58.466839 
L 338.764859 65.15639 
L 345.141111 71.561792 
L 351.517364 77.394437 
L 357.893616 82.365715 
L 364.269869 86.187018 
L 370.646121 88.754471 
L 377.022374 91.08667 
L 383.398626 93.386865 
L 389.774879 95.654484 
L 396.151131 97.888955 
L 402.527384 100.089704 
L 408.903636 102.256158 
L 415.279889 104.387744 
L 421.656141 106.48389 
L 428.032394 108.544023 
L 434.408646 110.567569 
L 440.784899 112.553956 
L 447.161152 114.502611 
L 453.537404 116.412961 
L 459.913657 118.284432 
L 466.289909 120.116453 
L 472.666162 121.90845 
L 479.042414 123.659851 
L 485.418667 125.370081 
L 491.794919 127.03857 
L 498.171172 128.664742 
L 504.547424 130.248027 
L 510.923677 131.78785 
L 517.299929 133.283639 
L 523.676182 134.73482 
L 530.052434 136.140822 
L 536.428687 137.501071 
L 542.804939 138.814994 
L 549.181192 140.082018 
L 555.557444 141.301571 
L 561.933697 142.473079 
L 568.309949 143.595969 
L 574.686202 144.669669 
L 581.062455 145.693606 
L 587.438707 146.667206 
L 593.81496 147.589898 
L 600.191212 148.461107 
L 606.567465 149.280261 
L 612.943717 150.046788 
L 619.31997 150.760113 
L 625.696222 151.419665 
L 632.072475 152.02487 
L 638.448727 152.575156 
L 644.82498 153.069949 
L 651.201232 153.508677 
L 657.577485 153.890767 
L 663.953737 154.215646 
L 670.32999 154.48274 
L 676.706242 154.691477 
L 683.082495 154.841285 
L 689.458747 154.931589 
L 695.835 154.961818 
" clip-path="url(#p28d74911f9)" style="fill: none; stroke: #1f77b4; stroke-width: 1.5; stroke-linecap: square"/>
   </g>
   <g id="line2d_22">
    <defs>
     <path id="m7615f243f1" d="M 0 3 
C 0.795609 3 1.55874 2.683901 2.12132 2.12132 
C 2.683901 1.55874 3 0.795609 3 0 
C 3 -0.795609 2.683901 -1.55874 2.12132 -2.12132 
C 1.55874 -2.683901 0.795609 -3 0 -3 
C -0.795609 -3 -1.55874 -2.683901 -2.12132 -2.12132 
C -2.683901 -1.55874 -3 -0.795609 -3 0 
C -3 0.795609 -2.683901 1.55874 -2.12132 2.12132 
C -1.55874 2.683901 -0.795609 3 0 3 
z
" style="stroke: #1f77b4"/>
    </defs>
    <g clip-path="url(#p28d74911f9)">
     <use xlink:href="#m7615f243f1" x="216.717009" y="17.664848" style="fill: #1f77b4; stroke: #1f77b4"/>
     <use xlink:href="#m7615f243f1" x="254.591949" y="25.02895" style="fill: #1f77b4; stroke: #1f77b4"/>
     <use xlink:href="#m7615f243f1" x="291.83564" y="28.094303" style="fill: #1f77b4; stroke: #1f77b4"/>
     <use xlink:href="#m7615f243f1" x="367.58552" y="87.623817" style="fill: #1f77b4; stroke: #1f77b4"/>
    </g>
   </g>
   <g id="line2d_23">
    <defs>
     <path id="mc5b9fc5af4" d="M -3 3 
L 3 -3 
M -3 -3 
L 3 3 
" style="stroke: #000000"/>
    </defs>
    <g clip-path="url(#p28d74911f9)">
     <use xlink:href="#mc5b9fc5af4" x="216.717009" y="37.063634" style="stroke: #000000"/>
     <use xlink:href="#mc5b9fc5af4" x="254.591949" y="43.411998" style="stroke: #000000"/>
     <use xlink:href="#mc5b9fc5af4" x="291.83564" y="30.715271" style="stroke: #000000"/>
     <use xlink:href="#mc5b9fc5af4" x="367.58552" y="105.988726" style="stroke: #000000"/>
    </g>
   </g>
   <g id="line2d_24">
    <path d="M 64.586 26.73394 
L 70.962253 26.73394 
L 77.338505 26.73394 
L 83.714758 26.73394 
L 90.09101 26.73394 
L 96.467263 26.73394 
L 102.843515 26.73394 
L 109.219768 26.73394 
L 115.59602 26.73394 
L 121.972273 26.73394 
L 128.348525 26.73394 
L 134.724778 26.73394 
L 141.10103 26.73394 
L 147.477283 26.73394 
L 153.853535 26.73394 
L 160.229788 26.73394 
L 166.60604 26.73394 
L 172.982293 26.73394 
L 179.358545 26.73394 
L 185.734798 26.73394 
L 192.111051 26.73394 
L 198.487303 26.73394 
L 204.863556 26.73394 
L 211.239808 26.73394 
L 217.616061 26.743784 
L 223.992313 27.314275 
L 230.368566 28.550854 
L 236.744818 30.157138 
L 243.121071 31.836748 
L 249.497323 33.293302 
L 255.873576 34.240913 
L 262.249828 34.821127 
L 268.626081 35.255743 
L 275.002333 35.64272 
L 281.378586 36.080012 
L 287.754838 36.665579 
L 294.131091 37.596088 
L 300.507343 39.959874 
L 306.883596 43.797321 
L 313.259848 48.809762 
L 319.636101 54.698524 
L 326.012354 61.16494 
L 332.388606 67.910339 
L 338.764859 74.63605 
L 345.141111 81.043406 
L 351.517364 86.833735 
L 357.893616 91.708368 
L 364.269869 95.368635 
L 370.646121 97.709723 
L 377.022374 99.803297 
L 383.398626 101.863112 
L 389.774879 103.888856 
L 396.151131 105.880219 
L 402.527384 107.83689 
L 408.903636 109.758557 
L 415.279889 111.64491 
L 421.656141 113.495638 
L 428.032394 115.310429 
L 434.408646 117.088973 
L 440.784899 118.830958 
L 447.161152 120.536074 
L 453.537404 122.204009 
L 459.913657 123.834453 
L 466.289909 125.427094 
L 472.666162 126.981621 
L 479.042414 128.497724 
L 485.418667 129.975091 
L 491.794919 131.413412 
L 498.171172 132.812374 
L 504.547424 134.171668 
L 510.923677 135.490982 
L 517.299929 136.770006 
L 523.676182 138.008427 
L 530.052434 139.205936 
L 536.428687 140.362221 
L 542.804939 141.47697 
L 549.181192 142.549874 
L 555.557444 143.580621 
L 561.933697 144.5689 
L 568.309949 145.5144 
L 574.686202 146.41681 
L 581.062455 147.275818 
L 587.438707 148.091115 
L 593.81496 148.862388 
L 600.191212 149.589328 
L 606.567465 150.271622 
L 612.943717 150.90896 
L 619.31997 151.50103 
L 625.696222 152.047523 
L 632.072475 152.548126 
L 638.448727 153.002528 
L 644.82498 153.41042 
L 651.201232 153.771489 
L 657.577485 154.085424 
L 663.953737 154.351915 
L 670.32999 154.570651 
L 676.706242 154.74132 
L 683.082495 154.863612 
L 689.458747 154.937215 
L 695.835 154.961818 
" clip-path="url(#p28d74911f9)" style="fill: none; stroke: #ff7f0e; stroke-width: 1.5; stroke-linecap: square"/>
   </g>
   <g id="line2d_25">
    <defs>
     <path id="m64f6042af8" d="M 0 3 
C 0.795609 3 1.55874 2.683901 2.12132 2.12132 
C 2.683901 1.55874 3 0.795609 3 0 
C 3 -0.795609 2.683901 -1.55874 2.12132 -2.12132 
C 1.55874 -2.683901 0.795609 -3 0 -3 
C -0.795609 -3 -1.55874 -2.683901 -2.12132 -2.12132 
C -2.683901 -1.55874 -3 -0.795609 -3 0 
C -3 0.795609 -2.683901 1.55874 -2.12132 2.12132 
C -1.55874 2.683901 -0.795609 3 0 3 
z
" style="stroke: #ff7f0e"/>
    </defs>
    <g clip-path="url(#p28d74911f9)">
     <use xlink:href="#m64f6042af8" x="216.717009" y="26.73394" style="fill: #ff7f0e; stroke: #ff7f0e"/>
     <use xlink:href="#m64f6042af8" x="254.591949" y="34.098042" style="fill: #ff7f0e; stroke: #ff7f0e"/>
     <use xlink:href="#m64f6042af8" x="291.83564" y="37.163394" style="fill: #ff7f0e; stroke: #ff7f0e"/>
     <use xlink:href="#m64f6042af8" x="367.58552" y="96.692908" style="fill: #ff7f0e; stroke: #ff7f0e"/>
    </g>
   </g>
   <g id="line2d_26">
    <g clip-path="url(#p28d74911f9)">
     <use xlink:href="#mc5b9fc5af4" x="216.717009" y="37.063634" style="stroke: #000000"/>
     <use xlink:href="#mc5b9fc5af4" x="254.591949" y="43.411998" style="stroke: #000000"/>
     <use xlink:href="#mc5b9fc5af4" x="291.83564" y="30.715271" style="stroke: #000000"/>
     <use xlink:href="#mc5b9fc5af4" x="367.58552" y="105.988726" style="stroke: #000000"/>
    </g>
   </g>
   <g id="line2d_27">
    <path d="M 64.586 35.803031 
L 70.962253 35.803031 
L 77.338505 35.803031 
L 83.714758 35.803031 
L 90.09101 35.803031 
L 96.467263 35.803031 
L 102.843515 35.803031 
L 109.219768 35.803031 
L 115.59602 35.803031 
L 121.972273 35.803031 
L 128.348525 35.803031 
L 134.724778 35.803031 
L 141.10103 35.803031 
L 147.477283 35.803031 
L 153.853535 35.803031 
L 160.229788 35.803031 
L 166.60604 35.803031 
L 172.982293 35.803031 
L 179.358545 35.803031 
L 185.734798 35.803031 
L 192.111051 35.803031 
L 198.487303 35.803031 
L 204.863556 35.803031 
L 211.239808 35.803031 
L 217.616061 35.812875 
L 223.992313 36.383366 
L 230.368566 37.619945 
L 236.744818 39.226229 
L 243.121071 40.905839 
L 249.497323 42.362393 
L 255.873576 43.310004 
L 262.249828 43.890218 
L 268.626081 44.324834 
L 275.002333 44.711811 
L 281.378586 45.149104 
L 287.754838 45.73467 
L 294.131091 46.667891 
L 300.507343 49.064304 
L 306.883596 52.962714 
L 313.259848 58.053551 
L 319.636101 64.027249 
L 326.012354 70.574241 
L 332.388606 77.38496 
L 338.764859 84.149839 
L 345.141111 90.55931 
L 351.517364 96.303806 
L 357.893616 101.07376 
L 364.269869 104.559606 
L 370.646121 106.655708 
L 377.022374 108.49246 
L 383.398626 110.29516 
L 389.774879 112.063712 
L 396.151131 113.798025 
L 402.527384 115.498004 
L 408.903636 117.163555 
L 415.279889 118.794585 
L 421.656141 120.390999 
L 428.032394 121.952706 
L 434.408646 123.47961 
L 440.784899 124.971618 
L 447.161152 126.428636 
L 453.537404 127.850572 
L 459.913657 129.23733 
L 466.289909 130.588817 
L 472.666162 131.90494 
L 479.042414 133.185605 
L 485.418667 134.430719 
L 491.794919 135.640187 
L 498.171172 136.813916 
L 504.547424 137.951812 
L 510.923677 139.053781 
L 517.299929 140.119731 
L 523.676182 141.149567 
L 530.052434 142.143195 
L 536.428687 143.100522 
L 542.804939 144.021455 
L 549.181192 144.905899 
L 555.557444 145.75376 
L 561.933697 146.564946 
L 568.309949 147.339363 
L 574.686202 148.076916 
L 581.062455 148.777512 
L 587.438707 149.441057 
L 593.81496 150.067459 
L 600.191212 150.656622 
L 606.567465 151.208454 
L 612.943717 151.72286 
L 619.31997 152.199748 
L 625.696222 152.639023 
L 632.072475 153.040591 
L 638.448727 153.40436 
L 644.82498 153.730234 
L 651.201232 154.018122 
L 657.577485 154.267928 
L 663.953737 154.47956 
L 670.32999 154.652923 
L 676.706242 154.787924 
L 683.082495 154.884469 
L 689.458747 154.942465 
L 695.835 154.961818 
" clip-path="url(#p28d74911f9)" style="fill: none; stroke: #2ca02c; stroke-width: 1.5; stroke-linecap: square"/>
   </g>
   <g id="line2d_28">
    <defs>
     <path id="m7b9da41ed6" d="M 0 3 
C 0.795609 3 1.55874 2.683901 2.12132 2.12132 
C 2.683901 1.55874 3 0.795609 3 0 
C 3 -0.795609 2.683901 -1.55874 2.12132 -2.12132 
C 1.55874 -2.683901 0.795609 -3 0 -3 
C -0.795609 -3 -1.55874 -2.683901 -2.12132 -2.12132 
C -2.683901 -1.55874 -3 -0.795609 -3 0 
C -3 0.795609 -2.683901 1.55874 -2.12132 2.12132 
C -1.55874 2.683901 -0.795609 3 0 3 
z
" style="stroke: #2ca02c"/>
    </defs>
    <g clip-path="url(#p28d74911f9)">
     <use xlink:href="#m7b9da41ed6" x="216.717009" y="35.803031" style="fill: #2ca02c; stroke: #2ca02c"/>
     <use xlink:href="#m7b9da41ed6" x="254.591949" y="43.167133" style="fill: #2ca02c; stroke: #2ca02c"/>
     <use xlink:href="#m7b9da41ed6" x="291.83564" y="46.232485" style="fill: #2ca02c; stroke: #2ca02c"/>
     <use xlink:href="#m7b9da41ed6" x="367.58552" y="105.761999" style="fill: #2ca02c; stroke: #2ca02c"/>
    </g>
   </g>
   <g id="line2d_29">
    <g clip-path="url(#p28d74911f9)">
     <use xlink:href="#mc5b9fc5af4" x="216.717009" y="37.063634" style="stroke: #000000"/>
     <use xlink:href="#mc5b9fc5af4" x="254.591949" y="43.411998" style="stroke: #000000"/>
     <use xlink:href="#mc5b9fc5af4" x="291.83564" y="30.715271" style="stroke: #000000"/>
     <use xlink:href="#mc5b9fc5af4" x="367.58552" y="105.988726" style="stroke: #000000"/>
    </g>
   </g>
   <g id="patch_3">
    <path d="M 64.586 161.826667 
L 64.586 10.8 
" style="fill: none; stroke: #000000; stroke-width: 0.8; stroke-linejoin: miter; stroke-linecap: square"/>
   </g>
   <g id="patch_4">
    <path d="M 695.835 161.826667 
L 695.835 10.8 
" style="fill: none; stroke: #000000; stroke-width: 0.8; stroke-linejoin: miter; stroke-linecap: square"/>
   </g>
   <g id="patch_5">
    <path d="M 64.586 161.826667 
L 695.835 161.826667 
" style="fill: none; stroke: #000000; stroke-width: 0.8; stroke-linejoin: miter; stroke-linecap: square"/>
   </g>
   <g id="patch_6">
    <path d="M 64.586 10.8 
L 695.835 10.8 
" style="fill: none; stroke: #000000; stroke-width: 0.8; stroke-linejoin: miter; stroke-linecap: square"/>
   </g>
   <g id="legend_1">
    <g id="patch_7">
     <path d="M 566.308125 90.855 
L 687.435 90.855 
Q 689.835 90.855 689.835 88.455 
L 689.835 19.2 
Q 689.835 16.8 687.435 16.8 
L 566.308125 16.8 
Q 563.908125 16.8 563.908125 19.2 
L 563.908125 88.455 
Q 563.908125 90.855 566.308125 90.855 
z
" style="fill: #ffffff; opacity: 0.8; stroke: #cccccc; stroke-linejoin: miter"/>
    </g>
    <g id="line2d_30">
     <path d="M 568.708125 26.518125 
L 580.708125 26.518125 
L 592.708125 26.518125 
" style="fill: none; stroke: #1f77b4; stroke-width: 1.5; stroke-linecap: square"/>
    </g>
    <g id="text_12">
     <!-- Design func 1 -->
     <g transform="translate(602.308125 30.718125) scale(0.12 -0.12)">
      <defs>
       <path id="DejaVuSans-44" d="M 1259 4147 
L 1259 519 
L 2022 519 
Q 2988 519 3436 956 
Q 3884 1394 3884 2338 
Q 3884 3275 3436 3711 
Q 2988 4147 2022 4147 
L 1259 4147 
z
M 628 4666 
L 1925 4666 
Q 3281 4666 3915 4102 
Q 4550 3538 4550 2338 
Q 4550 1131 3912 565 
Q 3275 0 1925 0 
L 628 0 
L 628 4666 
z
" transform="scale(0.015625)"/>
       <path id="DejaVuSans-65" d="M 3597 1894 
L 3597 1613 
L 953 1613 
Q 991 1019 1311 708 
Q 1631 397 2203 397 
Q 2534 397 2845 478 
Q 3156 559 3463 722 
L 3463 178 
Q 3153 47 2828 -22 
Q 2503 -91 2169 -91 
Q 1331 -91 842 396 
Q 353 884 353 1716 
Q 353 2575 817 3079 
Q 1281 3584 2069 3584 
Q 2775 3584 3186 3129 
Q 3597 2675 3597 1894 
z
M 3022 2063 
Q 3016 2534 2758 2815 
Q 2500 3097 2075 3097 
Q 1594 3097 1305 2825 
Q 1016 2553 972 2059 
L 3022 2063 
z
" transform="scale(0.015625)"/>
       <path id="DejaVuSans-73" d="M 2834 3397 
L 2834 2853 
Q 2591 2978 2328 3040 
Q 2066 3103 1784 3103 
Q 1356 3103 1142 2972 
Q 928 2841 928 2578 
Q 928 2378 1081 2264 
Q 1234 2150 1697 2047 
L 1894 2003 
Q 2506 1872 2764 1633 
Q 3022 1394 3022 966 
Q 3022 478 2636 193 
Q 2250 -91 1575 -91 
Q 1294 -91 989 -36 
Q 684 19 347 128 
L 347 722 
Q 666 556 975 473 
Q 1284 391 1588 391 
Q 1994 391 2212 530 
Q 2431 669 2431 922 
Q 2431 1156 2273 1281 
Q 2116 1406 1581 1522 
L 1381 1569 
Q 847 1681 609 1914 
Q 372 2147 372 2553 
Q 372 3047 722 3315 
Q 1072 3584 1716 3584 
Q 2034 3584 2315 3537 
Q 2597 3491 2834 3397 
z
" transform="scale(0.015625)"/>
       <path id="DejaVuSans-69" d="M 603 3500 
L 1178 3500 
L 1178 0 
L 603 0 
L 603 3500 
z
M 603 4863 
L 1178 4863 
L 1178 4134 
L 603 4134 
L 603 4863 
z
" transform="scale(0.015625)"/>
       <path id="DejaVuSans-67" d="M 2906 1791 
Q 2906 2416 2648 2759 
Q 2391 3103 1925 3103 
Q 1463 3103 1205 2759 
Q 947 2416 947 1791 
Q 947 1169 1205 825 
Q 1463 481 1925 481 
Q 2391 481 2648 825 
Q 2906 1169 2906 1791 
z
M 3481 434 
Q 3481 -459 3084 -895 
Q 2688 -1331 1869 -1331 
Q 1566 -1331 1297 -1286 
Q 1028 -1241 775 -1147 
L 775 -588 
Q 1028 -725 1275 -790 
Q 1522 -856 1778 -856 
Q 2344 -856 2625 -561 
Q 2906 -266 2906 331 
L 2906 616 
Q 2728 306 2450 153 
Q 2172 0 1784 0 
Q 1141 0 747 490 
Q 353 981 353 1791 
Q 353 2603 747 3093 
Q 1141 3584 1784 3584 
Q 2172 3584 2450 3431 
Q 2728 3278 2906 2969 
L 2906 3500 
L 3481 3500 
L 3481 434 
z
" transform="scale(0.015625)"/>
       <path id="DejaVuSans-6e" d="M 3513 2113 
L 3513 0 
L 2938 0 
L 2938 2094 
Q 2938 2591 2744 2837 
Q 2550 3084 2163 3084 
Q 1697 3084 1428 2787 
Q 1159 2491 1159 1978 
L 1159 0 
L 581 0 
L 581 3500 
L 1159 3500 
L 1159 2956 
Q 1366 3272 1645 3428 
Q 1925 3584 2291 3584 
Q 2894 3584 3203 3211 
Q 3513 2838 3513 2113 
z
" transform="scale(0.015625)"/>
       <path id="DejaVuSans-66" d="M 2375 4863 
L 2375 4384 
L 1825 4384 
Q 1516 4384 1395 4259 
Q 1275 4134 1275 3809 
L 1275 3500 
L 2222 3500 
L 2222 3053 
L 1275 3053 
L 1275 0 
L 697 0 
L 697 3053 
L 147 3053 
L 147 3500 
L 697 3500 
L 697 3744 
Q 697 4328 969 4595 
Q 1241 4863 1831 4863 
L 2375 4863 
z
" transform="scale(0.015625)"/>
       <path id="DejaVuSans-75" d="M 544 1381 
L 544 3500 
L 1119 3500 
L 1119 1403 
Q 1119 906 1312 657 
Q 1506 409 1894 409 
Q 2359 409 2629 706 
Q 2900 1003 2900 1516 
L 2900 3500 
L 3475 3500 
L 3475 0 
L 2900 0 
L 2900 538 
Q 2691 219 2414 64 
Q 2138 -91 1772 -91 
Q 1169 -91 856 284 
Q 544 659 544 1381 
z
M 1991 3584 
L 1991 3584 
z
" transform="scale(0.015625)"/>
       <path id="DejaVuSans-63" d="M 3122 3366 
L 3122 2828 
Q 2878 2963 2633 3030 
Q 2388 3097 2138 3097 
Q 1578 3097 1268 2742 
Q 959 2388 959 1747 
Q 959 1106 1268 751 
Q 1578 397 2138 397 
Q 2388 397 2633 464 
Q 2878 531 3122 666 
L 3122 134 
Q 2881 22 2623 -34 
Q 2366 -91 2075 -91 
Q 1284 -91 818 406 
Q 353 903 353 1747 
Q 353 2603 823 3093 
Q 1294 3584 2113 3584 
Q 2378 3584 2631 3529 
Q 2884 3475 3122 3366 
z
" transform="scale(0.015625)"/>
      </defs>
      <use xlink:href="#DejaVuSans-44"/>
      <use xlink:href="#DejaVuSans-65" x="77.001953"/>
      <use xlink:href="#DejaVuSans-73" x="138.525391"/>
      <use xlink:href="#DejaVuSans-69" x="190.625"/>
      <use xlink:href="#DejaVuSans-67" x="218.408203"/>
      <use xlink:href="#DejaVuSans-6e" x="281.884766"/>
      <use xlink:href="#DejaVuSans-20" x="345.263672"/>
      <use xlink:href="#DejaVuSans-66" x="377.050781"/>
      <use xlink:href="#DejaVuSans-75" x="412.255859"/>
      <use xlink:href="#DejaVuSans-6e" x="475.634766"/>
      <use xlink:href="#DejaVuSans-63" x="539.013672"/>
      <use xlink:href="#DejaVuSans-20" x="593.994141"/>
      <use xlink:href="#DejaVuSans-31" x="625.78125"/>
     </g>
    </g>
    <g id="line2d_31">
     <path d="M 568.708125 44.131875 
L 580.708125 44.131875 
L 592.708125 44.131875 
" style="fill: none; stroke: #ff7f0e; stroke-width: 1.5; stroke-linecap: square"/>
    </g>
    <g id="text_13">
     <!-- Design func 2 -->
     <g transform="translate(602.308125 48.331875) scale(0.12 -0.12)">
      <use xlink:href="#DejaVuSans-44"/>
      <use xlink:href="#DejaVuSans-65" x="77.001953"/>
      <use xlink:href="#DejaVuSans-73" x="138.525391"/>
      <use xlink:href="#DejaVuSans-69" x="190.625"/>
      <use xlink:href="#DejaVuSans-67" x="218.408203"/>
      <use xlink:href="#DejaVuSans-6e" x="281.884766"/>
      <use xlink:href="#DejaVuSans-20" x="345.263672"/>
      <use xlink:href="#DejaVuSans-66" x="377.050781"/>
      <use xlink:href="#DejaVuSans-75" x="412.255859"/>
      <use xlink:href="#DejaVuSans-6e" x="475.634766"/>
      <use xlink:href="#DejaVuSans-63" x="539.013672"/>
      <use xlink:href="#DejaVuSans-20" x="593.994141"/>
      <use xlink:href="#DejaVuSans-32" x="625.78125"/>
     </g>
    </g>
    <g id="line2d_32">
     <path d="M 568.708125 61.745625 
L 580.708125 61.745625 
L 592.708125 61.745625 
" style="fill: none; stroke: #2ca02c; stroke-width: 1.5; stroke-linecap: square"/>
    </g>
    <g id="text_14">
     <!-- Design func 3 -->
     <g transform="translate(602.308125 65.945625) scale(0.12 -0.12)">
      <defs>
       <path id="DejaVuSans-33" d="M 2597 2516 
Q 3050 2419 3304 2112 
Q 3559 1806 3559 1356 
Q 3559 666 3084 287 
Q 2609 -91 1734 -91 
Q 1441 -91 1130 -33 
Q 819 25 488 141 
L 488 750 
Q 750 597 1062 519 
Q 1375 441 1716 441 
Q 2309 441 2620 675 
Q 2931 909 2931 1356 
Q 2931 1769 2642 2001 
Q 2353 2234 1838 2234 
L 1294 2234 
L 1294 2753 
L 1863 2753 
Q 2328 2753 2575 2939 
Q 2822 3125 2822 3475 
Q 2822 3834 2567 4026 
Q 2313 4219 1838 4219 
Q 1578 4219 1281 4162 
Q 984 4106 628 3988 
L 628 4550 
Q 988 4650 1302 4700 
Q 1616 4750 1894 4750 
Q 2613 4750 3031 4423 
Q 3450 4097 3450 3541 
Q 3450 3153 3228 2886 
Q 3006 2619 2597 2516 
z
" transform="scale(0.015625)"/>
      </defs>
      <use xlink:href="#DejaVuSans-44"/>
      <use xlink:href="#DejaVuSans-65" x="77.001953"/>
      <use xlink:href="#DejaVuSans-73" x="138.525391"/>
      <use xlink:href="#DejaVuSans-69" x="190.625"/>
      <use xlink:href="#DejaVuSans-67" x="218.408203"/>
      <use xlink:href="#DejaVuSans-6e" x="281.884766"/>
      <use xlink:href="#DejaVuSans-20" x="345.263672"/>
      <use xlink:href="#DejaVuSans-66" x="377.050781"/>
      <use xlink:href="#DejaVuSans-75" x="412.255859"/>
      <use xlink:href="#DejaVuSans-6e" x="475.634766"/>
      <use xlink:href="#DejaVuSans-63" x="539.013672"/>
      <use xlink:href="#DejaVuSans-20" x="593.994141"/>
      <use xlink:href="#DejaVuSans-33" x="625.78125"/>
     </g>
    </g>
    <g id="line2d_33">
     <g>
      <use xlink:href="#mc5b9fc5af4" x="580.708125" y="79.359375" style="stroke: #000000"/>
     </g>
    </g>
    <g id="text_15">
     <!-- Design points -->
     <g transform="translate(602.308125 83.559375) scale(0.12 -0.12)">
      <defs>
       <path id="DejaVuSans-70" d="M 1159 525 
L 1159 -1331 
L 581 -1331 
L 581 3500 
L 1159 3500 
L 1159 2969 
Q 1341 3281 1617 3432 
Q 1894 3584 2278 3584 
Q 2916 3584 3314 3078 
Q 3713 2572 3713 1747 
Q 3713 922 3314 415 
Q 2916 -91 2278 -91 
Q 1894 -91 1617 61 
Q 1341 213 1159 525 
z
M 3116 1747 
Q 3116 2381 2855 2742 
Q 2594 3103 2138 3103 
Q 1681 3103 1420 2742 
Q 1159 2381 1159 1747 
Q 1159 1113 1420 752 
Q 1681 391 2138 391 
Q 2594 391 2855 752 
Q 3116 1113 3116 1747 
z
" transform="scale(0.015625)"/>
       <path id="DejaVuSans-6f" d="M 1959 3097 
Q 1497 3097 1228 2736 
Q 959 2375 959 1747 
Q 959 1119 1226 758 
Q 1494 397 1959 397 
Q 2419 397 2687 759 
Q 2956 1122 2956 1747 
Q 2956 2369 2687 2733 
Q 2419 3097 1959 3097 
z
M 1959 3584 
Q 2709 3584 3137 3096 
Q 3566 2609 3566 1747 
Q 3566 888 3137 398 
Q 2709 -91 1959 -91 
Q 1206 -91 779 398 
Q 353 888 353 1747 
Q 353 2609 779 3096 
Q 1206 3584 1959 3584 
z
" transform="scale(0.015625)"/>
       <path id="DejaVuSans-74" d="M 1172 4494 
L 1172 3500 
L 2356 3500 
L 2356 3053 
L 1172 3053 
L 1172 1153 
Q 1172 725 1289 603 
Q 1406 481 1766 481 
L 2356 481 
L 2356 0 
L 1766 0 
Q 1100 0 847 248 
Q 594 497 594 1153 
L 594 3053 
L 172 3053 
L 172 3500 
L 594 3500 
L 594 4494 
L 1172 4494 
z
" transform="scale(0.015625)"/>
      </defs>
      <use xlink:href="#DejaVuSans-44"/>
      <use xlink:href="#DejaVuSans-65" x="77.001953"/>
      <use xlink:href="#DejaVuSans-73" x="138.525391"/>
      <use xlink:href="#DejaVuSans-69" x="190.625"/>
      <use xlink:href="#DejaVuSans-67" x="218.408203"/>
      <use xlink:href="#DejaVuSans-6e" x="281.884766"/>
      <use xlink:href="#DejaVuSans-20" x="345.263672"/>
      <use xlink:href="#DejaVuSans-70" x="377.050781"/>
      <use xlink:href="#DejaVuSans-6f" x="440.527344"/>
      <use xlink:href="#DejaVuSans-69" x="501.708984"/>
      <use xlink:href="#DejaVuSans-6e" x="529.492188"/>
      <use xlink:href="#DejaVuSans-74" x="592.871094"/>
      <use xlink:href="#DejaVuSans-73" x="632.080078"/>
     </g>
    </g>
   </g>
  </g>
  <g id="axes_2">
   <g id="patch_8">
    <path d="M 64.586 344.333333 
L 695.835 344.333333 
L 695.835 193.306667 
L 64.586 193.306667 
z
" style="fill: #ffffff"/>
   </g>
   <g id="matplotlib.axis_3">
    <g id="xtick_7">
     <g id="line2d_34">
      <path d="M 64.586 344.333333 
L 64.586 193.306667 
" clip-path="url(#p56d2b8f9a7)" style="fill: none; stroke-dasharray: 0.8,1.32; stroke-dashoffset: 0; stroke: #b0b0b0; stroke-width: 0.8"/>
     </g>
     <g id="line2d_35">
      <g>
       <use xlink:href="#mb4de97986f" x="64.586" y="344.333333" style="stroke: #000000; stroke-width: 0.8"/>
      </g>
     </g>
     <g id="text_16">
      <!-- 0 -->
      <g transform="translate(60.13225 361.971146) scale(0.14 -0.14)">
       <use xlink:href="#DejaVuSans-30"/>
      </g>
     </g>
    </g>
    <g id="xtick_8">
     <g id="line2d_36">
      <path d="M 190.8358 344.333333 
L 190.8358 193.306667 
" clip-path="url(#p56d2b8f9a7)" style="fill: none; stroke-dasharray: 0.8,1.32; stroke-dashoffset: 0; stroke: #b0b0b0; stroke-width: 0.8"/>
     </g>
     <g id="line2d_37">
      <g>
       <use xlink:href="#mb4de97986f" x="190.8358" y="344.333333" style="stroke: #000000; stroke-width: 0.8"/>
      </g>
     </g>
     <g id="text_17">
      <!-- 20 -->
      <g transform="translate(181.9283 361.971146) scale(0.14 -0.14)">
       <use xlink:href="#DejaVuSans-32"/>
       <use xlink:href="#DejaVuSans-30" x="63.623047"/>
      </g>
     </g>
    </g>
    <g id="xtick_9">
     <g id="line2d_38">
      <path d="M 317.0856 344.333333 
L 317.0856 193.306667 
" clip-path="url(#p56d2b8f9a7)" style="fill: none; stroke-dasharray: 0.8,1.32; stroke-dashoffset: 0; stroke: #b0b0b0; stroke-width: 0.8"/>
     </g>
     <g id="line2d_39">
      <g>
       <use xlink:href="#mb4de97986f" x="317.0856" y="344.333333" style="stroke: #000000; stroke-width: 0.8"/>
      </g>
     </g>
     <g id="text_18">
      <!-- 40 -->
      <g transform="translate(308.1781 361.971146) scale(0.14 -0.14)">
       <use xlink:href="#DejaVuSans-34"/>
       <use xlink:href="#DejaVuSans-30" x="63.623047"/>
      </g>
     </g>
    </g>
    <g id="xtick_10">
     <g id="line2d_40">
      <path d="M 443.3354 344.333333 
L 443.3354 193.306667 
" clip-path="url(#p56d2b8f9a7)" style="fill: none; stroke-dasharray: 0.8,1.32; stroke-dashoffset: 0; stroke: #b0b0b0; stroke-width: 0.8"/>
     </g>
     <g id="line2d_41">
      <g>
       <use xlink:href="#mb4de97986f" x="443.3354" y="344.333333" style="stroke: #000000; stroke-width: 0.8"/>
      </g>
     </g>
     <g id="text_19">
      <!-- 60 -->
      <g transform="translate(434.4279 361.971146) scale(0.14 -0.14)">
       <use xlink:href="#DejaVuSans-36"/>
       <use xlink:href="#DejaVuSans-30" x="63.623047"/>
      </g>
     </g>
    </g>
    <g id="xtick_11">
     <g id="line2d_42">
      <path d="M 569.5852 344.333333 
L 569.5852 193.306667 
" clip-path="url(#p56d2b8f9a7)" style="fill: none; stroke-dasharray: 0.8,1.32; stroke-dashoffset: 0; stroke: #b0b0b0; stroke-width: 0.8"/>
     </g>
     <g id="line2d_43">
      <g>
       <use xlink:href="#mb4de97986f" x="569.5852" y="344.333333" style="stroke: #000000; stroke-width: 0.8"/>
      </g>
     </g>
     <g id="text_20">
      <!-- 80 -->
      <g transform="translate(560.6777 361.971146) scale(0.14 -0.14)">
       <use xlink:href="#DejaVuSans-38"/>
       <use xlink:href="#DejaVuSans-30" x="63.623047"/>
      </g>
     </g>
    </g>
    <g id="xtick_12">
     <g id="line2d_44">
      <path d="M 695.835 344.333333 
L 695.835 193.306667 
" clip-path="url(#p56d2b8f9a7)" style="fill: none; stroke-dasharray: 0.8,1.32; stroke-dashoffset: 0; stroke: #b0b0b0; stroke-width: 0.8"/>
     </g>
     <g id="line2d_45">
      <g>
       <use xlink:href="#mb4de97986f" x="695.835" y="344.333333" style="stroke: #000000; stroke-width: 0.8"/>
      </g>
     </g>
     <g id="text_21">
      <!-- 100 -->
      <g transform="translate(682.47375 361.971146) scale(0.14 -0.14)">
       <use xlink:href="#DejaVuSans-31"/>
       <use xlink:href="#DejaVuSans-30" x="63.623047"/>
       <use xlink:href="#DejaVuSans-30" x="127.246094"/>
      </g>
     </g>
    </g>
   </g>
   <g id="matplotlib.axis_4">
    <g id="ytick_5">
     <g id="line2d_46">
      <path d="M 64.586 337.468485 
L 695.835 337.468485 
" clip-path="url(#p56d2b8f9a7)" style="fill: none; stroke-dasharray: 0.8,1.32; stroke-dashoffset: 0; stroke: #b0b0b0; stroke-width: 0.8"/>
     </g>
     <g id="line2d_47">
      <g>
       <use xlink:href="#mbf363bbdb2" x="64.586" y="337.468485" style="stroke: #000000; stroke-width: 0.8"/>
      </g>
     </g>
     <g id="text_22">
      <!-- 0 -->
      <g transform="translate(48.6785 342.787391) scale(0.14 -0.14)">
       <use xlink:href="#DejaVuSans-30"/>
      </g>
     </g>
    </g>
    <g id="ytick_6">
     <g id="line2d_48">
      <path d="M 64.586 304.785531 
L 695.835 304.785531 
" clip-path="url(#p56d2b8f9a7)" style="fill: none; stroke-dasharray: 0.8,1.32; stroke-dashoffset: 0; stroke: #b0b0b0; stroke-width: 0.8"/>
     </g>
     <g id="line2d_49">
      <g>
       <use xlink:href="#mbf363bbdb2" x="64.586" y="304.785531" style="stroke: #000000; stroke-width: 0.8"/>
      </g>
     </g>
     <g id="text_23">
      <!-- 25 -->
      <g transform="translate(39.771 310.104438) scale(0.14 -0.14)">
       <use xlink:href="#DejaVuSans-32"/>
       <use xlink:href="#DejaVuSans-35" x="63.623047"/>
      </g>
     </g>
    </g>
    <g id="ytick_7">
     <g id="line2d_50">
      <path d="M 64.586 272.102578 
L 695.835 272.102578 
" clip-path="url(#p56d2b8f9a7)" style="fill: none; stroke-dasharray: 0.8,1.32; stroke-dashoffset: 0; stroke: #b0b0b0; stroke-width: 0.8"/>
     </g>
     <g id="line2d_51">
      <g>
       <use xlink:href="#mbf363bbdb2" x="64.586" y="272.102578" style="stroke: #000000; stroke-width: 0.8"/>
      </g>
     </g>
     <g id="text_24">
      <!-- 50 -->
      <g transform="translate(39.771 277.421484) scale(0.14 -0.14)">
       <use xlink:href="#DejaVuSans-35"/>
       <use xlink:href="#DejaVuSans-30" x="63.623047"/>
      </g>
     </g>
    </g>
    <g id="ytick_8">
     <g id="line2d_52">
      <path d="M 64.586 239.419624 
L 695.835 239.419624 
" clip-path="url(#p56d2b8f9a7)" style="fill: none; stroke-dasharray: 0.8,1.32; stroke-dashoffset: 0; stroke: #b0b0b0; stroke-width: 0.8"/>
     </g>
     <g id="line2d_53">
      <g>
       <use xlink:href="#mbf363bbdb2" x="64.586" y="239.419624" style="stroke: #000000; stroke-width: 0.8"/>
      </g>
     </g>
     <g id="text_25">
      <!-- 75 -->
      <g transform="translate(39.771 244.73853) scale(0.14 -0.14)">
       <defs>
        <path id="DejaVuSans-37" d="M 525 4666 
L 3525 4666 
L 3525 4397 
L 1831 0 
L 1172 0 
L 2766 4134 
L 525 4134 
L 525 4666 
z
" transform="scale(0.015625)"/>
       </defs>
       <use xlink:href="#DejaVuSans-37"/>
       <use xlink:href="#DejaVuSans-35" x="63.623047"/>
      </g>
     </g>
    </g>
    <g id="ytick_9">
     <g id="line2d_54">
      <path d="M 64.586 206.736671 
L 695.835 206.736671 
" clip-path="url(#p56d2b8f9a7)" style="fill: none; stroke-dasharray: 0.8,1.32; stroke-dashoffset: 0; stroke: #b0b0b0; stroke-width: 0.8"/>
     </g>
     <g id="line2d_55">
      <g>
       <use xlink:href="#mbf363bbdb2" x="64.586" y="206.736671" style="stroke: #000000; stroke-width: 0.8"/>
      </g>
     </g>
     <g id="text_26">
      <!-- 100 -->
      <g transform="translate(30.8635 212.055577) scale(0.14 -0.14)">
       <use xlink:href="#DejaVuSans-31"/>
       <use xlink:href="#DejaVuSans-30" x="63.623047"/>
       <use xlink:href="#DejaVuSans-30" x="127.246094"/>
      </g>
     </g>
    </g>
    <g id="text_27">
     <!-- $C_l/C_d$ [-] -->
     <g transform="translate(23.951937 296.05) rotate(-90) scale(0.14 -0.14)">
      <defs>
       <path id="DejaVuSans-2f" d="M 1625 4666 
L 2156 4666 
L 531 -594 
L 0 -594 
L 1625 4666 
z
" transform="scale(0.015625)"/>
       <path id="DejaVuSans-Oblique-64" d="M 2675 525 
Q 2444 222 2128 65 
Q 1813 -91 1428 -91 
Q 903 -91 598 267 
Q 294 625 294 1247 
Q 294 1766 478 2236 
Q 663 2706 1013 3078 
Q 1244 3325 1534 3454 
Q 1825 3584 2144 3584 
Q 2481 3584 2739 3421 
Q 2997 3259 3138 2956 
L 3513 4863 
L 4091 4863 
L 3144 0 
L 2566 0 
L 2675 525 
z
M 891 1350 
Q 891 897 1095 644 
Q 1300 391 1663 391 
Q 1931 391 2161 520 
Q 2391 650 2566 903 
Q 2750 1166 2856 1509 
Q 2963 1853 2963 2188 
Q 2963 2622 2758 2865 
Q 2553 3109 2194 3109 
Q 1922 3109 1687 2981 
Q 1453 2853 1288 2613 
Q 1106 2353 998 2009 
Q 891 1666 891 1350 
z
" transform="scale(0.015625)"/>
      </defs>
      <use xlink:href="#DejaVuSans-Oblique-43" transform="translate(0 0.015625)"/>
      <use xlink:href="#DejaVuSans-Oblique-6c" transform="translate(69.824219 -16.390625) scale(0.7)"/>
      <use xlink:href="#DejaVuSans-2f" transform="translate(92.006836 0.015625)"/>
      <use xlink:href="#DejaVuSans-Oblique-43" transform="translate(125.698242 0.015625)"/>
      <use xlink:href="#DejaVuSans-Oblique-64" transform="translate(195.522461 -16.390625) scale(0.7)"/>
      <use xlink:href="#DejaVuSans-20" transform="translate(242.69043 0.015625)"/>
      <use xlink:href="#DejaVuSans-5b" transform="translate(274.477539 0.015625)"/>
      <use xlink:href="#DejaVuSans-2d" transform="translate(313.491211 0.015625)"/>
      <use xlink:href="#DejaVuSans-5d" transform="translate(349.575195 0.015625)"/>
     </g>
    </g>
   </g>
   <g id="line2d_56">
    <path d="M 64.586 201.463325 
L 70.962253 201.463325 
L 77.338505 201.463325 
L 83.714758 201.463325 
L 90.09101 201.463325 
L 96.467263 201.463325 
L 102.843515 201.463325 
L 109.219768 201.463325 
L 115.59602 201.463325 
L 121.972273 201.463325 
L 128.348525 201.463325 
L 134.724778 201.463325 
L 141.10103 201.463325 
L 147.477283 201.463325 
L 153.853535 201.463325 
L 160.229788 201.463325 
L 166.60604 201.463325 
L 172.982293 201.463325 
L 179.358545 201.463325 
L 185.734798 201.463325 
L 192.111051 201.463325 
L 198.487303 201.463325 
L 204.863556 201.463325 
L 211.239808 201.463325 
L 217.616061 201.495842 
L 223.992313 203.402541 
L 230.368566 207.557981 
L 236.744818 212.970294 
L 243.121071 218.739752 
L 249.497323 224.131422 
L 255.873576 228.6061 
L 262.249828 232.802545 
L 268.626081 237.060728 
L 275.002333 241.287676 
L 281.378586 245.421954 
L 287.754838 249.429017 
L 294.131091 253.35253 
L 300.507343 257.777105 
L 306.883596 262.725233 
L 313.259848 268.038668 
L 319.636101 273.564867 
L 326.012354 279.154284 
L 332.388606 284.660123 
L 338.764859 289.939974 
L 345.141111 294.85883 
L 351.517364 299.292965 
L 357.893616 303.134107 
L 364.269869 306.293334 
L 370.646121 308.883342 
L 377.022374 311.880032 
L 383.398626 315.099957 
L 389.774879 318.22795 
L 396.151131 321.077741 
L 402.527384 323.570913 
L 408.903636 325.698845 
L 415.279889 327.489631 
L 421.656141 328.986141 
L 428.032394 330.233758 
L 434.408646 331.274514 
L 440.784899 332.144886 
L 447.161152 332.875432 
L 453.537404 333.491263 
L 459.913657 334.012807 
L 466.289909 334.456604 
L 472.666162 334.836032 
L 479.042414 335.161926 
L 485.418667 335.443082 
L 491.794919 335.686667 
L 498.171172 335.898544 
L 504.547424 336.083534 
L 510.923677 336.245614 
L 517.299929 336.388085 
L 523.676182 336.513695 
L 530.052434 336.624746 
L 536.428687 336.723172 
L 542.804939 336.810606 
L 549.181192 336.888433 
L 555.557444 336.95783 
L 561.933697 337.019803 
L 568.309949 337.075214 
L 574.686202 337.124804 
L 581.062455 337.169212 
L 587.438707 337.208989 
L 593.81496 337.244614 
L 600.191212 337.276503 
L 606.567465 337.305015 
L 612.943717 337.330464 
L 619.31997 337.353125 
L 625.696222 337.373235 
L 632.072475 337.391001 
L 638.448727 337.406601 
L 644.82498 337.420191 
L 651.201232 337.431902 
L 657.577485 337.441846 
L 663.953737 337.450118 
L 670.32999 337.456793 
L 676.706242 337.461932 
L 683.082495 337.465577 
L 689.458747 337.467758 
L 695.835 337.468485 
" clip-path="url(#p56d2b8f9a7)" style="fill: none; stroke: #1f77b4; stroke-width: 1.5; stroke-linecap: square"/>
   </g>
   <g id="line2d_57">
    <g clip-path="url(#p56d2b8f9a7)">
     <use xlink:href="#m7615f243f1" x="216.717009" y="201.463325" style="fill: #1f77b4; stroke: #1f77b4"/>
     <use xlink:href="#m7615f243f1" x="254.591949" y="227.780693" style="fill: #1f77b4; stroke: #1f77b4"/>
     <use xlink:href="#m7615f243f1" x="291.83564" y="251.92002" style="fill: #1f77b4; stroke: #1f77b4"/>
     <use xlink:href="#m7615f243f1" x="367.58552" y="307.64362" style="fill: #1f77b4; stroke: #1f77b4"/>
    </g>
   </g>
   <g id="line2d_58">
    <g clip-path="url(#p56d2b8f9a7)">
     <use xlink:href="#mc5b9fc5af4" x="216.717009" y="206.736671" style="stroke: #000000"/>
     <use xlink:href="#mc5b9fc5af4" x="254.591949" y="222.611248" style="stroke: #000000"/>
     <use xlink:href="#mc5b9fc5af4" x="291.83564" y="252.181539" style="stroke: #000000"/>
     <use xlink:href="#mc5b9fc5af4" x="367.58552" y="315.407491" style="stroke: #000000"/>
    </g>
   </g>
   <g id="line2d_59">
    <path d="M 64.586 200.171515 
L 70.962253 200.171515 
L 77.338505 200.171515 
L 83.714758 200.171515 
L 90.09101 200.171515 
L 96.467263 200.171515 
L 102.843515 200.171515 
L 109.219768 200.171515 
L 115.59602 200.171515 
L 121.972273 200.171515 
L 128.348525 200.171515 
L 134.724778 200.171515 
L 141.10103 200.171515 
L 147.477283 200.171515 
L 153.853535 200.171515 
L 160.229788 200.171515 
L 166.60604 200.171515 
L 172.982293 200.171515 
L 179.358545 200.171515 
L 185.734798 200.171515 
L 192.111051 200.171515 
L 198.487303 200.171515 
L 204.863556 200.171515 
L 211.239808 200.171515 
L 217.616061 200.202447 
L 223.992313 202.025328 
L 230.368566 206.036937 
L 236.744818 211.333144 
L 243.121071 217.074893 
L 249.497323 222.55763 
L 255.873576 227.264757 
L 262.249828 232.122141 
L 268.626081 237.351584 
L 275.002333 242.59763 
L 281.378586 247.619583 
L 287.754838 252.273571 
L 294.131091 256.55954 
L 300.507343 261.225374 
L 306.883596 266.354777 
L 313.259848 271.800545 
L 319.636101 277.418776 
L 326.012354 283.065664 
L 332.388606 288.597152 
L 338.764859 293.870845 
L 345.141111 298.749642 
L 351.517364 303.106511 
L 357.893616 306.82974 
L 364.269869 309.827961 
L 370.646121 312.208587 
L 377.022374 314.92937 
L 383.398626 317.834387 
L 389.774879 320.639489 
L 396.151131 323.180727 
L 402.527384 325.392548 
L 408.903636 327.271658 
L 415.279889 328.846579 
L 421.656141 330.157924 
L 428.032394 331.247641 
L 434.408646 332.15405 
L 440.784899 332.910088 
L 447.161152 333.543155 
L 453.537404 334.075642 
L 459.913657 334.52568 
L 466.289909 334.907895 
L 472.666162 335.234077 
L 479.042414 335.513749 
L 485.418667 335.754624 
L 491.794919 335.96297 
L 498.171172 336.143909 
L 504.547424 336.30164 
L 510.923677 336.439626 
L 517.299929 336.560733 
L 523.676182 336.667347 
L 530.052434 336.761463 
L 536.428687 336.844755 
L 542.804939 336.918635 
L 549.181192 336.984298 
L 555.557444 337.042762 
L 561.933697 337.094893 
L 568.309949 337.141434 
L 574.686202 337.183022 
L 581.062455 337.220207 
L 587.438707 337.253464 
L 593.81496 337.283203 
L 600.191212 337.309782 
L 606.567465 337.333509 
L 612.943717 337.354654 
L 619.31997 337.373453 
L 625.696222 337.390108 
L 632.072475 337.404799 
L 638.448727 337.417678 
L 644.82498 337.428879 
L 651.201232 337.438516 
L 657.577485 337.446687 
L 663.953737 337.453472 
L 670.32999 337.458939 
L 676.706242 337.46314 
L 683.082495 337.466116 
L 689.458747 337.467893 
L 695.835 337.468485 
" clip-path="url(#p56d2b8f9a7)" style="fill: none; stroke: #ff7f0e; stroke-width: 1.5; stroke-linecap: square"/>
   </g>
   <g id="line2d_60">
    <g clip-path="url(#p56d2b8f9a7)">
     <use xlink:href="#m64f6042af8" x="216.717009" y="200.171515" style="fill: #ff7f0e; stroke: #ff7f0e"/>
     <use xlink:href="#m64f6042af8" x="254.591949" y="226.372855" style="fill: #ff7f0e; stroke: #ff7f0e"/>
     <use xlink:href="#m64f6042af8" x="291.83564" y="255.023113" style="fill: #ff7f0e; stroke: #ff7f0e"/>
     <use xlink:href="#m64f6042af8" x="367.58552" y="311.077238" style="fill: #ff7f0e; stroke: #ff7f0e"/>
    </g>
   </g>
   <g id="line2d_61">
    <g clip-path="url(#p56d2b8f9a7)">
     <use xlink:href="#mc5b9fc5af4" x="216.717009" y="206.736671" style="stroke: #000000"/>
     <use xlink:href="#mc5b9fc5af4" x="254.591949" y="222.611248" style="stroke: #000000"/>
     <use xlink:href="#mc5b9fc5af4" x="291.83564" y="252.181539" style="stroke: #000000"/>
     <use xlink:href="#mc5b9fc5af4" x="367.58552" y="315.407491" style="stroke: #000000"/>
    </g>
   </g>
   <g id="line2d_62">
    <path d="M 64.586 200.927059 
L 70.962253 200.927059 
L 77.338505 200.927059 
L 83.714758 200.927059 
L 90.09101 200.927059 
L 96.467263 200.927059 
L 102.843515 200.927059 
L 109.219768 200.927059 
L 115.59602 200.927059 
L 121.972273 200.927059 
L 128.348525 200.927059 
L 134.724778 200.927059 
L 141.10103 200.927059 
L 147.477283 200.927059 
L 153.853535 200.927059 
L 160.229788 200.927059 
L 166.60604 200.927059 
L 172.982293 200.927059 
L 179.358545 200.927059 
L 185.734798 200.927059 
L 192.111051 200.927059 
L 198.487303 200.927059 
L 204.863556 200.927059 
L 211.239808 200.927059 
L 217.616061 200.958701 
L 223.992313 202.826019 
L 230.368566 206.94395 
L 236.744818 212.393964 
L 243.121071 218.320044 
L 249.497323 224.001961 
L 255.873576 228.918776 
L 262.249828 234.169284 
L 268.626081 239.920768 
L 275.002333 245.68173 
L 281.378586 251.131252 
L 287.754838 256.088484 
L 294.131091 260.551468 
L 300.507343 265.365448 
L 306.883596 270.634278 
L 313.259848 276.203351 
L 319.636101 281.921973 
L 326.012354 287.639763 
L 332.388606 293.206329 
L 338.764859 298.473473 
L 345.141111 303.299287 
L 351.517364 307.553469 
L 357.893616 311.123076 
L 364.269869 313.91791 
L 370.646121 316.040111 
L 377.022374 318.411929 
L 383.398626 320.918562 
L 389.774879 323.321435 
L 396.151131 325.486448 
L 402.527384 327.362909 
L 408.903636 328.951822 
L 415.279889 330.279948 
L 421.656141 331.383332 
L 428.032394 332.298484 
L 434.408646 333.058413 
L 440.784899 333.691308 
L 447.161152 334.220517 
L 453.537404 334.665054 
L 459.913657 335.040281 
L 466.289909 335.358561 
L 472.666162 335.629849 
L 479.042414 335.86217 
L 485.418667 336.062017 
L 491.794919 336.234663 
L 498.171172 336.384412 
L 504.547424 336.514789 
L 510.923677 336.628698 
L 517.299929 336.728544 
L 523.676182 336.816325 
L 530.052434 336.89371 
L 536.428687 336.9621 
L 542.804939 337.022677 
L 549.181192 337.07644 
L 555.557444 337.124238 
L 561.933697 337.166794 
L 568.309949 337.204729 
L 574.686202 337.238575 
L 581.062455 337.268789 
L 587.438707 337.295767 
L 593.81496 337.319853 
L 600.191212 337.341342 
L 606.567465 337.360493 
L 612.943717 337.377531 
L 619.31997 337.392652 
L 625.696222 337.406025 
L 632.072475 337.417799 
L 638.448727 337.428102 
L 644.82498 337.437046 
L 651.201232 337.444727 
L 657.577485 337.451227 
L 663.953737 337.456614 
L 670.32999 337.460946 
L 676.706242 337.46427 
L 683.082495 337.466619 
L 689.458747 337.468019 
L 695.835 337.468485 
" clip-path="url(#p56d2b8f9a7)" style="fill: none; stroke: #2ca02c; stroke-width: 1.5; stroke-linecap: square"/>
   </g>
   <g id="line2d_63">
    <g clip-path="url(#p56d2b8f9a7)">
     <use xlink:href="#m7b9da41ed6" x="216.717009" y="200.927059" style="fill: #2ca02c; stroke: #2ca02c"/>
     <use xlink:href="#m7b9da41ed6" x="254.591949" y="227.979257" style="fill: #2ca02c; stroke: #2ca02c"/>
     <use xlink:href="#m7b9da41ed6" x="291.83564" y="258.96123" style="fill: #2ca02c; stroke: #2ca02c"/>
     <use xlink:href="#m7b9da41ed6" x="367.58552" y="315.042889" style="fill: #2ca02c; stroke: #2ca02c"/>
    </g>
   </g>
   <g id="line2d_64">
    <g clip-path="url(#p56d2b8f9a7)">
     <use xlink:href="#mc5b9fc5af4" x="216.717009" y="206.736671" style="stroke: #000000"/>
     <use xlink:href="#mc5b9fc5af4" x="254.591949" y="222.611248" style="stroke: #000000"/>
     <use xlink:href="#mc5b9fc5af4" x="291.83564" y="252.181539" style="stroke: #000000"/>
     <use xlink:href="#mc5b9fc5af4" x="367.58552" y="315.407491" style="stroke: #000000"/>
    </g>
   </g>
   <g id="patch_9">
    <path d="M 64.586 344.333333 
L 64.586 193.306667 
" style="fill: none; stroke: #000000; stroke-width: 0.8; stroke-linejoin: miter; stroke-linecap: square"/>
   </g>
   <g id="patch_10">
    <path d="M 695.835 344.333333 
L 695.835 193.306667 
" style="fill: none; stroke: #000000; stroke-width: 0.8; stroke-linejoin: miter; stroke-linecap: square"/>
   </g>
   <g id="patch_11">
    <path d="M 64.586 344.333333 
L 695.835 344.333333 
" style="fill: none; stroke: #000000; stroke-width: 0.8; stroke-linejoin: miter; stroke-linecap: square"/>
   </g>
   <g id="patch_12">
    <path d="M 64.586 193.306667 
L 695.835 193.306667 
" style="fill: none; stroke: #000000; stroke-width: 0.8; stroke-linejoin: miter; stroke-linecap: square"/>
   </g>
  </g>
  <g id="axes_3">
   <g id="patch_13">
    <path d="M 64.586 526.84 
L 695.835 526.84 
L 695.835 375.813333 
L 64.586 375.813333 
z
" style="fill: #ffffff"/>
   </g>
   <g id="matplotlib.axis_5">
    <g id="xtick_13">
     <g id="line2d_65">
      <path d="M 64.586 526.84 
L 64.586 375.813333 
" clip-path="url(#pc5ad0d81d0)" style="fill: none; stroke-dasharray: 0.8,1.32; stroke-dashoffset: 0; stroke: #b0b0b0; stroke-width: 0.8"/>
     </g>
     <g id="line2d_66">
      <g>
       <use xlink:href="#mb4de97986f" x="64.586" y="526.84" style="stroke: #000000; stroke-width: 0.8"/>
      </g>
     </g>
     <g id="text_28">
      <!-- 0 -->
      <g transform="translate(60.13225 544.477813) scale(0.14 -0.14)">
       <use xlink:href="#DejaVuSans-30"/>
      </g>
     </g>
    </g>
    <g id="xtick_14">
     <g id="line2d_67">
      <path d="M 190.8358 526.84 
L 190.8358 375.813333 
" clip-path="url(#pc5ad0d81d0)" style="fill: none; stroke-dasharray: 0.8,1.32; stroke-dashoffset: 0; stroke: #b0b0b0; stroke-width: 0.8"/>
     </g>
     <g id="line2d_68">
      <g>
       <use xlink:href="#mb4de97986f" x="190.8358" y="526.84" style="stroke: #000000; stroke-width: 0.8"/>
      </g>
     </g>
     <g id="text_29">
      <!-- 20 -->
      <g transform="translate(181.9283 544.477813) scale(0.14 -0.14)">
       <use xlink:href="#DejaVuSans-32"/>
       <use xlink:href="#DejaVuSans-30" x="63.623047"/>
      </g>
     </g>
    </g>
    <g id="xtick_15">
     <g id="line2d_69">
      <path d="M 317.0856 526.84 
L 317.0856 375.813333 
" clip-path="url(#pc5ad0d81d0)" style="fill: none; stroke-dasharray: 0.8,1.32; stroke-dashoffset: 0; stroke: #b0b0b0; stroke-width: 0.8"/>
     </g>
     <g id="line2d_70">
      <g>
       <use xlink:href="#mb4de97986f" x="317.0856" y="526.84" style="stroke: #000000; stroke-width: 0.8"/>
      </g>
     </g>
     <g id="text_30">
      <!-- 40 -->
      <g transform="translate(308.1781 544.477813) scale(0.14 -0.14)">
       <use xlink:href="#DejaVuSans-34"/>
       <use xlink:href="#DejaVuSans-30" x="63.623047"/>
      </g>
     </g>
    </g>
    <g id="xtick_16">
     <g id="line2d_71">
      <path d="M 443.3354 526.84 
L 443.3354 375.813333 
" clip-path="url(#pc5ad0d81d0)" style="fill: none; stroke-dasharray: 0.8,1.32; stroke-dashoffset: 0; stroke: #b0b0b0; stroke-width: 0.8"/>
     </g>
     <g id="line2d_72">
      <g>
       <use xlink:href="#mb4de97986f" x="443.3354" y="526.84" style="stroke: #000000; stroke-width: 0.8"/>
      </g>
     </g>
     <g id="text_31">
      <!-- 60 -->
      <g transform="translate(434.4279 544.477813) scale(0.14 -0.14)">
       <use xlink:href="#DejaVuSans-36"/>
       <use xlink:href="#DejaVuSans-30" x="63.623047"/>
      </g>
     </g>
    </g>
    <g id="xtick_17">
     <g id="line2d_73">
      <path d="M 569.5852 526.84 
L 569.5852 375.813333 
" clip-path="url(#pc5ad0d81d0)" style="fill: none; stroke-dasharray: 0.8,1.32; stroke-dashoffset: 0; stroke: #b0b0b0; stroke-width: 0.8"/>
     </g>
     <g id="line2d_74">
      <g>
       <use xlink:href="#mb4de97986f" x="569.5852" y="526.84" style="stroke: #000000; stroke-width: 0.8"/>
      </g>
     </g>
     <g id="text_32">
      <!-- 80 -->
      <g transform="translate(560.6777 544.477813) scale(0.14 -0.14)">
       <use xlink:href="#DejaVuSans-38"/>
       <use xlink:href="#DejaVuSans-30" x="63.623047"/>
      </g>
     </g>
    </g>
    <g id="xtick_18">
     <g id="line2d_75">
      <path d="M 695.835 526.84 
L 695.835 375.813333 
" clip-path="url(#pc5ad0d81d0)" style="fill: none; stroke-dasharray: 0.8,1.32; stroke-dashoffset: 0; stroke: #b0b0b0; stroke-width: 0.8"/>
     </g>
     <g id="line2d_76">
      <g>
       <use xlink:href="#mb4de97986f" x="695.835" y="526.84" style="stroke: #000000; stroke-width: 0.8"/>
      </g>
     </g>
     <g id="text_33">
      <!-- 100 -->
      <g transform="translate(682.47375 544.477813) scale(0.14 -0.14)">
       <use xlink:href="#DejaVuSans-31"/>
       <use xlink:href="#DejaVuSans-30" x="63.623047"/>
       <use xlink:href="#DejaVuSans-30" x="127.246094"/>
      </g>
     </g>
    </g>
    <g id="text_34">
     <!-- Relative thickness [%] -->
     <g transform="translate(302.354094 562.027187) scale(0.14 -0.14)">
      <defs>
       <path id="DejaVuSans-52" d="M 2841 2188 
Q 3044 2119 3236 1894 
Q 3428 1669 3622 1275 
L 4263 0 
L 3584 0 
L 2988 1197 
Q 2756 1666 2539 1819 
Q 2322 1972 1947 1972 
L 1259 1972 
L 1259 0 
L 628 0 
L 628 4666 
L 2053 4666 
Q 2853 4666 3247 4331 
Q 3641 3997 3641 3322 
Q 3641 2881 3436 2590 
Q 3231 2300 2841 2188 
z
M 1259 4147 
L 1259 2491 
L 2053 2491 
Q 2509 2491 2742 2702 
Q 2975 2913 2975 3322 
Q 2975 3731 2742 3939 
Q 2509 4147 2053 4147 
L 1259 4147 
z
" transform="scale(0.015625)"/>
       <path id="DejaVuSans-6c" d="M 603 4863 
L 1178 4863 
L 1178 0 
L 603 0 
L 603 4863 
z
" transform="scale(0.015625)"/>
       <path id="DejaVuSans-61" d="M 2194 1759 
Q 1497 1759 1228 1600 
Q 959 1441 959 1056 
Q 959 750 1161 570 
Q 1363 391 1709 391 
Q 2188 391 2477 730 
Q 2766 1069 2766 1631 
L 2766 1759 
L 2194 1759 
z
M 3341 1997 
L 3341 0 
L 2766 0 
L 2766 531 
Q 2569 213 2275 61 
Q 1981 -91 1556 -91 
Q 1019 -91 701 211 
Q 384 513 384 1019 
Q 384 1609 779 1909 
Q 1175 2209 1959 2209 
L 2766 2209 
L 2766 2266 
Q 2766 2663 2505 2880 
Q 2244 3097 1772 3097 
Q 1472 3097 1187 3025 
Q 903 2953 641 2809 
L 641 3341 
Q 956 3463 1253 3523 
Q 1550 3584 1831 3584 
Q 2591 3584 2966 3190 
Q 3341 2797 3341 1997 
z
" transform="scale(0.015625)"/>
       <path id="DejaVuSans-76" d="M 191 3500 
L 800 3500 
L 1894 563 
L 2988 3500 
L 3597 3500 
L 2284 0 
L 1503 0 
L 191 3500 
z
" transform="scale(0.015625)"/>
       <path id="DejaVuSans-68" d="M 3513 2113 
L 3513 0 
L 2938 0 
L 2938 2094 
Q 2938 2591 2744 2837 
Q 2550 3084 2163 3084 
Q 1697 3084 1428 2787 
Q 1159 2491 1159 1978 
L 1159 0 
L 581 0 
L 581 4863 
L 1159 4863 
L 1159 2956 
Q 1366 3272 1645 3428 
Q 1925 3584 2291 3584 
Q 2894 3584 3203 3211 
Q 3513 2838 3513 2113 
z
" transform="scale(0.015625)"/>
       <path id="DejaVuSans-6b" d="M 581 4863 
L 1159 4863 
L 1159 1991 
L 2875 3500 
L 3609 3500 
L 1753 1863 
L 3688 0 
L 2938 0 
L 1159 1709 
L 1159 0 
L 581 0 
L 581 4863 
z
" transform="scale(0.015625)"/>
       <path id="DejaVuSans-25" d="M 4653 2053 
Q 4381 2053 4226 1822 
Q 4072 1591 4072 1178 
Q 4072 772 4226 539 
Q 4381 306 4653 306 
Q 4919 306 5073 539 
Q 5228 772 5228 1178 
Q 5228 1588 5073 1820 
Q 4919 2053 4653 2053 
z
M 4653 2450 
Q 5147 2450 5437 2106 
Q 5728 1763 5728 1178 
Q 5728 594 5436 251 
Q 5144 -91 4653 -91 
Q 4153 -91 3862 251 
Q 3572 594 3572 1178 
Q 3572 1766 3864 2108 
Q 4156 2450 4653 2450 
z
M 1428 4353 
Q 1159 4353 1004 4120 
Q 850 3888 850 3481 
Q 850 3069 1003 2837 
Q 1156 2606 1428 2606 
Q 1700 2606 1854 2837 
Q 2009 3069 2009 3481 
Q 2009 3884 1853 4118 
Q 1697 4353 1428 4353 
z
M 4250 4750 
L 4750 4750 
L 1831 -91 
L 1331 -91 
L 4250 4750 
z
M 1428 4750 
Q 1922 4750 2215 4408 
Q 2509 4066 2509 3481 
Q 2509 2891 2217 2550 
Q 1925 2209 1428 2209 
Q 931 2209 642 2551 
Q 353 2894 353 3481 
Q 353 4063 643 4406 
Q 934 4750 1428 4750 
z
" transform="scale(0.015625)"/>
      </defs>
      <use xlink:href="#DejaVuSans-52"/>
      <use xlink:href="#DejaVuSans-65" x="64.982422"/>
      <use xlink:href="#DejaVuSans-6c" x="126.505859"/>
      <use xlink:href="#DejaVuSans-61" x="154.289062"/>
      <use xlink:href="#DejaVuSans-74" x="215.568359"/>
      <use xlink:href="#DejaVuSans-69" x="254.777344"/>
      <use xlink:href="#DejaVuSans-76" x="282.560547"/>
      <use xlink:href="#DejaVuSans-65" x="341.740234"/>
      <use xlink:href="#DejaVuSans-20" x="403.263672"/>
      <use xlink:href="#DejaVuSans-74" x="435.050781"/>
      <use xlink:href="#DejaVuSans-68" x="474.259766"/>
      <use xlink:href="#DejaVuSans-69" x="537.638672"/>
      <use xlink:href="#DejaVuSans-63" x="565.421875"/>
      <use xlink:href="#DejaVuSans-6b" x="620.402344"/>
      <use xlink:href="#DejaVuSans-6e" x="678.3125"/>
      <use xlink:href="#DejaVuSans-65" x="741.691406"/>
      <use xlink:href="#DejaVuSans-73" x="803.214844"/>
      <use xlink:href="#DejaVuSans-73" x="855.314453"/>
      <use xlink:href="#DejaVuSans-20" x="907.414062"/>
      <use xlink:href="#DejaVuSans-5b" x="939.201172"/>
      <use xlink:href="#DejaVuSans-25" x="978.214844"/>
      <use xlink:href="#DejaVuSans-5d" x="1073.234375"/>
     </g>
    </g>
   </g>
   <g id="matplotlib.axis_6">
    <g id="ytick_10">
     <g id="line2d_77">
      <path d="M 64.586 519.975152 
L 695.835 519.975152 
" clip-path="url(#pc5ad0d81d0)" style="fill: none; stroke-dasharray: 0.8,1.32; stroke-dashoffset: 0; stroke: #b0b0b0; stroke-width: 0.8"/>
     </g>
     <g id="line2d_78">
      <g>
       <use xlink:href="#mbf363bbdb2" x="64.586" y="519.975152" style="stroke: #000000; stroke-width: 0.8"/>
      </g>
     </g>
     <g id="text_35">
      <!-- 0.0 -->
      <g transform="translate(35.321625 525.294058) scale(0.14 -0.14)">
       <use xlink:href="#DejaVuSans-30"/>
       <use xlink:href="#DejaVuSans-2e" x="63.623047"/>
       <use xlink:href="#DejaVuSans-30" x="95.410156"/>
      </g>
     </g>
    </g>
    <g id="ytick_11">
     <g id="line2d_79">
      <path d="M 64.586 486.083406 
L 695.835 486.083406 
" clip-path="url(#pc5ad0d81d0)" style="fill: none; stroke-dasharray: 0.8,1.32; stroke-dashoffset: 0; stroke: #b0b0b0; stroke-width: 0.8"/>
     </g>
     <g id="line2d_80">
      <g>
       <use xlink:href="#mbf363bbdb2" x="64.586" y="486.083406" style="stroke: #000000; stroke-width: 0.8"/>
      </g>
     </g>
     <g id="text_36">
      <!-- 2.5 -->
      <g transform="translate(35.321625 491.402312) scale(0.14 -0.14)">
       <use xlink:href="#DejaVuSans-32"/>
       <use xlink:href="#DejaVuSans-2e" x="63.623047"/>
       <use xlink:href="#DejaVuSans-35" x="95.410156"/>
      </g>
     </g>
    </g>
    <g id="ytick_12">
     <g id="line2d_81">
      <path d="M 64.586 452.19166 
L 695.835 452.19166 
" clip-path="url(#pc5ad0d81d0)" style="fill: none; stroke-dasharray: 0.8,1.32; stroke-dashoffset: 0; stroke: #b0b0b0; stroke-width: 0.8"/>
     </g>
     <g id="line2d_82">
      <g>
       <use xlink:href="#mbf363bbdb2" x="64.586" y="452.19166" style="stroke: #000000; stroke-width: 0.8"/>
      </g>
     </g>
     <g id="text_37">
      <!-- 5.0 -->
      <g transform="translate(35.321625 457.510566) scale(0.14 -0.14)">
       <use xlink:href="#DejaVuSans-35"/>
       <use xlink:href="#DejaVuSans-2e" x="63.623047"/>
       <use xlink:href="#DejaVuSans-30" x="95.410156"/>
      </g>
     </g>
    </g>
    <g id="ytick_13">
     <g id="line2d_83">
      <path d="M 64.586 418.299914 
L 695.835 418.299914 
" clip-path="url(#pc5ad0d81d0)" style="fill: none; stroke-dasharray: 0.8,1.32; stroke-dashoffset: 0; stroke: #b0b0b0; stroke-width: 0.8"/>
     </g>
     <g id="line2d_84">
      <g>
       <use xlink:href="#mbf363bbdb2" x="64.586" y="418.299914" style="stroke: #000000; stroke-width: 0.8"/>
      </g>
     </g>
     <g id="text_38">
      <!-- 7.5 -->
      <g transform="translate(35.321625 423.61882) scale(0.14 -0.14)">
       <use xlink:href="#DejaVuSans-37"/>
       <use xlink:href="#DejaVuSans-2e" x="63.623047"/>
       <use xlink:href="#DejaVuSans-35" x="95.410156"/>
      </g>
     </g>
    </g>
    <g id="ytick_14">
     <g id="line2d_85">
      <path d="M 64.586 384.408168 
L 695.835 384.408168 
" clip-path="url(#pc5ad0d81d0)" style="fill: none; stroke-dasharray: 0.8,1.32; stroke-dashoffset: 0; stroke: #b0b0b0; stroke-width: 0.8"/>
     </g>
     <g id="line2d_86">
      <g>
       <use xlink:href="#mbf363bbdb2" x="64.586" y="384.408168" style="stroke: #000000; stroke-width: 0.8"/>
      </g>
     </g>
     <g id="text_39">
      <!-- 10.0 -->
      <g transform="translate(26.414125 389.727074) scale(0.14 -0.14)">
       <use xlink:href="#DejaVuSans-31"/>
       <use xlink:href="#DejaVuSans-30" x="63.623047"/>
       <use xlink:href="#DejaVuSans-2e" x="127.246094"/>
       <use xlink:href="#DejaVuSans-30" x="159.033203"/>
      </g>
     </g>
    </g>
    <g id="text_40">
     <!-- $\alpha$ [] -->
     <g transform="translate(19.502562 467.146667) rotate(-90) scale(0.14 -0.14)">
      <defs>
       <path id="DejaVuSans-Oblique-3b1" d="M 2619 1628 
L 2622 2350 
Q 2625 3088 2069 3091 
Q 1653 3094 1394 2747 
Q 1069 2319 959 1747 
Q 825 1059 994 731 
Q 1169 397 1547 397 
Q 1966 397 2319 1063 
L 2619 1628 
z
M 2166 3578 
Q 3141 3594 3128 2584 
Q 3128 2584 3616 3500 
L 4128 3500 
L 3119 1603 
L 3109 919 
Q 3109 766 3194 638 
Q 3291 488 3391 488 
L 3669 488 
L 3575 0 
L 3228 0 
Q 2934 0 2722 263 
Q 2622 394 2619 669 
Q 2416 334 2066 50 
Q 1900 -81 1453 -78 
Q 722 -72 456 397 
Q 184 884 353 1747 
Q 534 2675 1009 3097 
Q 1544 3569 2166 3578 
z
" transform="scale(0.015625)"/>
       <path id="DejaVuSans-b0" d="M 1600 4347 
Q 1350 4347 1178 4173 
Q 1006 4000 1006 3750 
Q 1006 3503 1178 3333 
Q 1350 3163 1600 3163 
Q 1850 3163 2022 3333 
Q 2194 3503 2194 3750 
Q 2194 3997 2020 4172 
Q 1847 4347 1600 4347 
z
M 1600 4750 
Q 1800 4750 1984 4673 
Q 2169 4597 2303 4453 
Q 2447 4313 2519 4134 
Q 2591 3956 2591 3750 
Q 2591 3338 2302 3052 
Q 2013 2766 1594 2766 
Q 1172 2766 890 3047 
Q 609 3328 609 3750 
Q 609 4169 896 4459 
Q 1184 4750 1600 4750 
z
" transform="scale(0.015625)"/>
      </defs>
      <use xlink:href="#DejaVuSans-Oblique-3b1" transform="translate(0 0.015625)"/>
      <use xlink:href="#DejaVuSans-20" transform="translate(65.917969 0.015625)"/>
      <use xlink:href="#DejaVuSans-5b" transform="translate(97.705078 0.015625)"/>
      <use xlink:href="#DejaVuSans-b0" transform="translate(136.71875 0.015625)"/>
      <use xlink:href="#DejaVuSans-5d" transform="translate(186.71875 0.015625)"/>
     </g>
    </g>
   </g>
   <g id="line2d_87">
    <path d="M 64.586 382.678182 
L 70.962253 382.678182 
L 77.338505 382.678182 
L 83.714758 382.678182 
L 90.09101 382.678182 
L 96.467263 382.678182 
L 102.843515 382.678182 
L 109.219768 382.678182 
L 115.59602 382.678182 
L 121.972273 382.678182 
L 128.348525 382.678182 
L 134.724778 382.678182 
L 141.10103 382.678182 
L 147.477283 382.678182 
L 153.853535 382.678182 
L 160.229788 382.678182 
L 166.60604 382.678182 
L 172.982293 382.678182 
L 179.358545 382.678182 
L 185.734798 382.678182 
L 192.111051 382.678182 
L 198.487303 382.678182 
L 204.863556 382.678182 
L 211.239808 382.678182 
L 217.616061 382.685189 
L 223.992313 383.117624 
L 230.368566 384.157004 
L 236.744818 385.713745 
L 243.121071 387.698262 
L 249.497323 390.020972 
L 255.873576 392.67812 
L 262.249828 398.069729 
L 268.626081 406.283355 
L 275.002333 415.909911 
L 281.378586 425.540309 
L 287.754838 433.765461 
L 294.131091 439.414674 
L 300.507343 444.195832 
L 306.883596 448.752629 
L 313.259848 453.070512 
L 319.636101 457.134933 
L 326.012354 460.931339 
L 332.388606 464.445181 
L 338.764859 467.661908 
L 345.141111 470.566969 
L 351.517364 473.145813 
L 357.893616 475.383891 
L 364.269869 477.266651 
L 370.646121 478.820729 
L 377.022374 480.304774 
L 383.398626 481.766205 
L 389.774879 483.204749 
L 396.151131 484.620132 
L 402.527384 486.01208 
L 408.903636 487.380319 
L 415.279889 488.724576 
L 421.656141 490.044578 
L 428.032394 491.340049 
L 434.408646 492.610718 
L 440.784899 493.85631 
L 447.161152 495.076551 
L 453.537404 496.271168 
L 459.913657 497.439887 
L 466.289909 498.582435 
L 472.666162 499.698537 
L 479.042414 500.78792 
L 485.418667 501.850311 
L 491.794919 502.885435 
L 498.171172 503.89302 
L 504.547424 504.872791 
L 510.923677 505.824474 
L 517.299929 506.747797 
L 523.676182 507.642485 
L 530.052434 508.508264 
L 536.428687 509.344862 
L 542.804939 510.152004 
L 549.181192 510.929416 
L 555.557444 511.676826 
L 561.933697 512.393959 
L 568.309949 513.080541 
L 574.686202 513.7363 
L 581.062455 514.36096 
L 587.438707 514.954249 
L 593.81496 515.515894 
L 600.191212 516.045619 
L 606.567465 516.543152 
L 612.943717 517.008219 
L 619.31997 517.440546 
L 625.696222 517.83986 
L 632.072475 518.205886 
L 638.448727 518.538352 
L 644.82498 518.836983 
L 651.201232 519.101507 
L 657.577485 519.331648 
L 663.953737 519.527134 
L 670.32999 519.68769 
L 676.706242 519.813044 
L 683.082495 519.902921 
L 689.458747 519.957048 
L 695.835 519.975152 
" clip-path="url(#pc5ad0d81d0)" style="fill: none; stroke: #1f77b4; stroke-width: 1.5; stroke-linecap: square"/>
   </g>
   <g id="line2d_88">
    <g clip-path="url(#pc5ad0d81d0)">
     <use xlink:href="#m7615f243f1" x="216.717009" y="382.678182" style="fill: #1f77b4; stroke: #1f77b4"/>
     <use xlink:href="#m7615f243f1" x="254.591949" y="392.059806" style="fill: #1f77b4; stroke: #1f77b4"/>
     <use xlink:href="#m7615f243f1" x="291.83564" y="437.641335" style="fill: #1f77b4; stroke: #1f77b4"/>
     <use xlink:href="#m7615f243f1" x="367.58552" y="478.100435" style="fill: #1f77b4; stroke: #1f77b4"/>
    </g>
   </g>
   <g id="line2d_89">
    <g clip-path="url(#pc5ad0d81d0)">
     <use xlink:href="#mc5b9fc5af4" x="216.717009" y="410.165895" style="stroke: #000000"/>
     <use xlink:href="#mc5b9fc5af4" x="254.591949" y="418.299914" style="stroke: #000000"/>
     <use xlink:href="#mc5b9fc5af4" x="291.83564" y="441.346301" style="stroke: #000000"/>
     <use xlink:href="#mc5b9fc5af4" x="367.58552" y="495.573094" style="stroke: #000000"/>
    </g>
   </g>
   <g id="line2d_90">
    <path d="M 64.586 396.008803 
L 70.962253 396.008803 
L 77.338505 396.008803 
L 83.714758 396.008803 
L 90.09101 396.008803 
L 96.467263 396.008803 
L 102.843515 396.008803 
L 109.219768 396.008803 
L 115.59602 396.008803 
L 121.972273 396.008803 
L 128.348525 396.008803 
L 134.724778 396.008803 
L 141.10103 396.008803 
L 147.477283 396.008803 
L 153.853535 396.008803 
L 160.229788 396.008803 
L 166.60604 396.008803 
L 172.982293 396.008803 
L 179.358545 396.008803 
L 185.734798 396.008803 
L 192.111051 396.008803 
L 198.487303 396.008803 
L 204.863556 396.008803 
L 211.239808 396.008803 
L 217.616061 396.016148 
L 223.992313 396.468143 
L 230.368566 397.549942 
L 236.744818 399.161829 
L 243.121071 401.204086 
L 249.497323 403.576997 
L 255.873576 406.25843 
L 262.249828 411.402614 
L 268.626081 419.082837 
L 275.002333 428.021031 
L 281.378586 436.939128 
L 287.754838 444.55906 
L 294.131091 449.82168 
L 300.507343 454.304444 
L 306.883596 458.593709 
L 313.259848 462.669845 
L 319.636101 466.51322 
L 326.012354 470.104204 
L 332.388606 473.423167 
L 338.764859 476.450476 
L 345.141111 479.166502 
L 351.517364 481.551613 
L 357.893616 483.586178 
L 364.269869 485.250568 
L 370.646121 486.569117 
L 377.022374 487.815412 
L 383.398626 489.040051 
L 389.774879 490.242912 
L 396.151131 491.423874 
L 402.527384 492.582813 
L 408.903636 493.719608 
L 415.279889 494.834136 
L 421.656141 495.926276 
L 428.032394 496.995905 
L 434.408646 498.042902 
L 440.784899 499.067143 
L 447.161152 500.068507 
L 453.537404 501.046871 
L 459.913657 502.002114 
L 466.289909 502.934113 
L 472.666162 503.842746 
L 479.042414 504.727892 
L 485.418667 505.589426 
L 491.794919 506.427229 
L 498.171172 507.241177 
L 504.547424 508.031148 
L 510.923677 508.79702 
L 517.299929 509.538671 
L 523.676182 510.255979 
L 530.052434 510.948822 
L 536.428687 511.617077 
L 542.804939 512.260622 
L 549.181192 512.879335 
L 555.557444 513.473094 
L 561.933697 514.041777 
L 568.309949 514.585262 
L 574.686202 515.103426 
L 581.062455 515.596147 
L 587.438707 516.063303 
L 593.81496 516.504772 
L 600.191212 516.920432 
L 606.567465 517.310161 
L 612.943717 517.673836 
L 619.31997 518.011335 
L 625.696222 518.322537 
L 632.072475 518.607318 
L 638.448727 518.865557 
L 644.82498 519.097132 
L 651.201232 519.30192 
L 657.577485 519.4798 
L 663.953737 519.630648 
L 670.32999 519.754344 
L 676.706242 519.850764 
L 683.082495 519.919787 
L 689.458747 519.96129 
L 695.835 519.975152 
" clip-path="url(#pc5ad0d81d0)" style="fill: none; stroke: #ff7f0e; stroke-width: 1.5; stroke-linecap: square"/>
   </g>
   <g id="line2d_91">
    <g clip-path="url(#pc5ad0d81d0)">
     <use xlink:href="#m64f6042af8" x="216.717009" y="396.008803" style="fill: #ff7f0e; stroke: #ff7f0e"/>
     <use xlink:href="#m64f6042af8" x="254.591949" y="405.643729" style="fill: #ff7f0e; stroke: #ff7f0e"/>
     <use xlink:href="#m64f6042af8" x="291.83564" y="448.164297" style="fill: #ff7f0e; stroke: #ff7f0e"/>
     <use xlink:href="#m64f6042af8" x="367.58552" y="485.96324" style="fill: #ff7f0e; stroke: #ff7f0e"/>
    </g>
   </g>
   <g id="line2d_92">
    <g clip-path="url(#pc5ad0d81d0)">
     <use xlink:href="#mc5b9fc5af4" x="216.717009" y="410.165895" style="stroke: #000000"/>
     <use xlink:href="#mc5b9fc5af4" x="254.591949" y="418.299914" style="stroke: #000000"/>
     <use xlink:href="#mc5b9fc5af4" x="291.83564" y="441.346301" style="stroke: #000000"/>
     <use xlink:href="#mc5b9fc5af4" x="367.58552" y="495.573094" style="stroke: #000000"/>
    </g>
   </g>
   <g id="line2d_93">
    <path d="M 64.586 408.711443 
L 70.962253 408.711443 
L 77.338505 408.711443 
L 83.714758 408.711443 
L 90.09101 408.711443 
L 96.467263 408.711443 
L 102.843515 408.711443 
L 109.219768 408.711443 
L 115.59602 408.711443 
L 121.972273 408.711443 
L 128.348525 408.711443 
L 134.724778 408.711443 
L 141.10103 408.711443 
L 147.477283 408.711443 
L 153.853535 408.711443 
L 160.229788 408.711443 
L 166.60604 408.711443 
L 172.982293 408.711443 
L 179.358545 408.711443 
L 185.734798 408.711443 
L 192.111051 408.711443 
L 198.487303 408.711443 
L 204.863556 408.711443 
L 211.239808 408.711443 
L 217.616061 408.71894 
L 223.992313 409.179357 
L 230.368566 410.277759 
L 236.744818 411.907864 
L 243.121071 413.963392 
L 249.497323 416.338062 
L 255.873576 418.995652 
L 262.249828 423.870376 
L 268.626081 431.031686 
L 275.002333 439.331119 
L 281.378586 447.620213 
L 287.754838 454.750507 
L 294.131091 459.773038 
L 300.507343 464.131967 
L 306.883596 468.348893 
L 313.259848 472.39106 
L 319.636101 476.225714 
L 326.012354 479.8201 
L 332.388606 483.141464 
L 338.764859 486.15705 
L 345.141111 488.834104 
L 351.517364 491.139872 
L 357.893616 493.041597 
L 364.269869 494.506527 
L 370.646121 495.55622 
L 377.022374 496.523329 
L 383.398626 497.470164 
L 389.774879 498.396772 
L 396.151131 499.303198 
L 402.527384 500.189488 
L 408.903636 501.055685 
L 415.279889 501.901837 
L 421.656141 502.727988 
L 428.032394 503.534184 
L 434.408646 504.320469 
L 440.784899 505.08689 
L 447.161152 505.833492 
L 453.537404 506.560319 
L 459.913657 507.267418 
L 466.289909 507.954833 
L 472.666162 508.62261 
L 479.042414 509.270795 
L 485.418667 509.899432 
L 491.794919 510.508568 
L 498.171172 511.098246 
L 504.547424 511.668514 
L 510.923677 512.219415 
L 517.299929 512.750996 
L 523.676182 513.263301 
L 530.052434 513.756376 
L 536.428687 514.230267 
L 542.804939 514.685019 
L 549.181192 515.120676 
L 555.557444 515.537285 
L 561.933697 515.934891 
L 568.309949 516.313539 
L 574.686202 516.673274 
L 581.062455 517.014142 
L 587.438707 517.336188 
L 593.81496 517.639457 
L 600.191212 517.923995 
L 606.567465 518.189848 
L 612.943717 518.43706 
L 619.31997 518.665676 
L 625.696222 518.875743 
L 632.072475 519.067305 
L 638.448727 519.240408 
L 644.82498 519.395097 
L 651.201232 519.531417 
L 657.577485 519.649415 
L 663.953737 519.749134 
L 670.32999 519.830621 
L 676.706242 519.893921 
L 683.082495 519.939079 
L 689.458747 519.966141 
L 695.835 519.975152 
" clip-path="url(#pc5ad0d81d0)" style="fill: none; stroke: #2ca02c; stroke-width: 1.5; stroke-linecap: square"/>
   </g>
   <g id="line2d_94">
    <g clip-path="url(#pc5ad0d81d0)">
     <use xlink:href="#m7b9da41ed6" x="216.717009" y="408.711443" style="fill: #2ca02c; stroke: #2ca02c"/>
     <use xlink:href="#m7b9da41ed6" x="254.591949" y="418.393526" style="fill: #2ca02c; stroke: #2ca02c"/>
     <use xlink:href="#m7b9da41ed6" x="291.83564" y="458.175369" style="fill: #2ca02c; stroke: #2ca02c"/>
     <use xlink:href="#m7b9da41ed6" x="367.58552" y="495.084794" style="fill: #2ca02c; stroke: #2ca02c"/>
    </g>
   </g>
   <g id="line2d_95">
    <g clip-path="url(#pc5ad0d81d0)">
     <use xlink:href="#mc5b9fc5af4" x="216.717009" y="410.165895" style="stroke: #000000"/>
     <use xlink:href="#mc5b9fc5af4" x="254.591949" y="418.299914" style="stroke: #000000"/>
     <use xlink:href="#mc5b9fc5af4" x="291.83564" y="441.346301" style="stroke: #000000"/>
     <use xlink:href="#mc5b9fc5af4" x="367.58552" y="495.573094" style="stroke: #000000"/>
    </g>
   </g>
   <g id="patch_14">
    <path d="M 64.586 526.84 
L 64.586 375.813333 
" style="fill: none; stroke: #000000; stroke-width: 0.8; stroke-linejoin: miter; stroke-linecap: square"/>
   </g>
   <g id="patch_15">
    <path d="M 695.835 526.84 
L 695.835 375.813333 
" style="fill: none; stroke: #000000; stroke-width: 0.8; stroke-linejoin: miter; stroke-linecap: square"/>
   </g>
   <g id="patch_16">
    <path d="M 64.586 526.84 
L 695.835 526.84 
" style="fill: none; stroke: #000000; stroke-width: 0.8; stroke-linejoin: miter; stroke-linecap: square"/>
   </g>
   <g id="patch_17">
    <path d="M 64.586 375.813333 
L 695.835 375.813333 
" style="fill: none; stroke: #000000; stroke-width: 0.8; stroke-linejoin: miter; stroke-linecap: square"/>
   </g>
  </g>
 </g>
 <defs>
  <clipPath id="p28d74911f9">
   <rect x="64.586" y="10.8" width="631.249" height="151.026667"/>
  </clipPath>
  <clipPath id="p56d2b8f9a7">
   <rect x="64.586" y="193.306667" width="631.249" height="151.026667"/>
  </clipPath>
  <clipPath id="pc5ad0d81d0">
   <rect x="64.586" y="375.813333" width="631.249" height="151.026667"/>
  </clipPath>
 </defs>
</svg>
