<?xml version="1.0" encoding="utf-8" standalone="no"?>
<!DOCTYPE svg PUBLIC "-//W3C//DTD SVG 1.1//EN"
  "http://www.w3.org/Graphics/SVG/1.1/DTD/svg11.dtd">
<svg xmlns:xlink="http://www.w3.org/1999/xlink" width="720pt" height="576pt" viewBox="0 0 720 576" xmlns="http://www.w3.org/2000/svg" version="1.1">
 <metadata>
  <rdf:RDF xmlns:dc="http://purl.org/dc/elements/1.1/" xmlns:cc="http://creativecommons.org/ns#" xmlns:rdf="http://www.w3.org/1999/02/22-rdf-syntax-ns#">
   <cc:Work>
    <dc:type rdf:resource="http://purl.org/dc/dcmitype/StillImage"/>
    <dc:date>2024-09-23T15:29:19.267794</dc:date>
    <dc:format>image/svg+xml</dc:format>
    <dc:creator>
     <cc:Agent>
      <dc:title>Matplotlib v3.8.0, https://matplotlib.org/</dc:title>
     </cc:Agent>
    </dc:creator>
   </cc:Work>
  </rdf:RDF>
 </metadata>
 <defs>
  <style type="text/css">*{stroke-linejoin: round; stroke-linecap: butt}</style>
 </defs>
 <g id="figure_1">
  <g id="patch_1">
   <path d="M 0 576 
L 720 576 
L 720 0 
L 0 0 
z
" style="fill: #ffffff"/>
  </g>
  <g id="axes_1">
   <g id="patch_2">
    <path d="M 53.066 166.079167 
L 699.615 166.079167 
L 699.615 10.8 
L 53.066 10.8 
z
" style="fill: #ffffff"/>
   </g>
   <g id="matplotlib.axis_1">
    <g id="xtick_1">
     <g id="line2d_1">
      <path d="M 53.066 166.079167 
L 53.066 10.8 
" clip-path="url(#pf5337005f6)" style="fill: none; stroke-dasharray: 0.8,1.32; stroke-dashoffset: 0; stroke: #b0b0b0; stroke-width: 0.8"/>
     </g>
     <g id="line2d_2">
      <defs>
       <path id="m8ce99a4d64" d="M 0 0 
L 0 3.5 
" style="stroke: #000000; stroke-width: 0.8"/>
      </defs>
      <g>
       <use xlink:href="#m8ce99a4d64" x="53.066" y="166.079167" style="stroke: #000000; stroke-width: 0.8"/>
      </g>
     </g>
     <g id="text_1">
      <!-- 0 -->
      <g transform="translate(49.88475 180.677604) scale(0.1 -0.1)">
       <defs>
        <path id="DejaVuSans-30" d="M 2034 4250 
Q 1547 4250 1301 3770 
Q 1056 3291 1056 2328 
Q 1056 1369 1301 889 
Q 1547 409 2034 409 
Q 2525 409 2770 889 
Q 3016 1369 3016 2328 
Q 3016 3291 2770 3770 
Q 2525 4250 2034 4250 
z
M 2034 4750 
Q 2819 4750 3233 4129 
Q 3647 3509 3647 2328 
Q 3647 1150 3233 529 
Q 2819 -91 2034 -91 
Q 1250 -91 836 529 
Q 422 1150 422 2328 
Q 422 3509 836 4129 
Q 1250 4750 2034 4750 
z
" transform="scale(0.015625)"/>
       </defs>
       <use xlink:href="#DejaVuSans-30"/>
      </g>
     </g>
    </g>
    <g id="xtick_2">
     <g id="line2d_3">
      <path d="M 182.3758 166.079167 
L 182.3758 10.8 
" clip-path="url(#pf5337005f6)" style="fill: none; stroke-dasharray: 0.8,1.32; stroke-dashoffset: 0; stroke: #b0b0b0; stroke-width: 0.8"/>
     </g>
     <g id="line2d_4">
      <g>
       <use xlink:href="#m8ce99a4d64" x="182.3758" y="166.079167" style="stroke: #000000; stroke-width: 0.8"/>
      </g>
     </g>
     <g id="text_2">
      <!-- 20 -->
      <g transform="translate(176.0133 180.677604) scale(0.1 -0.1)">
       <defs>
        <path id="DejaVuSans-32" d="M 1228 531 
L 3431 531 
L 3431 0 
L 469 0 
L 469 531 
Q 828 903 1448 1529 
Q 2069 2156 2228 2338 
Q 2531 2678 2651 2914 
Q 2772 3150 2772 3378 
Q 2772 3750 2511 3984 
Q 2250 4219 1831 4219 
Q 1534 4219 1204 4116 
Q 875 4013 500 3803 
L 500 4441 
Q 881 4594 1212 4672 
Q 1544 4750 1819 4750 
Q 2544 4750 2975 4387 
Q 3406 4025 3406 3419 
Q 3406 3131 3298 2873 
Q 3191 2616 2906 2266 
Q 2828 2175 2409 1742 
Q 1991 1309 1228 531 
z
" transform="scale(0.015625)"/>
       </defs>
       <use xlink:href="#DejaVuSans-32"/>
       <use xlink:href="#DejaVuSans-30" x="63.623047"/>
      </g>
     </g>
    </g>
    <g id="xtick_3">
     <g id="line2d_5">
      <path d="M 311.6856 166.079167 
L 311.6856 10.8 
" clip-path="url(#pf5337005f6)" style="fill: none; stroke-dasharray: 0.8,1.32; stroke-dashoffset: 0; stroke: #b0b0b0; stroke-width: 0.8"/>
     </g>
     <g id="line2d_6">
      <g>
       <use xlink:href="#m8ce99a4d64" x="311.6856" y="166.079167" style="stroke: #000000; stroke-width: 0.8"/>
      </g>
     </g>
     <g id="text_3">
      <!-- 40 -->
      <g transform="translate(305.3231 180.677604) scale(0.1 -0.1)">
       <defs>
        <path id="DejaVuSans-34" d="M 2419 4116 
L 825 1625 
L 2419 1625 
L 2419 4116 
z
M 2253 4666 
L 3047 4666 
L 3047 1625 
L 3713 1625 
L 3713 1100 
L 3047 1100 
L 3047 0 
L 2419 0 
L 2419 1100 
L 313 1100 
L 313 1709 
L 2253 4666 
z
" transform="scale(0.015625)"/>
       </defs>
       <use xlink:href="#DejaVuSans-34"/>
       <use xlink:href="#DejaVuSans-30" x="63.623047"/>
      </g>
     </g>
    </g>
    <g id="xtick_4">
     <g id="line2d_7">
      <path d="M 440.9954 166.079167 
L 440.9954 10.8 
" clip-path="url(#pf5337005f6)" style="fill: none; stroke-dasharray: 0.8,1.32; stroke-dashoffset: 0; stroke: #b0b0b0; stroke-width: 0.8"/>
     </g>
     <g id="line2d_8">
      <g>
       <use xlink:href="#m8ce99a4d64" x="440.9954" y="166.079167" style="stroke: #000000; stroke-width: 0.8"/>
      </g>
     </g>
     <g id="text_4">
      <!-- 60 -->
      <g transform="translate(434.6329 180.677604) scale(0.1 -0.1)">
       <defs>
        <path id="DejaVuSans-36" d="M 2113 2584 
Q 1688 2584 1439 2293 
Q 1191 2003 1191 1497 
Q 1191 994 1439 701 
Q 1688 409 2113 409 
Q 2538 409 2786 701 
Q 3034 994 3034 1497 
Q 3034 2003 2786 2293 
Q 2538 2584 2113 2584 
z
M 3366 4563 
L 3366 3988 
Q 3128 4100 2886 4159 
Q 2644 4219 2406 4219 
Q 1781 4219 1451 3797 
Q 1122 3375 1075 2522 
Q 1259 2794 1537 2939 
Q 1816 3084 2150 3084 
Q 2853 3084 3261 2657 
Q 3669 2231 3669 1497 
Q 3669 778 3244 343 
Q 2819 -91 2113 -91 
Q 1303 -91 875 529 
Q 447 1150 447 2328 
Q 447 3434 972 4092 
Q 1497 4750 2381 4750 
Q 2619 4750 2861 4703 
Q 3103 4656 3366 4563 
z
" transform="scale(0.015625)"/>
       </defs>
       <use xlink:href="#DejaVuSans-36"/>
       <use xlink:href="#DejaVuSans-30" x="63.623047"/>
      </g>
     </g>
    </g>
    <g id="xtick_5">
     <g id="line2d_9">
      <path d="M 570.3052 166.079167 
L 570.3052 10.8 
" clip-path="url(#pf5337005f6)" style="fill: none; stroke-dasharray: 0.8,1.32; stroke-dashoffset: 0; stroke: #b0b0b0; stroke-width: 0.8"/>
     </g>
     <g id="line2d_10">
      <g>
       <use xlink:href="#m8ce99a4d64" x="570.3052" y="166.079167" style="stroke: #000000; stroke-width: 0.8"/>
      </g>
     </g>
     <g id="text_5">
      <!-- 80 -->
      <g transform="translate(563.9427 180.677604) scale(0.1 -0.1)">
       <defs>
        <path id="DejaVuSans-38" d="M 2034 2216 
Q 1584 2216 1326 1975 
Q 1069 1734 1069 1313 
Q 1069 891 1326 650 
Q 1584 409 2034 409 
Q 2484 409 2743 651 
Q 3003 894 3003 1313 
Q 3003 1734 2745 1975 
Q 2488 2216 2034 2216 
z
M 1403 2484 
Q 997 2584 770 2862 
Q 544 3141 544 3541 
Q 544 4100 942 4425 
Q 1341 4750 2034 4750 
Q 2731 4750 3128 4425 
Q 3525 4100 3525 3541 
Q 3525 3141 3298 2862 
Q 3072 2584 2669 2484 
Q 3125 2378 3379 2068 
Q 3634 1759 3634 1313 
Q 3634 634 3220 271 
Q 2806 -91 2034 -91 
Q 1263 -91 848 271 
Q 434 634 434 1313 
Q 434 1759 690 2068 
Q 947 2378 1403 2484 
z
M 1172 3481 
Q 1172 3119 1398 2916 
Q 1625 2713 2034 2713 
Q 2441 2713 2670 2916 
Q 2900 3119 2900 3481 
Q 2900 3844 2670 4047 
Q 2441 4250 2034 4250 
Q 1625 4250 1398 4047 
Q 1172 3844 1172 3481 
z
" transform="scale(0.015625)"/>
       </defs>
       <use xlink:href="#DejaVuSans-38"/>
       <use xlink:href="#DejaVuSans-30" x="63.623047"/>
      </g>
     </g>
    </g>
    <g id="xtick_6">
     <g id="line2d_11">
      <path d="M 699.615 166.079167 
L 699.615 10.8 
" clip-path="url(#pf5337005f6)" style="fill: none; stroke-dasharray: 0.8,1.32; stroke-dashoffset: 0; stroke: #b0b0b0; stroke-width: 0.8"/>
     </g>
     <g id="line2d_12">
      <g>
       <use xlink:href="#m8ce99a4d64" x="699.615" y="166.079167" style="stroke: #000000; stroke-width: 0.8"/>
      </g>
     </g>
     <g id="text_6">
      <!-- 100 -->
      <g transform="translate(690.07125 180.677604) scale(0.1 -0.1)">
       <defs>
        <path id="DejaVuSans-31" d="M 794 531 
L 1825 531 
L 1825 4091 
L 703 3866 
L 703 4441 
L 1819 4666 
L 2450 4666 
L 2450 531 
L 3481 531 
L 3481 0 
L 794 0 
L 794 531 
z
" transform="scale(0.015625)"/>
       </defs>
       <use xlink:href="#DejaVuSans-31"/>
       <use xlink:href="#DejaVuSans-30" x="63.623047"/>
       <use xlink:href="#DejaVuSans-30" x="127.246094"/>
      </g>
     </g>
    </g>
   </g>
   <g id="matplotlib.axis_2">
    <g id="ytick_1">
     <g id="line2d_13">
      <path d="M 53.066 159.021023 
L 699.615 159.021023 
" clip-path="url(#pf5337005f6)" style="fill: none; stroke-dasharray: 0.8,1.32; stroke-dashoffset: 0; stroke: #b0b0b0; stroke-width: 0.8"/>
     </g>
     <g id="line2d_14">
      <defs>
       <path id="mb0747b7570" d="M 0 0 
L -3.5 0 
" style="stroke: #000000; stroke-width: 0.8"/>
      </defs>
      <g>
       <use xlink:href="#mb0747b7570" x="53.066" y="159.021023" style="stroke: #000000; stroke-width: 0.8"/>
      </g>
     </g>
     <g id="text_7">
      <!-- 0.00 -->
      <g transform="translate(23.800375 162.820241) scale(0.1 -0.1)">
       <defs>
        <path id="DejaVuSans-2e" d="M 684 794 
L 1344 794 
L 1344 0 
L 684 0 
L 684 794 
z
" transform="scale(0.015625)"/>
       </defs>
       <use xlink:href="#DejaVuSans-30"/>
       <use xlink:href="#DejaVuSans-2e" x="63.623047"/>
       <use xlink:href="#DejaVuSans-30" x="95.410156"/>
       <use xlink:href="#DejaVuSans-30" x="159.033203"/>
      </g>
     </g>
    </g>
    <g id="ytick_2">
     <g id="line2d_15">
      <path d="M 53.066 135.709893 
L 699.615 135.709893 
" clip-path="url(#pf5337005f6)" style="fill: none; stroke-dasharray: 0.8,1.32; stroke-dashoffset: 0; stroke: #b0b0b0; stroke-width: 0.8"/>
     </g>
     <g id="line2d_16">
      <g>
       <use xlink:href="#mb0747b7570" x="53.066" y="135.709893" style="stroke: #000000; stroke-width: 0.8"/>
      </g>
     </g>
     <g id="text_8">
      <!-- 0.25 -->
      <g transform="translate(23.800375 139.509111) scale(0.1 -0.1)">
       <defs>
        <path id="DejaVuSans-35" d="M 691 4666 
L 3169 4666 
L 3169 4134 
L 1269 4134 
L 1269 2991 
Q 1406 3038 1543 3061 
Q 1681 3084 1819 3084 
Q 2600 3084 3056 2656 
Q 3513 2228 3513 1497 
Q 3513 744 3044 326 
Q 2575 -91 1722 -91 
Q 1428 -91 1123 -41 
Q 819 9 494 109 
L 494 744 
Q 775 591 1075 516 
Q 1375 441 1709 441 
Q 2250 441 2565 725 
Q 2881 1009 2881 1497 
Q 2881 1984 2565 2268 
Q 2250 2553 1709 2553 
Q 1456 2553 1204 2497 
Q 953 2441 691 2322 
L 691 4666 
z
" transform="scale(0.015625)"/>
       </defs>
       <use xlink:href="#DejaVuSans-30"/>
       <use xlink:href="#DejaVuSans-2e" x="63.623047"/>
       <use xlink:href="#DejaVuSans-32" x="95.410156"/>
       <use xlink:href="#DejaVuSans-35" x="159.033203"/>
      </g>
     </g>
    </g>
    <g id="ytick_3">
     <g id="line2d_17">
      <path d="M 53.066 112.398763 
L 699.615 112.398763 
" clip-path="url(#pf5337005f6)" style="fill: none; stroke-dasharray: 0.8,1.32; stroke-dashoffset: 0; stroke: #b0b0b0; stroke-width: 0.8"/>
     </g>
     <g id="line2d_18">
      <g>
       <use xlink:href="#mb0747b7570" x="53.066" y="112.398763" style="stroke: #000000; stroke-width: 0.8"/>
      </g>
     </g>
     <g id="text_9">
      <!-- 0.50 -->
      <g transform="translate(23.800375 116.197981) scale(0.1 -0.1)">
       <use xlink:href="#DejaVuSans-30"/>
       <use xlink:href="#DejaVuSans-2e" x="63.623047"/>
       <use xlink:href="#DejaVuSans-35" x="95.410156"/>
       <use xlink:href="#DejaVuSans-30" x="159.033203"/>
      </g>
     </g>
    </g>
    <g id="ytick_4">
     <g id="line2d_19">
      <path d="M 53.066 89.087633 
L 699.615 89.087633 
" clip-path="url(#pf5337005f6)" style="fill: none; stroke-dasharray: 0.8,1.32; stroke-dashoffset: 0; stroke: #b0b0b0; stroke-width: 0.8"/>
     </g>
     <g id="line2d_20">
      <g>
       <use xlink:href="#mb0747b7570" x="53.066" y="89.087633" style="stroke: #000000; stroke-width: 0.8"/>
      </g>
     </g>
     <g id="text_10">
      <!-- 0.75 -->
      <g transform="translate(23.800375 92.886851) scale(0.1 -0.1)">
       <defs>
        <path id="DejaVuSans-37" d="M 525 4666 
L 3525 4666 
L 3525 4397 
L 1831 0 
L 1172 0 
L 2766 4134 
L 525 4134 
L 525 4666 
z
" transform="scale(0.015625)"/>
       </defs>
       <use xlink:href="#DejaVuSans-30"/>
       <use xlink:href="#DejaVuSans-2e" x="63.623047"/>
       <use xlink:href="#DejaVuSans-37" x="95.410156"/>
       <use xlink:href="#DejaVuSans-35" x="159.033203"/>
      </g>
     </g>
    </g>
    <g id="ytick_5">
     <g id="line2d_21">
      <path d="M 53.066 65.776503 
L 699.615 65.776503 
" clip-path="url(#pf5337005f6)" style="fill: none; stroke-dasharray: 0.8,1.32; stroke-dashoffset: 0; stroke: #b0b0b0; stroke-width: 0.8"/>
     </g>
     <g id="line2d_22">
      <g>
       <use xlink:href="#mb0747b7570" x="53.066" y="65.776503" style="stroke: #000000; stroke-width: 0.8"/>
      </g>
     </g>
     <g id="text_11">
      <!-- 1.00 -->
      <g transform="translate(23.800375 69.575722) scale(0.1 -0.1)">
       <use xlink:href="#DejaVuSans-31"/>
       <use xlink:href="#DejaVuSans-2e" x="63.623047"/>
       <use xlink:href="#DejaVuSans-30" x="95.410156"/>
       <use xlink:href="#DejaVuSans-30" x="159.033203"/>
      </g>
     </g>
    </g>
    <g id="ytick_6">
     <g id="line2d_23">
      <path d="M 53.066 42.465373 
L 699.615 42.465373 
" clip-path="url(#pf5337005f6)" style="fill: none; stroke-dasharray: 0.8,1.32; stroke-dashoffset: 0; stroke: #b0b0b0; stroke-width: 0.8"/>
     </g>
     <g id="line2d_24">
      <g>
       <use xlink:href="#mb0747b7570" x="53.066" y="42.465373" style="stroke: #000000; stroke-width: 0.8"/>
      </g>
     </g>
     <g id="text_12">
      <!-- 1.25 -->
      <g transform="translate(23.800375 46.264592) scale(0.1 -0.1)">
       <use xlink:href="#DejaVuSans-31"/>
       <use xlink:href="#DejaVuSans-2e" x="63.623047"/>
       <use xlink:href="#DejaVuSans-32" x="95.410156"/>
       <use xlink:href="#DejaVuSans-35" x="159.033203"/>
      </g>
     </g>
    </g>
    <g id="ytick_7">
     <g id="line2d_25">
      <path d="M 53.066 19.154243 
L 699.615 19.154243 
" clip-path="url(#pf5337005f6)" style="fill: none; stroke-dasharray: 0.8,1.32; stroke-dashoffset: 0; stroke: #b0b0b0; stroke-width: 0.8"/>
     </g>
     <g id="line2d_26">
      <g>
       <use xlink:href="#mb0747b7570" x="53.066" y="19.154243" style="stroke: #000000; stroke-width: 0.8"/>
      </g>
     </g>
     <g id="text_13">
      <!-- 1.50 -->
      <g transform="translate(23.800375 22.953462) scale(0.1 -0.1)">
       <use xlink:href="#DejaVuSans-31"/>
       <use xlink:href="#DejaVuSans-2e" x="63.623047"/>
       <use xlink:href="#DejaVuSans-35" x="95.410156"/>
       <use xlink:href="#DejaVuSans-30" x="159.033203"/>
      </g>
     </g>
    </g>
    <g id="text_14">
     <!-- $C_l$ [-] -->
     <g transform="translate(17.720688 100.339583) rotate(-90) scale(0.1 -0.1)">
      <defs>
       <path id="DejaVuSans-Oblique-43" d="M 4447 4306 
L 4319 3641 
Q 4019 3944 3683 4091 
Q 3347 4238 2956 4238 
Q 2422 4238 2017 3981 
Q 1613 3725 1319 3200 
Q 1131 2863 1032 2486 
Q 934 2109 934 1728 
Q 934 1091 1264 756 
Q 1594 422 2222 422 
Q 2656 422 3056 561 
Q 3456 700 3834 978 
L 3688 231 
Q 3316 72 2936 -9 
Q 2556 -91 2175 -91 
Q 1278 -91 773 396 
Q 269 884 269 1753 
Q 269 2309 461 2846 
Q 653 3384 1013 3828 
Q 1394 4300 1883 4525 
Q 2372 4750 3022 4750 
Q 3422 4750 3780 4639 
Q 4138 4528 4447 4306 
z
" transform="scale(0.015625)"/>
       <path id="DejaVuSans-Oblique-6c" d="M 1172 4863 
L 1747 4863 
L 800 0 
L 225 0 
L 1172 4863 
z
" transform="scale(0.015625)"/>
       <path id="DejaVuSans-20" transform="scale(0.015625)"/>
       <path id="DejaVuSans-5b" d="M 550 4863 
L 1875 4863 
L 1875 4416 
L 1125 4416 
L 1125 -397 
L 1875 -397 
L 1875 -844 
L 550 -844 
L 550 4863 
z
" transform="scale(0.015625)"/>
       <path id="DejaVuSans-2d" d="M 313 2009 
L 1997 2009 
L 1997 1497 
L 313 1497 
L 313 2009 
z
" transform="scale(0.015625)"/>
       <path id="DejaVuSans-5d" d="M 1947 4863 
L 1947 -844 
L 622 -844 
L 622 -397 
L 1369 -397 
L 1369 4416 
L 622 4416 
L 622 4863 
L 1947 4863 
z
" transform="scale(0.015625)"/>
      </defs>
      <use xlink:href="#DejaVuSans-Oblique-43" transform="translate(0 0.015625)"/>
      <use xlink:href="#DejaVuSans-Oblique-6c" transform="translate(69.824219 -16.390625) scale(0.7)"/>
      <use xlink:href="#DejaVuSans-20" transform="translate(92.006836 0.015625)"/>
      <use xlink:href="#DejaVuSans-5b" transform="translate(123.793945 0.015625)"/>
      <use xlink:href="#DejaVuSans-2d" transform="translate(162.807617 0.015625)"/>
      <use xlink:href="#DejaVuSans-5d" transform="translate(198.891602 0.015625)"/>
     </g>
    </g>
   </g>
   <g id="line2d_27">
    <path d="M 53.066 17.858144 
L 59.596798 17.858144 
L 66.127596 17.858144 
L 72.658394 17.858144 
L 79.189192 17.858144 
L 85.71999 17.858144 
L 92.250788 17.858144 
L 98.781586 17.858144 
L 105.312384 17.858144 
L 111.843182 17.858144 
L 118.37398 17.858144 
L 124.904778 17.858144 
L 131.435576 17.858144 
L 137.966374 17.858144 
L 144.497172 17.858144 
L 151.02797 17.858144 
L 157.558768 17.858144 
L 164.089566 17.858144 
L 170.620364 17.858144 
L 177.151162 17.858144 
L 183.68196 17.858144 
L 190.212758 17.858144 
L 196.743556 17.858144 
L 203.274354 17.858144 
L 209.805152 17.868265 
L 216.335949 18.45482 
L 222.866747 19.726217 
L 229.397545 21.37773 
L 235.928343 23.104633 
L 242.459141 24.6022 
L 248.989939 25.576493 
L 255.520737 26.173044 
L 262.051535 26.619899 
L 268.582333 27.017771 
L 275.113131 27.467377 
L 281.643929 28.069431 
L 288.174727 29.023567 
L 294.705525 31.422938 
L 301.236323 35.31057 
L 307.767121 40.389728 
L 314.297919 46.363677 
L 320.828717 52.935682 
L 327.359515 59.809007 
L 333.890313 66.686918 
L 340.421111 73.272679 
L 346.951909 79.269555 
L 353.482707 84.380811 
L 360.013505 88.309712 
L 366.544303 90.949457 
L 373.075101 93.347324 
L 379.605899 95.712286 
L 386.136697 98.043756 
L 392.667495 100.341143 
L 399.198293 102.603859 
L 405.729091 104.831314 
L 412.259889 107.02292 
L 418.790687 109.178088 
L 425.321485 111.296229 
L 431.852283 113.376752 
L 438.383081 115.419071 
L 444.913879 117.422594 
L 451.444677 119.386734 
L 457.975475 121.310901 
L 464.506273 123.194507 
L 471.037071 125.036962 
L 477.567869 126.837677 
L 484.098667 128.596063 
L 490.629465 130.311531 
L 497.160263 131.983493 
L 503.691061 133.611358 
L 510.221859 135.194538 
L 516.752657 136.732445 
L 523.283455 138.224488 
L 529.814253 139.670079 
L 536.345051 141.068628 
L 542.875848 142.419548 
L 549.406646 143.722248 
L 555.937444 144.97614 
L 562.468242 146.180634 
L 568.99904 147.335142 
L 575.529838 148.439075 
L 582.060636 149.491843 
L 588.591434 150.492857 
L 595.122232 151.441529 
L 601.65303 152.337269 
L 608.183828 153.179489 
L 614.714626 153.967598 
L 621.245424 154.701009 
L 627.776222 155.379132 
L 634.30702 156.001379 
L 640.837818 156.567159 
L 647.368616 157.075884 
L 653.899414 157.526965 
L 660.430212 157.919814 
L 666.96101 158.25384 
L 673.491808 158.528455 
L 680.022606 158.74307 
L 686.553404 158.897095 
L 693.084202 158.989943 
L 699.615 159.021023 
" clip-path="url(#pf5337005f6)" style="fill: none; stroke: #1f77b4; stroke-width: 1.5; stroke-linecap: square"/>
   </g>
   <g id="line2d_28">
    <defs>
     <path id="m44e78effa0" d="M 0 3 
C 0.795609 3 1.55874 2.683901 2.12132 2.12132 
C 2.683901 1.55874 3 0.795609 3 0 
C 3 -0.795609 2.683901 -1.55874 2.12132 -2.12132 
C 1.55874 -2.683901 0.795609 -3 0 -3 
C -0.795609 -3 -1.55874 -2.683901 -2.12132 -2.12132 
C -2.683901 -1.55874 -3 -0.795609 -3 0 
C -3 0.795609 -2.683901 1.55874 -2.12132 2.12132 
C -1.55874 2.683901 -0.795609 3 0 3 
z
" style="stroke: #1f77b4"/>
    </defs>
    <g clip-path="url(#pf5337005f6)">
     <use xlink:href="#m44e78effa0" x="208.884309" y="17.858144" style="fill: #1f77b4; stroke: #1f77b4"/>
     <use xlink:href="#m44e78effa0" x="247.677249" y="25.429599" style="fill: #1f77b4; stroke: #1f77b4"/>
     <use xlink:href="#m44e78effa0" x="285.82364" y="28.581264" style="fill: #1f77b4; stroke: #1f77b4"/>
     <use xlink:href="#m44e78effa0" x="363.40952" y="89.786967" style="fill: #1f77b4; stroke: #1f77b4"/>
    </g>
   </g>
   <g id="line2d_29">
    <defs>
     <path id="m9c0b609922" d="M -3 3 
L 3 -3 
M -3 -3 
L 3 3 
" style="stroke: #000000"/>
    </defs>
    <g clip-path="url(#pf5337005f6)">
     <use xlink:href="#m9c0b609922" x="208.884309" y="37.803147" style="stroke: #000000"/>
     <use xlink:href="#m9c0b609922" x="247.677249" y="44.330263" style="stroke: #000000"/>
     <use xlink:href="#m9c0b609922" x="285.82364" y="31.27603" style="stroke: #000000"/>
     <use xlink:href="#m9c0b609922" x="363.40952" y="108.668982" style="stroke: #000000"/>
    </g>
   </g>
   <g id="line2d_30">
    <path d="M 53.066 27.182596 
L 59.596798 27.182596 
L 66.127596 27.182596 
L 72.658394 27.182596 
L 79.189192 27.182596 
L 85.71999 27.182596 
L 92.250788 27.182596 
L 98.781586 27.182596 
L 105.312384 27.182596 
L 111.843182 27.182596 
L 118.37398 27.182596 
L 124.904778 27.182596 
L 131.435576 27.182596 
L 137.966374 27.182596 
L 144.497172 27.182596 
L 151.02797 27.182596 
L 157.558768 27.182596 
L 164.089566 27.182596 
L 170.620364 27.182596 
L 177.151162 27.182596 
L 183.68196 27.182596 
L 190.212758 27.182596 
L 196.743556 27.182596 
L 203.274354 27.182596 
L 209.805152 27.192717 
L 216.335949 27.779272 
L 222.866747 29.050669 
L 229.397545 30.702182 
L 235.928343 32.429085 
L 242.459141 33.926652 
L 248.989939 34.900945 
L 255.520737 35.497496 
L 262.051535 35.944351 
L 268.582333 36.342223 
L 275.113131 36.791829 
L 281.643929 37.393883 
L 288.174727 38.350593 
L 294.705525 40.780936 
L 301.236323 44.726436 
L 307.767121 49.880013 
L 314.297919 55.934587 
L 320.828717 62.58308 
L 327.359515 69.51841 
L 333.890313 76.4335 
L 340.421111 83.021269 
L 346.951909 88.974638 
L 353.482707 93.986528 
L 360.013505 97.749858 
L 366.544303 100.156865 
L 373.075101 102.309388 
L 379.605899 104.427201 
L 386.136697 106.509985 
L 392.667495 108.55742 
L 399.198293 110.569185 
L 405.729091 112.544961 
L 412.259889 114.484429 
L 418.790687 116.387268 
L 425.321485 118.253159 
L 431.852283 120.081781 
L 438.383081 121.872816 
L 444.913879 123.625943 
L 451.444677 125.340843 
L 457.975475 127.017195 
L 464.506273 128.654681 
L 471.037071 130.25298 
L 477.567869 131.811772 
L 484.098667 133.330738 
L 490.629465 134.809557 
L 497.160263 136.247911 
L 503.691061 137.645479 
L 510.221859 139.001941 
L 516.752657 140.316978 
L 523.283455 141.59027 
L 529.814253 142.821498 
L 536.345051 144.01034 
L 542.875848 145.156478 
L 549.406646 146.259592 
L 555.937444 147.319362 
L 562.468242 148.335468 
L 568.99904 149.307591 
L 575.529838 150.23541 
L 582.060636 151.118606 
L 588.591434 151.956859 
L 595.122232 152.74985 
L 601.65303 153.497258 
L 608.183828 154.198763 
L 614.714626 154.854047 
L 621.245424 155.462789 
L 627.776222 156.024669 
L 634.30702 156.539367 
L 640.837818 157.006565 
L 647.368616 157.425941 
L 653.899414 157.797177 
L 660.430212 158.119952 
L 666.96101 158.393947 
L 673.491808 158.618841 
L 680.022606 158.794316 
L 686.553404 158.920051 
L 693.084202 158.995726 
L 699.615 159.021023 
" clip-path="url(#pf5337005f6)" style="fill: none; stroke: #ff7f0e; stroke-width: 1.5; stroke-linecap: square"/>
   </g>
   <g id="line2d_31">
    <defs>
     <path id="m79279c6cdf" d="M 0 3 
C 0.795609 3 1.55874 2.683901 2.12132 2.12132 
C 2.683901 1.55874 3 0.795609 3 0 
C 3 -0.795609 2.683901 -1.55874 2.12132 -2.12132 
C 1.55874 -2.683901 0.795609 -3 0 -3 
C -0.795609 -3 -1.55874 -2.683901 -2.12132 -2.12132 
C -2.683901 -1.55874 -3 -0.795609 -3 0 
C -3 0.795609 -2.683901 1.55874 -2.12132 2.12132 
C -1.55874 2.683901 -0.795609 3 0 3 
z
" style="stroke: #ff7f0e"/>
    </defs>
    <g clip-path="url(#pf5337005f6)">
     <use xlink:href="#m79279c6cdf" x="208.884309" y="27.182596" style="fill: #ff7f0e; stroke: #ff7f0e"/>
     <use xlink:href="#m79279c6cdf" x="247.677249" y="34.754051" style="fill: #ff7f0e; stroke: #ff7f0e"/>
     <use xlink:href="#m79279c6cdf" x="285.82364" y="37.905716" style="fill: #ff7f0e; stroke: #ff7f0e"/>
     <use xlink:href="#m79279c6cdf" x="363.40952" y="99.111419" style="fill: #ff7f0e; stroke: #ff7f0e"/>
    </g>
   </g>
   <g id="line2d_32">
    <g clip-path="url(#pf5337005f6)">
     <use xlink:href="#m9c0b609922" x="208.884309" y="37.803147" style="stroke: #000000"/>
     <use xlink:href="#m9c0b609922" x="247.677249" y="44.330263" style="stroke: #000000"/>
     <use xlink:href="#m9c0b609922" x="285.82364" y="31.27603" style="stroke: #000000"/>
     <use xlink:href="#m9c0b609922" x="363.40952" y="108.668982" style="stroke: #000000"/>
    </g>
   </g>
   <g id="line2d_33">
    <path d="M 53.066 36.507048 
L 59.596798 36.507048 
L 66.127596 36.507048 
L 72.658394 36.507048 
L 79.189192 36.507048 
L 85.71999 36.507048 
L 92.250788 36.507048 
L 98.781586 36.507048 
L 105.312384 36.507048 
L 111.843182 36.507048 
L 118.37398 36.507048 
L 124.904778 36.507048 
L 131.435576 36.507048 
L 137.966374 36.507048 
L 144.497172 36.507048 
L 151.02797 36.507048 
L 157.558768 36.507048 
L 164.089566 36.507048 
L 170.620364 36.507048 
L 177.151162 36.507048 
L 183.68196 36.507048 
L 190.212758 36.507048 
L 196.743556 36.507048 
L 203.274354 36.507048 
L 209.805152 36.517169 
L 216.335949 37.103724 
L 222.866747 38.375121 
L 229.397545 40.026634 
L 235.928343 41.753537 
L 242.459141 43.251104 
L 248.989939 44.225397 
L 255.520737 44.821948 
L 262.051535 45.268803 
L 268.582333 45.666675 
L 275.113131 46.116281 
L 281.643929 46.718335 
L 288.174727 47.677833 
L 294.705525 50.141723 
L 301.236323 54.149901 
L 307.767121 59.384082 
L 314.297919 65.525984 
L 320.828717 72.257321 
L 327.359515 79.259811 
L 333.890313 86.21517 
L 340.421111 92.805115 
L 346.951909 98.71136 
L 353.482707 103.615624 
L 360.013505 107.199621 
L 366.544303 109.354744 
L 373.075101 111.243214 
L 379.605899 113.096673 
L 386.136697 114.915023 
L 392.667495 116.698169 
L 399.198293 118.446014 
L 405.729091 120.158463 
L 412.259889 121.835418 
L 418.790687 123.476784 
L 425.321485 125.082464 
L 431.852283 126.652361 
L 438.383081 128.18638 
L 444.913879 129.684424 
L 451.444677 131.146397 
L 457.975475 132.572203 
L 464.506273 133.961744 
L 471.037071 135.314926 
L 477.567869 136.631651 
L 484.098667 137.911823 
L 490.629465 139.155347 
L 497.160263 140.362125 
L 503.691061 141.532061 
L 510.221859 142.665059 
L 516.752657 143.761023 
L 523.283455 144.819856 
L 529.814253 145.841462 
L 536.345051 146.825745 
L 542.875848 147.772609 
L 549.406646 148.681956 
L 555.937444 149.553691 
L 562.468242 150.387718 
L 568.99904 151.183939 
L 575.529838 151.94226 
L 582.060636 152.662583 
L 588.591434 153.344812 
L 595.122232 153.988851 
L 601.65303 154.594604 
L 608.183828 155.161974 
L 614.714626 155.690865 
L 621.245424 156.18118 
L 627.776222 156.632824 
L 634.30702 157.045699 
L 640.837818 157.41971 
L 647.368616 157.754761 
L 653.899414 158.050754 
L 660.430212 158.307595 
L 666.96101 158.525185 
L 673.491808 158.70343 
L 680.022606 158.842232 
L 686.553404 158.941496 
L 693.084202 159.001125 
L 699.615 159.021023 
" clip-path="url(#pf5337005f6)" style="fill: none; stroke: #2ca02c; stroke-width: 1.5; stroke-linecap: square"/>
   </g>
   <g id="line2d_34">
    <defs>
     <path id="mfefb46dd7a" d="M 0 3 
C 0.795609 3 1.55874 2.683901 2.12132 2.12132 
C 2.683901 1.55874 3 0.795609 3 0 
C 3 -0.795609 2.683901 -1.55874 2.12132 -2.12132 
C 1.55874 -2.683901 0.795609 -3 0 -3 
C -0.795609 -3 -1.55874 -2.683901 -2.12132 -2.12132 
C -2.683901 -1.55874 -3 -0.795609 -3 0 
C -3 0.795609 -2.683901 1.55874 -2.12132 2.12132 
C -1.55874 2.683901 -0.795609 3 0 3 
z
" style="stroke: #2ca02c"/>
    </defs>
    <g clip-path="url(#pf5337005f6)">
     <use xlink:href="#mfefb46dd7a" x="208.884309" y="36.507048" style="fill: #2ca02c; stroke: #2ca02c"/>
     <use xlink:href="#mfefb46dd7a" x="247.677249" y="44.078503" style="fill: #2ca02c; stroke: #2ca02c"/>
     <use xlink:href="#mfefb46dd7a" x="285.82364" y="47.230168" style="fill: #2ca02c; stroke: #2ca02c"/>
     <use xlink:href="#mfefb46dd7a" x="363.40952" y="108.435871" style="fill: #2ca02c; stroke: #2ca02c"/>
    </g>
   </g>
   <g id="line2d_35">
    <g clip-path="url(#pf5337005f6)">
     <use xlink:href="#m9c0b609922" x="208.884309" y="37.803147" style="stroke: #000000"/>
     <use xlink:href="#m9c0b609922" x="247.677249" y="44.330263" style="stroke: #000000"/>
     <use xlink:href="#m9c0b609922" x="285.82364" y="31.27603" style="stroke: #000000"/>
     <use xlink:href="#m9c0b609922" x="363.40952" y="108.668982" style="stroke: #000000"/>
    </g>
   </g>
   <g id="patch_3">
    <path d="M 53.066 166.079167 
L 53.066 10.8 
" style="fill: none; stroke: #000000; stroke-width: 0.8; stroke-linejoin: miter; stroke-linecap: square"/>
   </g>
   <g id="patch_4">
    <path d="M 699.615 166.079167 
L 699.615 10.8 
" style="fill: none; stroke: #000000; stroke-width: 0.8; stroke-linejoin: miter; stroke-linecap: square"/>
   </g>
   <g id="patch_5">
    <path d="M 53.066 166.079167 
L 699.615 166.079167 
" style="fill: none; stroke: #000000; stroke-width: 0.8; stroke-linejoin: miter; stroke-linecap: square"/>
   </g>
   <g id="patch_6">
    <path d="M 53.066 10.8 
L 699.615 10.8 
" style="fill: none; stroke: #000000; stroke-width: 0.8; stroke-linejoin: miter; stroke-linecap: square"/>
   </g>
   <g id="legend_1">
    <g id="patch_7">
     <path d="M 591.675938 77.5125 
L 692.615 77.5125 
Q 694.615 77.5125 694.615 75.5125 
L 694.615 17.8 
Q 694.615 15.8 692.615 15.8 
L 591.675938 15.8 
Q 589.675938 15.8 589.675938 17.8 
L 589.675938 75.5125 
Q 589.675938 77.5125 591.675938 77.5125 
z
" style="fill: #ffffff; opacity: 0.8; stroke: #cccccc; stroke-linejoin: miter"/>
    </g>
    <g id="line2d_36">
     <path d="M 593.675938 23.898438 
L 603.675938 23.898438 
L 613.675938 23.898438 
" style="fill: none; stroke: #1f77b4; stroke-width: 1.5; stroke-linecap: square"/>
    </g>
    <g id="text_15">
     <!-- Design func 1 -->
     <g transform="translate(621.675938 27.398438) scale(0.1 -0.1)">
      <defs>
       <path id="DejaVuSans-44" d="M 1259 4147 
L 1259 519 
L 2022 519 
Q 2988 519 3436 956 
Q 3884 1394 3884 2338 
Q 3884 3275 3436 3711 
Q 2988 4147 2022 4147 
L 1259 4147 
z
M 628 4666 
L 1925 4666 
Q 3281 4666 3915 4102 
Q 4550 3538 4550 2338 
Q 4550 1131 3912 565 
Q 3275 0 1925 0 
L 628 0 
L 628 4666 
z
" transform="scale(0.015625)"/>
       <path id="DejaVuSans-65" d="M 3597 1894 
L 3597 1613 
L 953 1613 
Q 991 1019 1311 708 
Q 1631 397 2203 397 
Q 2534 397 2845 478 
Q 3156 559 3463 722 
L 3463 178 
Q 3153 47 2828 -22 
Q 2503 -91 2169 -91 
Q 1331 -91 842 396 
Q 353 884 353 1716 
Q 353 2575 817 3079 
Q 1281 3584 2069 3584 
Q 2775 3584 3186 3129 
Q 3597 2675 3597 1894 
z
M 3022 2063 
Q 3016 2534 2758 2815 
Q 2500 3097 2075 3097 
Q 1594 3097 1305 2825 
Q 1016 2553 972 2059 
L 3022 2063 
z
" transform="scale(0.015625)"/>
       <path id="DejaVuSans-73" d="M 2834 3397 
L 2834 2853 
Q 2591 2978 2328 3040 
Q 2066 3103 1784 3103 
Q 1356 3103 1142 2972 
Q 928 2841 928 2578 
Q 928 2378 1081 2264 
Q 1234 2150 1697 2047 
L 1894 2003 
Q 2506 1872 2764 1633 
Q 3022 1394 3022 966 
Q 3022 478 2636 193 
Q 2250 -91 1575 -91 
Q 1294 -91 989 -36 
Q 684 19 347 128 
L 347 722 
Q 666 556 975 473 
Q 1284 391 1588 391 
Q 1994 391 2212 530 
Q 2431 669 2431 922 
Q 2431 1156 2273 1281 
Q 2116 1406 1581 1522 
L 1381 1569 
Q 847 1681 609 1914 
Q 372 2147 372 2553 
Q 372 3047 722 3315 
Q 1072 3584 1716 3584 
Q 2034 3584 2315 3537 
Q 2597 3491 2834 3397 
z
" transform="scale(0.015625)"/>
       <path id="DejaVuSans-69" d="M 603 3500 
L 1178 3500 
L 1178 0 
L 603 0 
L 603 3500 
z
M 603 4863 
L 1178 4863 
L 1178 4134 
L 603 4134 
L 603 4863 
z
" transform="scale(0.015625)"/>
       <path id="DejaVuSans-67" d="M 2906 1791 
Q 2906 2416 2648 2759 
Q 2391 3103 1925 3103 
Q 1463 3103 1205 2759 
Q 947 2416 947 1791 
Q 947 1169 1205 825 
Q 1463 481 1925 481 
Q 2391 481 2648 825 
Q 2906 1169 2906 1791 
z
M 3481 434 
Q 3481 -459 3084 -895 
Q 2688 -1331 1869 -1331 
Q 1566 -1331 1297 -1286 
Q 1028 -1241 775 -1147 
L 775 -588 
Q 1028 -725 1275 -790 
Q 1522 -856 1778 -856 
Q 2344 -856 2625 -561 
Q 2906 -266 2906 331 
L 2906 616 
Q 2728 306 2450 153 
Q 2172 0 1784 0 
Q 1141 0 747 490 
Q 353 981 353 1791 
Q 353 2603 747 3093 
Q 1141 3584 1784 3584 
Q 2172 3584 2450 3431 
Q 2728 3278 2906 2969 
L 2906 3500 
L 3481 3500 
L 3481 434 
z
" transform="scale(0.015625)"/>
       <path id="DejaVuSans-6e" d="M 3513 2113 
L 3513 0 
L 2938 0 
L 2938 2094 
Q 2938 2591 2744 2837 
Q 2550 3084 2163 3084 
Q 1697 3084 1428 2787 
Q 1159 2491 1159 1978 
L 1159 0 
L 581 0 
L 581 3500 
L 1159 3500 
L 1159 2956 
Q 1366 3272 1645 3428 
Q 1925 3584 2291 3584 
Q 2894 3584 3203 3211 
Q 3513 2838 3513 2113 
z
" transform="scale(0.015625)"/>
       <path id="DejaVuSans-66" d="M 2375 4863 
L 2375 4384 
L 1825 4384 
Q 1516 4384 1395 4259 
Q 1275 4134 1275 3809 
L 1275 3500 
L 2222 3500 
L 2222 3053 
L 1275 3053 
L 1275 0 
L 697 0 
L 697 3053 
L 147 3053 
L 147 3500 
L 697 3500 
L 697 3744 
Q 697 4328 969 4595 
Q 1241 4863 1831 4863 
L 2375 4863 
z
" transform="scale(0.015625)"/>
       <path id="DejaVuSans-75" d="M 544 1381 
L 544 3500 
L 1119 3500 
L 1119 1403 
Q 1119 906 1312 657 
Q 1506 409 1894 409 
Q 2359 409 2629 706 
Q 2900 1003 2900 1516 
L 2900 3500 
L 3475 3500 
L 3475 0 
L 2900 0 
L 2900 538 
Q 2691 219 2414 64 
Q 2138 -91 1772 -91 
Q 1169 -91 856 284 
Q 544 659 544 1381 
z
M 1991 3584 
L 1991 3584 
z
" transform="scale(0.015625)"/>
       <path id="DejaVuSans-63" d="M 3122 3366 
L 3122 2828 
Q 2878 2963 2633 3030 
Q 2388 3097 2138 3097 
Q 1578 3097 1268 2742 
Q 959 2388 959 1747 
Q 959 1106 1268 751 
Q 1578 397 2138 397 
Q 2388 397 2633 464 
Q 2878 531 3122 666 
L 3122 134 
Q 2881 22 2623 -34 
Q 2366 -91 2075 -91 
Q 1284 -91 818 406 
Q 353 903 353 1747 
Q 353 2603 823 3093 
Q 1294 3584 2113 3584 
Q 2378 3584 2631 3529 
Q 2884 3475 3122 3366 
z
" transform="scale(0.015625)"/>
      </defs>
      <use xlink:href="#DejaVuSans-44"/>
      <use xlink:href="#DejaVuSans-65" x="77.001953"/>
      <use xlink:href="#DejaVuSans-73" x="138.525391"/>
      <use xlink:href="#DejaVuSans-69" x="190.625"/>
      <use xlink:href="#DejaVuSans-67" x="218.408203"/>
      <use xlink:href="#DejaVuSans-6e" x="281.884766"/>
      <use xlink:href="#DejaVuSans-20" x="345.263672"/>
      <use xlink:href="#DejaVuSans-66" x="377.050781"/>
      <use xlink:href="#DejaVuSans-75" x="412.255859"/>
      <use xlink:href="#DejaVuSans-6e" x="475.634766"/>
      <use xlink:href="#DejaVuSans-63" x="539.013672"/>
      <use xlink:href="#DejaVuSans-20" x="593.994141"/>
      <use xlink:href="#DejaVuSans-31" x="625.78125"/>
     </g>
    </g>
    <g id="line2d_37">
     <path d="M 593.675938 38.576563 
L 603.675938 38.576563 
L 613.675938 38.576563 
" style="fill: none; stroke: #ff7f0e; stroke-width: 1.5; stroke-linecap: square"/>
    </g>
    <g id="text_16">
     <!-- Design func 2 -->
     <g transform="translate(621.675938 42.076563) scale(0.1 -0.1)">
      <use xlink:href="#DejaVuSans-44"/>
      <use xlink:href="#DejaVuSans-65" x="77.001953"/>
      <use xlink:href="#DejaVuSans-73" x="138.525391"/>
      <use xlink:href="#DejaVuSans-69" x="190.625"/>
      <use xlink:href="#DejaVuSans-67" x="218.408203"/>
      <use xlink:href="#DejaVuSans-6e" x="281.884766"/>
      <use xlink:href="#DejaVuSans-20" x="345.263672"/>
      <use xlink:href="#DejaVuSans-66" x="377.050781"/>
      <use xlink:href="#DejaVuSans-75" x="412.255859"/>
      <use xlink:href="#DejaVuSans-6e" x="475.634766"/>
      <use xlink:href="#DejaVuSans-63" x="539.013672"/>
      <use xlink:href="#DejaVuSans-20" x="593.994141"/>
      <use xlink:href="#DejaVuSans-32" x="625.78125"/>
     </g>
    </g>
    <g id="line2d_38">
     <path d="M 593.675938 53.254688 
L 603.675938 53.254688 
L 613.675938 53.254688 
" style="fill: none; stroke: #2ca02c; stroke-width: 1.5; stroke-linecap: square"/>
    </g>
    <g id="text_17">
     <!-- Design func 3 -->
     <g transform="translate(621.675938 56.754688) scale(0.1 -0.1)">
      <defs>
       <path id="DejaVuSans-33" d="M 2597 2516 
Q 3050 2419 3304 2112 
Q 3559 1806 3559 1356 
Q 3559 666 3084 287 
Q 2609 -91 1734 -91 
Q 1441 -91 1130 -33 
Q 819 25 488 141 
L 488 750 
Q 750 597 1062 519 
Q 1375 441 1716 441 
Q 2309 441 2620 675 
Q 2931 909 2931 1356 
Q 2931 1769 2642 2001 
Q 2353 2234 1838 2234 
L 1294 2234 
L 1294 2753 
L 1863 2753 
Q 2328 2753 2575 2939 
Q 2822 3125 2822 3475 
Q 2822 3834 2567 4026 
Q 2313 4219 1838 4219 
Q 1578 4219 1281 4162 
Q 984 4106 628 3988 
L 628 4550 
Q 988 4650 1302 4700 
Q 1616 4750 1894 4750 
Q 2613 4750 3031 4423 
Q 3450 4097 3450 3541 
Q 3450 3153 3228 2886 
Q 3006 2619 2597 2516 
z
" transform="scale(0.015625)"/>
      </defs>
      <use xlink:href="#DejaVuSans-44"/>
      <use xlink:href="#DejaVuSans-65" x="77.001953"/>
      <use xlink:href="#DejaVuSans-73" x="138.525391"/>
      <use xlink:href="#DejaVuSans-69" x="190.625"/>
      <use xlink:href="#DejaVuSans-67" x="218.408203"/>
      <use xlink:href="#DejaVuSans-6e" x="281.884766"/>
      <use xlink:href="#DejaVuSans-20" x="345.263672"/>
      <use xlink:href="#DejaVuSans-66" x="377.050781"/>
      <use xlink:href="#DejaVuSans-75" x="412.255859"/>
      <use xlink:href="#DejaVuSans-6e" x="475.634766"/>
      <use xlink:href="#DejaVuSans-63" x="539.013672"/>
      <use xlink:href="#DejaVuSans-20" x="593.994141"/>
      <use xlink:href="#DejaVuSans-33" x="625.78125"/>
     </g>
    </g>
    <g id="line2d_39">
     <g>
      <use xlink:href="#m9c0b609922" x="603.675938" y="67.932813" style="stroke: #000000"/>
     </g>
    </g>
    <g id="text_18">
     <!-- Design points -->
     <g transform="translate(621.675938 71.432813) scale(0.1 -0.1)">
      <defs>
       <path id="DejaVuSans-70" d="M 1159 525 
L 1159 -1331 
L 581 -1331 
L 581 3500 
L 1159 3500 
L 1159 2969 
Q 1341 3281 1617 3432 
Q 1894 3584 2278 3584 
Q 2916 3584 3314 3078 
Q 3713 2572 3713 1747 
Q 3713 922 3314 415 
Q 2916 -91 2278 -91 
Q 1894 -91 1617 61 
Q 1341 213 1159 525 
z
M 3116 1747 
Q 3116 2381 2855 2742 
Q 2594 3103 2138 3103 
Q 1681 3103 1420 2742 
Q 1159 2381 1159 1747 
Q 1159 1113 1420 752 
Q 1681 391 2138 391 
Q 2594 391 2855 752 
Q 3116 1113 3116 1747 
z
" transform="scale(0.015625)"/>
       <path id="DejaVuSans-6f" d="M 1959 3097 
Q 1497 3097 1228 2736 
Q 959 2375 959 1747 
Q 959 1119 1226 758 
Q 1494 397 1959 397 
Q 2419 397 2687 759 
Q 2956 1122 2956 1747 
Q 2956 2369 2687 2733 
Q 2419 3097 1959 3097 
z
M 1959 3584 
Q 2709 3584 3137 3096 
Q 3566 2609 3566 1747 
Q 3566 888 3137 398 
Q 2709 -91 1959 -91 
Q 1206 -91 779 398 
Q 353 888 353 1747 
Q 353 2609 779 3096 
Q 1206 3584 1959 3584 
z
" transform="scale(0.015625)"/>
       <path id="DejaVuSans-74" d="M 1172 4494 
L 1172 3500 
L 2356 3500 
L 2356 3053 
L 1172 3053 
L 1172 1153 
Q 1172 725 1289 603 
Q 1406 481 1766 481 
L 2356 481 
L 2356 0 
L 1766 0 
Q 1100 0 847 248 
Q 594 497 594 1153 
L 594 3053 
L 172 3053 
L 172 3500 
L 594 3500 
L 594 4494 
L 1172 4494 
z
" transform="scale(0.015625)"/>
      </defs>
      <use xlink:href="#DejaVuSans-44"/>
      <use xlink:href="#DejaVuSans-65" x="77.001953"/>
      <use xlink:href="#DejaVuSans-73" x="138.525391"/>
      <use xlink:href="#DejaVuSans-69" x="190.625"/>
      <use xlink:href="#DejaVuSans-67" x="218.408203"/>
      <use xlink:href="#DejaVuSans-6e" x="281.884766"/>
      <use xlink:href="#DejaVuSans-20" x="345.263672"/>
      <use xlink:href="#DejaVuSans-70" x="377.050781"/>
      <use xlink:href="#DejaVuSans-6f" x="440.527344"/>
      <use xlink:href="#DejaVuSans-69" x="501.708984"/>
      <use xlink:href="#DejaVuSans-6e" x="529.492188"/>
      <use xlink:href="#DejaVuSans-74" x="592.871094"/>
      <use xlink:href="#DejaVuSans-73" x="632.080078"/>
     </g>
    </g>
   </g>
  </g>
  <g id="axes_2">
   <g id="patch_8">
    <path d="M 53.066 349.238333 
L 699.615 349.238333 
L 699.615 193.959167 
L 53.066 193.959167 
z
" style="fill: #ffffff"/>
   </g>
   <g id="matplotlib.axis_3">
    <g id="xtick_7">
     <g id="line2d_40">
      <path d="M 53.066 349.238333 
L 53.066 193.959167 
" clip-path="url(#p8cc996eb5a)" style="fill: none; stroke-dasharray: 0.8,1.32; stroke-dashoffset: 0; stroke: #b0b0b0; stroke-width: 0.8"/>
     </g>
     <g id="line2d_41">
      <g>
       <use xlink:href="#m8ce99a4d64" x="53.066" y="349.238333" style="stroke: #000000; stroke-width: 0.8"/>
      </g>
     </g>
     <g id="text_19">
      <!-- 0 -->
      <g transform="translate(49.88475 363.836771) scale(0.1 -0.1)">
       <use xlink:href="#DejaVuSans-30"/>
      </g>
     </g>
    </g>
    <g id="xtick_8">
     <g id="line2d_42">
      <path d="M 182.3758 349.238333 
L 182.3758 193.959167 
" clip-path="url(#p8cc996eb5a)" style="fill: none; stroke-dasharray: 0.8,1.32; stroke-dashoffset: 0; stroke: #b0b0b0; stroke-width: 0.8"/>
     </g>
     <g id="line2d_43">
      <g>
       <use xlink:href="#m8ce99a4d64" x="182.3758" y="349.238333" style="stroke: #000000; stroke-width: 0.8"/>
      </g>
     </g>
     <g id="text_20">
      <!-- 20 -->
      <g transform="translate(176.0133 363.836771) scale(0.1 -0.1)">
       <use xlink:href="#DejaVuSans-32"/>
       <use xlink:href="#DejaVuSans-30" x="63.623047"/>
      </g>
     </g>
    </g>
    <g id="xtick_9">
     <g id="line2d_44">
      <path d="M 311.6856 349.238333 
L 311.6856 193.959167 
" clip-path="url(#p8cc996eb5a)" style="fill: none; stroke-dasharray: 0.8,1.32; stroke-dashoffset: 0; stroke: #b0b0b0; stroke-width: 0.8"/>
     </g>
     <g id="line2d_45">
      <g>
       <use xlink:href="#m8ce99a4d64" x="311.6856" y="349.238333" style="stroke: #000000; stroke-width: 0.8"/>
      </g>
     </g>
     <g id="text_21">
      <!-- 40 -->
      <g transform="translate(305.3231 363.836771) scale(0.1 -0.1)">
       <use xlink:href="#DejaVuSans-34"/>
       <use xlink:href="#DejaVuSans-30" x="63.623047"/>
      </g>
     </g>
    </g>
    <g id="xtick_10">
     <g id="line2d_46">
      <path d="M 440.9954 349.238333 
L 440.9954 193.959167 
" clip-path="url(#p8cc996eb5a)" style="fill: none; stroke-dasharray: 0.8,1.32; stroke-dashoffset: 0; stroke: #b0b0b0; stroke-width: 0.8"/>
     </g>
     <g id="line2d_47">
      <g>
       <use xlink:href="#m8ce99a4d64" x="440.9954" y="349.238333" style="stroke: #000000; stroke-width: 0.8"/>
      </g>
     </g>
     <g id="text_22">
      <!-- 60 -->
      <g transform="translate(434.6329 363.836771) scale(0.1 -0.1)">
       <use xlink:href="#DejaVuSans-36"/>
       <use xlink:href="#DejaVuSans-30" x="63.623047"/>
      </g>
     </g>
    </g>
    <g id="xtick_11">
     <g id="line2d_48">
      <path d="M 570.3052 349.238333 
L 570.3052 193.959167 
" clip-path="url(#p8cc996eb5a)" style="fill: none; stroke-dasharray: 0.8,1.32; stroke-dashoffset: 0; stroke: #b0b0b0; stroke-width: 0.8"/>
     </g>
     <g id="line2d_49">
      <g>
       <use xlink:href="#m8ce99a4d64" x="570.3052" y="349.238333" style="stroke: #000000; stroke-width: 0.8"/>
      </g>
     </g>
     <g id="text_23">
      <!-- 80 -->
      <g transform="translate(563.9427 363.836771) scale(0.1 -0.1)">
       <use xlink:href="#DejaVuSans-38"/>
       <use xlink:href="#DejaVuSans-30" x="63.623047"/>
      </g>
     </g>
    </g>
    <g id="xtick_12">
     <g id="line2d_50">
      <path d="M 699.615 349.238333 
L 699.615 193.959167 
" clip-path="url(#p8cc996eb5a)" style="fill: none; stroke-dasharray: 0.8,1.32; stroke-dashoffset: 0; stroke: #b0b0b0; stroke-width: 0.8"/>
     </g>
     <g id="line2d_51">
      <g>
       <use xlink:href="#m8ce99a4d64" x="699.615" y="349.238333" style="stroke: #000000; stroke-width: 0.8"/>
      </g>
     </g>
     <g id="text_24">
      <!-- 100 -->
      <g transform="translate(690.07125 363.836771) scale(0.1 -0.1)">
       <use xlink:href="#DejaVuSans-31"/>
       <use xlink:href="#DejaVuSans-30" x="63.623047"/>
       <use xlink:href="#DejaVuSans-30" x="127.246094"/>
      </g>
     </g>
    </g>
   </g>
   <g id="matplotlib.axis_4">
    <g id="ytick_8">
     <g id="line2d_52">
      <path d="M 53.066 342.180189 
L 699.615 342.180189 
" clip-path="url(#p8cc996eb5a)" style="fill: none; stroke-dasharray: 0.8,1.32; stroke-dashoffset: 0; stroke: #b0b0b0; stroke-width: 0.8"/>
     </g>
     <g id="line2d_53">
      <g>
       <use xlink:href="#mb0747b7570" x="53.066" y="342.180189" style="stroke: #000000; stroke-width: 0.8"/>
      </g>
     </g>
     <g id="text_25">
      <!-- 0 -->
      <g transform="translate(39.7035 345.979408) scale(0.1 -0.1)">
       <use xlink:href="#DejaVuSans-30"/>
      </g>
     </g>
    </g>
    <g id="ytick_9">
     <g id="line2d_54">
      <path d="M 53.066 315.297616 
L 699.615 315.297616 
" clip-path="url(#p8cc996eb5a)" style="fill: none; stroke-dasharray: 0.8,1.32; stroke-dashoffset: 0; stroke: #b0b0b0; stroke-width: 0.8"/>
     </g>
     <g id="line2d_55">
      <g>
       <use xlink:href="#mb0747b7570" x="53.066" y="315.297616" style="stroke: #000000; stroke-width: 0.8"/>
      </g>
     </g>
     <g id="text_26">
      <!-- 20 -->
      <g transform="translate(33.341 319.096835) scale(0.1 -0.1)">
       <use xlink:href="#DejaVuSans-32"/>
       <use xlink:href="#DejaVuSans-30" x="63.623047"/>
      </g>
     </g>
    </g>
    <g id="ytick_10">
     <g id="line2d_56">
      <path d="M 53.066 288.415043 
L 699.615 288.415043 
" clip-path="url(#p8cc996eb5a)" style="fill: none; stroke-dasharray: 0.8,1.32; stroke-dashoffset: 0; stroke: #b0b0b0; stroke-width: 0.8"/>
     </g>
     <g id="line2d_57">
      <g>
       <use xlink:href="#mb0747b7570" x="53.066" y="288.415043" style="stroke: #000000; stroke-width: 0.8"/>
      </g>
     </g>
     <g id="text_27">
      <!-- 40 -->
      <g transform="translate(33.341 292.214262) scale(0.1 -0.1)">
       <use xlink:href="#DejaVuSans-34"/>
       <use xlink:href="#DejaVuSans-30" x="63.623047"/>
      </g>
     </g>
    </g>
    <g id="ytick_11">
     <g id="line2d_58">
      <path d="M 53.066 261.53247 
L 699.615 261.53247 
" clip-path="url(#p8cc996eb5a)" style="fill: none; stroke-dasharray: 0.8,1.32; stroke-dashoffset: 0; stroke: #b0b0b0; stroke-width: 0.8"/>
     </g>
     <g id="line2d_59">
      <g>
       <use xlink:href="#mb0747b7570" x="53.066" y="261.53247" style="stroke: #000000; stroke-width: 0.8"/>
      </g>
     </g>
     <g id="text_28">
      <!-- 60 -->
      <g transform="translate(33.341 265.331688) scale(0.1 -0.1)">
       <use xlink:href="#DejaVuSans-36"/>
       <use xlink:href="#DejaVuSans-30" x="63.623047"/>
      </g>
     </g>
    </g>
    <g id="ytick_12">
     <g id="line2d_60">
      <path d="M 53.066 234.649896 
L 699.615 234.649896 
" clip-path="url(#p8cc996eb5a)" style="fill: none; stroke-dasharray: 0.8,1.32; stroke-dashoffset: 0; stroke: #b0b0b0; stroke-width: 0.8"/>
     </g>
     <g id="line2d_61">
      <g>
       <use xlink:href="#mb0747b7570" x="53.066" y="234.649896" style="stroke: #000000; stroke-width: 0.8"/>
      </g>
     </g>
     <g id="text_29">
      <!-- 80 -->
      <g transform="translate(33.341 238.449115) scale(0.1 -0.1)">
       <use xlink:href="#DejaVuSans-38"/>
       <use xlink:href="#DejaVuSans-30" x="63.623047"/>
      </g>
     </g>
    </g>
    <g id="ytick_13">
     <g id="line2d_62">
      <path d="M 53.066 207.767323 
L 699.615 207.767323 
" clip-path="url(#p8cc996eb5a)" style="fill: none; stroke-dasharray: 0.8,1.32; stroke-dashoffset: 0; stroke: #b0b0b0; stroke-width: 0.8"/>
     </g>
     <g id="line2d_63">
      <g>
       <use xlink:href="#mb0747b7570" x="53.066" y="207.767323" style="stroke: #000000; stroke-width: 0.8"/>
      </g>
     </g>
     <g id="text_30">
      <!-- 100 -->
      <g transform="translate(26.9785 211.566542) scale(0.1 -0.1)">
       <use xlink:href="#DejaVuSans-31"/>
       <use xlink:href="#DejaVuSans-30" x="63.623047"/>
       <use xlink:href="#DejaVuSans-30" x="127.246094"/>
      </g>
     </g>
    </g>
    <g id="text_31">
     <!-- $C_l/C_d$ [-] -->
     <g transform="translate(20.898812 291.04875) rotate(-90) scale(0.1 -0.1)">
      <defs>
       <path id="DejaVuSans-2f" d="M 1625 4666 
L 2156 4666 
L 531 -594 
L 0 -594 
L 1625 4666 
z
" transform="scale(0.015625)"/>
       <path id="DejaVuSans-Oblique-64" d="M 2675 525 
Q 2444 222 2128 65 
Q 1813 -91 1428 -91 
Q 903 -91 598 267 
Q 294 625 294 1247 
Q 294 1766 478 2236 
Q 663 2706 1013 3078 
Q 1244 3325 1534 3454 
Q 1825 3584 2144 3584 
Q 2481 3584 2739 3421 
Q 2997 3259 3138 2956 
L 3513 4863 
L 4091 4863 
L 3144 0 
L 2566 0 
L 2675 525 
z
M 891 1350 
Q 891 897 1095 644 
Q 1300 391 1663 391 
Q 1931 391 2161 520 
Q 2391 650 2566 903 
Q 2750 1166 2856 1509 
Q 2963 1853 2963 2188 
Q 2963 2622 2758 2865 
Q 2553 3109 2194 3109 
Q 1922 3109 1687 2981 
Q 1453 2853 1288 2613 
Q 1106 2353 998 2009 
Q 891 1666 891 1350 
z
" transform="scale(0.015625)"/>
      </defs>
      <use xlink:href="#DejaVuSans-Oblique-43" transform="translate(0 0.015625)"/>
      <use xlink:href="#DejaVuSans-Oblique-6c" transform="translate(69.824219 -16.390625) scale(0.7)"/>
      <use xlink:href="#DejaVuSans-2f" transform="translate(92.006836 0.015625)"/>
      <use xlink:href="#DejaVuSans-Oblique-43" transform="translate(125.698242 0.015625)"/>
      <use xlink:href="#DejaVuSans-Oblique-64" transform="translate(195.522461 -16.390625) scale(0.7)"/>
      <use xlink:href="#DejaVuSans-20" transform="translate(242.69043 0.015625)"/>
      <use xlink:href="#DejaVuSans-5b" transform="translate(274.477539 0.015625)"/>
      <use xlink:href="#DejaVuSans-2d" transform="translate(313.491211 0.015625)"/>
      <use xlink:href="#DejaVuSans-5d" transform="translate(349.575195 0.015625)"/>
     </g>
    </g>
   </g>
   <g id="line2d_64">
    <path d="M 53.066 202.345494 
L 59.596798 202.345494 
L 66.127596 202.345494 
L 72.658394 202.345494 
L 79.189192 202.345494 
L 85.71999 202.345494 
L 92.250788 202.345494 
L 98.781586 202.345494 
L 105.312384 202.345494 
L 111.843182 202.345494 
L 118.37398 202.345494 
L 124.904778 202.345494 
L 131.435576 202.345494 
L 137.966374 202.345494 
L 144.497172 202.345494 
L 151.02797 202.345494 
L 157.558768 202.345494 
L 164.089566 202.345494 
L 170.620364 202.345494 
L 177.151162 202.345494 
L 183.68196 202.345494 
L 190.212758 202.345494 
L 196.743556 202.345494 
L 203.274354 202.345494 
L 209.805152 202.378927 
L 216.335949 204.339313 
L 222.866747 208.611759 
L 229.397545 214.176468 
L 235.928343 220.108378 
L 242.459141 225.651864 
L 248.989939 230.252536 
L 255.520737 234.567142 
L 262.051535 238.945224 
L 268.582333 243.291191 
L 275.113131 247.541878 
L 281.643929 251.661769 
L 288.174727 255.695758 
L 294.705525 260.244918 
L 301.236323 265.332371 
L 307.767121 270.795418 
L 314.297919 276.477219 
L 320.828717 282.224019 
L 327.359515 287.884888 
L 333.890313 293.313405 
L 340.421111 298.370762 
L 346.951909 302.929751 
L 353.482707 306.879049 
L 360.013505 310.127231 
L 366.544303 312.790166 
L 373.075101 315.871235 
L 379.605899 319.181825 
L 386.136697 322.397894 
L 392.667495 325.327927 
L 399.198293 327.8913 
L 405.729091 330.079148 
L 412.259889 331.920358 
L 418.790687 333.459006 
L 425.321485 334.741752 
L 431.852283 335.811813 
L 438.383081 336.706693 
L 444.913879 337.457808 
L 451.444677 338.090979 
L 457.975475 338.627209 
L 464.506273 339.083502 
L 471.037071 339.473614 
L 477.567869 339.808685 
L 484.098667 340.097757 
L 490.629465 340.3482 
L 497.160263 340.566044 
L 503.691061 340.756242 
L 510.221859 340.922886 
L 516.752657 341.069368 
L 523.283455 341.198515 
L 529.814253 341.312693 
L 536.345051 341.41389 
L 542.875848 341.503786 
L 549.406646 341.583805 
L 555.937444 341.655156 
L 562.468242 341.718874 
L 568.99904 341.775845 
L 575.529838 341.826832 
L 582.060636 341.87249 
L 588.591434 341.913387 
L 595.122232 341.950015 
L 601.65303 341.982801 
L 608.183828 342.012116 
L 614.714626 342.038283 
L 621.245424 342.061582 
L 627.776222 342.082258 
L 634.30702 342.100524 
L 640.837818 342.116563 
L 647.368616 342.130535 
L 653.899414 342.142576 
L 660.430212 342.152801 
L 666.96101 342.161305 
L 673.491808 342.168169 
L 680.022606 342.173452 
L 686.553404 342.1772 
L 693.084202 342.179442 
L 699.615 342.180189 
" clip-path="url(#p8cc996eb5a)" style="fill: none; stroke: #1f77b4; stroke-width: 1.5; stroke-linecap: square"/>
   </g>
   <g id="line2d_65">
    <g clip-path="url(#p8cc996eb5a)">
     <use xlink:href="#m44e78effa0" x="208.884309" y="202.345494" style="fill: #1f77b4; stroke: #1f77b4"/>
     <use xlink:href="#m44e78effa0" x="247.677249" y="229.403888" style="fill: #1f77b4; stroke: #1f77b4"/>
     <use xlink:href="#m44e78effa0" x="285.82364" y="254.222912" style="fill: #1f77b4; stroke: #1f77b4"/>
     <use xlink:href="#m44e78effa0" x="363.40952" y="311.515538" style="fill: #1f77b4; stroke: #1f77b4"/>
    </g>
   </g>
   <g id="line2d_66">
    <g clip-path="url(#p8cc996eb5a)">
     <use xlink:href="#m9c0b609922" x="208.884309" y="207.767323" style="stroke: #000000"/>
     <use xlink:href="#m9c0b609922" x="247.677249" y="224.088885" style="stroke: #000000"/>
     <use xlink:href="#m9c0b609922" x="285.82364" y="254.491796" style="stroke: #000000"/>
     <use xlink:href="#m9c0b609922" x="363.40952" y="319.498018" style="stroke: #000000"/>
    </g>
   </g>
   <g id="line2d_67">
    <path d="M 53.066 201.017311 
L 59.596798 201.017311 
L 66.127596 201.017311 
L 72.658394 201.017311 
L 79.189192 201.017311 
L 85.71999 201.017311 
L 92.250788 201.017311 
L 98.781586 201.017311 
L 105.312384 201.017311 
L 111.843182 201.017311 
L 118.37398 201.017311 
L 124.904778 201.017311 
L 131.435576 201.017311 
L 137.966374 201.017311 
L 144.497172 201.017311 
L 151.02797 201.017311 
L 157.558768 201.017311 
L 164.089566 201.017311 
L 170.620364 201.017311 
L 177.151162 201.017311 
L 183.68196 201.017311 
L 190.212758 201.017311 
L 196.743556 201.017311 
L 203.274354 201.017311 
L 209.805152 201.049113 
L 216.335949 202.923322 
L 222.866747 207.047887 
L 229.397545 212.493221 
L 235.928343 218.396641 
L 242.459141 224.033758 
L 248.989939 228.873425 
L 255.520737 233.867579 
L 262.051535 239.244269 
L 268.582333 244.63803 
L 275.113131 249.801387 
L 281.643929 254.586418 
L 288.174727 258.993069 
L 294.705525 263.79028 
L 301.236323 269.064113 
L 307.767121 274.663219 
L 314.297919 280.439644 
L 320.828717 286.245533 
L 327.359515 291.932773 
L 333.890313 297.354959 
L 340.421111 302.37113 
L 346.951909 306.850676 
L 353.482707 310.67874 
L 360.013505 313.761384 
L 366.544303 316.209041 
L 373.075101 319.006435 
L 379.605899 321.993249 
L 386.136697 324.877335 
L 392.667495 327.490127 
L 399.198293 329.764227 
L 405.729091 331.696248 
L 412.259889 333.315515 
L 418.790687 334.663783 
L 425.321485 335.784184 
L 431.852283 336.716115 
L 438.383081 337.493441 
L 444.913879 338.144333 
L 451.444677 338.691813 
L 457.975475 339.154523 
L 464.506273 339.5475 
L 471.037071 339.882867 
L 477.567869 340.170414 
L 484.098667 340.41807 
L 490.629465 340.632283 
L 497.160263 340.818317 
L 503.691061 340.980489 
L 510.221859 341.12236 
L 516.752657 341.246877 
L 523.283455 341.356494 
L 529.814253 341.45326 
L 536.345051 341.538897 
L 542.875848 341.614857 
L 549.406646 341.682369 
L 555.937444 341.742479 
L 562.468242 341.796078 
L 568.99904 341.843929 
L 575.529838 341.886689 
L 582.060636 341.924921 
L 588.591434 341.959114 
L 595.122232 341.989691 
L 601.65303 342.017018 
L 608.183828 342.041413 
L 614.714626 342.063154 
L 621.245424 342.082481 
L 627.776222 342.099606 
L 634.30702 342.11471 
L 640.837818 342.127952 
L 647.368616 342.139469 
L 653.899414 342.149377 
L 660.430212 342.157778 
L 666.96101 342.164754 
L 673.491808 342.170374 
L 680.022606 342.174694 
L 686.553404 342.177754 
L 693.084202 342.179581 
L 699.615 342.180189 
" clip-path="url(#p8cc996eb5a)" style="fill: none; stroke: #ff7f0e; stroke-width: 1.5; stroke-linecap: square"/>
   </g>
   <g id="line2d_68">
    <g clip-path="url(#p8cc996eb5a)">
     <use xlink:href="#m79279c6cdf" x="208.884309" y="201.017311" style="fill: #ff7f0e; stroke: #ff7f0e"/>
     <use xlink:href="#m79279c6cdf" x="247.677249" y="227.956409" style="fill: #ff7f0e; stroke: #ff7f0e"/>
     <use xlink:href="#m79279c6cdf" x="285.82364" y="257.41338" style="fill: #ff7f0e; stroke: #ff7f0e"/>
     <use xlink:href="#m79279c6cdf" x="363.40952" y="315.045837" style="fill: #ff7f0e; stroke: #ff7f0e"/>
    </g>
   </g>
   <g id="line2d_69">
    <g clip-path="url(#p8cc996eb5a)">
     <use xlink:href="#m9c0b609922" x="208.884309" y="207.767323" style="stroke: #000000"/>
     <use xlink:href="#m9c0b609922" x="247.677249" y="224.088885" style="stroke: #000000"/>
     <use xlink:href="#m9c0b609922" x="285.82364" y="254.491796" style="stroke: #000000"/>
     <use xlink:href="#m9c0b609922" x="363.40952" y="319.498018" style="stroke: #000000"/>
    </g>
   </g>
   <g id="line2d_70">
    <path d="M 53.066 201.794129 
L 59.596798 201.794129 
L 66.127596 201.794129 
L 72.658394 201.794129 
L 79.189192 201.794129 
L 85.71999 201.794129 
L 92.250788 201.794129 
L 98.781586 201.794129 
L 105.312384 201.794129 
L 111.843182 201.794129 
L 118.37398 201.794129 
L 124.904778 201.794129 
L 131.435576 201.794129 
L 137.966374 201.794129 
L 144.497172 201.794129 
L 151.02797 201.794129 
L 157.558768 201.794129 
L 164.089566 201.794129 
L 170.620364 201.794129 
L 177.151162 201.794129 
L 183.68196 201.794129 
L 190.212758 201.794129 
L 196.743556 201.794129 
L 203.274354 201.794129 
L 209.805152 201.826662 
L 216.335949 203.746558 
L 222.866747 207.980438 
L 229.397545 213.58391 
L 235.928343 219.676853 
L 242.459141 225.518757 
L 248.989939 230.574017 
L 255.520737 235.972364 
L 262.051535 241.885794 
L 268.582333 247.808969 
L 275.113131 253.411935 
L 281.643929 258.508749 
L 288.174727 263.097398 
L 294.705525 268.046927 
L 301.236323 273.464113 
L 307.767121 279.189997 
L 314.297919 285.069639 
L 320.828717 290.948426 
L 327.359515 296.671732 
L 333.890313 302.087184 
L 340.421111 307.04888 
L 346.951909 311.422848 
L 353.482707 315.092965 
L 360.013505 317.966494 
L 366.544303 320.148451 
L 373.075101 322.587053 
L 379.605899 325.164266 
L 386.136697 327.634797 
L 392.667495 329.860771 
L 399.198293 331.790068 
L 405.729091 333.42372 
L 412.259889 334.789243 
L 418.790687 335.923695 
L 425.321485 336.864615 
L 431.852283 337.645942 
L 438.383081 338.296658 
L 444.913879 338.840767 
L 451.444677 339.297822 
L 457.975475 339.683614 
L 464.506273 340.010856 
L 471.037071 340.289783 
L 477.567869 340.528645 
L 484.098667 340.734119 
L 490.629465 340.911627 
L 497.160263 341.065592 
L 503.691061 341.19964 
L 510.221859 341.316757 
L 516.752657 341.419414 
L 523.283455 341.509666 
L 529.814253 341.58923 
L 536.345051 341.659546 
L 542.875848 341.721829 
L 549.406646 341.777106 
L 555.937444 341.826249 
L 562.468242 341.870004 
L 568.99904 341.909007 
L 575.529838 341.943806 
L 582.060636 341.974871 
L 588.591434 342.002609 
L 595.122232 342.027372 
L 601.65303 342.049467 
L 608.183828 342.069157 
L 614.714626 342.086675 
L 621.245424 342.102221 
L 627.776222 342.115971 
L 634.30702 342.128076 
L 640.837818 342.13867 
L 647.368616 342.147866 
L 653.899414 342.155763 
L 660.430212 342.162445 
L 666.96101 342.167985 
L 673.491808 342.172439 
L 680.022606 342.175856 
L 686.553404 342.178271 
L 693.084202 342.179711 
L 699.615 342.180189 
" clip-path="url(#p8cc996eb5a)" style="fill: none; stroke: #2ca02c; stroke-width: 1.5; stroke-linecap: square"/>
   </g>
   <g id="line2d_71">
    <g clip-path="url(#p8cc996eb5a)">
     <use xlink:href="#mfefb46dd7a" x="208.884309" y="201.794129" style="fill: #2ca02c; stroke: #2ca02c"/>
     <use xlink:href="#mfefb46dd7a" x="247.677249" y="229.608043" style="fill: #2ca02c; stroke: #2ca02c"/>
     <use xlink:href="#mfefb46dd7a" x="285.82364" y="261.462384" style="fill: #2ca02c; stroke: #2ca02c"/>
     <use xlink:href="#mfefb46dd7a" x="363.40952" y="319.12315" style="fill: #2ca02c; stroke: #2ca02c"/>
    </g>
   </g>
   <g id="line2d_72">
    <g clip-path="url(#p8cc996eb5a)">
     <use xlink:href="#m9c0b609922" x="208.884309" y="207.767323" style="stroke: #000000"/>
     <use xlink:href="#m9c0b609922" x="247.677249" y="224.088885" style="stroke: #000000"/>
     <use xlink:href="#m9c0b609922" x="285.82364" y="254.491796" style="stroke: #000000"/>
     <use xlink:href="#m9c0b609922" x="363.40952" y="319.498018" style="stroke: #000000"/>
    </g>
   </g>
   <g id="patch_9">
    <path d="M 53.066 349.238333 
L 53.066 193.959167 
" style="fill: none; stroke: #000000; stroke-width: 0.8; stroke-linejoin: miter; stroke-linecap: square"/>
   </g>
   <g id="patch_10">
    <path d="M 699.615 349.238333 
L 699.615 193.959167 
" style="fill: none; stroke: #000000; stroke-width: 0.8; stroke-linejoin: miter; stroke-linecap: square"/>
   </g>
   <g id="patch_11">
    <path d="M 53.066 349.238333 
L 699.615 349.238333 
" style="fill: none; stroke: #000000; stroke-width: 0.8; stroke-linejoin: miter; stroke-linecap: square"/>
   </g>
   <g id="patch_12">
    <path d="M 53.066 193.959167 
L 699.615 193.959167 
" style="fill: none; stroke: #000000; stroke-width: 0.8; stroke-linejoin: miter; stroke-linecap: square"/>
   </g>
  </g>
  <g id="axes_3">
   <g id="patch_13">
    <path d="M 53.066 532.3975 
L 699.615 532.3975 
L 699.615 377.118333 
L 53.066 377.118333 
z
" style="fill: #ffffff"/>
   </g>
   <g id="matplotlib.axis_5">
    <g id="xtick_13">
     <g id="line2d_73">
      <path d="M 53.066 532.3975 
L 53.066 377.118333 
" clip-path="url(#pd8d9b3be7a)" style="fill: none; stroke-dasharray: 0.8,1.32; stroke-dashoffset: 0; stroke: #b0b0b0; stroke-width: 0.8"/>
     </g>
     <g id="line2d_74">
      <g>
       <use xlink:href="#m8ce99a4d64" x="53.066" y="532.3975" style="stroke: #000000; stroke-width: 0.8"/>
      </g>
     </g>
     <g id="text_32">
      <!-- 0 -->
      <g transform="translate(49.88475 546.995937) scale(0.1 -0.1)">
       <use xlink:href="#DejaVuSans-30"/>
      </g>
     </g>
    </g>
    <g id="xtick_14">
     <g id="line2d_75">
      <path d="M 182.3758 532.3975 
L 182.3758 377.118333 
" clip-path="url(#pd8d9b3be7a)" style="fill: none; stroke-dasharray: 0.8,1.32; stroke-dashoffset: 0; stroke: #b0b0b0; stroke-width: 0.8"/>
     </g>
     <g id="line2d_76">
      <g>
       <use xlink:href="#m8ce99a4d64" x="182.3758" y="532.3975" style="stroke: #000000; stroke-width: 0.8"/>
      </g>
     </g>
     <g id="text_33">
      <!-- 20 -->
      <g transform="translate(176.0133 546.995937) scale(0.1 -0.1)">
       <use xlink:href="#DejaVuSans-32"/>
       <use xlink:href="#DejaVuSans-30" x="63.623047"/>
      </g>
     </g>
    </g>
    <g id="xtick_15">
     <g id="line2d_77">
      <path d="M 311.6856 532.3975 
L 311.6856 377.118333 
" clip-path="url(#pd8d9b3be7a)" style="fill: none; stroke-dasharray: 0.8,1.32; stroke-dashoffset: 0; stroke: #b0b0b0; stroke-width: 0.8"/>
     </g>
     <g id="line2d_78">
      <g>
       <use xlink:href="#m8ce99a4d64" x="311.6856" y="532.3975" style="stroke: #000000; stroke-width: 0.8"/>
      </g>
     </g>
     <g id="text_34">
      <!-- 40 -->
      <g transform="translate(305.3231 546.995937) scale(0.1 -0.1)">
       <use xlink:href="#DejaVuSans-34"/>
       <use xlink:href="#DejaVuSans-30" x="63.623047"/>
      </g>
     </g>
    </g>
    <g id="xtick_16">
     <g id="line2d_79">
      <path d="M 440.9954 532.3975 
L 440.9954 377.118333 
" clip-path="url(#pd8d9b3be7a)" style="fill: none; stroke-dasharray: 0.8,1.32; stroke-dashoffset: 0; stroke: #b0b0b0; stroke-width: 0.8"/>
     </g>
     <g id="line2d_80">
      <g>
       <use xlink:href="#m8ce99a4d64" x="440.9954" y="532.3975" style="stroke: #000000; stroke-width: 0.8"/>
      </g>
     </g>
     <g id="text_35">
      <!-- 60 -->
      <g transform="translate(434.6329 546.995937) scale(0.1 -0.1)">
       <use xlink:href="#DejaVuSans-36"/>
       <use xlink:href="#DejaVuSans-30" x="63.623047"/>
      </g>
     </g>
    </g>
    <g id="xtick_17">
     <g id="line2d_81">
      <path d="M 570.3052 532.3975 
L 570.3052 377.118333 
" clip-path="url(#pd8d9b3be7a)" style="fill: none; stroke-dasharray: 0.8,1.32; stroke-dashoffset: 0; stroke: #b0b0b0; stroke-width: 0.8"/>
     </g>
     <g id="line2d_82">
      <g>
       <use xlink:href="#m8ce99a4d64" x="570.3052" y="532.3975" style="stroke: #000000; stroke-width: 0.8"/>
      </g>
     </g>
     <g id="text_36">
      <!-- 80 -->
      <g transform="translate(563.9427 546.995937) scale(0.1 -0.1)">
       <use xlink:href="#DejaVuSans-38"/>
       <use xlink:href="#DejaVuSans-30" x="63.623047"/>
      </g>
     </g>
    </g>
    <g id="xtick_18">
     <g id="line2d_83">
      <path d="M 699.615 532.3975 
L 699.615 377.118333 
" clip-path="url(#pd8d9b3be7a)" style="fill: none; stroke-dasharray: 0.8,1.32; stroke-dashoffset: 0; stroke: #b0b0b0; stroke-width: 0.8"/>
     </g>
     <g id="line2d_84">
      <g>
       <use xlink:href="#m8ce99a4d64" x="699.615" y="532.3975" style="stroke: #000000; stroke-width: 0.8"/>
      </g>
     </g>
     <g id="text_37">
      <!-- 100 -->
      <g transform="translate(690.07125 546.995937) scale(0.1 -0.1)">
       <use xlink:href="#DejaVuSans-31"/>
       <use xlink:href="#DejaVuSans-30" x="63.623047"/>
       <use xlink:href="#DejaVuSans-30" x="127.246094"/>
      </g>
     </g>
    </g>
    <g id="text_38">
     <!-- $t/c$ [-] -->
     <g transform="translate(362.6405 560.674062) scale(0.1 -0.1)">
      <defs>
       <path id="DejaVuSans-Oblique-74" d="M 2706 3500 
L 2619 3053 
L 1472 3053 
L 1100 1153 
Q 1081 1047 1072 975 
Q 1063 903 1063 863 
Q 1063 663 1183 572 
Q 1303 481 1569 481 
L 2150 481 
L 2053 0 
L 1503 0 
Q 991 0 739 200 
Q 488 400 488 806 
Q 488 878 497 964 
Q 506 1050 525 1153 
L 897 3053 
L 409 3053 
L 500 3500 
L 978 3500 
L 1172 4494 
L 1747 4494 
L 1556 3500 
L 2706 3500 
z
" transform="scale(0.015625)"/>
       <path id="DejaVuSans-Oblique-63" d="M 3431 3366 
L 3316 2797 
Q 3109 2947 2876 3022 
Q 2644 3097 2394 3097 
Q 2119 3097 1870 3000 
Q 1622 2903 1453 2725 
Q 1184 2453 1037 2087 
Q 891 1722 891 1331 
Q 891 859 1127 628 
Q 1363 397 1844 397 
Q 2081 397 2348 469 
Q 2616 541 2906 684 
L 2797 116 
Q 2547 13 2283 -39 
Q 2019 -91 1741 -91 
Q 1044 -91 669 257 
Q 294 606 294 1253 
Q 294 1797 489 2255 
Q 684 2713 1069 3078 
Q 1331 3328 1684 3456 
Q 2038 3584 2456 3584 
Q 2700 3584 2940 3529 
Q 3181 3475 3431 3366 
z
" transform="scale(0.015625)"/>
      </defs>
      <use xlink:href="#DejaVuSans-Oblique-74" transform="translate(0 0.015625)"/>
      <use xlink:href="#DejaVuSans-2f" transform="translate(39.208984 0.015625)"/>
      <use xlink:href="#DejaVuSans-Oblique-63" transform="translate(72.900391 0.015625)"/>
      <use xlink:href="#DejaVuSans-20" transform="translate(127.880859 0.015625)"/>
      <use xlink:href="#DejaVuSans-5b" transform="translate(159.667969 0.015625)"/>
      <use xlink:href="#DejaVuSans-2d" transform="translate(198.681641 0.015625)"/>
      <use xlink:href="#DejaVuSans-5d" transform="translate(234.765625 0.015625)"/>
     </g>
    </g>
   </g>
   <g id="matplotlib.axis_6">
    <g id="ytick_14">
     <g id="line2d_85">
      <path d="M 53.066 525.339356 
L 699.615 525.339356 
" clip-path="url(#pd8d9b3be7a)" style="fill: none; stroke-dasharray: 0.8,1.32; stroke-dashoffset: 0; stroke: #b0b0b0; stroke-width: 0.8"/>
     </g>
     <g id="line2d_86">
      <g>
       <use xlink:href="#mb0747b7570" x="53.066" y="525.339356" style="stroke: #000000; stroke-width: 0.8"/>
      </g>
     </g>
     <g id="text_39">
      <!-- 0 -->
      <g transform="translate(39.7035 529.138575) scale(0.1 -0.1)">
       <use xlink:href="#DejaVuSans-30"/>
      </g>
     </g>
    </g>
    <g id="ytick_15">
     <g id="line2d_87">
      <path d="M 53.066 497.46252 
L 699.615 497.46252 
" clip-path="url(#pd8d9b3be7a)" style="fill: none; stroke-dasharray: 0.8,1.32; stroke-dashoffset: 0; stroke: #b0b0b0; stroke-width: 0.8"/>
     </g>
     <g id="line2d_88">
      <g>
       <use xlink:href="#mb0747b7570" x="53.066" y="497.46252" style="stroke: #000000; stroke-width: 0.8"/>
      </g>
     </g>
     <g id="text_40">
      <!-- 2 -->
      <g transform="translate(39.7035 501.261739) scale(0.1 -0.1)">
       <use xlink:href="#DejaVuSans-32"/>
      </g>
     </g>
    </g>
    <g id="ytick_16">
     <g id="line2d_89">
      <path d="M 53.066 469.585684 
L 699.615 469.585684 
" clip-path="url(#pd8d9b3be7a)" style="fill: none; stroke-dasharray: 0.8,1.32; stroke-dashoffset: 0; stroke: #b0b0b0; stroke-width: 0.8"/>
     </g>
     <g id="line2d_90">
      <g>
       <use xlink:href="#mb0747b7570" x="53.066" y="469.585684" style="stroke: #000000; stroke-width: 0.8"/>
      </g>
     </g>
     <g id="text_41">
      <!-- 4 -->
      <g transform="translate(39.7035 473.384902) scale(0.1 -0.1)">
       <use xlink:href="#DejaVuSans-34"/>
      </g>
     </g>
    </g>
    <g id="ytick_17">
     <g id="line2d_91">
      <path d="M 53.066 441.708848 
L 699.615 441.708848 
" clip-path="url(#pd8d9b3be7a)" style="fill: none; stroke-dasharray: 0.8,1.32; stroke-dashoffset: 0; stroke: #b0b0b0; stroke-width: 0.8"/>
     </g>
     <g id="line2d_92">
      <g>
       <use xlink:href="#mb0747b7570" x="53.066" y="441.708848" style="stroke: #000000; stroke-width: 0.8"/>
      </g>
     </g>
     <g id="text_42">
      <!-- 6 -->
      <g transform="translate(39.7035 445.508066) scale(0.1 -0.1)">
       <use xlink:href="#DejaVuSans-36"/>
      </g>
     </g>
    </g>
    <g id="ytick_18">
     <g id="line2d_93">
      <path d="M 53.066 413.832011 
L 699.615 413.832011 
" clip-path="url(#pd8d9b3be7a)" style="fill: none; stroke-dasharray: 0.8,1.32; stroke-dashoffset: 0; stroke: #b0b0b0; stroke-width: 0.8"/>
     </g>
     <g id="line2d_94">
      <g>
       <use xlink:href="#mb0747b7570" x="53.066" y="413.832011" style="stroke: #000000; stroke-width: 0.8"/>
      </g>
     </g>
     <g id="text_43">
      <!-- 8 -->
      <g transform="translate(39.7035 417.63123) scale(0.1 -0.1)">
       <use xlink:href="#DejaVuSans-38"/>
      </g>
     </g>
    </g>
    <g id="ytick_19">
     <g id="line2d_95">
      <path d="M 53.066 385.955175 
L 699.615 385.955175 
" clip-path="url(#pd8d9b3be7a)" style="fill: none; stroke-dasharray: 0.8,1.32; stroke-dashoffset: 0; stroke: #b0b0b0; stroke-width: 0.8"/>
     </g>
     <g id="line2d_96">
      <g>
       <use xlink:href="#mb0747b7570" x="53.066" y="385.955175" style="stroke: #000000; stroke-width: 0.8"/>
      </g>
     </g>
     <g id="text_44">
      <!-- 10 -->
      <g transform="translate(33.341 389.754394) scale(0.1 -0.1)">
       <use xlink:href="#DejaVuSans-31"/>
       <use xlink:href="#DejaVuSans-30" x="63.623047"/>
      </g>
     </g>
    </g>
    <g id="text_45">
     <!-- $\alpha$ [] -->
     <g transform="translate(27.261313 466.057917) rotate(-90) scale(0.1 -0.1)">
      <defs>
       <path id="DejaVuSans-Oblique-3b1" d="M 2619 1628 
L 2622 2350 
Q 2625 3088 2069 3091 
Q 1653 3094 1394 2747 
Q 1069 2319 959 1747 
Q 825 1059 994 731 
Q 1169 397 1547 397 
Q 1966 397 2319 1063 
L 2619 1628 
z
M 2166 3578 
Q 3141 3594 3128 2584 
Q 3128 2584 3616 3500 
L 4128 3500 
L 3119 1603 
L 3109 919 
Q 3109 766 3194 638 
Q 3291 488 3391 488 
L 3669 488 
L 3575 0 
L 3228 0 
Q 2934 0 2722 263 
Q 2622 394 2619 669 
Q 2416 334 2066 50 
Q 1900 -81 1453 -78 
Q 722 -72 456 397 
Q 184 884 353 1747 
Q 534 2675 1009 3097 
Q 1544 3569 2166 3578 
z
" transform="scale(0.015625)"/>
       <path id="DejaVuSans-b0" d="M 1600 4347 
Q 1350 4347 1178 4173 
Q 1006 4000 1006 3750 
Q 1006 3503 1178 3333 
Q 1350 3163 1600 3163 
Q 1850 3163 2022 3333 
Q 2194 3503 2194 3750 
Q 2194 3997 2020 4172 
Q 1847 4347 1600 4347 
z
M 1600 4750 
Q 1800 4750 1984 4673 
Q 2169 4597 2303 4453 
Q 2447 4313 2519 4134 
Q 2591 3956 2591 3750 
Q 2591 3338 2302 3052 
Q 2013 2766 1594 2766 
Q 1172 2766 890 3047 
Q 609 3328 609 3750 
Q 609 4169 896 4459 
Q 1184 4750 1600 4750 
z
" transform="scale(0.015625)"/>
      </defs>
      <use xlink:href="#DejaVuSans-Oblique-3b1" transform="translate(0 0.015625)"/>
      <use xlink:href="#DejaVuSans-20" transform="translate(65.917969 0.015625)"/>
      <use xlink:href="#DejaVuSans-5b" transform="translate(97.705078 0.015625)"/>
      <use xlink:href="#DejaVuSans-b0" transform="translate(136.71875 0.015625)"/>
      <use xlink:href="#DejaVuSans-5d" transform="translate(186.71875 0.015625)"/>
     </g>
    </g>
   </g>
   <g id="line2d_97">
    <path d="M 53.066 384.176477 
L 59.596798 384.176477 
L 66.127596 384.176477 
L 72.658394 384.176477 
L 79.189192 384.176477 
L 85.71999 384.176477 
L 92.250788 384.176477 
L 98.781586 384.176477 
L 105.312384 384.176477 
L 111.843182 384.176477 
L 118.37398 384.176477 
L 124.904778 384.176477 
L 131.435576 384.176477 
L 137.966374 384.176477 
L 144.497172 384.176477 
L 151.02797 384.176477 
L 157.558768 384.176477 
L 164.089566 384.176477 
L 170.620364 384.176477 
L 177.151162 384.176477 
L 183.68196 384.176477 
L 190.212758 384.176477 
L 196.743556 384.176477 
L 203.274354 384.176477 
L 209.805152 384.183682 
L 216.335949 384.628293 
L 222.866747 385.696939 
L 229.397545 387.297514 
L 235.928343 389.33791 
L 242.459141 391.72602 
L 248.989939 394.457986 
L 255.520737 400.001408 
L 262.051535 408.446308 
L 268.582333 418.343921 
L 275.113131 428.245485 
L 281.643929 436.702235 
L 288.174727 442.510514 
L 294.705525 447.426297 
L 301.236323 452.111401 
L 307.767121 456.550864 
L 314.297919 460.729728 
L 320.828717 464.633031 
L 327.359515 468.245813 
L 333.890313 471.553114 
L 340.421111 474.539973 
L 346.951909 477.191431 
L 353.482707 479.492527 
L 360.013505 481.428301 
L 366.544303 483.026136 
L 373.075101 484.551968 
L 379.605899 486.05455 
L 386.136697 487.533599 
L 392.667495 488.988835 
L 399.198293 490.419976 
L 405.729091 491.826742 
L 412.259889 493.20885 
L 418.790687 494.566019 
L 425.321485 495.897967 
L 431.852283 497.204415 
L 438.383081 498.485079 
L 444.913879 499.739679 
L 451.444677 500.967933 
L 457.975475 502.16956 
L 464.506273 503.344278 
L 471.037071 504.491807 
L 477.567869 505.611864 
L 484.098667 506.704169 
L 490.629465 507.76844 
L 497.160263 508.804395 
L 503.691061 509.811754 
L 510.221859 510.790234 
L 516.752657 511.739555 
L 523.283455 512.659435 
L 529.814253 513.549592 
L 536.345051 514.409746 
L 542.875848 515.239615 
L 549.406646 516.038918 
L 555.937444 516.807372 
L 562.468242 517.544697 
L 568.99904 518.250612 
L 575.529838 518.924835 
L 582.060636 519.567084 
L 588.591434 520.177079 
L 595.122232 520.754538 
L 601.65303 521.299179 
L 608.183828 521.810721 
L 614.714626 522.288883 
L 621.245424 522.733383 
L 627.776222 523.14394 
L 634.30702 523.520273 
L 640.837818 523.8621 
L 647.368616 524.16914 
L 653.899414 524.441112 
L 660.430212 524.677733 
L 666.96101 524.878723 
L 673.491808 525.043801 
L 680.022606 525.172684 
L 686.553404 525.265092 
L 693.084202 525.320743 
L 699.615 525.339356 
" clip-path="url(#pd8d9b3be7a)" style="fill: none; stroke: #1f77b4; stroke-width: 1.5; stroke-linecap: square"/>
   </g>
   <g id="line2d_98">
    <g clip-path="url(#pd8d9b3be7a)">
     <use xlink:href="#m44e78effa0" x="208.884309" y="384.176477" style="fill: #1f77b4; stroke: #1f77b4"/>
     <use xlink:href="#m44e78effa0" x="247.677249" y="393.822262" style="fill: #1f77b4; stroke: #1f77b4"/>
     <use xlink:href="#m44e78effa0" x="285.82364" y="440.687243" style="fill: #1f77b4; stroke: #1f77b4"/>
     <use xlink:href="#m44e78effa0" x="363.40952" y="482.285561" style="fill: #1f77b4; stroke: #1f77b4"/>
    </g>
   </g>
   <g id="line2d_99">
    <g clip-path="url(#pd8d9b3be7a)">
     <use xlink:href="#m9c0b609922" x="208.884309" y="412.43817" style="stroke: #000000"/>
     <use xlink:href="#m9c0b609922" x="247.677249" y="420.80122" style="stroke: #000000"/>
     <use xlink:href="#m9c0b609922" x="285.82364" y="444.496531" style="stroke: #000000"/>
     <use xlink:href="#m9c0b609922" x="363.40952" y="500.250204" style="stroke: #000000"/>
    </g>
   </g>
   <g id="line2d_100">
    <path d="M 53.066 397.882453 
L 59.596798 397.882453 
L 66.127596 397.882453 
L 72.658394 397.882453 
L 79.189192 397.882453 
L 85.71999 397.882453 
L 92.250788 397.882453 
L 98.781586 397.882453 
L 105.312384 397.882453 
L 111.843182 397.882453 
L 118.37398 397.882453 
L 124.904778 397.882453 
L 131.435576 397.882453 
L 137.966374 397.882453 
L 144.497172 397.882453 
L 151.02797 397.882453 
L 157.558768 397.882453 
L 164.089566 397.882453 
L 170.620364 397.882453 
L 177.151162 397.882453 
L 183.68196 397.882453 
L 190.212758 397.882453 
L 196.743556 397.882453 
L 203.274354 397.882453 
L 209.805152 397.890005 
L 216.335949 398.354726 
L 222.866747 399.466986 
L 229.397545 401.124259 
L 235.928343 403.22402 
L 242.459141 405.663746 
L 248.989939 408.420681 
L 255.520737 413.709711 
L 262.051535 421.606188 
L 268.582333 430.796058 
L 275.113131 439.965264 
L 281.643929 447.799753 
L 288.174727 453.210554 
L 294.705525 457.81954 
L 301.236323 462.229579 
L 307.767121 466.420488 
L 314.297919 470.372082 
L 320.828717 474.064179 
L 327.359515 477.476594 
L 333.890313 480.589144 
L 340.421111 483.381646 
L 346.951909 485.833915 
L 353.482707 487.925769 
L 360.013505 489.637023 
L 366.544303 490.992699 
L 373.075101 492.274086 
L 379.605899 493.533207 
L 386.136697 494.769938 
L 392.667495 495.984152 
L 399.198293 497.175724 
L 405.729091 498.344528 
L 412.259889 499.490438 
L 418.790687 500.61333 
L 425.321485 501.713077 
L 431.852283 502.789554 
L 438.383081 503.842635 
L 444.913879 504.872194 
L 451.444677 505.878107 
L 457.975475 506.860247 
L 464.506273 507.818489 
L 471.037071 508.752706 
L 477.567869 509.662775 
L 484.098667 510.548568 
L 490.629465 511.409961 
L 497.160263 512.246827 
L 503.691061 513.059042 
L 510.221859 513.846479 
L 516.752657 514.609013 
L 523.283455 515.346518 
L 529.814253 516.058869 
L 536.345051 516.745941 
L 542.875848 517.407606 
L 549.406646 518.043741 
L 555.937444 518.654218 
L 562.468242 519.238914 
L 568.99904 519.797702 
L 575.529838 520.330456 
L 582.060636 520.837051 
L 588.591434 521.317361 
L 595.122232 521.77126 
L 601.65303 522.198624 
L 608.183828 522.599327 
L 614.714626 522.973242 
L 621.245424 523.320244 
L 627.776222 523.640208 
L 634.30702 523.933008 
L 640.837818 524.198519 
L 647.368616 524.436614 
L 653.899414 524.647168 
L 660.430212 524.830056 
L 666.96101 524.985152 
L 673.491808 525.112331 
L 680.022606 525.211466 
L 686.553404 525.282432 
L 693.084202 525.325104 
L 699.615 525.339356 
" clip-path="url(#pd8d9b3be7a)" style="fill: none; stroke: #ff7f0e; stroke-width: 1.5; stroke-linecap: square"/>
   </g>
   <g id="line2d_101">
    <g clip-path="url(#pd8d9b3be7a)">
     <use xlink:href="#m79279c6cdf" x="208.884309" y="397.882453" style="fill: #ff7f0e; stroke: #ff7f0e"/>
     <use xlink:href="#m79279c6cdf" x="247.677249" y="407.788671" style="fill: #ff7f0e; stroke: #ff7f0e"/>
     <use xlink:href="#m79279c6cdf" x="285.82364" y="451.506504" style="fill: #ff7f0e; stroke: #ff7f0e"/>
     <use xlink:href="#m79279c6cdf" x="363.40952" y="490.369761" style="fill: #ff7f0e; stroke: #ff7f0e"/>
    </g>
   </g>
   <g id="line2d_102">
    <g clip-path="url(#pd8d9b3be7a)">
     <use xlink:href="#m9c0b609922" x="208.884309" y="412.43817" style="stroke: #000000"/>
     <use xlink:href="#m9c0b609922" x="247.677249" y="420.80122" style="stroke: #000000"/>
     <use xlink:href="#m9c0b609922" x="285.82364" y="444.496531" style="stroke: #000000"/>
     <use xlink:href="#m9c0b609922" x="363.40952" y="500.250204" style="stroke: #000000"/>
    </g>
   </g>
   <g id="line2d_103">
    <path d="M 53.066 410.942764 
L 59.596798 410.942764 
L 66.127596 410.942764 
L 72.658394 410.942764 
L 79.189192 410.942764 
L 85.71999 410.942764 
L 92.250788 410.942764 
L 98.781586 410.942764 
L 105.312384 410.942764 
L 111.843182 410.942764 
L 118.37398 410.942764 
L 124.904778 410.942764 
L 131.435576 410.942764 
L 137.966374 410.942764 
L 144.497172 410.942764 
L 151.02797 410.942764 
L 157.558768 410.942764 
L 164.089566 410.942764 
L 170.620364 410.942764 
L 177.151162 410.942764 
L 183.68196 410.942764 
L 190.212758 410.942764 
L 196.743556 410.942764 
L 203.274354 410.942764 
L 209.805152 410.950473 
L 216.335949 411.423854 
L 222.866747 412.553183 
L 229.397545 414.229187 
L 235.928343 416.342594 
L 242.459141 418.784128 
L 248.989939 421.516549 
L 255.520737 426.528532 
L 262.051535 433.891485 
L 268.582333 442.424607 
L 275.113131 450.9471 
L 281.643929 458.278163 
L 288.174727 463.442115 
L 294.705525 467.92378 
L 301.236323 472.259442 
L 307.767121 476.415426 
L 314.297919 480.358053 
L 320.828717 484.053648 
L 327.359515 487.468532 
L 333.890313 490.569029 
L 340.421111 493.321462 
L 346.951909 495.692153 
L 353.482707 497.647426 
L 360.013505 499.153604 
L 366.544303 500.232854 
L 373.075101 501.227194 
L 379.605899 502.20069 
L 386.136697 503.153388 
L 392.667495 504.085337 
L 399.198293 504.996582 
L 405.729091 505.887169 
L 412.259889 506.757146 
L 418.790687 507.606559 
L 425.321485 508.435455 
L 431.852283 509.243881 
L 438.383081 510.031882 
L 444.913879 510.799505 
L 451.444677 511.546798 
L 457.975475 512.273807 
L 464.506273 512.980578 
L 471.037071 513.667158 
L 477.567869 514.333594 
L 484.098667 514.979932 
L 490.629465 515.606219 
L 497.160263 516.212501 
L 503.691061 516.798826 
L 510.221859 517.365239 
L 516.752657 517.911788 
L 523.283455 518.438518 
L 529.814253 518.945477 
L 536.345051 519.432711 
L 542.875848 519.900268 
L 549.406646 520.348192 
L 555.937444 520.776532 
L 562.468242 521.185333 
L 568.99904 521.574642 
L 575.529838 521.944507 
L 582.060636 522.294972 
L 588.591434 522.626086 
L 595.122232 522.937895 
L 601.65303 523.230445 
L 608.183828 523.503783 
L 614.714626 523.757956 
L 621.245424 523.993009 
L 627.776222 524.208991 
L 634.30702 524.405947 
L 640.837818 524.583924 
L 647.368616 524.742969 
L 653.899414 524.883128 
L 660.430212 525.004448 
L 666.96101 525.106975 
L 673.491808 525.190756 
L 680.022606 525.255839 
L 686.553404 525.302268 
L 693.084202 525.330092 
L 699.615 525.339356 
" clip-path="url(#pd8d9b3be7a)" style="fill: none; stroke: #2ca02c; stroke-width: 1.5; stroke-linecap: square"/>
   </g>
   <g id="line2d_104">
    <g clip-path="url(#pd8d9b3be7a)">
     <use xlink:href="#mfefb46dd7a" x="208.884309" y="410.942764" style="fill: #2ca02c; stroke: #2ca02c"/>
     <use xlink:href="#mfefb46dd7a" x="247.677249" y="420.897468" style="fill: #2ca02c; stroke: #2ca02c"/>
     <use xlink:href="#mfefb46dd7a" x="285.82364" y="461.79946" style="fill: #2ca02c; stroke: #2ca02c"/>
     <use xlink:href="#mfefb46dd7a" x="363.40952" y="499.748154" style="fill: #2ca02c; stroke: #2ca02c"/>
    </g>
   </g>
   <g id="line2d_105">
    <g clip-path="url(#pd8d9b3be7a)">
     <use xlink:href="#m9c0b609922" x="208.884309" y="412.43817" style="stroke: #000000"/>
     <use xlink:href="#m9c0b609922" x="247.677249" y="420.80122" style="stroke: #000000"/>
     <use xlink:href="#m9c0b609922" x="285.82364" y="444.496531" style="stroke: #000000"/>
     <use xlink:href="#m9c0b609922" x="363.40952" y="500.250204" style="stroke: #000000"/>
    </g>
   </g>
   <g id="patch_14">
    <path d="M 53.066 532.3975 
L 53.066 377.118333 
" style="fill: none; stroke: #000000; stroke-width: 0.8; stroke-linejoin: miter; stroke-linecap: square"/>
   </g>
   <g id="patch_15">
    <path d="M 699.615 532.3975 
L 699.615 377.118333 
" style="fill: none; stroke: #000000; stroke-width: 0.8; stroke-linejoin: miter; stroke-linecap: square"/>
   </g>
   <g id="patch_16">
    <path d="M 53.066 532.3975 
L 699.615 532.3975 
" style="fill: none; stroke: #000000; stroke-width: 0.8; stroke-linejoin: miter; stroke-linecap: square"/>
   </g>
   <g id="patch_17">
    <path d="M 53.066 377.118333 
L 699.615 377.118333 
" style="fill: none; stroke: #000000; stroke-width: 0.8; stroke-linejoin: miter; stroke-linecap: square"/>
   </g>
  </g>
 </g>
 <defs>
  <clipPath id="pf5337005f6">
   <rect x="53.066" y="10.8" width="646.549" height="155.279167"/>
  </clipPath>
  <clipPath id="p8cc996eb5a">
   <rect x="53.066" y="193.959167" width="646.549" height="155.279167"/>
  </clipPath>
  <clipPath id="pd8d9b3be7a">
   <rect x="53.066" y="377.118333" width="646.549" height="155.279167"/>
  </clipPath>
 </defs>
</svg>
